<svg width="520" height="494" viewBox="0 0 520 494" fill="none" xmlns="http://www.w3.org/2000/svg">
<path d="M429.421 174.986C345.533 222.238 265.118 257.095 202.955 275.278C171.854 284.375 145.457 289.256 125.539 289.489C115.578 289.605 107.37 288.556 101.049 286.378C94.748 284.207 90.4681 280.97 88.0528 276.775C85.6376 272.581 85.0073 267.289 86.3342 260.821C87.6654 254.332 90.9411 246.815 96.1241 238.401C106.489 221.576 124.202 201.612 147.98 179.797C195.507 136.194 266.846 85.5723 350.733 38.3207C434.621 -8.93082 515.036 -43.7883 577.199 -61.9705C608.3 -71.0674 634.697 -75.9493 654.615 -76.1817C664.576 -76.2979 672.784 -75.2487 679.105 -73.0706C685.406 -70.8994 689.686 -67.6632 692.101 -63.4683C694.517 -59.2734 695.147 -53.9815 693.82 -47.5137C692.489 -41.0252 689.213 -33.5076 684.03 -25.0939C673.665 -8.26841 655.952 11.6954 632.174 33.5107C584.647 77.1136 513.308 127.735 429.421 174.986Z"  stroke-opacity="0.8" stroke-width="5"/>
<path d="M369.532 181.866C276.654 156.824 195.071 125.478 138.261 95.083C109.837 79.876 87.74 64.9728 73.5292 51.2996C66.4228 44.4621 61.3849 38.0231 58.4834 32.1019C55.5911 26.1996 54.8866 20.958 56.175 16.341C57.4634 11.724 60.79 7.56925 66.3412 3.94344C71.91 0.306104 79.5851 -2.70518 89.246 -5.02181C108.565 -9.65444 135.306 -11.3897 167.644 -10.2138C232.281 -7.86339 318.716 6.09235 411.594 31.1346C504.472 56.1769 586.055 87.5231 642.866 117.918C671.289 133.125 693.386 148.028 707.597 161.701C714.704 168.539 719.741 174.978 722.643 180.899C725.535 186.801 726.24 192.043 724.951 196.66C723.663 201.277 720.336 205.432 714.785 209.057C709.216 212.695 701.541 215.706 691.88 218.023C672.561 222.655 645.821 224.391 613.482 223.215C548.846 220.864 462.41 206.908 369.532 181.866Z"  stroke-opacity="0.8" stroke-width="5"/>
<path d="M313.43 85.7032C339.107 -6.30794 371.223 -87.133 402.349 -143.419C417.922 -171.58 433.179 -193.473 447.171 -207.554C461.329 -221.802 473.461 -227.34 483.005 -224.767C492.548 -222.194 500.108 -211.346 504.889 -191.992C509.614 -172.864 511.372 -146.384 510.148 -114.354C507.702 -50.3349 493.371 35.2857 467.695 127.297C442.019 219.308 409.902 300.133 378.776 356.419C363.203 384.58 347.947 406.473 333.955 420.554C319.796 434.802 307.664 440.34 298.121 437.767C288.578 435.194 281.018 424.346 276.237 404.992C271.512 385.864 269.754 359.384 270.977 327.354C273.423 263.335 287.754 177.714 313.43 85.7032Z"  stroke-opacity="0.8" stroke-width="5"/>
<path d="M459.403 67.605C507.022 150.311 542.099 229.621 560.341 290.952C569.467 321.636 574.337 347.685 574.518 367.348C574.701 387.248 570.089 399.591 561.519 404.418C552.949 409.245 539.864 406.871 522.654 396.562C505.648 386.376 485.483 368.942 463.458 345.523C419.437 298.714 368.372 228.409 320.752 145.703C273.133 62.9965 238.056 -16.3132 219.814 -77.6437C210.688 -108.328 205.818 -134.377 205.637 -154.04C205.454 -173.94 210.066 -186.283 218.636 -191.11C227.206 -195.938 240.291 -193.563 257.501 -183.254C274.507 -173.068 294.672 -155.634 316.697 -132.215C360.718 -85.4057 411.783 -15.1015 459.403 67.605Z"  stroke-opacity="0.8" stroke-width="5"/>
</svg>
