<svg fill="currentColor" viewBox="0 0 24 34" xmlns="http://www.w3.org/2000/svg">
<path d="M10.3571 23.6C10.3571 24.0376 10.5302 24.4573 10.8383 24.7667C11.1464 25.0762 11.5643 25.25 12 25.25C12.4357 25.25 12.8536 25.0762 13.1617 24.7667C13.4698 24.4573 13.6429 24.0376 13.6429 23.6L18.5714 23.6C19.7691 23.6 20.8911 23.2782 21.8571 22.7173V30.2C21.8571 31.0752 21.511 31.9146 20.8948 32.5335C20.2786 33.1523 19.4429 33.5 18.5714 33.5H5.42857C4.55715 33.5 3.72141 33.1523 3.10522 32.5335C2.48903 31.9146 2.14286 31.0752 2.14286 30.2L2.14286 22.7173C3.10886 23.2782 4.23093 23.6 5.42857 23.6H10.3571ZM13.6429 21.95V17C13.6429 16.5624 13.4698 16.1427 13.1617 15.8333C12.8536 15.5238 12.4357 15.35 12 15.35C11.5643 15.35 11.1464 15.5238 10.8383 15.8333C10.5302 16.1427 10.3571 16.5624 10.3571 17V21.95H5.42857C4.12143 21.95 2.86783 21.4285 1.94355 20.5002C1.01926 19.5719 0.5 18.3128 0.5 17L0.5 12.05C0.5 10.7372 1.01926 9.47813 1.94355 8.54982C2.86783 7.62152 4.12143 7.1 5.42857 7.1L18.5714 7.1C19.8786 7.1 21.1322 7.62152 22.0565 8.54982C22.9807 9.47813 23.5 10.7372 23.5 12.05L23.5 17C23.5 18.3128 22.9807 19.5719 22.0565 20.5002C21.1322 21.4285 19.8786 21.95 18.5714 21.95L13.6429 21.95ZM8.71429 5.45H5.42857C4.86179 5.45 4.31143 5.5226 3.78571 5.6579V2.975C3.78571 2.31859 4.04534 1.68906 4.50749 1.22491C4.96963 0.760758 5.59643 0.5 6.25 0.5C6.90357 0.5 7.53037 0.760758 7.99251 1.22491C8.45466 1.68906 8.71429 2.31859 8.71429 2.975V5.45ZM20.2143 5.6579C19.6776 5.51943 19.1256 5.44958 18.5714 5.45H15.2857V2.975C15.2857 2.31859 15.5453 1.68906 16.0075 1.22491C16.4696 0.760758 17.0964 0.5 17.75 0.5C18.4036 0.5 19.0304 0.760758 19.4925 1.22491C19.9547 1.68906 20.2143 2.31859 20.2143 2.975V5.6579Z"/>
</svg>
