<?xml version="1.0" encoding="utf-8"?>
<!-- Generator: Adobe Illustrator 28.2.0, SVG Export Plug-In . SVG Version: 6.00 Build 0)  -->
<svg version="1.1" id="Layer_1" xmlns="http://www.w3.org/2000/svg" xmlns:xlink="http://www.w3.org/1999/xlink" x="0px" y="0px"
	 viewBox="0 0 1040.2 535.3" style="enable-background:new 0 0 1040.2 535.3;" xml:space="preserve">
<g>
	<path d="M10.3,12.9l1.2,0.7V15l-1.2,0.7L9.1,15v-1.3L10.3,12.9z M47.3,13.7l0.5,0.3v0.5l-0.5,0.3l-0.5-0.3V14L47.3,13.7z
		 M84.3,13.7l0.5,0.3v0.5l-0.5,0.3l-0.5-0.3V14L84.3,13.7z M121.3,10l3.7,2.2v4.3l-3.7,2.2l-3.7-2.2v-4.3L121.3,10z M158.3,3.7
		l9.2,5.3v10.6l-9.2,5.3l-9.2-5.3V9L158.3,3.7z M195.4,4l8.9,5.1v10.3l-8.9,5.1l-8.9-5.1V9.1L195.4,4z M232.4,9.8l3.8,2.2v4.4
		l-3.8,2.2l-3.8-2.2v-4.4L232.4,9.8z M269.4,9l4.6,2.6v5.3l-4.6,2.6l-4.6-2.6v-5.3L269.4,9z M306.4,7.8l5.6,3.2v6.4l-5.6,3.2
		l-5.6-3.2v-6.4L306.4,7.8z M343.4,12.7l1.3,0.8v1.5l-1.3,0.8l-1.3-0.8v-1.5L343.4,12.7z M380.4,14.3L380.4,14.3L380.4,14.3
		L380.4,14.3L380.4,14.3L380.4,14.3z M417.4,10.8l3,1.7V16l-3,1.7l-3-1.7v-3.5L417.4,10.8z M454.4,3.1l9.7,5.6v11.2l-9.7,5.6
		l-9.7-5.6V8.7L454.4,3.1z M491.5,0l12.4,7.1v14.3l-12.4,7.1l-12.4-7.1V7.1L491.5,0z M528.5,3.5l9.3,5.4v10.8l-9.3,5.4l-9.3-5.4V8.9
		L528.5,3.5z M565.5,8l5.5,3.2v6.3l-5.5,3.2l-5.5-3.2v-6.3L565.5,8z M602.5,6.4l6.8,3.9v7.9l-6.8,3.9l-6.8-3.9v-7.9L602.5,6.4z
		 M639.5,7.8l5.6,3.2v6.4l-5.6,3.2l-5.6-3.2v-6.4L639.5,7.8z M676.5,14.3L676.5,14.3L676.5,14.3L676.5,14.3L676.5,14.3L676.5,14.3z
		 M713.5,9.4l4.2,2.4v4.9l-4.2,2.4l-4.2-2.4v-4.9L713.5,9.4z M750.5,7.8l5.6,3.2v6.5l-5.6,3.2l-5.6-3.2v-6.5L750.5,7.8z M787.6,13.2
		l0.9,0.5v1.1l-0.9,0.5l-0.9-0.5v-1.1L787.6,13.2z M824.6,12.9l1.2,0.7V15l-1.2,0.7l-1.2-0.7v-1.3L824.6,12.9z M861.6,7.1l6.2,3.6
		v7.2l-6.2,3.6l-6.2-3.6v-7.2L861.6,7.1z M898.6,7.1l6.3,3.6v7.2l-6.3,3.6l-6.3-3.6v-7.2L898.6,7.1z M935.6,12.4l1.6,0.9v1.9
		l-1.6,0.9l-1.6-0.9v-1.9L935.6,12.4z M972.6,10.3l3.5,2v4l-3.5,2l-3.5-2v-4L972.6,10.3z M1009.6,4.6l8.4,4.8v9.7l-8.4,4.8l-8.4-4.8
		V9.4L1009.6,4.6z M28.8,45.5l0.4,0.2v0.4l-0.4,0.2l-0.4-0.2v-0.4L28.8,45.5z M65.8,46L65.8,46L65.8,46L65.8,46L65.8,46L65.8,46z
		 M102.8,46L102.8,46L102.8,46L102.8,46L102.8,46L102.8,46z M139.8,42.2l3.2,1.9v3.7l-3.2,1.9l-3.2-1.9v-3.7L139.8,42.2z
		 M176.9,38.4l6.6,3.8v7.6l-6.6,3.8l-6.6-3.8v-7.6L176.9,38.4z M213.9,41.3l4.1,2.3v4.7l-4.1,2.3l-4.1-2.3v-4.7L213.9,41.3z
		 M250.9,44.2l1.5,0.9v1.7l-1.5,0.9l-1.5-0.9v-1.7L250.9,44.2z M287.9,43.6l2.1,1.2v2.4l-2.1,1.2l-2.1-1.2v-2.4L287.9,43.6z
		 M324.9,44.9l0.9,0.5v1.1l-0.9,0.5l-0.9-0.5v-1.1L324.9,44.9z M361.9,43.7l1.9,1.1v2.2l-1.9,1.1l-1.9-1.1v-2.2L361.9,43.7z
		 M398.9,38.4l6.5,3.8v7.5l-6.5,3.8l-6.5-3.8v-7.5L398.9,38.4z M435.9,33.5l10.8,6.2v12.5l-10.8,6.2l-10.8-6.2V39.7L435.9,33.5z
		 M473,31.6l12.4,7.2v14.3L473,60.3l-12.4-7.2V38.8L473,31.6z M510,32.7l11.5,6.6v13.3L510,59.2l-11.5-6.6V39.3L510,32.7z M547,34.8
		l9.7,5.6v11.1l-9.7,5.6l-9.7-5.6V40.4L547,34.8z M584,36.6l8.1,4.7v9.3l-8.1,4.7l-8.1-4.7v-9.3L584,36.6z M621,40.4l4.8,2.8v5.6
		l-4.8,2.8l-4.8-2.8v-5.6L621,40.4z M658,44.6l1.2,0.7v1.4l-1.2,0.7l-1.2-0.7v-1.4L658,44.6z M695,44.6l1.2,0.7v1.3l-1.2,0.7
		l-1.2-0.7v-1.3L695,44.6z M732,41.9l3.5,2V48l-3.5,2l-3.5-2v-4.1L732,41.9z M769,44.3l1.5,0.9v1.7l-1.5,0.9l-1.5-0.9v-1.7L769,44.3
		z M806.1,40.5l4.7,2.7v5.5l-4.7,2.7l-4.7-2.7v-5.5L806.1,40.5z M843.1,34.1l10.2,5.9v11.8l-10.2,5.9l-10.2-5.9V40.1L843.1,34.1z
		 M880.1,32.5l11.7,6.7v13.5l-11.7,6.7l-11.7-6.7V39.2L880.1,32.5z M917.1,36l8.6,5v9.9l-8.6,5l-8.6-5V41L917.1,36z M954.1,39.8
		l5.3,3.1V49l-5.3,3.1l-5.3-3.1v-6.2L954.1,39.8z M991.1,37.8l7,4.1V50l-7,4.1l-7-4.1v-8.1L991.1,37.8z M1028.1,36.6l8.1,4.7v9.3
		l-8.1,4.7l-8.1-4.7v-9.3L1028.1,36.6z M10.3,74.8l2.5,1.4v2.9l-2.5,1.4l-2.5-1.4v-2.9L10.3,74.8z M47.3,77.1l0.4,0.3v0.5l-0.4,0.3
		l-0.4-0.3v-0.5L47.3,77.1z M84.3,77.6L84.3,77.6L84.3,77.6L84.3,77.6L84.3,77.6L84.3,77.6z M121.3,77.6L121.3,77.6L121.3,77.6
		L121.3,77.6L121.3,77.6L121.3,77.6z M158.3,76.2l1.2,0.7v1.4l-1.2,0.7l-1.2-0.7v-1.4L158.3,76.2z M195.4,75.8l1.6,0.9v1.8l-1.6,0.9
		l-1.6-0.9v-1.8L195.4,75.8z M232.4,77.6L232.4,77.6L232.4,77.6L232.4,77.6L232.4,77.6L232.4,77.6z M269.4,77.1l0.4,0.3v0.5
		l-0.4,0.3l-0.4-0.3v-0.5L269.4,77.1z M306.4,76.8l0.8,0.4v0.9l-0.8,0.4l-0.8-0.4v-0.9L306.4,76.8z M343.4,72.3L348,75v5.3l-4.6,2.7
		l-4.6-2.7V75L343.4,72.3z M380.4,66.7l9.4,5.5v10.9l-9.4,5.5l-9.4-5.5V72.2L380.4,66.7z M417.4,65.1l10.9,6.3v12.5l-10.9,6.3
		l-10.9-6.3V71.4L417.4,65.1z M454.4,66.1l10,5.8v11.6l-10,5.8l-10-5.8V71.8L454.4,66.1z M491.5,68.4l8,4.6v9.2l-8,4.6l-8-4.6V73
		L491.5,68.4z M528.5,67.9l8.4,4.9v9.8l-8.4,4.9l-8.4-4.9v-9.8L528.5,67.9z M565.5,66.7l9.5,5.5v11l-9.5,5.5l-9.5-5.5v-11
		L565.5,66.7z M602.5,71.1l5.6,3.2v6.5l-5.6,3.2l-5.6-3.2v-6.5L602.5,71.1z M639.5,76.8l0.8,0.4v0.9l-0.8,0.4l-0.8-0.4v-0.9
		L639.5,76.8z M676.5,76l1.5,0.8v1.7l-1.5,0.8l-1.5-0.8v-1.7L676.5,76z M713.5,76.8l0.8,0.4v0.9l-0.8,0.4l-0.8-0.4v-0.9L713.5,76.8z
		 M750.5,77.1l0.4,0.3v0.5l-0.4,0.3l-0.4-0.3v-0.5L750.5,77.1z M787.6,71.7l5.1,2.9v5.9l-5.1,2.9l-5.1-2.9v-5.9L787.6,71.7z
		 M824.6,65.9l10.1,5.9v11.7l-10.1,5.9l-10.1-5.9V71.8L824.6,65.9z M861.6,63.9l11.9,6.8v13.7l-11.9,6.8l-11.9-6.8V70.8L861.6,63.9z
		 M898.6,64.6l11.3,6.5v13l-11.3,6.5l-11.3-6.5v-13L898.6,64.6z M935.6,66.6l9.6,5.5v11l-9.6,5.5l-9.6-5.5v-11L935.6,66.6z
		 M972.6,68.9l7.6,4.4V82l-7.6,4.4l-7.6-4.4v-8.7L972.6,68.9z M1009.6,69.2l7.3,4.2v8.5l-7.3,4.2l-7.3-4.2v-8.5L1009.6,69.2z
		 M28.8,106.9l2,1.2v2.4l-2,1.2l-2-1.2v-2.4L28.8,106.9z M65.8,109.3L65.8,109.3L65.8,109.3L65.8,109.3L65.8,109.3L65.8,109.3z
		 M102.8,106.4l2.5,1.5v2.9l-2.5,1.5l-2.5-1.5v-2.9L102.8,106.4z M139.8,102.4l5.9,3.4v6.9l-5.9,3.4l-5.9-3.4v-6.9L139.8,102.4z
		 M176.9,104.3l4.3,2.5v5l-4.3,2.5l-4.3-2.5v-5L176.9,104.3z M213.9,105.9l3,1.7v3.4l-3,1.7l-3-1.7v-3.4L213.9,105.9z M250.9,106.2
		l2.7,1.5v3.1l-2.7,1.5l-2.7-1.5v-3.1L250.9,106.2z M287.9,109.3L287.9,109.3L287.9,109.3L287.9,109.3L287.9,109.3L287.9,109.3z
		 M324.9,104.1l4.5,2.6v5.2l-4.5,2.6l-4.5-2.6v-5.2L324.9,104.1z M361.9,96.9l10.7,6.2v12.4l-10.7,6.2l-10.7-6.2v-12.4L361.9,96.9z
		 M398.9,97.2l10.4,6v12.1l-10.4,6l-10.4-6v-12.1L398.9,97.2z M435.9,102.8l5.7,3.3v6.5l-5.7,3.3l-5.7-3.3V106L435.9,102.8z
		 M473,107.8l1.3,0.7v1.5l-1.3,0.7l-1.3-0.7v-1.5L473,107.8z M510,107.7l1.4,0.8v1.6l-1.4,0.8l-1.4-0.8v-1.6L510,107.7z M547,102.2
		l6.2,3.6v7.1l-6.2,3.6l-6.2-3.6v-7.1L547,102.2z M584,102.9l5.5,3.2v6.4l-5.5,3.2l-5.5-3.2v-6.4L584,102.9z M621,108.1l1.1,0.6v1.2
		l-1.1,0.6l-1.1-0.6v-1.2L621,108.1z M658,104.2l4.5,2.6v5.1l-4.5,2.6l-4.5-2.6v-5.1L658,104.2z M695,102.9l5.6,3.2v6.5l-5.6,3.2
		l-5.6-3.2v-6.5L695,102.9z M732,106.5l2.5,1.4v2.8l-2.5,1.4l-2.5-1.4v-2.8L732,106.5z M769,102.5l5.9,3.4v6.8l-5.9,3.4l-5.9-3.4
		v-6.8L769,102.5z M806.1,98.2l9.6,5.5v11.1l-9.6,5.5l-9.6-5.5v-11.1L806.1,98.2z M843.1,99.7l8.3,4.8v9.6l-8.3,4.8l-8.3-4.8v-9.6
		L843.1,99.7z M880.1,101.9l6.4,3.7v7.4l-6.4,3.7l-6.4-3.7v-7.4L880.1,101.9z M917.1,100.8l7.4,4.2v8.5l-7.4,4.2l-7.4-4.2v-8.5
		L917.1,100.8z M954.1,101.3l6.9,4v8l-6.9,4l-6.9-4v-8L954.1,101.3z M991.1,104.8l3.9,2.3v4.5l-3.9,2.3l-3.9-2.3v-4.5L991.1,104.8z
		 M1028.1,104.2l4.4,2.6v5.1l-4.4,2.6l-4.4-2.6v-5.1L1028.1,104.2z M10.3,140.4l0.5,0.3v0.5l-0.5,0.3l-0.5-0.3v-0.5L10.3,140.4z
		 M47.3,140.5l0.4,0.2v0.5l-0.4,0.2l-0.4-0.2v-0.5L47.3,140.5z M84.3,136.3l4.1,2.4v4.7l-4.1,2.4l-4.1-2.4v-4.7L84.3,136.3z
		 M121.3,129.8l9.7,5.6v11.2l-9.7,5.6l-9.7-5.6v-11.2L121.3,129.8z M158.3,129.6l9.9,5.7v11.4l-9.9,5.7l-9.9-5.7v-11.4L158.3,129.6z
		 M195.4,132.7l7.2,4.2v8.3l-7.2,4.2l-7.2-4.2v-8.3L195.4,132.7z M232.4,133.6l6.4,3.7v7.4l-6.4,3.7l-6.4-3.7v-7.4L232.4,133.6z
		 M269.4,137.7l2.9,1.7v3.3l-2.9,1.7l-2.9-1.7v-3.3L269.4,137.7z M306.4,139.8l1,0.6v1.2l-1,0.6l-1-0.6v-1.2L306.4,139.8z
		 M343.4,133.6l6.4,3.7v7.4l-6.4,3.7l-6.4-3.7v-7.4L343.4,133.6z M380.4,132.1l7.7,4.5v8.9l-7.7,4.5l-7.7-4.5v-8.9L380.4,132.1z
		 M417.4,137l3.5,2v4l-3.5,2l-3.5-2v-4L417.4,137z M454.4,140.3l0.6,0.3v0.7l-0.6,0.3l-0.6-0.3v-0.7L454.4,140.3z M491.5,141
		L491.5,141L491.5,141L491.5,141L491.5,141L491.5,141z M528.5,139.5l1.3,0.7v1.5l-1.3,0.7l-1.3-0.7v-1.5L528.5,139.5z M565.5,134.8
		l5.4,3.1v6.2l-5.4,3.1l-5.4-3.1v-6.2L565.5,134.8z M602.5,134.8l5.3,3.1v6.2l-5.3,3.1l-5.3-3.1v-6.2L602.5,134.8z M639.5,133.9
		l6.1,3.5v7l-6.1,3.5l-6.1-3.5v-7L639.5,133.9z M676.5,131l8.7,5v10l-8.7,5l-8.7-5v-10L676.5,131z M713.5,132.4l7.4,4.3v8.5
		l-7.4,4.3l-7.4-4.3v-8.5L713.5,132.4z M750.5,134.3l5.8,3.4v6.7l-5.8,3.4l-5.8-3.4v-6.7L750.5,134.3z M787.6,132.4l7.4,4.3v8.6
		l-7.4,4.3l-7.4-4.3v-8.6L787.6,132.4z M824.6,135.1l5.1,3v5.9l-5.1,3l-5.1-3V138L824.6,135.1z M861.6,139.8l1,0.6v1.2l-1,0.6
		l-1-0.6v-1.2L861.6,139.8z M898.6,140l0.8,0.5v0.9l-0.8,0.5l-0.8-0.5v-0.9L898.6,140z M935.6,138.8l1.9,1.1v2.2l-1.9,1.1l-1.9-1.1
		v-2.2L935.6,138.8z M972.6,139.8l1,0.6v1.2l-1,0.6l-1-0.6v-1.2L972.6,139.8z M1009.6,140.5l0.4,0.2v0.5l-0.4,0.2l-0.4-0.2v-0.5
		L1009.6,140.5z M28.8,172.6L28.8,172.6L28.8,172.6L28.8,172.6L28.8,172.6L28.8,172.6z M65.8,167.7l4.3,2.5v5l-4.3,2.5l-4.3-2.5v-5
		L65.8,167.7z M102.8,160.1l10.9,6.3v12.6l-10.9,6.3l-10.9-6.3v-12.6L102.8,160.1z M139.8,159.5l11.3,6.6v13.1l-11.3,6.6l-11.3-6.6
		v-13.1L139.8,159.5z M176.9,162.3l8.9,5.2v10.3l-8.9,5.2l-8.9-5.2v-10.3L176.9,162.3z M213.9,166.7l5.2,3v6l-5.2,3l-5.2-3v-6
		L213.9,166.7z M250.9,168.3l3.8,2.2v4.4l-3.8,2.2l-3.8-2.2v-4.4L250.9,168.3z M287.9,168.6l3.5,2v4l-3.5,2l-3.5-2v-4L287.9,168.6z
		 M324.9,168.8l3.3,1.9v3.8l-3.3,1.9l-3.3-1.9v-3.8L324.9,168.8z M361.9,170.3l2,1.2v2.3l-2,1.2l-2-1.2v-2.3L361.9,170.3z
		 M398.9,172.1l0.4,0.3v0.5l-0.4,0.3l-0.4-0.3v-0.5L398.9,172.1z M435.9,172.6L435.9,172.6L435.9,172.6L435.9,172.6L435.9,172.6
		L435.9,172.6z M473,169.5l2.7,1.6v3.1l-2.7,1.6l-2.7-1.6v-3.1L473,169.5z M510,166.9l5,2.9v5.8l-5,2.9l-5-2.9v-5.8L510,166.9z
		 M547,166.7l5.1,3v5.9l-5.1,3l-5.1-3v-5.9L547,166.7z M584,164.9l6.7,3.9v7.7l-6.7,3.9l-6.7-3.9v-7.7L584,164.9z M621,163.1
		l8.2,4.8v9.5l-8.2,4.8l-8.2-4.8v-9.5L621,163.1z M658,162.6l8.7,5v10.1l-8.7,5l-8.7-5v-10.1L658,162.6z M695,163.6l7.8,4.5v9
		l-7.8,4.5l-7.8-4.5v-9L695,163.6z M732,165.6l6.1,3.5v7l-6.1,3.5l-6.1-3.5v-7L732,165.6z M769,167.9l4.1,2.4v4.7l-4.1,2.4L765,175
		v-4.7L769,167.9z M806.1,171.3l1.2,0.7v1.3l-1.2,0.7l-1.2-0.7V172L806.1,171.3z M843.1,172.6L843.1,172.6L843.1,172.6L843.1,172.6
		L843.1,172.6L843.1,172.6z M880.1,171.9l0.6,0.4v0.7l-0.6,0.4l-0.6-0.4v-0.7L880.1,171.9z M917.1,172.1l0.4,0.3v0.5l-0.4,0.3
		l-0.4-0.3v-0.5L917.1,172.1z M954.1,172.1l0.4,0.3v0.5l-0.4,0.3l-0.4-0.3v-0.5L954.1,172.1z M991.1,172.6L991.1,172.6L991.1,172.6
		L991.1,172.6L991.1,172.6L991.1,172.6z M1028.1,172.6L1028.1,172.6L1028.1,172.6L1028.1,172.6L1028.1,172.6L1028.1,172.6z
		 M10.3,203.1l1.1,0.6v1.2l-1.1,0.6l-1.1-0.6v-1.2L10.3,203.1z M47.3,200.3l3.5,2v4l-3.5,2l-3.5-2v-4L47.3,200.3z M84.3,194.9
		l8.2,4.7v9.5l-8.2,4.7l-8.2-4.7v-9.5L84.3,194.9z M121.3,194.1l8.9,5.1v10.2l-8.9,5.1l-8.9-5.1v-10.2L121.3,194.1z M158.3,194.9
		l8.2,4.7v9.4l-8.2,4.7l-8.2-4.7v-9.4L158.3,194.9z M195.4,197.4l6,3.5v6.9l-6,3.5l-6-3.5v-6.9L195.4,197.4z M232.4,203l1.2,0.7v1.3
		l-1.2,0.7l-1.2-0.7v-1.3L232.4,203z M269.4,199.4l4.3,2.5v4.9l-4.3,2.5l-4.3-2.5v-4.9L269.4,199.4z M306.4,197.3l6.1,3.5v7
		l-6.1,3.5l-6.1-3.5v-7L306.4,197.3z M343.4,202.5l1.5,0.9v1.8l-1.5,0.9l-1.5-0.9v-1.8L343.4,202.5z M380.4,203.6l0.6,0.3v0.7
		l-0.6,0.3l-0.6-0.3V204L380.4,203.6z M417.4,204.3L417.4,204.3L417.4,204.3L417.4,204.3L417.4,204.3L417.4,204.3z M454.4,197.4
		l6,3.5v6.9l-6,3.5l-6-3.5v-6.9L454.4,197.4z M491.5,192.1l10.6,6.1v12.2l-10.6,6.1l-10.6-6.1v-12.2L491.5,192.1z M528.5,194.6
		l8.4,4.9v9.7l-8.4,4.9l-8.4-4.9v-9.7L528.5,194.6z M565.5,199.2l4.5,2.6v5.1l-4.5,2.6l-4.5-2.6v-5.1L565.5,199.2z M602.5,196.2l7,4
		v8.1l-7,4l-7-4v-8.1L602.5,196.2z M639.5,195.1l8,4.6v9.2l-8,4.6l-8-4.6v-9.2L639.5,195.1z M676.5,198.6l5,2.9v5.8l-5,2.9l-5-2.9
		v-5.8L676.5,198.6z M713.5,198.7l4.9,2.8v5.6l-4.9,2.8l-4.9-2.8v-5.6L713.5,198.7z M750.5,199.6l4.1,2.4v4.8l-4.1,2.4l-4.1-2.4
		v-4.8L750.5,199.6z M787.6,204.3L787.6,204.3L787.6,204.3L787.6,204.3L787.6,204.3L787.6,204.3z M824.6,204.3L824.6,204.3
		L824.6,204.3L824.6,204.3L824.6,204.3L824.6,204.3z M861.6,203.5l0.7,0.4v0.8l-0.7,0.4l-0.7-0.4v-0.8L861.6,203.5z M898.6,203.2
		l1,0.6v1.2l-1,0.6l-1-0.6v-1.2L898.6,203.2z M935.6,203.8l0.4,0.2v0.5l-0.4,0.2l-0.4-0.2v-0.5L935.6,203.8z M972.6,202.4l1.7,1v2
		l-1.7,1l-1.7-1v-2L972.6,202.4z M1009.6,197.5l5.9,3.4v6.9l-5.9,3.4l-5.9-3.4v-6.9L1009.6,197.5z M28.8,228l6.9,4v8l-6.9,4l-6.9-4
		v-8L28.8,228z M65.8,229.5l5.6,3.3v6.5l-5.6,3.3l-5.6-3.3v-6.5L65.8,229.5z M102.8,232.2l3.3,1.9v3.8l-3.3,1.9l-3.3-1.9v-3.8
		L102.8,232.2z M139.8,232.5l3,1.7v3.4l-3,1.7l-3-1.7v-3.4L139.8,232.5z M176.9,228.9l6.1,3.5v7.1l-6.1,3.5l-6.1-3.5v-7.1
		L176.9,228.9z M213.9,229.8l5.3,3.1v6.2l-5.3,3.1l-5.3-3.1v-6.2L213.9,229.8z M250.9,231.2l4.1,2.4v4.8l-4.1,2.4l-4.1-2.4v-4.8
		L250.9,231.2z M287.9,228.2l6.7,3.9v7.8l-6.7,3.9l-6.7-3.9v-7.8L287.9,228.2z M324.9,231.8l3.6,2.1v4.2l-3.6,2.1l-3.6-2.1v-4.2
		L324.9,231.8z M361.9,235.5l0.4,0.2v0.5l-0.4,0.2l-0.4-0.2v-0.5L361.9,235.5z M398.9,234.9l0.9,0.5v1.1l-0.9,0.5l-0.9-0.5v-1.1
		L398.9,234.9z M435.9,229.4l5.7,3.3v6.6l-5.7,3.3l-5.7-3.3v-6.6L435.9,229.4z M473,222.5l11.7,6.8v13.5l-11.7,6.8l-11.7-6.8v-13.5
		L473,222.5z M510,224l10.4,6v12l-10.4,6l-10.4-6v-12L510,224z M547,232.4l3.1,1.8v3.6l-3.1,1.8l-3.1-1.8v-3.6L547,232.4z
		 M584,233.6l2.1,1.2v2.4l-2.1,1.2l-2.1-1.2v-2.4L584,233.6z M621,230.3l4.9,2.8v5.7l-4.9,2.8l-4.9-2.8v-5.7L621,230.3z M658,233.3
		l2.3,1.3v2.7l-2.3,1.3l-2.3-1.3v-2.7L658,233.3z M695,233.2l2.5,1.4v2.8l-2.5,1.4l-2.5-1.4v-2.8L695,233.2z M732,227.9l7,4v8.1
		l-7,4l-7-4V232L732,227.9z M769,231.3l4.1,2.4v4.7l-4.1,2.4l-4.1-2.4v-4.7L769,231.3z M806.1,235.5l0.4,0.2v0.5l-0.4,0.2l-0.4-0.2
		v-0.5L806.1,235.5z M843.1,233.2l2.4,1.4v2.8l-2.4,1.4l-2.4-1.4v-2.8L843.1,233.2z M880.1,229.1l6,3.5v6.9l-6,3.5l-6-3.5v-6.9
		L880.1,229.1z M917.1,232l3.5,2v4l-3.5,2l-3.5-2v-4L917.1,232z M954.1,232.9l2.7,1.6v3.1l-2.7,1.6l-2.7-1.6v-3.1L954.1,232.9z
		 M991.1,227l7.8,4.5v9l-7.8,4.5l-7.8-4.5v-9L991.1,227z M1028.1,223.8l10.5,6.1v12.2l-10.5,6.1l-10.5-6.1v-12.2L1028.1,223.8z
		 M10.3,255.8l10.3,5.9v11.9l-10.3,5.9L0,273.6v-11.9L10.3,255.8z M47.3,259.1l7.4,4.3v8.6l-7.4,4.3l-7.4-4.3v-8.6L47.3,259.1z
		 M84.3,266l1.5,0.8v1.7l-1.5,0.8l-1.5-0.8v-1.7L84.3,266z M121.3,267.7L121.3,267.7L121.3,267.7L121.3,267.7L121.3,267.7
		L121.3,267.7z M158.3,266.9l0.6,0.4v0.7l-0.6,0.4l-0.6-0.4v-0.7L158.3,266.9z M195.4,263.4l3.7,2.1v4.2l-3.7,2.1l-3.7-2.1v-4.2
		L195.4,263.4z M232.4,264.5l2.8,1.6v3.2l-2.8,1.6l-2.8-1.6v-3.2L232.4,264.5z M269.4,264.7l2.6,1.5v3l-2.6,1.5l-2.6-1.5v-3
		L269.4,264.7z M306.4,265.2l2.1,1.2v2.4l-2.1,1.2l-2.1-1.2v-2.4L306.4,265.2z M343.4,267.2l0.4,0.3v0.5l-0.4,0.3l-0.4-0.3v-0.5
		L343.4,267.2z M380.4,267.7L380.4,267.7L380.4,267.7L380.4,267.7L380.4,267.7L380.4,267.7z M417.4,267.2l0.4,0.3v0.5l-0.4,0.3
		l-0.4-0.3v-0.5L417.4,267.2z M454.4,259.1l7.4,4.3v8.6l-7.4,4.3L447,272v-8.6L454.4,259.1z M491.5,255l10.9,6.3V274l-10.9,6.3
		l-10.9-6.3v-12.6L491.5,255z M528.5,258.3l8.1,4.7v9.3l-8.1,4.7l-8.1-4.7V263L528.5,258.3z M565.5,263.8l3.3,1.9v3.8l-3.3,1.9
		l-3.3-1.9v-3.8L565.5,263.8z M602.5,267.2l0.4,0.3v0.5l-0.4,0.3l-0.4-0.3v-0.5L602.5,267.2z M639.5,267.7L639.5,267.7L639.5,267.7
		L639.5,267.7L639.5,267.7L639.5,267.7z M676.5,267.2l0.4,0.3v0.5l-0.4,0.3l-0.4-0.3v-0.5L676.5,267.2z M713.5,262.3l4.7,2.7v5.4
		l-4.7,2.7l-4.7-2.7V265L713.5,262.3z M750.5,256.5l9.6,5.6v11.1l-9.6,5.6l-9.6-5.6v-11.1L750.5,256.5z M787.6,259.5l7,4.1v8.1
		l-7,4.1l-7-4.1v-8.1L787.6,259.5z M824.6,265.9l1.5,0.9v1.8l-1.5,0.9l-1.5-0.9v-1.8L824.6,265.9z M861.6,262.3l4.6,2.7v5.3
		l-4.6,2.7l-4.6-2.7V265L861.6,262.3z M898.6,258.3l8.1,4.7v9.4l-8.1,4.7l-8.1-4.7V263L898.6,258.3z M935.6,258.7l7.7,4.5v8.9
		l-7.7,4.5l-7.7-4.5v-8.9L935.6,258.7z M972.6,259.3l7.2,4.2v8.3l-7.2,4.2l-7.2-4.2v-8.3L972.6,259.3z M1009.6,255.7l10.4,6v12
		l-10.4,6l-10.4-6v-12L1009.6,255.7z M28.8,290.5l7.6,4.4v8.8l-7.6,4.4l-7.6-4.4v-8.8L28.8,290.5z M65.8,295.7l3.1,1.8v3.6l-3.1,1.8
		l-3.1-1.8v-3.6L65.8,295.7z M102.8,298.9l0.4,0.2v0.5l-0.4,0.2l-0.4-0.2v-0.5L102.8,298.9z M139.8,299.3L139.8,299.3L139.8,299.3
		L139.8,299.3L139.8,299.3L139.8,299.3z M176.9,299.3L176.9,299.3L176.9,299.3L176.9,299.3L176.9,299.3L176.9,299.3z M213.9,298.5
		l0.7,0.4v0.8l-0.7,0.4l-0.7-0.4v-0.8L213.9,298.5z M250.9,299.3L250.9,299.3L250.9,299.3L250.9,299.3L250.9,299.3L250.9,299.3z
		 M287.9,299.3L287.9,299.3L287.9,299.3L287.9,299.3L287.9,299.3L287.9,299.3z M324.9,298.9l0.4,0.2v0.5l-0.4,0.2l-0.4-0.2v-0.5
		L324.9,298.9z M361.9,299.3L361.9,299.3L361.9,299.3L361.9,299.3L361.9,299.3L361.9,299.3z M398.9,299.3L398.9,299.3L398.9,299.3
		L398.9,299.3L398.9,299.3L398.9,299.3z M435.9,295.8l3.1,1.8v3.5l-3.1,1.8l-3.1-1.8v-3.5L435.9,295.8z M473,289.4l8.6,5v9.9l-8.6,5
		l-8.6-5v-9.9L473,289.4z M510,289.2l8.8,5.1v10.2l-8.8,5.1l-8.8-5.1v-10.2L510,289.2z M547,291l7.2,4.2v8.3l-7.2,4.2l-7.2-4.2v-8.3
		L547,291z M584,295.7l3.1,1.8v3.6L584,303l-3.1-1.8v-3.6L584,295.7z M621,299.3L621,299.3L621,299.3L621,299.3L621,299.3L621,299.3
		z M658,298.7l0.5,0.3v0.6l-0.5,0.3l-0.5-0.3V299L658,298.7z M695,298.2l1,0.6v1.2l-1,0.6l-1-0.6v-1.2L695,298.2z M732,291.2l7,4
		v8.1l-7,4l-7-4v-8.1L732,291.2z M769,288.4l9.5,5.5v11l-9.5,5.5l-9.5-5.5v-11L769,288.4z M806.1,292.7l5.8,3.3v6.6l-5.8,3.3
		l-5.8-3.3V296L806.1,292.7z M843.1,298.7l0.6,0.3v0.7l-0.6,0.3l-0.6-0.3V299L843.1,298.7z M880.1,291.5l6.7,3.9v7.8l-6.7,3.9
		l-6.7-3.9v-7.8L880.1,291.5z M917.1,287.1l10.6,6.1v12.2l-10.6,6.1l-10.6-6.1v-12.2L917.1,287.1z M954.1,289l8.9,5.2v10.3l-8.9,5.2
		l-8.9-5.2v-10.3L954.1,289z M991.1,291.3l7,4v8l-7,4l-7-4v-8L991.1,291.3z M1028.1,289.5l8.5,4.9v9.8l-8.5,4.9l-8.5-4.9v-9.8
		L1028.1,289.5z M10.3,327.6l3,1.7v3.4l-3,1.7l-3-1.7v-3.4L10.3,327.6z M47.3,328.1l2.5,1.4v2.9l-2.5,1.4l-2.5-1.4v-2.9L47.3,328.1z
		 M84.3,324.7l5.5,3.2v6.3l-5.5,3.2l-5.5-3.2v-6.3L84.3,324.7z M121.3,328.1l2.5,1.4v2.9l-2.5,1.4l-2.5-1.4v-2.9L121.3,328.1z
		 M158.3,330.6l0.4,0.2v0.4l-0.4,0.2l-0.4-0.2v-0.4L158.3,330.6z M195.4,328l2.6,1.5v3l-2.6,1.5l-2.6-1.5v-3L195.4,328z
		 M232.4,326.5l3.9,2.2v4.5l-3.9,2.2l-3.9-2.2v-4.5L232.4,326.5z M269.4,326.3l4.1,2.4v4.7l-4.1,2.4l-4.1-2.4v-4.7L269.4,326.3z
		 M306.4,325.5l4.8,2.8v5.5l-4.8,2.8l-4.8-2.8v-5.5L306.4,325.5z M343.4,326.8l3.6,2.1v4.2l-3.6,2.1l-3.6-2.1v-4.2L343.4,326.8z
		 M380.4,329.9l0.9,0.5v1.1l-0.9,0.5l-0.9-0.5v-1.1L380.4,329.9z M417.4,328.7l2,1.2v2.3l-2,1.2l-2-1.2v-2.3L417.4,328.7z
		 M454.4,323.2l6.7,3.9v7.8l-6.7,3.9l-6.7-3.9v-7.8L454.4,323.2z M491.5,322.8l7.1,4.1v8.2l-7.1,4.1l-7.1-4.1v-8.2L491.5,322.8z
		 M528.5,325.6l4.7,2.7v5.4l-4.7,2.7l-4.7-2.7v-5.4L528.5,325.6z M565.5,325.5l4.7,2.7v5.5l-4.7,2.7l-4.7-2.7v-5.5L565.5,325.5z
		 M602.5,328.3l2.3,1.3v2.7l-2.3,1.3l-2.3-1.3v-2.7L602.5,328.3z M639.5,326.8l3.6,2.1v4.2l-3.6,2.1l-3.6-2.1v-4.2L639.5,326.8z
		 M676.5,325.8l4.5,2.6v5.2l-4.5,2.6l-4.5-2.6v-5.2L676.5,325.8z M713.5,329.5l1.3,0.7v1.5l-1.3,0.7l-1.3-0.7v-1.5L713.5,329.5z
		 M750.5,326.9l3.6,2.1v4.1l-3.6,2.1l-3.6-2.1v-4.1L750.5,326.9z M787.6,323.3l6.7,3.9v7.7l-6.7,3.9l-6.7-3.9v-7.7L787.6,323.3z
		 M824.6,326.4l4,2.3v4.6l-4,2.3l-4-2.3v-4.6L824.6,326.4z M861.6,326.8l3.6,2.1v4.2l-3.6,2.1l-3.6-2.1v-4.2L861.6,326.8z
		 M898.6,319.4l10.1,5.8v11.6l-10.1,5.8l-10.1-5.8v-11.6L898.6,319.4z M935.6,317.7l11.5,6.7v13.3l-11.5,6.7l-11.5-6.7v-13.3
		L935.6,317.7z M972.6,323.9l6.1,3.5v7.1l-6.1,3.5l-6.1-3.5v-7.1L972.6,323.9z M1009.6,328.1l2.5,1.4v2.9l-2.5,1.4l-2.5-1.4v-2.9
		L1009.6,328.1z M28.8,361.9l0.6,0.4v0.7l-0.6,0.4l-0.6-0.4v-0.7L28.8,361.9z M65.8,359.9l2.4,1.4v2.8l-2.4,1.4l-2.4-1.4v-2.8
		L65.8,359.9z M102.8,359.5l2.8,1.6v3.2l-2.8,1.6l-2.8-1.6v-3.2L102.8,359.5z M139.8,362.2l0.4,0.2v0.5l-0.4,0.2l-0.4-0.2v-0.5
		L139.8,362.2z M176.9,360l2.3,1.3v2.7l-2.3,1.3l-2.3-1.3v-2.7L176.9,360z M213.9,355.2l6.5,3.7v7.5l-6.5,3.7l-6.5-3.7v-7.5
		L213.9,355.2z M250.9,353l8.4,4.8v9.7l-8.4,4.8l-8.4-4.8v-9.7L250.9,353z M287.9,350.3l10.7,6.2v12.4l-10.7,6.2l-10.7-6.2v-12.4
		L287.9,350.3z M324.9,349.4l11.5,6.7v13.3l-11.5,6.7l-11.5-6.7V356L324.9,349.4z M361.9,352.7l8.7,5v10l-8.7,5l-8.7-5v-10
		L361.9,352.7z M398.9,354.6l7,4.1v8.1l-7,4.1l-7-4.1v-8.1L398.9,354.6z M435.9,351l10.1,5.8v11.7l-10.1,5.8l-10.1-5.8v-11.7
		L435.9,351z M473,352.9l8.5,4.9v9.8l-8.5,4.9l-8.5-4.9v-9.8L473,352.9z M510,361.5l1,0.6v1.2l-1,0.6l-1-0.6v-1.2L510,361.5z
		 M547,362.7L547,362.7L547,362.7L547,362.7L547,362.7L547,362.7z M584,359.5l2.7,1.6v3.2l-2.7,1.6l-2.7-1.6v-3.2L584,359.5z
		 M621,352.7l8.6,5v10l-8.6,5l-8.6-5v-10L621,352.7z M658,350.1l10.9,6.3V369l-10.9,6.3l-10.9-6.3v-12.6L658,350.1z M695,354.6
		l7,4.1v8.1l-7,4.1l-7-4.1v-8.1L695,354.6z M732,361.9l0.7,0.4v0.8l-0.7,0.4l-0.7-0.4v-0.8L732,361.9z M769,357.8l4.2,2.4v4.8
		l-4.2,2.4l-4.2-2.4v-4.8L769,357.8z M806.1,356.7l5.2,3v6l-5.2,3l-5.2-3v-6L806.1,356.7z M843.1,358.4l3.7,2.1v4.3l-3.7,2.1
		l-3.7-2.1v-4.3L843.1,358.4z M880.1,352.9l8.5,4.9v9.8l-8.5,4.9l-8.5-4.9v-9.8L880.1,352.9z M917.1,349.8l11.1,6.4v12.8l-11.1,6.4
		l-11.1-6.4v-12.8L917.1,349.8z M954.1,353.4l8,4.6v9.3l-8,4.6l-8-4.6V358L954.1,353.4z M991.1,357.8l4.2,2.4v4.9l-4.2,2.4l-4.2-2.4
		v-4.9L991.1,357.8z M1028.1,356.5l5.4,3.1v6.2l-5.4,3.1l-5.4-3.1v-6.2L1028.1,356.5z M10.3,393.2l1,0.6v1.2l-1,0.6l-1-0.6v-1.2
		L10.3,393.2z M47.3,394.3L47.3,394.3L47.3,394.3L47.3,394.3L47.3,394.3L47.3,394.3z M84.3,393.8l0.4,0.3v0.5l-0.4,0.3l-0.4-0.3
		v-0.5L84.3,393.8z M121.3,394.3L121.3,394.3L121.3,394.3L121.3,394.3L121.3,394.3L121.3,394.3z M158.3,394.3L158.3,394.3
		L158.3,394.3L158.3,394.3L158.3,394.3L158.3,394.3z M195.4,392.7l1.4,0.8v1.6l-1.4,0.8l-1.4-0.8v-1.6L195.4,392.7z M232.4,387.6
		l5.8,3.4v6.7l-5.8,3.4l-5.8-3.4V391L232.4,387.6z M269.4,382.2l10.5,6.1v12.1l-10.5,6.1l-10.5-6.1v-12.1L269.4,382.2z M306.4,379.7
		l12.7,7.3v14.7l-12.7,7.3l-12.7-7.3V387L306.4,379.7z M343.4,380.3l12.1,7v14l-12.1,7l-12.1-7v-14L343.4,380.3z M380.4,383.4
		l9.5,5.5v10.9l-9.5,5.5l-9.5-5.5v-10.9L380.4,383.4z M417.4,383.1l9.7,5.6V400l-9.7,5.6l-9.7-5.6v-11.2L417.4,383.1z M454.4,381.6
		l11,6.4v12.7l-11,6.4l-11-6.4V388L454.4,381.6z M491.5,388.5l5,2.9v5.8l-5,2.9l-5-2.9v-5.8L491.5,388.5z M528.5,394.3L528.5,394.3
		L528.5,394.3L528.5,394.3L528.5,394.3L528.5,394.3z M565.5,393.5l0.8,0.4v0.9l-0.8,0.4l-0.8-0.4v-0.9L565.5,393.5z M602.5,385.8
		l7.4,4.3v8.5l-7.4,4.3l-7.4-4.3v-8.5L602.5,385.8z M639.5,380.7l11.8,6.8v13.6l-11.8,6.8l-11.8-6.8v-13.6L639.5,380.7z
		 M676.5,381.5l11.1,6.4v12.9l-11.1,6.4l-11.1-6.4v-12.9L676.5,381.5z M713.5,388.9l4.8,2.7v5.5l-4.8,2.7l-4.8-2.7v-5.5L713.5,388.9
		z M750.5,391.6l2.4,1.4v2.8l-2.4,1.4l-2.4-1.4V393L750.5,391.6z M787.6,387l6.4,3.7v7.3l-6.4,3.7l-6.4-3.7v-7.3L787.6,387z
		 M824.6,390.2l3.6,2.1v4.1l-3.6,2.1l-3.6-2.1v-4.1L824.6,390.2z M861.6,391.4l2.6,1.5v3l-2.6,1.5l-2.6-1.5v-3L861.6,391.4z
		 M898.6,385.7l7.5,4.3v8.7l-7.5,4.3l-7.5-4.3V390L898.6,385.7z M935.6,385.2l7.9,4.6v9.2l-7.9,4.6l-7.9-4.6v-9.2L935.6,385.2z
		 M972.6,386.7l6.7,3.8v7.7l-6.7,3.8l-6.7-3.8v-7.7L972.6,386.7z M1009.6,383.4l9.5,5.5v11l-9.5,5.5l-9.5-5.5v-11L1009.6,383.4z
		 M28.8,424.9l1,0.6v1.1l-1,0.6l-1-0.6v-1.1L28.8,424.9z M65.8,426L65.8,426L65.8,426L65.8,426L65.8,426L65.8,426z M102.8,424.2
		l1.6,0.9v1.8l-1.6,0.9l-1.6-0.9v-1.8L102.8,424.2z M139.8,424.1l1.7,1v2l-1.7,1l-1.7-1v-2L139.8,424.1z M176.9,425.5l0.4,0.2v0.5
		l-0.4,0.2l-0.4-0.2v-0.5L176.9,425.5z M213.9,423l2.6,1.5v3l-2.6,1.5l-2.6-1.5v-3L213.9,423z M250.9,417.4l7.5,4.3v8.6l-7.5,4.3
		l-7.5-4.3v-8.6L250.9,417.4z M287.9,415.3l9.3,5.4v10.7l-9.3,5.4l-9.3-5.4v-10.7L287.9,415.3z M324.9,416.6l8.2,4.7v9.5l-8.2,4.7
		l-8.2-4.7v-9.5L324.9,416.6z M361.9,419.6l5.6,3.2v6.5l-5.6,3.2l-5.6-3.2v-6.5L361.9,419.6z M398.9,420.5l4.8,2.8v5.5l-4.8,2.8
		l-4.8-2.8v-5.5L398.9,420.5z M435.9,417.4l7.5,4.3v8.6l-7.5,4.3l-7.5-4.3v-8.6L435.9,417.4z M473,419.6l5.6,3.2v6.5l-5.6,3.2
		l-5.6-3.2v-6.5L473,419.6z M510,425.1l0.8,0.5v0.9L510,427l-0.8-0.5v-0.9L510,425.1z M547,422.7l2.9,1.7v3.3l-2.9,1.7l-2.9-1.7
		v-3.3L547,422.7z M584,418l6.9,4v8l-6.9,4l-6.9-4v-8L584,418z M621,416.9l7.9,4.5v9.1l-7.9,4.5l-7.9-4.5v-9.1L621,416.9z
		 M658,416.9l7.9,4.5v9.1l-7.9,4.5l-7.9-4.5v-9.1L658,416.9z M695,422.2l3.3,1.9v3.8l-3.3,1.9l-3.3-1.9v-3.8L695,422.2z M732,424.8
		l1.1,0.6v1.3l-1.1,0.6l-1.1-0.6v-1.3L732,424.8z M769,418.7l6.3,3.6v7.3l-6.3,3.6l-6.3-3.6v-7.3L769,418.7z M806.1,419.7l5.5,3.2
		v6.3l-5.5,3.2l-5.5-3.2v-6.3L806.1,419.7z M843.1,424.6l1.2,0.7v1.4l-1.2,0.7l-1.2-0.7v-1.4L843.1,424.6z M880.1,420.9l4.4,2.6v5.1
		l-4.4,2.6l-4.4-2.6v-5.1L880.1,420.9z M917.1,421.2l4.2,2.4v4.9l-4.2,2.4l-4.2-2.4v-4.9L917.1,421.2z M954.1,421.6l3.8,2.2v4.4
		l-3.8,2.2l-3.8-2.2v-4.4L954.1,421.6z M991.1,416.2l8.5,4.9v9.8l-8.5,4.9l-8.5-4.9v-9.8L991.1,416.2z M1028.1,412.1l12.1,7v14
		l-12.1,7l-12.1-7v-14L1028.1,412.1z M10.3,453.3l3.8,2.2v4.4l-3.8,2.2l-3.8-2.2v-4.4L10.3,453.3z M47.3,456.3l1.2,0.7v1.4l-1.2,0.7
		l-1.2-0.7V457L47.3,456.3z M84.3,451.2l5.6,3.3v6.5l-5.6,3.3l-5.6-3.3v-6.5L84.3,451.2z M121.3,447.3l9,5.2v10.4l-9,5.2l-9-5.2
		v-10.4L121.3,447.3z M158.3,449.2l7.3,4.2v8.5l-7.3,4.2l-7.3-4.2v-8.5L158.3,449.2z M195.4,451.7l5.2,3v6l-5.2,3l-5.2-3v-6
		L195.4,451.7z M232.4,449.4l7.2,4.1v8.3l-7.2,4.1l-7.2-4.1v-8.3L232.4,449.4z M269.4,448.8l7.7,4.5v8.9l-7.7,4.5l-7.7-4.5v-8.9
		L269.4,448.8z M306.4,453.4l3.7,2.1v4.3l-3.7,2.1l-3.7-2.1v-4.3L306.4,453.4z M343.4,456.3l1.2,0.7v1.4l-1.2,0.7l-1.2-0.7V457
		L343.4,456.3z M380.4,457.2l0.4,0.2v0.5l-0.4,0.2l-0.4-0.2v-0.5L380.4,457.2z M417.4,457.2l0.4,0.2v0.5l-0.4,0.2l-0.4-0.2v-0.5
		L417.4,457.2z M454.4,455.2l2.1,1.2v2.5l-2.1,1.2l-2.1-1.2v-2.5L454.4,455.2z M491.5,455.6l1.8,1.1v2.1l-1.8,1.1l-1.8-1.1v-2.1
		L491.5,455.6z M528.5,452.8l4.2,2.4v4.8l-4.2,2.4l-4.2-2.4v-4.8L528.5,452.8z M565.5,449.2l7.3,4.2v8.5l-7.3,4.2l-7.3-4.2v-8.5
		L565.5,449.2z M602.5,450.6l6.1,3.5v7l-6.1,3.5l-6.1-3.5v-7L602.5,450.6z M639.5,455.5l1.9,1.1v2.2l-1.9,1.1l-1.9-1.1v-2.2
		L639.5,455.5z M676.5,456.6l0.9,0.5v1.1l-0.9,0.5l-0.9-0.5v-1.1L676.5,456.6z M713.5,456.9l0.7,0.4v0.8l-0.7,0.4l-0.7-0.4v-0.8
		L713.5,456.9z M750.5,456.5l1,0.6v1.2l-1,0.6l-1-0.6v-1.2L750.5,456.5z M787.6,452.8l4.2,2.4v4.9l-4.2,2.4l-4.2-2.4v-4.9
		L787.6,452.8z M824.6,454.1l3.1,1.8v3.6l-3.1,1.8l-3.1-1.8v-3.6L824.6,454.1z M861.6,452.8l4.2,2.4v4.9l-4.2,2.4l-4.2-2.4v-4.9
		L861.6,452.8z M898.6,451.1l5.7,3.3v6.6l-5.7,3.3l-5.7-3.3v-6.6L898.6,451.1z M935.6,456.2l1.3,0.7v1.5l-1.3,0.7l-1.3-0.7v-1.5
		L935.6,456.2z M972.6,454.7l2.6,1.5v3l-2.6,1.5l-2.6-1.5v-3L972.6,454.7z M1009.6,445.6l10.5,6.1v12.1l-10.5,6.1l-10.5-6.1v-12.1
		L1009.6,445.6z M28.8,481.8l6.6,3.8v7.6l-6.6,3.8l-6.6-3.8v-7.6L28.8,481.8z M65.8,480.2l8,4.6v9.2l-8,4.6l-8-4.6v-9.2L65.8,480.2z
		 M102.8,475.5l12,6.9v13.9l-12,6.9l-12-6.9v-13.9L102.8,475.5z M139.8,474.9l12.5,7.2v14.4l-12.5,7.2l-12.5-7.2v-14.4L139.8,474.9z
		 M176.9,478.1l9.7,5.6V495l-9.7,5.6l-9.7-5.6v-11.2L176.9,478.1z M213.9,482.3l6.1,3.5v7.1l-6.1,3.5l-6.1-3.5v-7.1L213.9,482.3z
		 M250.9,482.2l6.2,3.6v7.1l-6.2,3.6l-6.2-3.6v-7.1L250.9,482.2z M287.9,484.1l4.6,2.6v5.3l-4.6,2.6l-4.6-2.6v-5.3L287.9,484.1z
		 M324.9,488.9l0.4,0.3v0.5l-0.4,0.3l-0.4-0.3v-0.5L324.9,488.9z M361.9,489.4L361.9,489.4L361.9,489.4L361.9,489.4L361.9,489.4
		L361.9,489.4z M398.9,489.4L398.9,489.4L398.9,489.4L398.9,489.4L398.9,489.4L398.9,489.4z M435.9,489.4L435.9,489.4L435.9,489.4
		L435.9,489.4L435.9,489.4L435.9,489.4z M473,486.9l2.1,1.2v2.5l-2.1,1.2l-2.1-1.2v-2.5L473,486.9z M510,483.5l5.1,2.9v5.8l-5.1,2.9
		l-5.1-2.9v-5.8L510,483.5z M547,483.6l5,2.9v5.8l-5,2.9l-5-2.9v-5.8L547,483.6z M584,483.6l5,2.9v5.8l-5,2.9l-5-2.9v-5.8L584,483.6
		z M621,487.6l1.5,0.9v1.7l-1.5,0.9l-1.5-0.9v-1.7L621,487.6z M658,489.4L658,489.4L658,489.4L658,489.4L658,489.4L658,489.4z
		 M695,489.4L695,489.4L695,489.4L695,489.4L695,489.4L695,489.4z M732,489.4L732,489.4L732,489.4L732,489.4L732,489.4L732,489.4z
		 M769,489.4L769,489.4L769,489.4L769,489.4L769,489.4L769,489.4z M806.1,489.4L806.1,489.4L806.1,489.4L806.1,489.4L806.1,489.4
		L806.1,489.4z M843.1,488.5l0.8,0.4v0.9l-0.8,0.4l-0.8-0.4v-0.9L843.1,488.5z M880.1,484.8l3.9,2.3v4.6l-3.9,2.3l-3.9-2.3v-4.6
		L880.1,484.8z M917.1,487.8l1.4,0.8v1.6l-1.4,0.8l-1.4-0.8v-1.6L917.1,487.8z M954.1,488.6l0.6,0.4v0.7l-0.6,0.4l-0.6-0.4V489
		L954.1,488.6z M991.1,481.5l6.8,3.9v7.8l-6.8,3.9l-6.8-3.9v-7.8L991.1,481.5z M1028.1,476l11.6,6.7V496l-11.6,6.7l-11.6-6.7v-13.3
		L1028.1,476z M10.3,511l8.7,5v10.1l-8.7,5l-8.7-5V516L10.3,511z M47.3,512.4l7.5,4.3v8.6l-7.5,4.3l-7.5-4.3v-8.6L47.3,512.4z
		 M84.3,509.8l9.7,5.6v11.3l-9.7,5.6l-9.7-5.6v-11.3L84.3,509.8z M121.3,506.8l12.4,7.1v14.3l-12.4,7.1l-12.4-7.1v-14.3L121.3,506.8
		z M158.3,506.8l12.3,7.1v14.2l-12.3,7.1l-12.3-7.1v-14.2L158.3,506.8z M195.4,511.5l8.3,4.8v9.6l-8.3,4.8l-8.3-4.8v-9.6
		L195.4,511.5z M232.4,517.7l2.9,1.7v3.3l-2.9,1.7l-2.9-1.7v-3.3L232.4,517.7z M269.4,515.9l4.5,2.6v5.1l-4.5,2.6l-4.5-2.6v-5.1
		L269.4,515.9z M306.4,516.3l4.1,2.4v4.7l-4.1,2.4l-4.1-2.4v-4.7L306.4,516.3z M343.4,520.4l0.6,0.3v0.7l-0.6,0.3l-0.6-0.3v-0.7
		L343.4,520.4z M380.4,521L380.4,521L380.4,521L380.4,521L380.4,521L380.4,521z M417.4,521L417.4,521L417.4,521L417.4,521L417.4,521
		L417.4,521z M454.4,518.7l2,1.2v2.3l-2,1.2l-2-1.2v-2.3L454.4,518.7z M491.5,513.2l6.8,3.9v7.8l-6.8,3.9l-6.8-3.9v-7.8L491.5,513.2
		z M528.5,515.2l5.1,2.9v5.8l-5.1,2.9l-5.1-2.9v-5.8L528.5,515.2z M565.5,518.6l2.1,1.2v2.4l-2.1,1.2l-2.1-1.2v-2.4L565.5,518.6z
		 M602.5,516.9l3.6,2.1v4.2l-3.6,2.1l-3.6-2.1v-4.2L602.5,516.9z M639.5,518.8l1.9,1.1v2.2l-1.9,1.1l-1.9-1.1v-2.2L639.5,518.8z
		 M676.5,521L676.5,521L676.5,521L676.5,521L676.5,521L676.5,521z M713.5,521L713.5,521L713.5,521L713.5,521L713.5,521L713.5,521z
		 M750.5,521L750.5,521L750.5,521L750.5,521L750.5,521L750.5,521z M787.6,521L787.6,521L787.6,521L787.6,521L787.6,521L787.6,521z
		 M824.6,521L824.6,521L824.6,521L824.6,521L824.6,521L824.6,521z M861.6,521L861.6,521L861.6,521L861.6,521L861.6,521L861.6,521z
		 M898.6,520.1l0.8,0.5v0.9l-0.8,0.5l-0.8-0.5v-0.9L898.6,520.1z M935.6,521L935.6,521L935.6,521L935.6,521L935.6,521L935.6,521z
		 M972.6,516.9l3.6,2.1v4.1l-3.6,2.1l-3.6-2.1V519L972.6,516.9z M1009.6,508.9l10.5,6v12.1l-10.5,6l-10.5-6V515L1009.6,508.9z"/>
</g>
</svg>
