<?xml version="1.0" encoding="utf-8"?>
<!-- Generator: Adobe Illustrator 28.2.0, SVG Export Plug-In . SVG Version: 6.00 Build 0)  -->
<svg version="1.1" id="Layer_1" xmlns="http://www.w3.org/2000/svg" xmlns:xlink="http://www.w3.org/1999/xlink" x="0px" y="0px"
	 viewBox="0 0 522.9 521.4" style="enable-background:new 0 0 522.9 521.4;" xml:space="preserve">
<g>
	<path d="M8.5,3.5l0.9,0.9L8.5,5.3L7.6,4.4L8.5,3.5z M33.1,3.8l0.3,0.3l-0.3,0.3l-0.3-0.3L33.1,3.8z M57.8,3.9L57.8,3.9L57.8,3.9
		L57.8,3.9z M82.5,3l1.8,1.8l-1.8,1.8l-1.8-1.8L82.5,3z M107.2,1l5.8,5.8l-5.8,5.8l-5.8-5.8L107.2,1z M131.9,0.6l6.7,6.7l-6.7,6.7
		l-6.7-6.7L131.9,0.6z M156.6,2l3.9,3.9l-3.9,3.9l-3.9-3.9L156.6,2z M181.2,2.7l2.5,2.5l-2.5,2.5l-2.5-2.5L181.2,2.7z M205.9,1.6
		l4.6,4.6l-4.6,4.6l-4.6-4.6L205.9,1.6z M230.6,2.5l2.8,2.8l-2.8,2.8l-2.8-2.8L230.6,2.5z M255.3,3.9L255.3,3.9L255.3,3.9L255.3,3.9
		z M280,3.9L280,3.9L280,3.9L280,3.9z M304.7,2.7l2.4,2.4l-2.4,2.4l-2.4-2.4L304.7,2.7z M329.4,0.4l7.1,7.1l-7.1,7.1l-7.1-7.1
		L329.4,0.4z M354,0l7.8,7.8l-7.8,7.8l-7.8-7.8L354,0z M378.7,1.4l5,5l-5,5l-5-5L378.7,1.4z M403.4,2.7l2.5,2.5l-2.5,2.5l-2.5-2.5
		L403.4,2.7z M428.1,1.6l4.6,4.6l-4.6,4.6l-4.6-4.6L428.1,1.6z M452.8,1.9l4,4l-4,4l-4-4L452.8,1.9z M477.5,3.9L477.5,3.9L477.5,3.9
		L477.5,3.9z M502.1,3.8l0.3,0.3l-0.3,0.3l-0.3-0.3L502.1,3.8z M20.8,16.3L20.8,16.3L20.8,16.3L20.8,16.3z M45.5,16.1l0.4,0.4
		l-0.4,0.4l-0.4-0.4L45.5,16.1z M70.2,16.3L70.2,16.3L70.2,16.3L70.2,16.3z M94.9,15.5l1.6,1.6l-1.6,1.6L93.3,17L94.9,15.5z
		 M119.5,13.2l6.1,6.1l-6.1,6.1l-6.1-6.1L119.5,13.2z M144.2,13.1l6.3,6.3l-6.3,6.3l-6.3-6.3L144.2,13.1z M168.9,14l4.5,4.5
		l-4.5,4.5l-4.5-4.5L168.9,14z M193.6,13.6l5.4,5.4l-5.4,5.4l-5.4-5.4L193.6,13.6z M218.3,13.8l5,5l-5,5l-5-5L218.3,13.8z M243,15.8
		l0.8,0.8l-0.8,0.8l-0.8-0.8L243,15.8z M267.6,16.3L267.6,16.3L267.6,16.3L267.6,16.3z M292.3,16.3L292.3,16.3L292.3,16.3
		L292.3,16.3z M317,13.6l5.3,5.3l-5.3,5.3l-5.3-5.3L317,13.6z M341.7,12.3l7.9,7.9l-7.9,7.9l-7.9-7.9L341.7,12.3z M366.4,12.8
		l6.9,6.9l-6.9,6.9l-6.9-6.9L366.4,12.8z M391.1,14.6l3.2,3.2l-3.2,3.2l-3.2-3.2L391.1,14.6z M415.7,14.6l3.4,3.4l-3.4,3.4l-3.4-3.4
		L415.7,14.6z M440.4,14.1l4.3,4.3l-4.3,4.3l-4.3-4.3L440.4,14.1z M465.1,15.5l1.5,1.5l-1.5,1.5l-1.5-1.5L465.1,15.5z M489.8,16.3
		L489.8,16.3L489.8,16.3L489.8,16.3z M514.5,16.3L514.5,16.3L514.5,16.3L514.5,16.3z M8.5,28.4l0.3,0.3l-0.3,0.3l-0.3-0.3L8.5,28.4z
		 M33.1,28.6L33.1,28.6L33.1,28.6L33.1,28.6z M57.8,28.4l0.4,0.4l-0.4,0.4l-0.4-0.4L57.8,28.4z M82.5,28.6L82.5,28.6L82.5,28.6
		L82.5,28.6z M107.2,27.7l1.8,1.8l-1.8,1.8l-1.8-1.8L107.2,27.7z M131.9,25.6l6.1,6.1l-6.1,6.1l-6.1-6.1L131.9,25.6z M156.6,25.4
		l6.4,6.4l-6.4,6.4l-6.4-6.4L156.6,25.4z M181.2,25.3l6.7,6.7l-6.7,6.7l-6.7-6.7L181.2,25.3z M205.9,25.2l6.9,6.9l-6.9,6.9L199,32
		L205.9,25.2z M230.6,26.4l4.4,4.4l-4.4,4.4l-4.4-4.4L230.6,26.4z M255.3,28.6L255.3,28.6L255.3,28.6L255.3,28.6z M280,28.5l0.2,0.2
		L280,29l-0.2-0.2L280,28.5z M304.7,27.6l2,2l-2,2l-2-2L304.7,27.6z M329.4,25.4l6.5,6.5l-6.5,6.5l-6.5-6.5L329.4,25.4z M354,25.1
		l7.1,7.1l-7.1,7.1l-7.1-7.1L354,25.1z M378.7,26.6l4.1,4.1l-4.1,4.1l-4.1-4.1L378.7,26.6z M403.4,27.7l1.7,1.7l-1.7,1.7l-1.7-1.7
		L403.4,27.7z M428.1,27.3l2.6,2.6l-2.6,2.6l-2.6-2.6L428.1,27.3z M452.8,27.4l2.4,2.4l-2.4,2.4l-2.4-2.4L452.8,27.4z M477.5,28.6
		L477.5,28.6L477.5,28.6L477.5,28.6z M502.1,28.6L502.1,28.6L502.1,28.6L502.1,28.6z M20.8,40.9L20.8,40.9L20.8,40.9L20.8,40.9z
		 M45.5,40.9L45.5,40.9L45.5,40.9L45.5,40.9z M70.2,40.8l0.2,0.2l-0.2,0.2l-0.2-0.2L70.2,40.8z M94.9,40.9L94.9,40.9L94.9,40.9
		L94.9,40.9z M119.5,39.7l2.5,2.5l-2.5,2.5l-2.5-2.5L119.5,39.7z M144.2,38l6,6l-6,6l-6-6L144.2,38z M168.9,37.4l7.2,7.2l-7.2,7.2
		l-7.2-7.2L168.9,37.4z M193.6,36.9l8.1,8.1l-8.1,8.1l-8.1-8.1L193.6,36.9z M218.3,37.5l6.9,6.9l-6.9,6.9l-6.9-6.9L218.3,37.5z
		 M243,39.5l2.9,2.9l-2.9,2.9l-2.9-2.9L243,39.5z M267.6,40.9L267.6,40.9L267.6,40.9L267.6,40.9z M292.3,40.7l0.5,0.5l-0.5,0.5
		l-0.5-0.5L292.3,40.7z M317,39.1l3.7,3.7l-3.7,3.7l-3.7-3.7L317,39.1z M341.7,37.9l6,6l-6,6l-6-6L341.7,37.9z M366.4,38.9l4.2,4.2
		l-4.2,4.2l-4.2-4.2L366.4,38.9z M391.1,40.5l0.8,0.8l-0.8,0.8l-0.8-0.8L391.1,40.5z M415.7,40.7l0.5,0.5l-0.5,0.5l-0.5-0.5
		L415.7,40.7z M440.4,40.5l1,1l-1,1l-1-1L440.4,40.5z M465.1,40.5l0.9,0.9l-0.9,0.9l-0.9-0.9L465.1,40.5z M489.8,39.8l2.3,2.3
		l-2.3,2.3l-2.3-2.3L489.8,39.8z M514.5,40.4l1.1,1.1l-1.1,1.1l-1.1-1.1L514.5,40.4z M8.5,53.3L8.5,53.3L8.5,53.3L8.5,53.3z
		 M33.1,53.1l0.4,0.4l-0.4,0.4l-0.4-0.4L33.1,53.1z M57.8,53.3L57.8,53.3L57.8,53.3L57.8,53.3z M82.5,53.1l0.3,0.3l-0.3,0.3
		l-0.3-0.3L82.5,53.1z M107.2,53.3L107.2,53.3L107.2,53.3L107.2,53.3z M131.9,51.9l2.7,2.7l-2.7,2.7l-2.7-2.7L131.9,51.9z
		 M156.6,50.4l5.9,5.9l-5.9,5.9l-5.9-5.9L156.6,50.4z M181.2,49.2l8.2,8.2l-8.2,8.2l-8.2-8.2L181.2,49.2z M205.9,49.2l8.2,8.2
		l-8.2,8.2l-8.2-8.2L205.9,49.2z M230.6,50.4l5.7,5.7l-5.7,5.7l-5.7-5.7L230.6,50.4z M255.3,53l0.6,0.6l-0.6,0.6l-0.6-0.6L255.3,53z
		 M280,53.3L280,53.3L280,53.3L280,53.3z M304.7,53l0.6,0.6l-0.6,0.6l-0.6-0.6L304.7,53z M329.4,51.1l4.3,4.3l-4.3,4.3l-4.3-4.3
		L329.4,51.1z M354,51.4l3.7,3.7l-3.7,3.7l-3.7-3.7L354,51.4z M378.7,53.1l0.4,0.4l-0.4,0.4l-0.4-0.4L378.7,53.1z M403.4,53.3
		L403.4,53.3L403.4,53.3L403.4,53.3z M428.1,53.1l0.3,0.3l-0.3,0.3l-0.3-0.3L428.1,53.1z M452.8,53.1l0.4,0.4l-0.4,0.4l-0.4-0.4
		L452.8,53.1z M477.5,51.1l4.3,4.3l-4.3,4.3l-4.3-4.3L477.5,51.1z M502.1,50.7l5.1,5.1l-5.1,5.1l-5.1-5.1L502.1,50.7z M20.8,65.6
		L20.8,65.6L20.8,65.6L20.8,65.6z M45.5,65.5l0.2,0.2L45.5,66l-0.2-0.2L45.5,65.5z M70.2,65.6L70.2,65.6L70.2,65.6L70.2,65.6z
		 M94.9,65.4l0.5,0.5l-0.5,0.5l-0.5-0.5L94.9,65.4z M119.5,65.6L119.5,65.6L119.5,65.6L119.5,65.6z M144.2,64.5l2.2,2.2l-2.2,2.2
		l-2.2-2.2L144.2,64.5z M168.9,62.4l6.4,6.4l-6.4,6.4l-6.4-6.4L168.9,62.4z M193.6,61.4l8.4,8.4l-8.4,8.4l-8.4-8.4L193.6,61.4z
		 M218.3,62.2l6.9,6.9l-6.9,6.9l-6.9-6.9L218.3,62.2z M243,64.2l2.8,2.8l-2.8,2.8l-2.8-2.8L243,64.2z M267.6,65.6L267.6,65.6
		L267.6,65.6L267.6,65.6z M292.3,65.6L292.3,65.6L292.3,65.6L292.3,65.6z M317,64.3l2.7,2.7l-2.7,2.7l-2.7-2.7L317,64.3z
		 M341.7,63.7l3.9,3.9l-3.9,3.9l-3.9-3.9L341.7,63.7z M366.4,65.2l0.9,0.9l-0.9,0.9l-0.9-0.9L366.4,65.2z M391.1,65.2l0.8,0.8
		l-0.8,0.8l-0.8-0.8L391.1,65.2z M415.7,65.6L415.7,65.6L415.7,65.6L415.7,65.6z M440.4,65.5l0.3,0.3l-0.3,0.3l-0.3-0.3L440.4,65.5z
		 M465.1,64l3.3,3.3l-3.3,3.3l-3.3-3.3L465.1,64z M489.8,62l7.3,7.3l-7.3,7.3l-7.3-7.3L489.8,62z M514.5,62.4l6.5,6.5l-6.5,6.5
		l-6.5-6.5L514.5,62.4z M8.5,77.1l1.8,1.8l-1.8,1.8l-1.8-1.8L8.5,77.1z M33.1,78L33.1,78L33.1,78L33.1,78z M57.8,78L57.8,78L57.8,78
		L57.8,78z M82.5,76.6l2.7,2.7L82.5,82l-2.7-2.7L82.5,76.6z M107.2,77.1l1.7,1.7l-1.7,1.7l-1.7-1.7L107.2,77.1z M131.9,78L131.9,78
		L131.9,78L131.9,78z M156.6,76.7l2.5,2.5l-2.5,2.5l-2.5-2.5L156.6,76.7z M181.2,74.5l7,7l-7,7l-7-7L181.2,74.5z M205.9,74.3
		l7.3,7.3l-7.3,7.3l-7.3-7.3L205.9,74.3z M230.6,76.3l3.4,3.4l-3.4,3.4l-3.4-3.4L230.6,76.3z M255.3,77.8l0.3,0.3l-0.3,0.3l-0.3-0.3
		L255.3,77.8z M280,78L280,78L280,78L280,78z M304.7,77l1.9,1.9l-1.9,1.9l-1.9-1.9L304.7,77z M329.4,75.5l4.9,4.9l-4.9,4.9l-4.9-4.9
		L329.4,75.5z M354,75.8l4.3,4.3l-4.3,4.3l-4.3-4.3L354,75.8z M378.7,76.6l2.7,2.7l-2.7,2.7l-2.7-2.7L378.7,76.6z M403.4,76.8
		l2.4,2.4l-2.4,2.4l-2.4-2.4L403.4,76.8z M428.1,78L428.1,78L428.1,78L428.1,78z M452.8,77.5l0.9,0.9l-0.9,0.9l-0.9-0.9L452.8,77.5z
		 M477.5,74.7l6.5,6.5l-6.5,6.5l-6.5-6.5L477.5,74.7z M502.1,73.7l8.5,8.5l-8.5,8.5l-8.5-8.5L502.1,73.7z M20.8,89.5l1.6,1.6
		l-1.6,1.6l-1.6-1.6L20.8,89.5z M45.5,90.3L45.5,90.3L45.5,90.3L45.5,90.3z M70.2,88.5l3.6,3.6l-3.6,3.6l-3.6-3.6L70.2,88.5z
		 M94.9,87.7l5.3,5.3l-5.3,5.3L89.6,93L94.9,87.7z M119.5,89.6l1.4,1.4l-1.4,1.4l-1.4-1.4L119.5,89.6z M144.2,90.3L144.2,90.3
		L144.2,90.3L144.2,90.3z M168.9,88.5l3.6,3.6l-3.6,3.6l-3.6-3.6L168.9,88.5z M193.6,87.1l6.3,6.3l-6.3,6.3l-6.3-6.3L193.6,87.1z
		 M218.3,88.6l3.5,3.5l-3.5,3.5l-3.5-3.5L218.3,88.6z M243,90.3L243,90.3L243,90.3L243,90.3z M267.6,90.3L267.6,90.3L267.6,90.3
		L267.6,90.3z M292.3,89.5l1.6,1.6l-1.6,1.6l-1.6-1.6L292.3,89.5z M317,87.3l6,6l-6,6l-6-6L317,87.3z M341.7,86.9l6.8,6.8l-6.8,6.8
		l-6.8-6.8L341.7,86.9z M366.4,87.3l6,6l-6,6l-6-6L366.4,87.3z M391.1,87.5l5.6,5.6l-5.6,5.6l-5.6-5.6L391.1,87.5z M415.7,88.9
		l2.8,2.8l-2.8,2.8l-2.8-2.8L415.7,88.9z M440.4,90.3L440.4,90.3L440.4,90.3L440.4,90.3z M465.1,88.9l2.8,2.8l-2.8,2.8l-2.8-2.8
		L465.1,88.9z M489.8,86.4l7.9,7.9l-7.9,7.9l-7.9-7.9L489.8,86.4z M514.5,86.1l8.4,8.4l-8.4,8.4l-8.4-8.4L514.5,86.1z M8.5,99.8
		l5.7,5.7l-5.7,5.7l-5.7-5.7L8.5,99.8z M33.1,101.8l1.7,1.7l-1.7,1.7l-1.7-1.7L33.1,101.8z M57.8,101.2l3,3l-3,3l-3-3L57.8,101.2z
		 M82.5,99.3l6.7,6.7l-6.7,6.7l-6.7-6.7L82.5,99.3z M107.2,100l5.3,5.3l-5.3,5.3l-5.3-5.3L107.2,100z M131.9,102.7L131.9,102.7
		L131.9,102.7L131.9,102.7z M156.6,102.5l0.3,0.3l-0.3,0.3l-0.3-0.3L156.6,102.5z M181.2,100.8l3.7,3.7l-3.7,3.7l-3.7-3.7
		L181.2,100.8z M205.9,101.3l2.8,2.8l-2.8,2.8l-2.8-2.8L205.9,101.3z M230.6,102.7L230.6,102.7L230.6,102.7L230.6,102.7z
		 M255.3,102.7L255.3,102.7L255.3,102.7L255.3,102.7z M280,101.9l1.5,1.5l-1.5,1.5l-1.5-1.5L280,101.9z M304.7,99.4l6.5,6.5
		l-6.5,6.5l-6.5-6.5L304.7,99.4z M329.4,98.6l8.1,8.1l-8.1,8.1l-8.1-8.1L329.4,98.6z M354,98.7l8,8l-8,8l-8-8L354,98.7z M378.7,98.9
		l7.5,7.5l-7.5,7.5l-7.5-7.5L378.7,98.9z M403.4,99.5l6.4,6.4l-6.4,6.4l-6.4-6.4L403.4,99.5z M428.1,102.1l1.1,1.1l-1.1,1.1
		l-1.1-1.1L428.1,102.1z M452.8,102.5l0.3,0.3l-0.3,0.3l-0.3-0.3L452.8,102.5z M477.5,100.5l4.2,4.2l-4.2,4.2l-4.2-4.2L477.5,100.5z
		 M502.1,98.5l8.3,8.3l-8.3,8.3l-8.3-8.3L502.1,98.5z M20.8,112.4l5.1,5.1l-5.1,5.1l-5.1-5.1L20.8,112.4z M45.5,113.9l2.1,2.1
		l-2.1,2.1l-2.1-2.1L45.5,113.9z M70.2,112.2l5.7,5.7l-5.7,5.7l-5.7-5.7L70.2,112.2z M94.9,111.3l7.3,7.3l-7.3,7.3l-7.3-7.3
		L94.9,111.3z M119.5,113.5l3,3l-3,3l-3-3L119.5,113.5z M144.2,115L144.2,115L144.2,115L144.2,115z M168.9,114.6l0.8,0.8l-0.8,0.8
		l-0.8-0.8L168.9,114.6z M193.6,114.2l1.5,1.5l-1.5,1.5l-1.5-1.5L193.6,114.2z M218.3,115L218.3,115L218.3,115L218.3,115z M243,115
		L243,115L243,115L243,115z M267.6,114.4l1.2,1.2l-1.2,1.2l-1.2-1.2L267.6,114.4z M292.3,111.9l6.1,6.1l-6.1,6.1l-6.1-6.1
		L292.3,111.9z M317,111l8.1,8.1l-8.1,8.1l-8.1-8.1L317,111z M341.7,110.7l8.6,8.6l-8.6,8.6l-8.6-8.6L341.7,110.7z M366.4,110.8
		l8.5,8.5l-8.5,8.5l-8.5-8.5L366.4,110.8z M391.1,111l8,8l-8,8l-8-8L391.1,111z M415.7,112.9l4.3,4.3l-4.3,4.3l-4.3-4.3L415.7,112.9
		z M440.4,115L440.4,115L440.4,115L440.4,115z M465.1,114.8l0.4,0.4l-0.4,0.4l-0.4-0.4L465.1,114.8z M489.8,112.2l5.6,5.6l-5.6,5.6
		l-5.6-5.6L489.8,112.2z M514.5,110.9l8.2,8.2l-8.2,8.2l-8.2-8.2L514.5,110.9z M8.5,124.1l6.4,6.4l-6.4,6.4l-6.4-6.4L8.5,124.1z
		 M33.1,126.1l2.5,2.5l-2.5,2.5l-2.5-2.5L33.1,126.1z M57.8,126l2.7,2.7l-2.7,2.7l-2.7-2.7L57.8,126z M82.5,124.1l6.5,6.5l-6.5,6.5
		l-6.5-6.5L82.5,124.1z M107.2,124.5l5.7,5.7l-5.7,5.7l-5.7-5.7L107.2,124.5z M131.9,127l0.6,0.6l-0.6,0.6l-0.6-0.6L131.9,127z
		 M156.6,127.3L156.6,127.3L156.6,127.3L156.6,127.3z M181.2,126.6l1.4,1.4l-1.4,1.4l-1.4-1.4L181.2,126.6z M205.9,127.3
		L205.9,127.3L205.9,127.3L205.9,127.3z M230.6,127.3L230.6,127.3L230.6,127.3L230.6,127.3z M255.3,126.8l1.1,1.1l-1.1,1.1l-1.1-1.1
		L255.3,126.8z M280,124.5l5.6,5.6l-5.6,5.6l-5.6-5.6L280,124.5z M304.7,123.7l7.3,7.3l-7.3,7.3l-7.3-7.3L304.7,123.7z M329.4,123.4
		l7.8,7.8l-7.8,7.8l-7.8-7.8L329.4,123.4z M354,123.2l8.4,8.4l-8.4,8.4l-8.4-8.4L354,123.2z M378.7,123.4l8,8l-8,8l-8-8L378.7,123.4
		z M403.4,124.4l5.9,5.9l-5.9,5.9l-5.9-5.9L403.4,124.4z M428.1,127l0.6,0.6l-0.6,0.6l-0.6-0.6L428.1,127z M452.8,127.3L452.8,127.3
		L452.8,127.3L452.8,127.3z M477.5,126.6l1.4,1.4l-1.4,1.4l-1.4-1.4L477.5,126.6z M502.1,124.1l6.4,6.4l-6.4,6.4l-6.4-6.4
		L502.1,124.1z M20.8,138.1l3.2,3.2l-3.2,3.2l-3.2-3.2L20.8,138.1z M45.5,139.5l0.4,0.4l-0.4,0.4l-0.4-0.4L45.5,139.5z M70.2,138.2
		l2.9,2.9l-2.9,2.9l-2.9-2.9L70.2,138.2z M94.9,136.8l5.7,5.7l-5.7,5.7l-5.7-5.7L94.9,136.8z M119.5,138.2l3,3l-3,3l-3-3
		L119.5,138.2z M144.2,139.7L144.2,139.7L144.2,139.7L144.2,139.7z M168.9,138.4l2.6,2.6l-2.6,2.6l-2.6-2.6L168.9,138.4z
		 M193.6,138.6l2.1,2.1l-2.1,2.1l-2.1-2.1L193.6,138.6z M218.3,139.5l0.3,0.3l-0.3,0.3l-0.3-0.3L218.3,139.5z M243,138.9l1.6,1.6
		l-1.6,1.6l-1.6-1.6L243,138.9z M267.6,137l5.5,5.5l-5.5,5.5l-5.5-5.5L267.6,137z M292.3,136.5l6.4,6.4l-6.4,6.4l-6.4-6.4
		L292.3,136.5z M317,136.8l5.7,5.7l-5.7,5.7l-5.7-5.7L317,136.8z M341.7,136.4l6.6,6.6l-6.6,6.6l-6.6-6.6L341.7,136.4z M366.4,136.1
		l7.1,7.1l-7.1,7.1l-7.1-7.1L366.4,136.1z M391.1,137l5.5,5.5l-5.5,5.5l-5.5-5.5L391.1,137z M415.7,139l1.4,1.4l-1.4,1.4l-1.4-1.4
		L415.7,139z M440.4,139.7L440.4,139.7L440.4,139.7L440.4,139.7z M465.1,139.7L465.1,139.7L465.1,139.7L465.1,139.7z M489.8,137.8
		l3.7,3.7l-3.7,3.7l-3.7-3.7L489.8,137.8z M514.5,136.6l6.1,6.1l-6.1,6.1l-6.1-6.1L514.5,136.6z M8.5,150.7l2.6,2.6L8.5,156
		l-2.6-2.6L8.5,150.7z M33.1,152L33.1,152L33.1,152L33.1,152z M57.8,152L57.8,152L57.8,152L57.8,152z M82.5,150.4l3.3,3.3l-3.3,3.3
		l-3.3-3.3L82.5,150.4z M107.2,150l4,4l-4,4l-4-4L107.2,150z M131.9,151.6l0.8,0.8l-0.8,0.8l-0.8-0.8L131.9,151.6z M156.6,150.8
		l2.4,2.4l-2.4,2.4l-2.4-2.4L156.6,150.8z M181.2,149.8l4.5,4.5l-4.5,4.5l-4.5-4.5L181.2,149.8z M205.9,150.8l2.5,2.5l-2.5,2.5
		l-2.5-2.5L205.9,150.8z M230.6,151.1l1.9,1.9l-1.9,1.9l-1.9-1.9L230.6,151.1z M255.3,149.2l5.6,5.6l-5.6,5.6l-5.6-5.6L255.3,149.2z
		 M280,149l6.1,6.1l-6.1,6.1l-6.1-6.1L280,149z M304.7,150.1l3.8,3.8l-3.8,3.8l-3.8-3.8L304.7,150.1z M329.4,150.3l3.4,3.4l-3.4,3.4
		l-3.4-3.4L329.4,150.3z M354,149.5l5,5l-5,5l-5-5L354,149.5z M378.7,149.9l4.3,4.3l-4.3,4.3l-4.3-4.3L378.7,149.9z M403.4,151.5
		l1,1l-1,1l-1-1L403.4,151.5z M428.1,152L428.1,152L428.1,152L428.1,152z M452.8,151.1l1.8,1.8l-1.8,1.8l-1.8-1.8L452.8,151.1z
		 M477.5,150.6l2.9,2.9l-2.9,2.9l-2.9-2.9L477.5,150.6z M502.1,149.7l4.7,4.7l-4.7,4.7l-4.7-4.7L502.1,149.7z M20.8,164.4
		L20.8,164.4L20.8,164.4L20.8,164.4z M45.5,164.4L45.5,164.4L45.5,164.4L45.5,164.4z M70.2,164.4L70.2,164.4L70.2,164.4L70.2,164.4z
		 M94.9,163.1l2.5,2.5l-2.5,2.5l-2.5-2.5L94.9,163.1z M119.5,163.4l1.9,1.9l-1.9,1.9l-1.9-1.9L119.5,163.4z M144.2,163.5l1.7,1.7
		l-1.7,1.7l-1.7-1.7L144.2,163.5z M168.9,162l4.8,4.8l-4.8,4.8l-4.8-4.8L168.9,162z M193.6,162.1l4.5,4.5l-4.5,4.5l-4.5-4.5
		L193.6,162.1z M218.3,162.9l3,3l-3,3l-3-3L218.3,162.9z M243,161.6l5.5,5.5l-5.5,5.5l-5.5-5.5L243,161.6z M267.6,161l6.6,6.6
		l-6.6,6.6l-6.6-6.6L267.6,161z M292.3,162.4l3.9,3.9l-3.9,3.9l-3.9-3.9L292.3,162.4z M317,164.1l0.6,0.6l-0.6,0.6l-0.6-0.6
		L317,164.1z M341.7,163.5l1.7,1.7l-1.7,1.7l-1.7-1.7L341.7,163.5z M366.4,163l2.8,2.8l-2.8,2.8l-2.8-2.8L366.4,163z M391.1,164.1
		l0.5,0.5l-0.5,0.5l-0.5-0.5L391.1,164.1z M415.7,164.4L415.7,164.4L415.7,164.4L415.7,164.4z M440.4,163.2l2.3,2.3l-2.3,2.3
		l-2.3-2.3L440.4,163.2z M465.1,162.2l4.4,4.4l-4.4,4.4l-4.4-4.4L465.1,162.2z M489.8,162l4.7,4.7l-4.7,4.7l-4.7-4.7L489.8,162z
		 M514.5,162.3l4.2,4.2l-4.2,4.2l-4.2-4.2L514.5,162.3z M8.5,176.5l0.4,0.4l-0.4,0.4L8,176.9L8.5,176.5z M33.1,176.7L33.1,176.7
		L33.1,176.7L33.1,176.7z M57.8,176.7L57.8,176.7L57.8,176.7L57.8,176.7z M82.5,176.5l0.4,0.4l-0.4,0.4l-0.4-0.4L82.5,176.5z
		 M107.2,176.3l0.9,0.9l-0.9,0.9l-0.9-0.9L107.2,176.3z M131.9,175.9l1.7,1.7l-1.7,1.7l-1.7-1.7L131.9,175.9z M156.6,174.7l4,4l-4,4
		l-4-4L156.6,174.7z M181.2,174.5l4.3,4.3l-4.3,4.3l-4.3-4.3L181.2,174.5z M205.9,175.2l3.1,3.1l-3.1,3.1l-3.1-3.1L205.9,175.2z
		 M230.6,174.4l4.6,4.6l-4.6,4.6L226,179L230.6,174.4z M255.3,173.2l7.1,7.1l-7.1,7.1l-7.1-7.1L255.3,173.2z M280,173.6l6.1,6.1
		l-6.1,6.1l-6.1-6.1L280,173.6z M304.7,176.3l0.8,0.8l-0.8,0.8l-0.8-0.8L304.7,176.3z M329.4,176.7L329.4,176.7L329.4,176.7
		L329.4,176.7z M354,176.2l1.1,1.1l-1.1,1.1l-1.1-1.1L354,176.2z M378.7,176.4l0.7,0.7l-0.7,0.7l-0.7-0.7L378.7,176.4z M403.4,176.7
		L403.4,176.7L403.4,176.7L403.4,176.7z M428.1,176.3l0.9,0.9l-0.9,0.9l-0.9-0.9L428.1,176.3z M452.8,174.3l4.8,4.8l-4.8,4.8
		l-4.8-4.8L452.8,174.3z M477.5,174.3l4.8,4.8l-4.8,4.8l-4.8-4.8L477.5,174.3z M502.1,174.5l4.4,4.4l-4.4,4.4l-4.4-4.4L502.1,174.5z
		 M20.8,188.8l0.5,0.5l-0.5,0.5l-0.5-0.5L20.8,188.8z M45.5,189L45.5,189L45.5,189L45.5,189z M70.2,188.9l0.3,0.3l-0.3,0.3l-0.3-0.3
		L70.2,188.9z M94.9,189L94.9,189L94.9,189L94.9,189z M119.5,188.6l1,1l-1,1l-1-1L119.5,188.6z M144.2,187.2l3.7,3.7l-3.7,3.7
		l-3.7-3.7L144.2,187.2z M168.9,187.3l3.5,3.5l-3.5,3.5l-3.5-3.5L168.9,187.3z M193.6,188.3l1.5,1.5l-1.5,1.5l-1.5-1.5L193.6,188.3z
		 M218.3,187.9l2.4,2.4l-2.4,2.4l-2.4-2.4L218.3,187.9z M243,186l6.2,6.2l-6.2,6.2l-6.2-6.2L243,186z M267.6,185.3l7.6,7.6l-7.6,7.6
		l-7.6-7.6L267.6,185.3z M292.3,186.6l4.9,4.9l-4.9,4.9l-4.9-4.9L292.3,186.6z M317,189L317,189L317,189L317,189z M341.7,188.7
		l0.6,0.6l-0.6,0.6l-0.6-0.6L341.7,188.7z M366.4,187.9l2.3,2.3l-2.3,2.3l-2.3-2.3L366.4,187.9z M391.1,188.8l0.5,0.5l-0.5,0.5
		l-0.5-0.5L391.1,188.8z M415.7,189L415.7,189L415.7,189L415.7,189z M440.4,187.2l3.7,3.7l-3.7,3.7l-3.7-3.7L440.4,187.2z
		 M465.1,186.8l4.5,4.5l-4.5,4.5l-4.5-4.5L465.1,186.8z M489.8,187.1l3.9,3.9l-3.9,3.9l-3.9-3.9L489.8,187.1z M514.5,187.1l3.9,3.9
		l-3.9,3.9l-3.9-3.9L514.5,187.1z M8.5,199.8l3.2,3.2l-3.2,3.2L5.3,203L8.5,199.8z M33.1,201.1l0.6,0.6l-0.6,0.6l-0.6-0.6
		L33.1,201.1z M57.8,201.4L57.8,201.4L57.8,201.4L57.8,201.4z M82.5,201.4L82.5,201.4L82.5,201.4L82.5,201.4z M107.2,201.2l0.4,0.4
		l-0.4,0.4l-0.4-0.4L107.2,201.2z M131.9,199.7l3.4,3.4l-3.4,3.4l-3.4-3.4L131.9,199.7z M156.6,199.5l3.7,3.7l-3.7,3.7l-3.7-3.7
		L156.6,199.5z M181.2,201.2l0.4,0.4l-0.4,0.4l-0.4-0.4L181.2,201.2z M205.9,201.4L205.9,201.4L205.9,201.4L205.9,201.4z
		 M230.6,199.6l3.6,3.6l-3.6,3.6l-3.6-3.6L230.6,199.6z M255.3,197.7l7.3,7.3l-7.3,7.3l-7.3-7.3L255.3,197.7z M280,197.6l7.6,7.6
		l-7.6,7.6l-7.6-7.6L280,197.6z M304.7,199.7l3.5,3.5l-3.5,3.5l-3.5-3.5L304.7,199.7z M329.4,201.2l0.4,0.4l-0.4,0.4l-0.4-0.4
		L329.4,201.2z M354,199.9l3,3l-3,3l-3-3L354,199.9z M378.7,199.9l2.9,2.9l-2.9,2.9l-2.9-2.9L378.7,199.9z M403.4,201.4L403.4,201.4
		L403.4,201.4L403.4,201.4z M428.1,200.5l1.8,1.8l-1.8,1.8l-1.8-1.8L428.1,200.5z M452.8,199.4l4,4l-4,4l-4-4L452.8,199.4z
		 M477.5,200.3l2.1,2.1l-2.1,2.1l-2.1-2.1L477.5,200.3z M502.1,199.8l3.1,3.1l-3.1,3.1l-3.1-3.1L502.1,199.8z M20.8,212.2l3.1,3.1
		l-3.1,3.1l-3.1-3.1L20.8,212.2z M45.5,212.7l2,2l-2,2l-2-2L45.5,212.7z M70.2,213.4l0.7,0.7l-0.7,0.7l-0.7-0.7L70.2,213.4z
		 M94.9,213.7L94.9,213.7L94.9,213.7L94.9,213.7z M119.5,212.3l2.8,2.8l-2.8,2.8l-2.8-2.8L119.5,212.3z M144.2,211.5l4.4,4.4
		l-4.4,4.4l-4.4-4.4L144.2,211.5z M168.9,213.2l1.1,1.1l-1.1,1.1l-1.1-1.1L168.9,213.2z M193.6,213.7L193.6,213.7L193.6,213.7
		L193.6,213.7z M218.3,213.5l0.4,0.4l-0.4,0.4l-0.4-0.4L218.3,213.5z M243,211l5.4,5.4l-5.4,5.4l-5.4-5.4L243,211z M267.6,209.6
		l8.2,8.2l-8.2,8.2l-8.2-8.2L267.6,209.6z M292.3,210.3l6.9,6.9l-6.9,6.9l-6.9-6.9L292.3,210.3z M317,212.8l1.9,1.9l-1.9,1.9
		l-1.9-1.9L317,212.8z M341.7,212.4l2.7,2.7l-2.7,2.7l-2.7-2.7L341.7,212.4z M366.4,211.5l4.4,4.4l-4.4,4.4l-4.4-4.4L366.4,211.5z
		 M391.1,212.7l2.1,2.1l-2.1,2.1l-2.1-2.1L391.1,212.7z M415.7,213.4l0.6,0.6l-0.6,0.6l-0.6-0.6L415.7,213.4z M440.4,212.1l3.2,3.2
		l-3.2,3.2l-3.2-3.2L440.4,212.1z M465.1,212.8l1.8,1.8l-1.8,1.8l-1.8-1.8L465.1,212.8z M489.8,213.5l0.4,0.4l-0.4,0.4l-0.4-0.4
		L489.8,213.5z M514.5,212.2l3.1,3.1l-3.1,3.1l-3.1-3.1L514.5,212.2z M8.5,224.8l2.6,2.6L8.5,230l-2.6-2.6L8.5,224.8z M33.1,224.5
		l3.1,3.1l-3.1,3.1l-3.1-3.1L33.1,224.5z M57.8,224.2l3.8,3.8l-3.8,3.8L54,228L57.8,224.2z M82.5,225l2.2,2.2l-2.2,2.2l-2.2-2.2
		L82.5,225z M107.2,224.8l2.6,2.6l-2.6,2.6l-2.6-2.6L107.2,224.8z M131.9,223.7l4.8,4.8l-4.8,4.8l-4.8-4.8L131.9,223.7z
		 M156.6,224.6l3,3l-3,3l-3-3L156.6,224.6z M181.2,226.1L181.2,226.1L181.2,226.1L181.2,226.1z M205.9,226.1L205.9,226.1
		L205.9,226.1L205.9,226.1z M230.6,225l2.2,2.2l-2.2,2.2l-2.2-2.2L230.6,225z M255.3,222.4l7.3,7.3l-7.3,7.3l-7.3-7.3L255.3,222.4z
		 M280,222l8.2,8.2l-8.2,8.2l-8.2-8.2L280,222z M304.7,223.8l4.6,4.6l-4.6,4.6l-4.6-4.6L304.7,223.8z M329.4,225.5l1.2,1.2l-1.2,1.2
		l-1.2-1.2L329.4,225.5z M354,224.1l3.9,3.9L354,232l-3.9-3.9L354,224.1z M378.7,224l4.1,4.1l-4.1,4.1l-4.1-4.1L378.7,224z
		 M403.4,225.9l0.3,0.3l-0.3,0.3l-0.3-0.3L403.4,225.9z M428.1,224.9l2.4,2.4l-2.4,2.4l-2.4-2.4L428.1,224.9z M452.8,224.4l3.3,3.3
		l-3.3,3.3l-3.3-3.3L452.8,224.4z M477.5,226.1L477.5,226.1L477.5,226.1L477.5,226.1z M502.1,225.8l0.5,0.5l-0.5,0.5l-0.5-0.5
		L502.1,225.8z M20.8,238.1l0.5,0.5l-0.5,0.5l-0.5-0.5L20.8,238.1z M45.5,236.7l3.4,3.4l-3.4,3.4l-3.4-3.4L45.5,236.7z M70.2,236
		l4.8,4.8l-4.8,4.8l-4.8-4.8L70.2,236z M94.9,236.5l3.8,3.8l-3.8,3.8l-3.8-3.8L94.9,236.5z M119.5,235.7l5.4,5.4l-5.4,5.4l-5.4-5.4
		L119.5,235.7z M144.2,235.8l5.2,5.2l-5.2,5.2L139,241L144.2,235.8z M168.9,238l0.8,0.8l-0.8,0.8l-0.8-0.8L168.9,238z M193.6,238.4
		L193.6,238.4L193.6,238.4L193.6,238.4z M218.3,238.4L218.3,238.4L218.3,238.4L218.3,238.4z M243,235.9l5.1,5.1l-5.1,5.1l-5.1-5.1
		L243,235.9z M267.6,234.5l7.9,7.9l-7.9,7.9l-7.9-7.9L267.6,234.5z M292.3,235.6l5.7,5.7l-5.7,5.7l-5.7-5.7L292.3,235.6z M317,238.1
		l0.5,0.5l-0.5,0.5l-0.5-0.5L317,238.1z M341.7,237.9l1.1,1.1l-1.1,1.1l-1.1-1.1L341.7,237.9z M366.4,236.9l3.1,3.1l-3.1,3.1
		l-3.1-3.1L366.4,236.9z M391.1,237.9l1.1,1.1l-1.1,1.1L390,239L391.1,237.9z M415.7,238.2l0.5,0.5l-0.5,0.5l-0.5-0.5L415.7,238.2z
		 M440.4,236.6l3.7,3.7l-3.7,3.7l-3.7-3.7L440.4,236.6z M465.1,237l2.8,2.8l-2.8,2.8l-2.8-2.8L465.1,237z M489.8,238.4L489.8,238.4
		L489.8,238.4L489.8,238.4z M514.5,238.2l0.4,0.4l-0.4,0.4l-0.4-0.4L514.5,238.2z M8.5,250.8L8.5,250.8L8.5,250.8L8.5,250.8z
		 M33.1,250.8L33.1,250.8L33.1,250.8L33.1,250.8z M57.8,248.7l4,4l-4,4l-4-4L57.8,248.7z M82.5,248.2l5.1,5.1l-5.1,5.1l-5.1-5.1
		L82.5,248.2z M107.2,247.7l6,6l-6,6l-6-6L107.2,247.7z M131.9,247.4l6.8,6.8l-6.8,6.8l-6.8-6.8L131.9,247.4z M156.6,248.6l4.2,4.2
		l-4.2,4.2l-4.2-4.2L156.6,248.6z M181.2,250.8L181.2,250.8L181.2,250.8L181.2,250.8z M205.9,250.8L205.9,250.8L205.9,250.8
		L205.9,250.8z M230.6,249.8l1.9,1.9l-1.9,1.9l-1.9-1.9L230.6,249.8z M255.3,247.9l5.8,5.8l-5.8,5.8l-5.8-5.8L255.3,247.9z
		 M280,248.1l5.3,5.3l-5.3,5.3l-5.3-5.3L280,248.1z M304.7,250.4l0.8,0.8l-0.8,0.8l-0.8-0.8L304.7,250.4z M329.4,250.8L329.4,250.8
		L329.4,250.8L329.4,250.8z M354,250.6l0.2,0.2l-0.2,0.2l-0.2-0.2L354,250.6z M378.7,250.5l0.4,0.4l-0.4,0.4l-0.4-0.4L378.7,250.5z
		 M403.4,250.6l0.4,0.4l-0.4,0.4L403,251L403.4,250.6z M428.1,250.4l0.7,0.7l-0.7,0.7l-0.7-0.7L428.1,250.4z M452.8,248.8l3.8,3.8
		l-3.8,3.8l-3.8-3.8L452.8,248.8z M477.5,250.2l1.2,1.2l-1.2,1.2l-1.2-1.2L477.5,250.2z M502.1,250.8L502.1,250.8L502.1,250.8
		L502.1,250.8z M20.8,263.1L20.8,263.1L20.8,263.1L20.8,263.1z M45.5,262.8l0.6,0.6l-0.6,0.6l-0.6-0.6L45.5,262.8z M70.2,260.9
		l4.5,4.5l-4.5,4.5l-4.5-4.5L70.2,260.9z M94.9,260.1l6.1,6.1l-6.1,6.1l-6.1-6.1L94.9,260.1z M119.5,259.3l7.6,7.6l-7.6,7.6
		l-7.6-7.6L119.5,259.3z M144.2,259.8l6.7,6.7l-6.7,6.7l-6.7-6.7L144.2,259.8z M168.9,262.1l2.1,2.1l-2.1,2.1l-2.1-2.1L168.9,262.1z
		 M193.6,263l0.3,0.3l-0.3,0.3l-0.3-0.3L193.6,263z M218.3,263.1L218.3,263.1L218.3,263.1L218.3,263.1z M243,261.7l2.7,2.7l-2.7,2.7
		l-2.7-2.7L243,261.7z M267.6,261.4l3.4,3.4l-3.4,3.4l-3.4-3.4L267.6,261.4z M292.3,262.9l0.4,0.4l-0.4,0.4l-0.4-0.4L292.3,262.9z
		 M317,263.1L317,263.1L317,263.1L317,263.1z M341.7,263.1L341.7,263.1L341.7,263.1L341.7,263.1z M366.4,263.1L366.4,263.1
		L366.4,263.1L366.4,263.1z M391.1,263l0.3,0.3l-0.3,0.3l-0.3-0.3L391.1,263z M415.7,263l0.3,0.3l-0.3,0.3l-0.3-0.3L415.7,263z
		 M440.4,262.7l0.9,0.9l-0.9,0.9l-0.9-0.9L440.4,262.7z M465.1,261.8l2.6,2.6l-2.6,2.6l-2.6-2.6L465.1,261.8z M489.8,263.1
		L489.8,263.1L489.8,263.1L489.8,263.1z M514.5,263.1L514.5,263.1L514.5,263.1L514.5,263.1z M8.5,275.4L8.5,275.4L8.5,275.4
		L8.5,275.4z M33.1,275.4L33.1,275.4L33.1,275.4L33.1,275.4z M57.8,274.9l1,1l-1,1l-1-1L57.8,274.9z M82.5,273.2l4.6,4.6l-4.6,4.6
		l-4.6-4.6L82.5,273.2z M107.2,271.6l7.7,7.7l-7.7,7.7l-7.7-7.7L107.2,271.6z M131.9,271.4l8.1,8.1l-8.1,8.1l-8.1-8.1L131.9,271.4z
		 M156.6,273l4.9,4.9l-4.9,4.9l-4.9-4.9L156.6,273z M181.2,275.2l0.5,0.5l-0.5,0.5l-0.5-0.5L181.2,275.2z M205.9,275.3l0.4,0.4
		l-0.4,0.4l-0.4-0.4L205.9,275.3z M230.6,274.9l1,1l-1,1l-1-1L230.6,274.9z M255.3,275l0.9,0.9l-0.9,0.9l-0.9-0.9L255.3,275z
		 M280,275.3l0.2,0.2l-0.2,0.2l-0.2-0.2L280,275.3z M304.7,275.4L304.7,275.4L304.7,275.4L304.7,275.4z M329.4,275.3l0.4,0.4
		l-0.4,0.4l-0.4-0.4L329.4,275.3z M354,275.4L354,275.4L354,275.4L354,275.4z M378.7,275.4L378.7,275.4L378.7,275.4L378.7,275.4z
		 M403.4,275.4L403.4,275.4L403.4,275.4L403.4,275.4z M428.1,275.3l0.3,0.3l-0.3,0.3l-0.3-0.3L428.1,275.3z M452.8,275l0.8,0.8
		l-0.8,0.8l-0.8-0.8L452.8,275z M477.5,274.9l1.1,1.1l-1.1,1.1l-1.1-1.1L477.5,274.9z M502.1,275.4L502.1,275.4L502.1,275.4
		L502.1,275.4z M20.8,287.8L20.8,287.8L20.8,287.8L20.8,287.8z M45.5,287.6l0.4,0.4l-0.4,0.4l-0.4-0.4L45.5,287.6z M70.2,287.2
		l1.2,1.2l-1.2,1.2l-1.2-1.2L70.2,287.2z M94.9,284.8l6,6l-6,6l-6-6L94.9,284.8z M119.5,283.5l8.6,8.6l-8.6,8.6l-8.6-8.6
		L119.5,283.5z M144.2,284.4l6.7,6.7l-6.7,6.7l-6.7-6.7L144.2,284.4z M168.9,286.7l2.1,2.1l-2.1,2.1l-2.1-2.1L168.9,286.7z
		 M193.6,287.5l0.6,0.6l-0.6,0.6l-0.6-0.6L193.6,287.5z M218.3,286.7l2.2,2.2l-2.2,2.2l-2.2-2.2L218.3,286.7z M243,287.6l0.3,0.3
		l-0.3,0.3l-0.3-0.3L243,287.6z M267.6,287.7l0.3,0.3l-0.3,0.3l-0.3-0.3L267.6,287.7z M292.3,287.7l0.2,0.2l-0.2,0.2l-0.2-0.2
		L292.3,287.7z M317,287.6l0.4,0.4l-0.4,0.4l-0.4-0.4L317,287.6z M341.7,287.6l0.3,0.3l-0.3,0.3l-0.3-0.3L341.7,287.6z M366.4,287.6
		l0.4,0.4l-0.4,0.4L366,288L366.4,287.6z M391.1,287.7l0.2,0.2l-0.2,0.2l-0.2-0.2L391.1,287.7z M415.7,287.6l0.4,0.4l-0.4,0.4
		l-0.4-0.4L415.7,287.6z M440.4,287.8L440.4,287.8L440.4,287.8L440.4,287.8z M465.1,287l1.5,1.5l-1.5,1.5l-1.5-1.5L465.1,287z
		 M489.8,287l1.5,1.5l-1.5,1.5l-1.5-1.5L489.8,287z M514.5,287.8L514.5,287.8L514.5,287.8L514.5,287.8z M8.5,298.9l2.4,2.4l-2.4,2.4
		l-2.4-2.4L8.5,298.9z M33.1,299.7l0.9,0.9l-0.9,0.9l-0.9-0.9L33.1,299.7z M57.8,300.1L57.8,300.1L57.8,300.1L57.8,300.1z
		 M82.5,298.8l2.7,2.7l-2.7,2.7l-2.7-2.7L82.5,298.8z M107.2,296.2l7.9,7.9l-7.9,7.9l-7.9-7.9L107.2,296.2z M131.9,296.1l8,8l-8,8
		l-8-8L131.9,296.1z M156.6,298.3l3.8,3.8l-3.8,3.8l-3.8-3.8L156.6,298.3z M181.2,299.9l0.4,0.4l-0.4,0.4l-0.4-0.4L181.2,299.9z
		 M205.9,298.7l2.9,2.9l-2.9,2.9l-2.9-2.9L205.9,298.7z M230.6,298.9l2.5,2.5l-2.5,2.5l-2.5-2.5L230.6,298.9z M255.3,300.1
		L255.3,300.1L255.3,300.1L255.3,300.1z M280,300.1L280,300.1L280,300.1L280,300.1z M304.7,299.4l1.4,1.4l-1.4,1.4l-1.4-1.4
		L304.7,299.4z M329.4,299.6l1.1,1.1l-1.1,1.1l-1.1-1.1L329.4,299.6z M354,299.4l1.5,1.5l-1.5,1.5l-1.5-1.5L354,299.4z M378.7,299.3
		l1.7,1.7l-1.7,1.7l-1.7-1.7L378.7,299.3z M403.4,299.9l0.5,0.5l-0.5,0.5l-0.5-0.5L403.4,299.9z M428.1,300.1L428.1,300.1
		L428.1,300.1L428.1,300.1z M452.8,299.8l0.7,0.7l-0.7,0.7l-0.7-0.7L452.8,299.8z M477.5,298.3l3.7,3.7l-3.7,3.7l-3.7-3.7
		L477.5,298.3z M502.1,298.9l2.5,2.5l-2.5,2.5l-2.5-2.5L502.1,298.9z M20.8,310l4.9,4.9l-4.9,4.9l-4.9-4.9L20.8,310z M45.5,311.8
		l1.4,1.4l-1.4,1.4l-1.4-1.4L45.5,311.8z M70.2,312.2l0.6,0.6l-0.6,0.6l-0.6-0.6L70.2,312.2z M94.9,309.7l5.6,5.6l-5.6,5.6l-5.6-5.6
		L94.9,309.7z M119.5,308.3l8.3,8.3l-8.3,8.3l-8.3-8.3L119.5,308.3z M144.2,309.6l5.8,5.8l-5.8,5.8l-5.8-5.8L144.2,309.6z
		 M168.9,312.1l0.7,0.7l-0.7,0.7l-0.7-0.7L168.9,312.1z M193.6,311.6l1.7,1.7l-1.7,1.7l-1.7-1.7L193.6,311.6z M218.3,310.4l4.2,4.2
		l-4.2,4.2l-4.2-4.2L218.3,310.4z M243,311.9l1.1,1.1l-1.1,1.1l-1.1-1.1L243,311.9z M267.6,312.2l0.5,0.5l-0.5,0.5l-0.5-0.5
		L267.6,312.2z M292.3,310.9l3.1,3.1l-3.1,3.1l-3.1-3.1L292.3,310.9z M317,310.4l4.2,4.2l-4.2,4.2l-4.2-4.2L317,310.4z M341.7,310.4
		l4.2,4.2l-4.2,4.2l-4.2-4.2L341.7,310.4z M366.4,310.2l4.5,4.5l-4.5,4.5l-4.5-4.5L366.4,310.2z M391.1,310.4l4,4l-4,4l-4-4
		L391.1,310.4z M415.7,312.1l0.7,0.7l-0.7,0.7l-0.7-0.7L415.7,312.1z M440.4,312.5L440.4,312.5L440.4,312.5L440.4,312.5z
		 M465.1,310.7l3.6,3.6l-3.6,3.6l-3.6-3.6L465.1,310.7z M489.8,310l5,5l-5,5l-5-5L489.8,310z M514.5,310.4l4.2,4.2l-4.2,4.2
		l-4.2-4.2L514.5,310.4z M8.5,321.2l7.2,7.2l-7.2,7.2l-7.2-7.2L8.5,321.2z M33.1,322.1l5.4,5.4l-5.4,5.4l-5.4-5.4L33.1,322.1z
		 M57.8,324.5l0.7,0.7l-0.7,0.7l-0.7-0.7L57.8,324.5z M82.5,323.9l1.9,1.9l-1.9,1.9l-1.9-1.9L82.5,323.9z M107.2,321.5l6.7,6.7
		l-6.7,6.7l-6.7-6.7L107.2,321.5z M131.9,321.4l6.9,6.9l-6.9,6.9l-6.9-6.9L131.9,321.4z M156.6,323.3l3,3l-3,3l-3-3L156.6,323.3z
		 M181.2,324.4l0.9,0.9l-0.9,0.9l-0.9-0.9L181.2,324.4z M205.9,323.2l3.1,3.1l-3.1,3.1l-3.1-3.1L205.9,323.2z M230.6,323.4l2.9,2.9
		l-2.9,2.9l-2.9-2.9L230.6,323.4z M255.3,324.2l1.2,1.2l-1.2,1.2l-1.2-1.2L255.3,324.2z M280,322.7l4.2,4.2l-4.2,4.2l-4.2-4.2
		L280,322.7z M304.7,321.6l6.5,6.5l-6.5,6.5l-6.5-6.5L304.7,321.6z M329.4,321.8l6.1,6.1l-6.1,6.1l-6.1-6.1L329.4,321.8z M354,321.7
		l6.3,6.3l-6.3,6.3l-6.3-6.3L354,321.7z M378.7,321.6l6.4,6.4l-6.4,6.4l-6.4-6.4L378.7,321.6z M403.4,322.7l4.3,4.3l-4.3,4.3
		l-4.3-4.3L403.4,322.7z M428.1,324.8L428.1,324.8L428.1,324.8L428.1,324.8z M452.8,324.2l1.3,1.3l-1.3,1.3l-1.3-1.3L452.8,324.2z
		 M477.5,322.4l4.7,4.7l-4.7,4.7l-4.7-4.7L477.5,322.4z M502.1,321.9l5.8,5.8l-5.8,5.8l-5.8-5.8L502.1,321.9z M20.8,333.2l7.9,7.9
		l-7.9,7.9l-7.9-7.9L20.8,333.2z M45.5,335.2l3.8,3.8l-3.8,3.8l-3.8-3.8L45.5,335.2z M70.2,337.2L70.2,337.2L70.2,337.2L70.2,337.2z
		 M94.9,335.5l3.2,3.2l-3.2,3.2l-3.2-3.2L94.9,335.5z M119.5,334.2l5.9,5.9l-5.9,5.9l-5.9-5.9L119.5,334.2z M144.2,334.7l4.9,4.9
		l-4.9,4.9l-4.9-4.9L144.2,334.7z M168.9,335.9l2.5,2.5l-2.5,2.5l-2.5-2.5L168.9,335.9z M193.6,336l2.4,2.4l-2.4,2.4l-2.4-2.4
		L193.6,336z M218.3,336.1l2.2,2.2l-2.2,2.2l-2.2-2.2L218.3,336.1z M243,336.6l1.1,1.1l-1.1,1.1l-1.1-1.1L243,336.6z M267.6,334.8
		l4.8,4.8l-4.8,4.8l-4.8-4.8L267.6,334.8z M292.3,333.6l7.2,7.2l-7.2,7.2l-7.2-7.2L292.3,333.6z M317,333.7l6.9,6.9l-6.9,6.9
		l-6.9-6.9L317,333.7z M341.7,333.7l6.9,6.9l-6.9,6.9l-6.9-6.9L341.7,333.7z M366.4,333.5l7.3,7.3l-7.3,7.3l-7.3-7.3L366.4,333.5z
		 M391.1,333.9l6.4,6.4l-6.4,6.4l-6.4-6.4L391.1,333.9z M415.7,336.5l1.4,1.4l-1.4,1.4l-1.4-1.4L415.7,336.5z M440.4,337.2
		L440.4,337.2L440.4,337.2L440.4,337.2z M465.1,336.1l2.1,2.1l-2.1,2.1l-2.1-2.1L465.1,336.1z M489.8,334.7l5,5l-5,5l-5-5
		L489.8,334.7z M514.5,333.8l6.6,6.6l-6.6,6.6l-6.6-6.6L514.5,333.8z M8.5,345.4l8.2,8.2l-8.2,8.2l-8.2-8.2L8.5,345.4z M33.1,346.3
		l6.5,6.5l-6.5,6.5l-6.5-6.5L33.1,346.3z M57.8,349l1,1l-1,1l-1-1L57.8,349z M82.5,349.5L82.5,349.5L82.5,349.5L82.5,349.5z
		 M107.2,347.9l3.2,3.2l-3.2,3.2l-3.2-3.2L107.2,347.9z M131.9,347.4l4.3,4.3l-4.3,4.3l-4.3-4.3L131.9,347.4z M156.6,347.5l4,4l-4,4
		l-4-4L156.6,347.5z M181.2,347.7l3.7,3.7l-3.7,3.7l-3.7-3.7L181.2,347.7z M205.9,348.7l1.5,1.5l-1.5,1.5l-1.5-1.5L205.9,348.7z
		 M230.6,349.4l0.3,0.3l-0.3,0.3l-0.3-0.3L230.6,349.4z M255.3,347.4l4.2,4.2l-4.2,4.2l-4.2-4.2L255.3,347.4z M280,345.8l7.4,7.4
		l-7.4,7.4l-7.4-7.4L280,345.8z M304.7,345.9l7.3,7.3l-7.3,7.3l-7.3-7.3L304.7,345.9z M329.4,346.4l6.2,6.2l-6.2,6.2l-6.2-6.2
		L329.4,346.4z M354,346l7,7l-7,7l-7-7L354,346z M378.7,346l7,7l-7,7l-7-7L378.7,346z M403.4,347.9l3.3,3.3l-3.3,3.3l-3.3-3.3
		L403.4,347.9z M428.1,349.5L428.1,349.5L428.1,349.5L428.1,349.5z M452.8,349.5L452.8,349.5L452.8,349.5L452.8,349.5z M477.5,348.4
		l2.2,2.2l-2.2,2.2l-2.2-2.2L477.5,348.4z M502.1,346.8l5.4,5.4l-5.4,5.4l-5.4-5.4L502.1,346.8z M20.8,358.4l6.8,6.8l-6.8,6.8
		l-6.8-6.8L20.8,358.4z M45.5,360.3l3.1,3.1l-3.1,3.1l-3.1-3.1L45.5,360.3z M70.2,361.8L70.2,361.8L70.2,361.8L70.2,361.8z
		 M94.9,361.7l0.3,0.3l-0.3,0.3l-0.3-0.3L94.9,361.7z M119.5,360.9l2,2l-2,2l-2-2L119.5,360.9z M144.2,360.5l2.8,2.8l-2.8,2.8
		l-2.8-2.8L144.2,360.5z M168.9,359.5l4.7,4.7l-4.7,4.7l-4.7-4.7L168.9,359.5z M193.6,360.3l3.1,3.1l-3.1,3.1l-3.1-3.1L193.6,360.3z
		 M218.3,361.8L218.3,361.8L218.3,361.8L218.3,361.8z M243,360.8l2.1,2.1L243,365l-2.1-2.1L243,360.8z M267.6,358.3l7.1,7.1
		l-7.1,7.1l-7.1-7.1L267.6,358.3z M292.3,358.1l7.5,7.5l-7.5,7.5l-7.5-7.5L292.3,358.1z M317,359.3l5.1,5.1l-5.1,5.1l-5.1-5.1
		L317,359.3z M341.7,359.3l5.2,5.2l-5.2,5.2l-5.2-5.2L341.7,359.3z M366.4,358.6l6.4,6.4l-6.4,6.4L360,365L366.4,358.6z
		 M391.1,359.7l4.3,4.3l-4.3,4.3l-4.3-4.3L391.1,359.7z M415.7,361.6l0.5,0.5l-0.5,0.5l-0.5-0.5L415.7,361.6z M440.4,361.8
		L440.4,361.8L440.4,361.8L440.4,361.8z M465.1,361.8L465.1,361.8L465.1,361.8L465.1,361.8z M489.8,360.5l2.7,2.7l-2.7,2.7l-2.7-2.7
		L489.8,360.5z M514.5,359.3l5.1,5.1l-5.1,5.1l-5.1-5.1L514.5,359.3z M8.5,371.6l5.1,5.1l-5.1,5.1l-5.1-5.1L8.5,371.6z M33.1,372.3
		l3.7,3.7l-3.7,3.7l-3.7-3.7L33.1,372.3z M57.8,373.9l0.5,0.5l-0.5,0.5l-0.5-0.5L57.8,373.9z M82.5,373.5l1.4,1.4l-1.4,1.4l-1.4-1.4
		L82.5,373.5z M107.2,373.6l1.1,1.1l-1.1,1.1l-1.1-1.1L107.2,373.6z M131.9,373.8l0.7,0.7l-0.7,0.7l-0.7-0.7L131.9,373.8z
		 M156.6,372.6l3.1,3.1l-3.1,3.1l-3.1-3.1L156.6,372.6z M181.2,371.9l4.5,4.5l-4.5,4.5l-4.5-4.5L181.2,371.9z M205.9,373.4l1.5,1.5
		l-1.5,1.5l-1.5-1.5L205.9,373.4z M230.6,373.7l0.9,0.9l-0.9,0.9l-0.9-0.9L230.6,373.7z M255.3,371.1l6.3,6.3l-6.3,6.3l-6.3-6.3
		L255.3,371.1z M280,370.2l7.9,7.9L280,386l-7.9-7.9L280,370.2z M304.7,371.6l5.1,5.1l-5.1,5.1l-5.1-5.1L304.7,371.6z M329.4,373
		l2.3,2.3l-2.3,2.3l-2.3-2.3L329.4,373z M354,372l4.3,4.3l-4.3,4.3l-4.3-4.3L354,372z M378.7,371.9l4.6,4.6l-4.6,4.6l-4.6-4.6
		L378.7,371.9z M403.4,374l0.3,0.3l-0.3,0.3l-0.3-0.3L403.4,374z M428.1,374.2L428.1,374.2L428.1,374.2L428.1,374.2z M452.8,373.8
		l0.8,0.8l-0.8,0.8l-0.8-0.8L452.8,373.8z M477.5,373.5l1.4,1.4l-1.4,1.4l-1.4-1.4L477.5,373.5z M502.1,373.1l2.3,2.3l-2.3,2.3
		l-2.3-2.3L502.1,373.1z M20.8,385.4l2.3,2.3l-2.3,2.3l-2.3-2.3L20.8,385.4z M45.5,385.7l1.7,1.7l-1.7,1.7l-1.7-1.7L45.5,385.7z
		 M70.2,384.9l3.3,3.3l-3.3,3.3l-3.3-3.3L70.2,384.9z M94.9,384.4l4.3,4.3l-4.3,4.3l-4.3-4.3L94.9,384.4z M119.5,385.8l1.4,1.4
		l-1.4,1.4l-1.4-1.4L119.5,385.8z M144.2,386.4l0.3,0.3l-0.3,0.3l-0.3-0.3L144.2,386.4z M168.9,384.7l3.6,3.6l-3.6,3.6l-3.6-3.6
		L168.9,384.7z M193.6,384.7l3.6,3.6l-3.6,3.6l-3.6-3.6L193.6,384.7z M218.3,385.7l1.6,1.6l-1.6,1.6l-1.6-1.6L218.3,385.7z M243,384
		l5.1,5.1l-5.1,5.1l-5.1-5.1L243,384z M267.6,382.5l8.1,8.1l-8.1,8.1l-8.1-8.1L267.6,382.5z M292.3,383.1l6.8,6.8l-6.8,6.8l-6.8-6.8
		L292.3,383.1z M317,385.8l1.4,1.4l-1.4,1.4l-1.4-1.4L317,385.8z M341.7,385.6l1.8,1.8l-1.8,1.8l-1.8-1.8L341.7,385.6z M366.4,384.4
		l4.2,4.2l-4.2,4.2l-4.2-4.2L366.4,384.4z M391.1,385.7l1.7,1.7l-1.7,1.7l-1.7-1.7L391.1,385.7z M415.7,386.5L415.7,386.5
		L415.7,386.5L415.7,386.5z M440.4,386.1l0.8,0.8l-0.8,0.8l-0.8-0.8L440.4,386.1z M465.1,384.6l3.8,3.8l-3.8,3.8l-3.8-3.8
		L465.1,384.6z M489.8,385.4l2.3,2.3l-2.3,2.3l-2.3-2.3L489.8,385.4z M514.5,386l1,1l-1,1l-1-1L514.5,386z M8.5,398.7l0.4,0.4
		l-0.4,0.4L8.1,399L8.5,398.7z M33.1,398.4l1,1l-1,1l-1-1L33.1,398.4z M57.8,396.5l4.7,4.7l-4.7,4.7l-4.7-4.7L57.8,396.5z
		 M82.5,395.5l6.7,6.7l-6.7,6.7l-6.7-6.7L82.5,395.5z M107.2,396.1l5.5,5.5l-5.5,5.5l-5.5-5.5L107.2,396.1z M131.9,398.2l1.2,1.2
		l-1.2,1.2l-1.2-1.2L131.9,398.2z M156.6,397.9l1.9,1.9l-1.9,1.9l-1.9-1.9L156.6,397.9z M181.2,396.8l4.1,4.1l-4.1,4.1l-4.1-4.1
		L181.2,396.8z M205.9,397.4l2.9,2.9l-2.9,2.9l-2.9-2.9L205.9,397.4z M230.6,397.1l3.6,3.6l-3.6,3.6l-3.6-3.6L230.6,397.1z
		 M255.3,395.2l7.3,7.3l-7.3,7.3l-7.3-7.3L255.3,395.2z M280,394.8l8.1,8.1L280,411l-8.1-8.1L280,394.8z M304.7,396.4l5,5l-5,5l-5-5
		L304.7,396.4z M329.4,398.2l1.4,1.4l-1.4,1.4l-1.4-1.4L329.4,398.2z M354,397.2l3.4,3.4L354,404l-3.4-3.4L354,397.2z M378.7,396.9
		l3.9,3.9l-3.9,3.9l-3.9-3.9L378.7,396.9z M403.4,398.6l0.5,0.5l-0.5,0.5l-0.5-0.5L403.4,398.6z M428.1,398.7l0.2,0.2l-0.2,0.2
		l-0.2-0.2L428.1,398.7z M452.8,397l3.8,3.8l-3.8,3.8l-3.8-3.8L452.8,397z M477.5,396.7l4.4,4.4l-4.4,4.4l-4.4-4.4L477.5,396.7z
		 M502.1,398.5l0.8,0.8l-0.8,0.8l-0.8-0.8L502.1,398.5z M20.8,411.2L20.8,411.2L20.8,411.2L20.8,411.2z M45.5,409.1l4.1,4.1
		l-4.1,4.1l-4.1-4.1L45.5,409.1z M70.2,407.5l7.4,7.4l-7.4,7.4l-7.4-7.4L70.2,407.5z M94.9,407.2l8,8l-8,8l-8-8L94.9,407.2z
		 M119.5,408.7l5,5l-5,5l-5-5L119.5,408.7z M144.2,410.3l1.8,1.8l-1.8,1.8l-1.8-1.8L144.2,410.3z M168.9,409.1l4.3,4.3l-4.3,4.3
		l-4.3-4.3L168.9,409.1z M193.6,409.3l3.8,3.8l-3.8,3.8l-3.8-3.8L193.6,409.3z M218.3,410.3l1.8,1.8l-1.8,1.8l-1.8-1.8L218.3,410.3z
		 M243,408.6l5.2,5.2L243,419l-5.2-5.2L243,408.6z M267.6,407.3l7.8,7.8l-7.8,7.8l-7.8-7.8L267.6,407.3z M292.3,407.6l7.2,7.2
		l-7.2,7.2l-7.2-7.2L292.3,407.6z M317,409l4.4,4.4l-4.4,4.4l-4.4-4.4L317,409z M341.7,409.7l3.1,3.1l-3.1,3.1l-3.1-3.1L341.7,409.7
		z M366.4,409.2l3.9,3.9l-3.9,3.9l-3.9-3.9L366.4,409.2z M391.1,409.6l3.2,3.2l-3.2,3.2l-3.2-3.2L391.1,409.6z M415.7,410.8l0.8,0.8
		l-0.8,0.8l-0.8-0.8L415.7,410.8z M440.4,410.3l1.9,1.9l-1.9,1.9l-1.9-1.9L440.4,410.3z M465.1,408.9l4.6,4.6l-4.6,4.6l-4.6-4.6
		L465.1,408.9z M489.8,410.1l2.3,2.3l-2.3,2.3l-2.3-2.3L489.8,410.1z M514.5,411.2L514.5,411.2L514.5,411.2L514.5,411.2z M8.5,423.3
		l0.4,0.4l-0.4,0.4L8,423.8L8.5,423.3z M33.1,422.6l2,2l-2,2l-2-2L33.1,422.6z M57.8,420.1l6.8,6.8l-6.8,6.8L51,427L57.8,420.1z
		 M82.5,419.3l8.4,8.4l-8.4,8.4l-8.4-8.4L82.5,419.3z M107.2,420l7,7l-7,7l-7-7L107.2,420z M131.9,421.7l3.8,3.8l-3.8,3.8l-3.8-3.8
		L131.9,421.7z M156.6,421.5l4.1,4.1l-4.1,4.1l-4.1-4.1L156.6,421.5z M181.2,421.2l4.7,4.7l-4.7,4.7l-4.7-4.7L181.2,421.2z
		 M205.9,422.6l1.9,1.9l-1.9,1.9l-1.9-1.9L205.9,422.6z M230.6,422.7l1.7,1.7l-1.7,1.7l-1.7-1.7L230.6,422.7z M255.3,420.5l6.1,6.1
		l-6.1,6.1l-6.1-6.1L255.3,420.5z M280,419.8l7.4,7.4l-7.4,7.4l-7.4-7.4L280,419.8z M304.7,420.4l6.3,6.3l-6.3,6.3l-6.3-6.3
		L304.7,420.4z M329.4,421.4l4.3,4.3l-4.3,4.3l-4.3-4.3L329.4,421.4z M354,422l3.1,3.1l-3.1,3.1l-3.1-3.1L354,422z M378.7,421.6
		l3.9,3.9l-3.9,3.9l-3.9-3.9L378.7,421.6z M403.4,421.7l3.7,3.7l-3.7,3.7l-3.7-3.7L403.4,421.7z M428.1,422.9l1.2,1.2l-1.2,1.2
		l-1.2-1.2L428.1,422.9z M452.8,422.2l2.6,2.6l-2.6,2.6l-2.6-2.6L452.8,422.2z M477.5,421.8l3.5,3.5l-3.5,3.5l-3.5-3.5L477.5,421.8z
		 M502.1,423.4l0.2,0.2l-0.2,0.2l-0.2-0.2L502.1,423.4z M20.8,435.5l0.8,0.8l-0.8,0.8l-0.8-0.8L20.8,435.5z M45.5,433.2l5.3,5.3
		l-5.3,5.3l-5.3-5.3L45.5,433.2z M70.2,432.2l7.4,7.4l-7.4,7.4l-7.4-7.4L70.2,432.2z M94.9,432.4l7,7l-7,7l-7-7L94.9,432.4z
		 M119.5,433.7l4.3,4.3l-4.3,4.3l-4.3-4.3L119.5,433.7z M144.2,434.2l3.4,3.4l-3.4,3.4l-3.4-3.4L144.2,434.2z M168.9,433.3l5.2,5.2
		l-5.2,5.2l-5.2-5.2L168.9,433.3z M193.6,434.3l3.2,3.2l-3.2,3.2l-3.2-3.2L193.6,434.3z M218.3,435.9L218.3,435.9L218.3,435.9
		L218.3,435.9z M243,434.3l3.1,3.1l-3.1,3.1l-3.1-3.1L243,434.3z M267.6,432.7l6.3,6.3l-6.3,6.3l-6.3-6.3L267.6,432.7z M292.3,432.7
		l6.3,6.3l-6.3,6.3l-6.3-6.3L292.3,432.7z M317,433.2l5.3,5.3l-5.3,5.3l-5.3-5.3L317,433.2z M341.7,434.5l2.7,2.7l-2.7,2.7l-2.7-2.7
		L341.7,434.5z M366.4,434.8l2.1,2.1l-2.1,2.1l-2.1-2.1L366.4,434.8z M391.1,433.7l4.5,4.5l-4.5,4.5l-4.5-4.5L391.1,433.7z
		 M415.7,434l3.8,3.8l-3.8,3.8l-3.8-3.8L415.7,434z M440.4,435.5l0.7,0.7l-0.7,0.7l-0.7-0.7L440.4,435.5z M465.1,434.6l2.5,2.5
		l-2.5,2.5l-2.5-2.5L465.1,434.6z M489.8,435.2l1.5,1.5l-1.5,1.5l-1.5-1.5L489.8,435.2z M514.5,435.9L514.5,435.9L514.5,435.9
		L514.5,435.9z M8.5,447.4l1.6,1.6l-1.6,1.6L6.8,449L8.5,447.4z M33.1,446l4.4,4.4l-4.4,4.4l-4.4-4.4L33.1,446z M57.8,445.3l5.8,5.8
		l-5.8,5.8l-5.8-5.8L57.8,445.3z M82.5,445.6l5.4,5.4l-5.4,5.4l-5.4-5.4L82.5,445.6z M107.2,446.6l3.2,3.2l-3.2,3.2l-3.2-3.2
		L107.2,446.6z M131.9,447.5l1.5,1.5l-1.5,1.5l-1.5-1.5L131.9,447.5z M156.6,446.3l3.8,3.8l-3.8,3.8l-3.8-3.8L156.6,446.3z
		 M181.2,446.2l4.1,4.1l-4.1,4.1l-4.1-4.1L181.2,446.2z M205.9,448l0.5,0.5l-0.5,0.5l-0.5-0.5L205.9,448z M230.6,447.8l0.9,0.9
		l-0.9,0.9l-0.9-0.9L230.6,447.8z M255.3,445.9l4.7,4.7l-4.7,4.7l-4.7-4.7L255.3,445.9z M280,445.5l5.5,5.5l-5.5,5.5l-5.5-5.5
		L280,445.5z M304.7,446l4.5,4.5l-4.5,4.5l-4.5-4.5L304.7,446z M329.4,446.8l2.9,2.9l-2.9,2.9l-2.9-2.9L329.4,446.8z M354,448.1
		l0.3,0.3l-0.3,0.3l-0.3-0.3L354,448.1z M378.7,447.1l2.3,2.3l-2.3,2.3l-2.3-2.3L378.7,447.1z M403.4,445.8l4.8,4.8l-4.8,4.8
		l-4.8-4.8L403.4,445.8z M428.1,446.8l2.8,2.8l-2.8,2.8l-2.8-2.8L428.1,446.8z M452.8,447.9l0.6,0.6l-0.6,0.6l-0.6-0.6L452.8,447.9z
		 M477.5,446.7l3.1,3.1l-3.1,3.1l-3.1-3.1L477.5,446.7z M502.1,447.5l1.5,1.5l-1.5,1.5l-1.5-1.5L502.1,447.5z M20.8,458l5.1,5.1
		l-5.1,5.1l-5.1-5.1L20.8,458z M45.5,457.8l5.5,5.5l-5.5,5.5l-5.5-5.5L45.5,457.8z M70.2,458.9l3.4,3.4l-3.4,3.4l-3.4-3.4
		L70.2,458.9z M94.9,459.8l1.5,1.5l-1.5,1.5l-1.5-1.5L94.9,459.8z M119.5,460.4l0.3,0.3l-0.3,0.3l-0.3-0.3L119.5,460.4z
		 M144.2,460.3l0.5,0.5l-0.5,0.5l-0.5-0.5L144.2,460.3z M168.9,459.2l2.7,2.7l-2.7,2.7l-2.7-2.7L168.9,459.2z M193.6,459.8l1.6,1.6
		l-1.6,1.6l-1.6-1.6L193.6,459.8z M218.3,459.7l1.7,1.7l-1.7,1.7l-1.7-1.7L218.3,459.7z M243,458.4l4.3,4.3L243,467l-4.3-4.3
		L243,458.4z M267.6,458.1l5,5l-5,5l-5-5L267.6,458.1z M292.3,459.1l2.9,2.9l-2.9,2.9l-2.9-2.9L292.3,459.1z M317,459.6l1.9,1.9
		l-1.9,1.9l-1.9-1.9L317,459.6z M341.7,460.6L341.7,460.6L341.7,460.6L341.7,460.6z M366.4,460.6L366.4,460.6L366.4,460.6
		L366.4,460.6z M391.1,458.9l3.3,3.3l-3.3,3.3l-3.3-3.3L391.1,458.9z M415.7,458.5l4.1,4.1l-4.1,4.1l-4.1-4.1L415.7,458.5z
		 M440.4,459.4l2.4,2.4l-2.4,2.4l-2.4-2.4L440.4,459.4z M465.1,458.7l3.7,3.7l-3.7,3.7l-3.7-3.7L465.1,458.7z M489.8,458.3l4.5,4.5
		l-4.5,4.5l-4.5-4.5L489.8,458.3z M514.5,458.9l3.3,3.3l-3.3,3.3l-3.3-3.3L514.5,458.9z M8.5,469.7l6.5,6.5l-6.5,6.5L2,476.2
		L8.5,469.7z M33.1,469.6l6.7,6.7l-6.7,6.7l-6.7-6.7L33.1,469.6z M57.8,470.8l4.2,4.2l-4.2,4.2l-4.2-4.2L57.8,470.8z M82.5,472.8
		l0.2,0.2l-0.2,0.2l-0.2-0.2L82.5,472.8z M107.2,472.9L107.2,472.9L107.2,472.9L107.2,472.9z M131.9,472.9L131.9,472.9L131.9,472.9
		L131.9,472.9z M156.6,472.9L156.6,472.9L156.6,472.9L156.6,472.9z M181.2,472.6l0.7,0.7l-0.7,0.7l-0.7-0.7L181.2,472.6z
		 M205.9,471.6l2.6,2.6l-2.6,2.6l-2.6-2.6L205.9,471.6z M230.6,470.4l5,5l-5,5l-5-5L230.6,470.4z M255.3,470.2l5.5,5.5l-5.5,5.5
		l-5.5-5.5L255.3,470.2z M280,471.8l2.2,2.2l-2.2,2.2l-2.2-2.2L280,471.8z M304.7,472.8l0.3,0.3l-0.3,0.3l-0.3-0.3L304.7,472.8z
		 M329.4,472.8l0.3,0.3l-0.3,0.3l-0.3-0.3L329.4,472.8z M354,472.9L354,472.9L354,472.9L354,472.9z M378.7,472.8l0.2,0.2l-0.2,0.2
		l-0.2-0.2L378.7,472.8z M403.4,471.6l2.5,2.5l-2.5,2.5l-2.5-2.5L403.4,471.6z M428.1,471.1l3.7,3.7l-3.7,3.7l-3.7-3.7L428.1,471.1z
		 M452.8,470.7l4.5,4.5l-4.5,4.5l-4.5-4.5L452.8,470.7z M477.5,470l5.9,5.9l-5.9,5.9l-5.9-5.9L477.5,470z M502.1,470.1l5.7,5.7
		l-5.7,5.7l-5.7-5.7L502.1,470.1z M20.8,481.3l8,8l-8,8l-8-8L20.8,481.3z M45.5,482.2l6.2,6.2l-6.2,6.2l-6.2-6.2L45.5,482.2z
		 M70.2,484.3l2,2l-2,2l-2-2L70.2,484.3z M94.9,485l0.5,0.5l-0.5,0.5l-0.5-0.5L94.9,485z M119.5,485.3L119.5,485.3L119.5,485.3
		L119.5,485.3z M144.2,485.1l0.2,0.2l-0.2,0.2l-0.2-0.2L144.2,485.1z M168.9,485.3L168.9,485.3L168.9,485.3L168.9,485.3z
		 M193.6,484.6l1.2,1.2l-1.2,1.2l-1.2-1.2L193.6,484.6z M218.3,482.6l5.4,5.4l-5.4,5.4l-5.4-5.4L218.3,482.6z M243,482.1l6.3,6.3
		l-6.3,6.3l-6.3-6.3L243,482.1z M267.6,484l2.5,2.5l-2.5,2.5l-2.5-2.5L267.6,484z M292.3,485.3L292.3,485.3L292.3,485.3L292.3,485.3
		z M317,485.3L317,485.3L317,485.3L317,485.3z M341.7,485.3L341.7,485.3L341.7,485.3L341.7,485.3z M366.4,485.3L366.4,485.3
		L366.4,485.3L366.4,485.3z M391.1,485.3L391.1,485.3L391.1,485.3L391.1,485.3z M415.7,484.2l2.1,2.1l-2.1,2.1l-2.1-2.1L415.7,484.2
		z M440.4,482.8l5,5l-5,5l-5-5L440.4,482.8z M465.1,482.2l6.1,6.1l-6.1,6.1l-6.1-6.1L465.1,482.2z M489.8,482.1l6.3,6.3l-6.3,6.3
		l-6.3-6.3L489.8,482.1z M514.5,481.9l6.8,6.8l-6.8,6.8l-6.8-6.8L514.5,481.9z M8.5,493.4l8.5,8.5l-8.5,8.5L0,501.8L8.5,493.4z
		 M33.1,493.9l7.4,7.4l-7.4,7.4l-7.4-7.4L33.1,493.9z M57.8,495.4l4.4,4.4l-4.4,4.4l-4.4-4.4L57.8,495.4z M82.5,496.4l2.3,2.3
		l-2.3,2.3l-2.3-2.3L82.5,496.4z M107.2,496.5l2.3,2.3l-2.3,2.3l-2.3-2.3L107.2,496.5z M131.9,497.5l0.2,0.2l-0.2,0.2l-0.2-0.2
		L131.9,497.5z M156.6,497.6L156.6,497.6L156.6,497.6L156.6,497.6z M181.2,497.5l0.3,0.3l-0.3,0.3l-0.3-0.3L181.2,497.5z
		 M205.9,495.5l4.1,4.1l-4.1,4.1l-4.1-4.1L205.9,495.5z M230.6,494.3l6.7,6.7l-6.7,6.7l-6.7-6.7L230.6,494.3z M255.3,495.9l3.4,3.4
		l-3.4,3.4l-3.4-3.4L255.3,495.9z M280,497.6L280,497.6L280,497.6L280,497.6z M304.7,497.6L304.7,497.6L304.7,497.6L304.7,497.6z
		 M329.4,497.6L329.4,497.6L329.4,497.6L329.4,497.6z M354,497.5l0.3,0.3L354,498l-0.3-0.3L354,497.5z M378.7,497.4l0.4,0.4
		l-0.4,0.4l-0.4-0.4L378.7,497.4z M403.4,497.6L403.4,497.6L403.4,497.6L403.4,497.6z M428.1,495.6l4,4l-4,4l-4-4L428.1,495.6z
		 M452.8,494.6l6,6l-6,6l-6-6L452.8,494.6z M477.5,494.8l5.6,5.6l-5.6,5.6l-5.6-5.6L477.5,494.8z M502.1,494.5l6.2,6.2l-6.2,6.2
		l-6.2-6.2L502.1,494.5z M20.8,506.1l7.7,7.7l-7.7,7.7l-7.7-7.7L20.8,506.1z M45.5,507.3l5.3,5.3l-5.3,5.3l-5.3-5.3L45.5,507.3z
		 M70.2,508.3l3.3,3.3l-3.3,3.3l-3.3-3.3L70.2,508.3z M94.9,507.8l4.3,4.3l-4.3,4.3l-4.3-4.3L94.9,507.8z M119.5,508.2l3.5,3.5
		l-3.5,3.5l-3.5-3.5L119.5,508.2z M144.2,509.7l0.4,0.4l-0.4,0.4l-0.4-0.4L144.2,509.7z M168.9,509.9L168.9,509.9L168.9,509.9
		L168.9,509.9z M193.6,509.1l1.7,1.7l-1.7,1.7l-1.7-1.7L193.6,509.1z M218.3,506.9l6,6l-6,6l-6-6L218.3,506.9z M243,507.6l4.6,4.6
		l-4.6,4.6l-4.6-4.6L243,507.6z M267.6,509.8l0.3,0.3l-0.3,0.3l-0.3-0.3L267.6,509.8z M292.3,509.9L292.3,509.9L292.3,509.9
		L292.3,509.9z M317,509.8l0.3,0.3l-0.3,0.3l-0.3-0.3L317,509.8z M341.7,509l1.8,1.8l-1.8,1.8l-1.8-1.8L341.7,509z M366.4,509.5
		l0.9,0.9l-0.9,0.9l-0.9-0.9L366.4,509.5z M391.1,509.9L391.1,509.9L391.1,509.9L391.1,509.9z M415.7,509.1l1.6,1.6l-1.6,1.6
		l-1.6-1.6L415.7,509.1z M440.4,507.2l5.4,5.4l-5.4,5.4l-5.4-5.4L440.4,507.2z M465.1,507.4l5.1,5.1l-5.1,5.1l-5.1-5.1L465.1,507.4z
		 M489.8,507.9l4,4l-4,4l-4-4L489.8,507.9z M514.5,506.9l6,6l-6,6l-6-6L514.5,506.9z"/>
</g>
</svg>
