<svg fill="currentColor" viewBox="0 0 61 61" xmlns="http://www.w3.org/2000/svg">
<path fillRule="evenodd" clipRule="evenodd" d="M35.6801 7.30097V7.30099L36.1705 12.2047C36.3338 13.8383 36.4155 14.655 36.9683 14.884C37.5211 15.113 38.1564 14.5932 39.427 13.5536L43.2412 10.433C43.9069 9.88824 44.2398 9.61589 44.6247 9.63508C45.0095 9.65427 45.3136 9.9584 45.9219 10.5667L50.4333 15.078C51.0415 15.6863 51.3456 15.9904 51.3648 16.3752C51.384 16.7601 51.1117 17.093 50.567 17.7587L47.4462 21.573C46.4066 22.8436 45.8868 23.4789 46.1158 24.0317C46.3448 24.5845 47.1616 24.6662 48.7951 24.8295L53.699 25.3199C54.5549 25.4055 54.9829 25.4483 55.2415 25.734C55.5 26.0197 55.5 26.4498 55.5 27.31V33.69C55.5 34.5502 55.5 34.9803 55.2415 35.266C54.9829 35.5517 54.5549 35.5945 53.699 35.6801L48.7961 36.1704C47.1625 36.3337 46.3458 36.4154 46.1168 36.9682C45.8878 37.5211 46.4076 38.1563 47.4472 39.4269L50.5671 43.2402C51.1118 43.9059 51.3841 44.2388 51.3649 44.6236C51.3457 45.0085 51.0416 45.3126 50.4334 45.9209L45.922 50.4322C45.3137 51.0405 45.0096 51.3446 44.6248 51.3638C44.2399 51.383 43.9071 51.1106 43.2413 50.5659L39.4271 47.4452C38.1565 46.4057 37.5212 45.8859 36.9684 46.1149C36.4156 46.3439 36.3339 47.1606 36.1706 48.7942L35.6801 53.699C35.5945 54.5549 35.5517 54.9829 35.266 55.2415C34.9803 55.5 34.5502 55.5 33.69 55.5H27.31C26.4498 55.5 26.0197 55.5 25.734 55.2415C25.4483 54.9829 25.4055 54.5549 25.3199 53.699L24.8295 48.7951C24.6662 47.1616 24.5845 46.3448 24.0317 46.1159C23.4789 45.8869 22.8436 46.4067 21.573 47.4462L17.7586 50.5671C17.0928 51.1118 16.76 51.3841 16.3751 51.3649C15.9903 51.3457 15.6862 51.0416 15.0779 50.4334L10.5665 45.922C9.95829 45.3137 9.65416 45.0096 9.63497 44.6248C9.61577 44.2399 9.88813 43.9071 10.4328 43.2413L13.5536 39.427C14.5932 38.1564 15.113 37.5211 14.884 36.9683C14.655 36.4155 13.8382 36.3338 12.2047 36.1705L7.30099 35.6801H7.30097C6.44505 35.5945 6.01709 35.5517 5.75855 35.266C5.5 34.9803 5.5 34.5502 5.5 33.69V27.31C5.5 26.4498 5.5 26.0197 5.75855 25.734C6.01709 25.4483 6.44505 25.4055 7.30097 25.3199H7.30099L12.2057 24.8294C13.8392 24.6661 14.656 24.5844 14.8849 24.0316C15.1139 23.4788 14.5941 22.8435 13.5546 21.5729L10.433 17.7576C9.88824 17.0918 9.61589 16.7589 9.63508 16.3741C9.65427 15.9893 9.9584 15.6852 10.5667 15.0769L15.078 10.5655C15.6863 9.95727 15.9904 9.65314 16.3752 9.63395C16.7601 9.61475 17.093 9.88711 17.7587 10.4318L21.5731 13.5527C22.8437 14.5922 23.479 15.112 24.0318 14.883C24.5846 14.6541 24.6663 13.8373 24.8296 12.2037L25.3199 7.30099V7.30097C25.4055 6.44505 25.4483 6.01709 25.734 5.75855C26.0197 5.5 26.4498 5.5 27.31 5.5H33.69C34.5502 5.5 34.9803 5.5 35.266 5.75855C35.5517 6.01709 35.5945 6.44505 35.6801 7.30097ZM30.5 40.5C36.0228 40.5 40.5 36.0228 40.5 30.5C40.5 24.9772 36.0228 20.5 30.5 20.5C24.9772 20.5 20.5 24.9772 20.5 30.5C20.5 36.0228 24.9772 40.5 30.5 40.5Z"/>
</svg>
