<svg width="580" height="64" viewBox="0 0 580 64" fill="none" xmlns="http://www.w3.org/2000/svg">
<path d="M54.5796 60.9537H55.3296V60.4385H54.5796V60.9537ZM54.5796 61.1313V61.6465H55.3296V61.1313H54.5796ZM1.30371 61.1313H0.553711V61.6465H1.30371V61.1313ZM1.30371 60.9537V60.4385H0.553711V60.9537H1.30371ZM1.30371 1.5336H0.553711V2.04875H1.30371V1.5336ZM1.30371 1.35596V0.840808H0.553711V1.35596H1.30371ZM54.5796 1.35596H55.3296V0.840808H54.5796V1.35596ZM54.5796 1.5336V2.04875H55.3296V1.5336H54.5796ZM40.252 53.0488C40.252 55.4933 40.9061 57.6428 43.1409 59.1655C45.3696 60.6841 49.0082 61.4688 54.5796 61.4688V60.4385C49.1596 60.4385 46.0094 59.6689 44.1972 58.434C42.391 57.2034 41.752 55.4004 41.752 53.0488H40.252ZM53.8296 60.9537V61.1313H55.3296V60.9537H53.8296ZM54.5796 60.6161H1.30371V61.6465H54.5796V60.6161ZM2.05371 61.1313V60.9537H0.553711V61.1313H2.05371ZM1.30371 61.4688C6.87512 61.4688 10.5138 60.6841 12.7425 59.1655C14.9772 57.6428 15.6313 55.4933 15.6313 53.0488H14.1313C14.1313 55.4004 13.4923 57.2034 11.6861 58.434C9.87386 59.6689 6.72367 60.4385 1.30371 60.4385V61.4688ZM15.6313 53.0488V9.43852H14.1313V53.0488H15.6313ZM15.6313 9.43852C15.6313 6.99389 14.9772 4.84441 12.7425 3.32174C10.5138 1.80312 6.87512 1.01845 1.30371 1.01845V2.04875C6.72367 2.04875 9.87386 2.8184 11.6861 4.05319C13.4923 5.2839 14.1313 7.08689 14.1313 9.43852H15.6313ZM2.05371 1.5336V1.35596H0.553711V1.5336H2.05371ZM1.30371 1.87111H54.5796V0.840808H1.30371V1.87111ZM53.8296 1.35596V1.5336H55.3296V1.35596H53.8296ZM54.5796 1.01845C49.0082 1.01845 45.3696 1.80312 43.1409 3.32174C40.9061 4.84441 40.252 6.99389 40.252 9.43852H41.752C41.752 7.08689 42.391 5.2839 44.1972 4.05319C46.0094 2.8184 49.1596 2.04875 54.5796 2.04875V1.01845ZM40.252 9.43852V53.0488H41.752V9.43852H40.252ZM81.9419 60.9537H82.6919V60.4385H81.9419V60.9537ZM81.9419 61.1313V61.6465H82.6919V61.1313H81.9419ZM49.6143 61.1313H48.8643V61.6465H49.6143V61.1313ZM49.6143 60.9537V60.4385H48.8643V60.9537H49.6143ZM49.6143 1.5336H48.8643V2.04875H49.6143V1.5336ZM49.6143 1.35596V0.840808H48.8643V1.35596H49.6143ZM91.8988 1.35596L92.5866 1.15064L92.3906 0.840808H91.8988V1.35596ZM115.692 38.5357L115.005 38.741L115.709 39.8536L116.385 38.7331L115.692 38.5357ZM137.417 2.5639V2.04875H136.916L136.724 2.36652L137.417 2.5639ZM176.08 1.35596H176.83V0.840808H176.08V1.35596ZM176.08 1.5336V2.04875H176.83V1.5336H176.08ZM176.08 60.9537H176.83V60.4385H176.08V60.9537ZM176.08 61.1313V61.6465H176.83V61.1313H176.08ZM122.804 61.1313H122.054V61.6465H122.804V61.1313ZM122.804 60.9537V60.4385H122.054V60.9537H122.804ZM136.382 4.37581H137.132L135.69 4.17731L136.382 4.37581ZM101.339 62.0195L100.653 62.2285L101.36 63.3217L102.031 62.218L101.339 62.0195ZM64.485 4.99755L65.1705 4.78853L63.735 4.99755H64.485ZM63.735 42.3904C63.735 46.5838 64.3801 51.3205 66.9604 55.0252C68.2561 56.8857 70.0515 58.5028 72.5194 59.6535C74.9922 60.8064 78.093 61.4688 81.9419 61.4688V60.4385C78.3554 60.4385 75.5564 59.8242 73.3619 58.801C71.1626 57.7756 69.5231 56.3174 68.3135 54.5806C65.883 51.091 65.235 46.5461 65.235 42.3904L63.735 42.3904ZM81.1919 60.9537V61.1313H82.6919V60.9537H81.1919ZM81.9419 60.6161H49.6143V61.6465H81.9419V60.6161ZM50.3643 61.1313V60.9537H48.8643V61.1313H50.3643ZM49.6143 61.4688C55.5561 61.4688 59.1512 58.6797 61.2246 54.9884C63.2945 51.3032 65.235 46.5875 65.235 42.3904L63.735 42.3904C63.735 46.5424 61.7961 51.1084 59.8251 54.6175C57.8575 58.1205 54.6639 60.4385 49.6143 60.4385V61.4688ZM65.235 42.3904V9.43852H63.735V42.3904L65.235 42.3904ZM65.235 9.43852C65.235 6.99389 63.2878 4.84441 61.053 3.32174C58.8243 1.80312 55.1857 1.01845 49.6143 1.01845V2.04875C55.0343 2.04875 58.1845 2.8184 59.9967 4.05319C61.8029 5.2839 63.735 7.08689 63.735 9.43852H65.235ZM50.3643 1.5336V1.35596H48.8643V1.5336H50.3643ZM49.6143 1.87111H91.8988V0.840808H49.6143V1.87111ZM91.2109 1.56128L115.005 38.741L116.38 38.3304L92.5866 1.15064L91.2109 1.56128ZM116.385 38.7331L138.109 2.76129L136.724 2.36652L115 38.3383L116.385 38.7331ZM137.417 3.07905L176.08 1.87111V0.840808L137.417 2.04875V3.07905ZM175.33 1.35596V1.5336H176.83V1.35596H175.33ZM176.08 1.01845C170.508 1.01845 166.87 1.80312 164.641 3.32174C162.406 4.84441 161.752 6.99389 161.752 9.43852H163.252C163.252 7.08689 163.891 5.2839 165.698 4.05319C167.51 2.8184 170.66 2.04875 176.08 2.04875V1.01845ZM161.752 9.43852V53.0488H163.252V9.43852H161.752ZM161.752 53.0488C161.752 55.4933 162.406 57.6428 164.641 59.1655C166.87 60.6841 170.508 61.4688 176.08 61.4688V60.4385C170.66 60.4385 167.51 59.6689 165.698 58.434C163.891 57.2034 163.252 55.4004 163.252 53.0488H161.752ZM175.33 60.9537V61.1313H176.83V60.9537H175.33ZM176.08 60.6161H122.804V61.6465H176.08V60.6161ZM123.554 61.1313V60.9537H122.054V61.1313H123.554ZM122.804 61.4688C128.375 61.4688 132.014 60.6841 134.243 59.1655C136.478 57.6428 137.132 55.4933 137.132 53.0488H135.632C135.632 55.4004 134.993 57.2034 133.186 58.434C131.374 59.6689 128.224 60.4385 122.804 60.4385V61.4688ZM137.132 53.0488V4.37581H135.632V53.0488H137.132ZM135.69 4.17731L100.646 61.821L102.031 62.218L137.074 4.57431L135.69 4.17731ZM102.024 61.8105L65.1705 4.78853L63.7995 5.20657L100.653 62.2285L102.024 61.8105ZM63.735 4.99755V42.3904L65.235 42.3904V4.99755H63.735ZM219.867 0.467766L220.54 0.240523L220.334 -0.0473853H219.867V0.467766ZM271.074 60.9537H271.824V60.4805L271.137 60.4404L271.074 60.9537ZM271.074 61.1313V61.6465H271.824V61.1313H271.074ZM218.832 61.1313H218.082V61.6465H218.832V61.1313ZM218.832 60.9537V60.4385H218.082V60.9537H218.832ZM219.349 40.3476L220.025 40.1238L219.82 39.8325H219.349V40.3476ZM190.503 40.4008V39.8856H190.029L189.826 40.1793L190.503 40.4008ZM189.21 42.266L189.886 42.4892L189.887 42.4874L189.21 42.266ZM197.625 60.9537H198.375V60.4385H197.625V60.9537ZM197.625 61.1313V61.6465H198.375V61.1313H197.625ZM167.496 61.1313H166.746V61.6465H167.496V61.1313ZM167.496 60.9537L167.449 60.4395L166.746 60.4697V60.9537H167.496ZM218.574 0.467766V-0.0473853H218.103L217.899 0.243174L218.574 0.467766ZM191.149 39.5126L190.471 39.293L189.967 40.0277H191.149V39.5126ZM218.703 39.4594V39.9746H219.896L219.379 39.2362L218.703 39.4594ZM203.822 21.0382L204.498 20.815L203.89 20.1062L203.232 21.0382L203.822 21.0382ZM219.194 0.695006L256.694 53.0984L258.04 52.6439L220.54 0.240523L219.194 0.695006ZM256.694 53.0984C258.841 56.0929 260.804 58.1028 263.058 59.405C265.342 60.7243 267.864 61.2831 271.01 61.467L271.137 60.4404C268.205 60.2689 266.007 59.762 264.024 58.6165C262.011 57.4539 260.159 55.5999 258.039 52.6435L256.694 53.0984ZM270.324 60.9537V61.1313H271.824V60.9537H270.324ZM271.074 60.6161H218.832V61.6465H271.074V60.6161ZM219.582 61.1313V60.9537H218.082V61.1313H219.582ZM218.832 61.4688C222.134 61.4688 224.642 61.2508 226.488 60.8291C228.343 60.4053 229.594 59.7598 230.262 58.8831C230.923 58.0142 230.94 57.012 230.622 55.9762C230.304 54.9406 229.634 53.8137 228.818 52.6479L227.467 53.0943C228.267 54.2378 228.874 55.2759 229.154 56.1887C229.434 57.1014 229.37 57.8312 228.933 58.4056C228.501 58.9722 227.634 59.4814 226.015 59.8515C224.386 60.2235 222.06 60.4385 218.832 60.4385V61.4688ZM228.818 52.6479L220.025 40.1238L218.674 40.5714L227.467 53.0943L228.818 52.6479ZM219.349 39.8325L190.503 39.8856V40.9159L219.349 40.8628V39.8325ZM189.826 40.1793L188.533 42.0445L189.887 42.4874L191.18 40.6222L189.826 40.1793ZM188.534 42.0427C186.905 44.3704 185.404 46.9019 184.309 49.2593C183.219 51.6062 182.511 53.8207 182.511 55.5H184.011C184.011 53.9818 184.662 51.8887 185.738 49.5725C186.809 47.2669 188.282 44.7801 189.886 42.4892L188.534 42.0427ZM182.511 55.5C182.511 57.5579 185.875 59.0424 188.265 60.0395C190.612 61.0184 193.871 61.4688 197.625 61.4688V60.4385C194.009 60.4385 191.061 60.0006 189.044 59.1589C187.069 58.3351 184.011 57.1726 184.011 55.5H182.511ZM196.875 60.9537V61.1313H198.375V60.9537H196.875ZM197.625 60.6161H167.496V61.6465H197.625V60.6161ZM168.246 61.1313V60.9537H166.746V61.1313H168.246ZM167.543 61.4678C169.687 61.3758 171.523 61.0803 173.188 60.4933C174.854 59.9064 176.305 59.0437 177.711 57.8597C180.494 55.5153 183.185 51.8321 187.05 46.3452L185.7 45.8963C181.807 51.423 179.196 54.9787 176.548 57.2085C175.239 58.3116 173.942 59.0699 172.504 59.5766C171.066 60.0832 169.443 60.3539 167.449 60.4395L167.543 61.4678ZM187.05 46.3452L219.248 0.692355L217.899 0.243174L185.7 45.8963L187.05 46.3452ZM218.574 0.982921H219.867V-0.0473853H218.574V0.982921ZM191.149 40.0277L218.703 39.9746V38.9443L191.149 38.9974V40.0277ZM219.379 39.2362L204.498 20.815L203.146 21.2614L218.027 39.6826L219.379 39.2362ZM203.232 21.0382L190.471 39.293L191.828 39.7321L204.5 21.2577L203.232 21.0382ZM316.324 60.4207L316.548 60.9125L317.074 60.7995V60.4207H316.324ZM304.04 31.288H303.29V31.8032H304.04V31.288ZM304.04 31.1104V30.5952H303.29V31.1104H304.04ZM352.143 31.1104H352.893V30.5952H352.143V31.1104ZM352.143 31.288V31.8032H352.893V31.288H352.143ZM342.445 62.0195L342.336 62.5292L343.195 62.6153V62.0195H342.445ZM330.936 60.8649L331.045 60.3551L330.984 60.349L330.922 60.3498L330.936 60.8649ZM332.1 1.35596V1.87111H332.157L332.214 1.86512L332.1 1.35596ZM340.505 0.467766L341.254 0.496029L341.305 -0.137939L340.391 -0.041395L340.505 0.467766ZM338.565 24.7154V25.2306H339.275L339.314 24.7437L338.565 24.7154ZM338.307 24.7154L337.562 24.7779L337.643 25.2306H338.307V24.7154ZM285.186 31.288C285.186 41.9673 287.092 49.5383 291.067 54.4536C293.064 56.9222 295.589 58.7292 298.661 59.9151C301.731 61.0998 305.298 61.6465 309.341 61.6465V60.6161C305.496 60.6161 302.194 60.097 299.396 59.0168C296.601 57.9378 294.261 56.2808 292.378 53.9532C288.595 49.2759 286.686 41.9255 286.686 31.288H285.186ZM309.341 61.6465C312.004 61.6465 314.407 61.372 316.548 60.9125L316.1 59.9291C314.104 60.3576 311.851 60.6161 309.341 60.6161V61.6465ZM317.074 60.4207V39.1929H315.574V60.4207H317.074ZM317.074 39.1929C317.074 36.7486 316.42 34.611 314.369 33.0916C312.307 31.5651 308.988 30.7729 304.04 30.7729V31.8032C308.789 31.8032 311.612 32.5653 313.269 33.7922C314.935 35.0262 315.574 36.841 315.574 39.1929H317.074ZM304.79 31.288V31.1104H303.29V31.288H304.79ZM304.04 31.6256H352.143V30.5952H304.04V31.6256ZM351.393 31.1104V31.288H352.893V31.1104H351.393ZM352.143 30.7729C348.416 30.7729 345.743 31.5942 344.031 33.1286C342.35 34.636 341.695 36.7468 341.695 39.1929H343.195C343.195 36.8428 343.832 35.0012 345.222 33.7552C346.582 32.5363 348.758 31.8032 352.143 31.8032V30.7729ZM341.695 39.1929V62.0195H343.195V39.1929H341.695ZM342.553 61.5098L331.045 60.3551L330.828 61.3746L342.336 62.5292L342.553 61.5098ZM330.922 60.3498C327.458 60.3947 323.477 60.6862 319.307 60.9627C315.121 61.2402 310.724 61.5043 306.367 61.5043V62.5346C310.803 62.5346 315.264 62.2659 319.451 61.9882C323.654 61.7096 327.56 61.4238 330.95 61.3799L330.922 60.3498ZM306.367 61.5043C291.388 61.5043 279.364 58.406 271.092 53.1051C262.824 47.8069 258.238 40.2666 258.238 31.288H256.738C256.738 40.5175 261.462 48.3428 270.069 53.8584C278.672 59.3712 291.087 62.5346 306.367 62.5346V61.5043ZM258.238 31.288C258.238 22.3093 262.824 14.7464 271.093 9.42588C279.366 4.10288 291.39 0.982921 306.367 0.982921V-0.0473853C291.086 -0.0473853 278.67 3.13882 270.068 8.67397C261.462 14.2116 256.738 22.0588 256.738 31.288H258.238ZM306.367 0.982921C310.93 0.982921 316.403 1.2038 321.22 1.42586C326.008 1.64657 330.191 1.87111 332.1 1.87111V0.840808C330.258 0.840808 326.166 0.621248 321.32 0.397867C316.504 0.175827 310.986 -0.0473853 306.367 -0.0473853V0.982921ZM332.214 1.86512L340.619 0.976925L340.391 -0.041395L331.986 0.846797L332.214 1.86512ZM339.756 0.439504L337.817 24.6871L339.314 24.7437L341.254 0.496029L339.756 0.439504ZM338.565 24.2003H338.307V25.2306H338.565V24.2003ZM339.051 24.6529C337.939 18.4061 334.697 12.4696 329.548 8.08264C324.388 3.68675 317.3 0.840808 308.565 0.840808V1.87111C316.77 1.87111 323.454 4.53197 328.38 8.72933C333.317 12.9356 336.476 18.6788 337.562 24.7779L339.051 24.6529ZM308.565 0.840808C304.709 0.840808 301.283 1.39519 298.321 2.59112C295.359 3.78741 292.91 5.60642 290.966 8.08381C287.092 13.0182 285.186 20.6076 285.186 31.288H286.686C286.686 20.6518 288.595 13.2752 292.286 8.57272C294.124 6.23168 296.394 4.56452 299.082 3.47927C301.77 2.39366 304.922 1.87111 308.565 1.87111V0.840808ZM399.14 60.9537H399.89V60.4385H399.14V60.9537ZM399.14 61.1313V61.6465H399.89V61.1313H399.14ZM345.864 61.1313H345.114V61.6465H345.864V61.1313ZM345.864 60.9537V60.4385H345.114V60.9537H345.864ZM345.864 1.5336H345.114V2.04875H345.864V1.5336ZM345.864 1.35596V0.840808H345.114V1.35596H345.864ZM399.14 1.35596H399.89V0.840808H399.14V1.35596ZM399.14 1.5336V2.04875H399.89V1.5336H399.14ZM384.813 53.0488C384.813 55.4933 385.467 57.6428 387.701 59.1655C389.93 60.6841 393.569 61.4688 399.14 61.4688V60.4385C393.72 60.4385 390.57 59.6689 388.758 58.434C386.952 57.2034 386.313 55.4004 386.313 53.0488H384.813ZM398.39 60.9537V61.1313H399.89V60.9537H398.39ZM399.14 60.6161H345.864V61.6465H399.14V60.6161ZM346.614 61.1313V60.9537H345.114V61.1313H346.614ZM345.864 61.4688C351.436 61.4688 355.074 60.6841 357.303 59.1655C359.538 57.6428 360.192 55.4933 360.192 53.0488H358.692C358.692 55.4004 358.053 57.2034 356.247 58.434C354.435 59.6689 351.284 60.4385 345.864 60.4385V61.4688ZM360.192 53.0488V9.43852H358.692V53.0488H360.192ZM360.192 9.43852C360.192 6.99389 359.538 4.84441 357.303 3.32174C355.074 1.80312 351.436 1.01845 345.864 1.01845V2.04875C351.284 2.04875 354.435 2.8184 356.247 4.05319C358.053 5.2839 358.692 7.08689 358.692 9.43852H360.192ZM346.614 1.5336V1.35596H345.114V1.5336H346.614ZM345.864 1.87111H399.14V0.840808H345.864V1.87111ZM398.39 1.35596V1.5336H399.89V1.35596H398.39ZM399.14 1.01845C393.569 1.01845 389.93 1.80312 387.701 3.32174C385.467 4.84441 384.813 6.99389 384.813 9.43852H386.313C386.313 7.08689 386.952 5.2839 388.758 4.05319C390.57 2.8184 393.72 2.04875 399.14 2.04875V1.01845ZM384.813 9.43852V53.0488H386.313V9.43852H384.813ZM430.382 60.9537H431.132V60.4385H430.382V60.9537ZM430.382 61.1313V61.6465H431.132V61.1313H430.382ZM394.175 61.1313H393.425V61.6465H394.175V61.1313ZM394.175 60.9537V60.4385H393.425V60.9537H394.175ZM394.175 1.5336H393.425V2.04875H394.175V1.5336ZM394.175 1.35596V0.840808H393.425V1.35596H394.175ZM435.166 1.35596L435.723 1.01088L435.5 0.840808H435.166V1.35596ZM479.39 34.0414L478.833 34.3865L480.14 35.3815V34.0414H479.39ZM461.934 1.5336H461.184V2.04875H461.934V1.5336ZM461.934 1.35596V0.840808H461.184V1.35596H461.934ZM492.968 1.35596H493.718V0.840808H492.968V1.35596ZM492.968 1.5336V2.04875H493.718V1.5336H492.968ZM479.39 62.0195L478.834 62.3648L480.14 63.3579V62.0195H479.39ZM407.753 8.33843L408.309 7.99301L407.003 7V8.33843H407.753ZM407.003 42.3904C407.003 48.7028 410.051 53.4809 413.743 56.6879C417.462 59.9192 423.043 61.4688 430.382 61.4688V60.4385C423.367 60.4385 418.28 58.9683 414.92 56.0489C411.531 53.1051 408.503 48.6017 408.503 42.3904C408.503 42.3904 407.589 42.3904 407.003 42.3904ZM429.632 60.9537V61.1313H431.132V60.9537H429.632ZM430.382 60.6161H394.175V61.6465H430.382V60.6161ZM394.925 61.1313V60.9537H393.425V61.1313H394.925ZM394.175 61.4688C400.117 61.4688 403.712 58.6797 405.785 54.9884C407.855 51.3032 408.503 46.5875 408.503 42.3904H407.003C407.003 46.5424 406.357 51.1084 404.386 54.6175C402.418 58.1205 399.224 60.4385 394.175 60.4385V61.4688ZM408.503 42.3904V9.43852H407.003V42.3904H408.503ZM408.503 9.43852C408.503 6.99389 407.848 4.84441 405.614 3.32174C403.385 1.80312 399.746 1.01845 394.175 1.01845V2.04875C399.595 2.04875 402.745 2.8184 404.557 4.05319C406.364 5.2839 407.003 7.08689 407.003 9.43852H408.503ZM394.925 1.5336V1.35596H393.425V1.5336H394.925ZM394.175 1.87111H435.166V0.840808H394.175V1.87111ZM434.609 1.70104L478.833 34.3865L479.947 33.6964L435.723 1.01088L434.609 1.70104ZM480.14 34.0414V19.2086H478.64V34.0414H480.14ZM480.14 19.2086C480.14 13.6611 477.548 9.13321 474.78 5.97526C471.98 2.78152 467.697 1.01845 461.934 1.01845V2.04875C467.161 2.04875 470.961 3.61639 473.495 6.50677C476.06 9.43296 478.64 13.7425 478.64 19.2086H480.14ZM462.684 1.5336V1.35596H461.184V1.5336H462.684ZM461.934 1.87111H492.968V0.840808H461.934V1.87111ZM492.218 1.35596V1.5336H493.718V1.35596H492.218ZM492.968 1.01845C490.052 1.01845 487.66 1.64039 485.735 2.72251C483.821 3.79757 482.405 5.30535 481.364 7.0443C479.287 10.5132 478.64 15.0126 478.64 19.2086H480.14C480.14 15.0557 480.787 10.7175 482.751 7.43616C483.731 5.79998 485.021 4.45445 486.684 3.51997C488.335 2.59256 490.389 2.04875 492.968 2.04875V1.01845ZM478.64 19.2086V62.0195H480.14V19.2086H478.64ZM479.947 61.6741L408.309 7.99301L407.196 8.68379L478.834 62.3648L479.947 61.6741ZM407.003 8.33843C407.003 8.33843 407.003 29.1751 407.003 42.3904C407.589 42.3904 408.503 42.3904 408.503 42.3904V8.33843H407.753H407.003ZM527.74 29.867H526.99V30.3821H527.74V29.867ZM556.965 16.0111V15.496H556.413L556.249 15.8577L556.965 16.0111ZM557.223 16.0111L557.972 16.0384L558.014 15.496H557.223V16.0111ZM555.025 44.4333V44.9485H555.736L555.774 44.4606L555.025 44.4333ZM554.766 44.4333L554.025 44.5107L554.122 44.9485H554.766V44.4333ZM527.74 30.7552V30.24H526.99V30.7552H527.74ZM578.818 36.9725L579.153 36.5117L578.383 36.2472L578.108 36.8074L578.818 36.9725ZM579.077 37.0613L579.819 37.1365L579.898 36.7674L579.412 36.6005L579.077 37.0613ZM573.904 61.1313V61.6465H574.552L574.646 61.2065L573.904 61.1313ZM488.042 61.1313H487.292V61.6465H488.042V61.1313ZM488.042 60.9537V60.4385H487.292V60.9537H488.042ZM488.042 1.5336H487.292V2.04875H488.042V1.5336ZM488.042 1.35596V0.840808H487.292V1.35596H488.042ZM571.189 0.467766L571.934 0.411475L571.853 -0.0960947L571.113 -0.0447772L571.189 0.467766ZM575.197 25.5148V26.03H576.034L575.943 25.4585L575.197 25.5148ZM574.939 25.5148L574.228 25.6798L574.401 26.03H574.939V25.5148ZM540.284 1.729C535.255 1.729 531.875 2.32905 529.769 3.6642C527.643 5.01242 526.99 6.99636 526.99 9.43852H528.49C528.49 7.08442 529.131 5.47118 530.787 4.42128C532.463 3.35831 535.355 2.7593 540.284 2.7593V1.729ZM526.99 9.43852V29.867H528.49V9.43852H526.99ZM527.74 30.3821H528.646V29.3518H527.74V30.3821ZM528.646 30.3821C535.496 30.3821 541.482 29.6893 546.408 27.5371C551.351 25.3778 555.123 21.7958 557.681 16.1645L556.249 15.8577C553.763 21.3288 550.165 24.6748 545.603 26.6677C541.025 28.6678 535.373 29.3518 528.646 29.3518V30.3821ZM556.965 16.5263H557.223V15.496H556.965V16.5263ZM556.474 15.9838L554.276 44.406L555.774 44.4606L557.972 16.0384L556.474 15.9838ZM555.025 43.9182H554.766V44.9485H555.025V43.9182ZM555.508 44.3559C554.256 38.7 551.035 35.1314 546.286 32.9996C541.576 30.885 535.481 30.24 528.646 30.24V31.2703C535.388 31.2703 541.125 31.9132 545.466 33.862C549.769 35.7937 552.819 39.0641 554.025 44.5107L555.508 44.3559ZM528.646 30.24H527.74V31.2703H528.646V30.24ZM526.99 30.7552V53.0488H528.49V30.7552H526.99ZM526.99 53.0488C526.99 55.4912 527.643 57.48 529.843 58.8288C532.015 60.1599 535.521 60.7583 540.801 60.7583V59.728C535.606 59.728 532.583 59.1272 530.842 58.0602C529.131 57.0109 528.49 55.4025 528.49 53.0488H526.99ZM540.801 60.7583C562.124 60.7583 573.422 49.5415 579.528 37.1375L578.108 36.8074C572.059 49.0952 561.115 59.728 540.801 59.728V60.7583ZM578.483 37.4332L578.741 37.522L579.412 36.6005L579.153 36.5117L578.483 37.4332ZM578.335 36.9861L573.162 61.0561L574.646 61.2065L579.819 37.1365L578.335 36.9861ZM573.904 60.6161H488.042V61.6465H573.904V60.6161ZM488.792 61.1313V60.9537H487.292V61.1313H488.792ZM488.042 61.4688C493.614 61.4688 497.252 60.6841 499.481 59.1655C501.716 57.6428 502.37 55.4933 502.37 53.0488H500.87C500.87 55.4004 500.231 57.2034 498.424 58.434C496.612 59.6689 493.462 60.4385 488.042 60.4385V61.4688ZM502.37 53.0488V9.43852H500.87V53.0488H502.37ZM502.37 9.43852C502.37 6.99389 501.716 4.84441 499.481 3.32174C497.252 1.80312 493.614 1.01845 488.042 1.01845V2.04875C493.462 2.04875 496.612 2.8184 498.424 4.05319C500.231 5.2839 500.87 7.08689 500.87 9.43852H502.37ZM488.792 1.5336V1.35596H487.292V1.5336H488.792ZM488.042 1.87111H531.361V0.840808H488.042V1.87111ZM531.361 1.87111C547.001 1.87111 558.419 1.87154 571.264 0.980311L571.113 -0.0447772C558.355 0.840375 547.014 0.840808 531.361 0.840808V1.87111ZM570.443 0.524057L574.452 25.5711L575.943 25.4585L571.934 0.411475L570.443 0.524057ZM575.197 24.9997H574.939V26.03H575.197V24.9997ZM575.649 25.3498C572.604 19.1636 568.913 13.2658 563.415 8.91217C557.886 4.5349 550.541 1.729 540.284 1.729V2.7593C550.069 2.7593 557.013 5.41578 562.282 9.58737C567.58 13.7826 571.196 19.5201 574.228 25.6798L575.649 25.3498Z"/>
</svg>
