<?xml version="1.0" encoding="utf-8"?>
<!-- Generator: Adobe Illustrator 28.2.0, SVG Export Plug-In . SVG Version: 6.00 Build 0)  -->
<svg version="1.1" id="Layer_1" xmlns="http://www.w3.org/2000/svg" xmlns:xlink="http://www.w3.org/1999/xlink" x="0px" y="0px"
	 viewBox="0 0 1040.2 535.3" style="enable-background:new 0 0 1959.7 1012.3;" xml:space="preserve">
<style type="text/css">
</style>
<g>
	<path class="st0" d="M10.4,23.2l-0.9,1.6h1.8L10.4,23.2z M42.4,6L42.4,6L42.4,6z M74.5,24.3L74.5,24.3L74.5,24.3z M106.6,7.6
		l-1.4-2.5h2.8L106.6,7.6z M138.6,12.3l-10.4,18H149L138.6,12.3z M170.7,18L160.3,0h20.8L170.7,18z M202.7,12.3l-10.4,18h20.8
		L202.7,12.3z M234.8,9.7l-3.2-5.5h6.3L234.8,9.7z M266.8,16.3l-6.9,12h13.8L266.8,16.3z M298.9,18L288.5,0h20.8L298.9,18z
		 M330.9,19.3l-4.4,7.5h8.7L330.9,19.3z M363,6L363,6L363,6z M395,23.1l-1,1.7h2L395,23.1z M427.1,10l-3.5-6h7L427.1,10z
		 M459.1,12.3l-10.4,18h20.8L459.1,12.3z M491.2,18L480.8,0h20.8L491.2,18z M523.2,12.3l-10.4,18h20.8L523.2,12.3z M555.3,13
		l-6-10.4h12L555.3,13z M587.4,12.3l-10.4,18h20.8L587.4,12.3z M619.4,18L609,0h20.8L619.4,18z M651.5,17.6l-5.8,10.1h11.7
		L651.5,17.6z M683.5,6L683.5,6L683.5,6z M715.6,15.8l-7.3,12.7h14.6L715.6,15.8z M747.6,18L737.2,0H758L747.6,18z M779.7,20.9
		l-2.9,5h5.8L779.7,20.9z M811.7,6L811.7,6L811.7,6z M843.8,14.5l-8.5,14.7h16.9L843.8,14.5z M875.8,17.7L865.7,0.1H886L875.8,17.7z
		 M907.9,12.6l-10.1,17.5H918L907.9,12.6z M939.9,6L939.9,6L939.9,6z M972,17.6l-5.8,10h11.6L972,17.6z M1004,18L993.7,0h20.8
		L1004,18z M10.4,75.9l-2.8,4.9h5.7L10.4,75.9z M42.4,61.5l-0.6-1H43L42.4,61.5z M74.5,79.1L74.5,79.1L74.5,79.1z M106.6,60.9
		L106.6,60.9L106.6,60.9z M138.6,78.4l-0.6,1h1.2L138.6,78.4z M170.7,72.6L160.5,55h20.4L170.7,72.6z M202.7,74l-4.5,7.8h9L202.7,74
		z M234.8,65.4l-3.9-6.8h7.8L234.8,65.4z M266.8,79.1L266.8,79.1L266.8,79.1z M298.9,65.8l-4.3-7.4h8.6L298.9,65.8z M330.9,74.1
		l-4.3,7.5h8.7L330.9,74.1z M363,65.9l-4.3-7.5h8.7L363,65.9z M395,67.1l-10.4,18h20.8L395,67.1z M427.1,72.9l-10.4-18h20.8
		L427.1,72.9z M459.1,67.1l-10.4,18h20.8L459.1,67.1z M491.2,72.9l-10.4-18h20.8L491.2,72.9z M523.2,67.1l-10.4,18h20.8L523.2,67.1z
		 M555.3,72.9l-10.4-18h20.8L555.3,72.9z M587.4,67.1l-10.4,18h20.8L587.4,67.1z M619.4,70.9l-8.7-15h17.3L619.4,70.9z M651.5,78.2
		l-0.9,1.5h1.7L651.5,78.2z M683.5,61.5l-0.5-0.9h1.1L683.5,61.5z M715.6,77.8l-1.2,2h2.3L715.6,77.8z M747.6,67.6l-5.9-10.2h11.7
		L747.6,67.6z M779.7,72.9l-5.4,9.4h10.8L779.7,72.9z M811.7,71.9l-9.5-16.5h19.1L811.7,71.9z M843.8,67.1l-10.4,18h20.8L843.8,67.1
		z M875.8,72.9l-10.4-18h20.8L875.8,72.9z M907.9,67.1l-10.4,18h20.8L907.9,67.1z M939.9,72.9l-10.4-18h20.8L939.9,72.9z M972,67.1
		l-10.4,18h20.8L972,67.1z M1004,72.9l-10.4-18h20.8L1004,72.9z M10.4,130l-3.5,6h7L10.4,130z M42.4,116.4l-0.6-1h1.2L42.4,116.4z
		 M74.5,131.4l-2.3,3.9h4.5L74.5,131.4z M106.6,119.4l-3.2-5.6h6.5L106.6,119.4z M138.6,122l-10.4,18H149L138.6,122z M170.7,122.8
		l-6.1-10.6h12.2L170.7,122.8z M202.7,122.9l-9.6,16.6h19.2L202.7,122.9z M234.8,120.8l-4.4-7.6h8.8L234.8,120.8z M266.8,129
		l-4.3,7.5h8.6L266.8,129z M298.9,115.7L298.9,115.7L298.9,115.7z M330.9,124.3l-8.4,14.5h16.7L330.9,124.3z M363,127.7l-10.4-18
		h20.8L363,127.7z M395,122l-10.4,18h20.8L395,122z M427.1,127.7l-10.4-18h20.8L427.1,127.7z M459.1,130.9l-2.7,4.6h5.3L459.1,130.9
		z M491.2,120.9l-4.5-7.8h9L491.2,120.9z M523.2,132.5l-1.3,2.3h2.6L523.2,132.5z M555.3,127.7l-10.4-18h20.8L555.3,127.7z
		 M587.4,123.6l-9,15.7h18.1L587.4,123.6z M619.4,118.3l-2.3-3.9h4.5L619.4,118.3z M651.5,123.7l-8.9,15.4h17.8L651.5,123.7z
		 M683.5,126.4l-9.2-16h18.4L683.5,126.4z M715.6,122.5l-9.9,17.2h19.9L715.6,122.5z M747.6,119.1l-2.9-5h5.8L747.6,119.1z
		 M779.7,122l-10.4,18h20.8L779.7,122z M811.7,127.7l-10.4-18h20.8L811.7,127.7z M843.8,122l-10.4,18h20.8L843.8,122z M875.8,127.7
		l-10.4-18h20.8L875.8,127.7z M907.9,126l-6.9,12h13.9L907.9,126z M939.9,127.7l-10.4-18h20.8L939.9,127.7z M972,126.5l-6.5,11.2h13
		L972,126.5z M1004,125.2l-8.2-14.3h16.5L1004,125.2z M10.4,188.9L10.4,188.9L10.4,188.9z M42.4,171.7l-1-1.7h1.9L42.4,171.7z
		 M74.5,176.9l-10.4,18h20.8L74.5,176.9z M106.6,182.6l-10.4-18h20.8L106.6,182.6z M138.6,176.9l-10.4,18H149L138.6,176.9z
		 M170.7,182.6l-10.4-18h20.8L170.7,182.6z M202.7,177.1l-10.2,17.6h20.3L202.7,177.1z M234.8,181.3l-9.3-16.1h18.6L234.8,181.3z
		 M266.8,182.3l-5.6,9.8h11.3L266.8,182.3z M298.9,174.5l-3.4-5.9h6.9L298.9,174.5z M330.9,182.9l-5.2,9h10.4L330.9,182.9z
		 M363,181.2l-9.2-15.9h18.3L363,181.2z M395,188.9L395,188.9L395,188.9z M427.1,170.6L427.1,170.6L427.1,170.6z M459.1,182.9
		l-5.2,9h10.3L459.1,182.9z M491.2,175.3l-4.1-7h8.1L491.2,175.3z M523.2,176.9l-10.4,18h20.8L523.2,176.9z M555.3,180l-8.1-14.1
		h16.3L555.3,180z M587.4,176.9l-10.4,18h20.8L587.4,176.9z M619.4,182.6l-10.4-18h20.8L619.4,182.6z M651.5,176.9l-10.4,18h20.8
		L651.5,176.9z M683.5,182.6l-10.4-18h20.8L683.5,182.6z M715.6,176.9l-10.4,18H726L715.6,176.9z M747.6,182.2l-10-17.4h20.1
		L747.6,182.2z M779.7,183.4l-4.8,8.3h9.5L779.7,183.4z M811.7,177.1l-5.6-9.8h11.3L811.7,177.1z M843.8,188.9L843.8,188.9
		L843.8,188.9z M875.8,170.6L875.8,170.6L875.8,170.6z M907.9,188.9L907.9,188.9L907.9,188.9z M939.9,171.2l-0.6-1h1.1L939.9,171.2z
		 M972,188.9L972,188.9L972,188.9z M1004,170.6L1004,170.6L1004,170.6z M10.4,231.7L0,249.7h20.8L10.4,231.7z M42.4,234.3L34.8,221
		h15.3L42.4,234.3z M74.5,233.3l-9,15.6h18L74.5,233.3z M106.6,237.4l-10.4-18h20.8L106.6,237.4z M138.6,238l-5,8.6h10L138.6,238z
		 M170.7,237.4l-10.4-18h20.8L170.7,237.4z M202.7,232l-10.2,17.6h20.3L202.7,232z M234.8,229.1l-3.2-5.5h6.3L234.8,229.1z
		 M266.8,233.4l-8.9,15.5h17.9L266.8,233.4z M298.9,237.4l-10.4-18h20.8L298.9,237.4z M330.9,237.5l-5.3,9.3h10.7L330.9,237.5z
		 M363,225.4L363,225.4L363,225.4z M395,243.7L395,243.7L395,243.7z M427.1,228.8l-2.9-5h5.8L427.1,228.8z M459.1,231.7l-10.4,18
		h20.8L459.1,231.7z M491.2,237.4l-10.4-18h20.8L491.2,237.4z M523.2,231.7l-10.4,18h20.8L523.2,231.7z M555.3,233.5l-7-12h13.9
		L555.3,233.5z M587.4,239.5l-3.6,6.3h7.3L587.4,239.5z M619.4,237.4l-10.4-18h20.8L619.4,237.4z M651.5,237l-5.8,10h11.5L651.5,237
		z M683.5,231.2l-5-8.6h10L683.5,231.2z M715.6,233.9l-8.5,14.7H724L715.6,233.9z M747.6,234.6l-7.9-13.8h15.9L747.6,234.6z
		 M779.7,235.8l-6.8,11.8h13.7L779.7,235.8z M811.7,225.4L811.7,225.4L811.7,225.4z M843.8,240.2l-3,5.3h6.1L843.8,240.2z
		 M875.8,231.2l-5-8.7h10L875.8,231.2z M907.9,234l-8.5,14.6h16.9L907.9,234z M939.9,225.4L939.9,225.4L939.9,225.4z M972,234.7
		l-7.8,13.5h15.5L972,234.7z M1004,237.4l-10.4-18h20.8L1004,237.4z M10.4,286.6L0,304.6h20.8L10.4,286.6z M42.4,292.3l-10.4-18
		h20.8L42.4,292.3z M74.5,293.9l-4,7h8L74.5,293.9z M106.6,280.3L106.6,280.3L106.6,280.3z M138.6,298.6L138.6,298.6L138.6,298.6z
		 M170.7,282.9l-2.3-3.9h4.5L170.7,282.9z M202.7,296.2l-2.1,3.6h4.2L202.7,296.2z M234.8,285.1l-4.2-7.3h8.4L234.8,285.1z
		 M266.8,297.9l-0.6,1h1.2L266.8,297.9z M298.9,286l-5-8.6h10L298.9,286z M330.9,298.6L330.9,298.6L330.9,298.6z M363,280.9l-0.6-1
		h1.1L363,280.9z M395,298.6L395,298.6L395,298.6z M427.1,283.9l-3.1-5.4h6.3L427.1,283.9z M459.1,286.6l-10.4,18h20.8L459.1,286.6z
		 M491.2,292.3l-10.4-18h20.8L491.2,292.3z M523.2,286.6l-10.4,18h20.8L523.2,286.6z M555.3,289.3l-7.8-13.6h15.7L555.3,289.3z
		 M587.4,292.6l-5.2,8.9h10.3L587.4,292.6z M619.4,280.3L619.4,280.3L619.4,280.3z M651.5,298.6L651.5,298.6L651.5,298.6z
		 M683.5,280.9L683,280h1.1L683.5,280.9z M715.6,290.1l-7.3,12.7h14.7L715.6,290.1z M747.6,292.3l-10.4-18H758L747.6,292.3z
		 M779.7,286.6l-10.4,18h20.8L779.7,286.6z M811.7,287.2l-6-10.4h12L811.7,287.2z M843.8,296.8l-1.6,2.7h3.1L843.8,296.8z
		 M875.8,292.3l-10.4-18h20.8L875.8,292.3z M907.9,286.6l-10.4,18h20.8L907.9,286.6z M939.9,292.3l-10.4-18h20.8L939.9,292.3z
		 M972,286.6l-10.4,18h20.8L972,286.6z M1004,292.3l-10.4-18h20.8L1004,292.3z M10.4,349.5L7,355.4h6.8L10.4,349.5z M42.4,340.9
		l-5-8.6h9.9L42.4,340.9z M74.5,344.7l-7.6,13.1h15.2L74.5,344.7z M106.6,342.3l-6.2-10.8h12.5L106.6,342.3z M138.6,353.4
		L138.6,353.4L138.6,353.4z M170.7,335.8l-0.6-1h1.2L170.7,335.8z M202.7,344.7l-7.6,13.1h15.1L202.7,344.7z M234.8,340.5l-4.6-8
		h9.3L234.8,340.5z M266.8,341.4l-10.4,18h20.8L266.8,341.4z M298.9,342.2l-6.1-10.6H305L298.9,342.2z M330.9,341.4l-10.4,18h20.8
		L330.9,341.4z M363,337.6l-2.1-3.6h4.2L363,337.6z M395,346.6l-5.9,10.2h11.8L395,346.6z M427.1,339.6l-3.8-6.7h7.7L427.1,339.6z
		 M459.1,341.4l-10.4,18h20.8L459.1,341.4z M491.2,347.1l-10.4-18h20.8L491.2,347.1z M523.2,347.1l-5.4,9.4h10.9L523.2,347.1z
		 M555.3,346.3l-9.7-16.7H565L555.3,346.3z M587.4,348.7l-4.1,7h8.1L587.4,348.7z M619.4,338.5l-2.9-5h5.8L619.4,338.5z
		 M651.5,341.4l-10.4,18h20.8L651.5,341.4z M683.5,341l-5.1-8.8h10.1L683.5,341z M715.6,349.4l-3.5,6.1h7.1L715.6,349.4z
		 M747.6,344.3l-8-13.8h15.9L747.6,344.3z M779.7,342.8l-9.2,16h18.4L779.7,342.8z M811.7,346.1l-9.5-16.5h19L811.7,346.1z
		 M843.8,347l-5.5,9.6h11.1L843.8,347z M875.8,346.8l-10.1-17.6H886L875.8,346.8z M907.9,341.4l-10.4,18h20.8L907.9,341.4z
		 M939.9,347.1l-10.4-18h20.8L939.9,347.1z M972,342.4l-9.6,16.6h19.1L972,342.4z M1004,342.3l-6.2-10.8h12.4L1004,342.3z
		 M10.4,407.5l-0.7,1.2h1.4L10.4,407.5z M42.4,390.9l-0.8-1.4h1.6L42.4,390.9z M74.5,408.3L74.5,408.3L74.5,408.3z M106.6,393.3
		l-2.8-4.9h5.7L106.6,393.3z M138.6,408.3L138.6,408.3L138.6,408.3z M170.7,390L170.7,390L170.7,390z M202.7,404l-3.7,6.5h7.5
		L202.7,404z M234.8,402l-10.4-18h20.8L234.8,402z M266.8,396.3l-10.4,18h20.8L266.8,396.3z M298.9,402l-10.4-18h20.8L298.9,402z
		 M330.9,396.3l-10.4,18h20.8L330.9,396.3z M363,402l-10.4-18h20.8L363,402z M395,396.3l-10.4,18h20.8L395,396.3z M427.1,402
		l-10.4-18h20.8L427.1,402z M459.1,396.3l-10.4,18h20.8L459.1,396.3z M491.2,400.3l-8.9-15.5h17.9L491.2,400.3z M523.2,408.3
		L523.2,408.3L523.2,408.3z M555.3,390L555.3,390L555.3,390z M587.4,398.8l-8.2,14.2h16.4L587.4,398.8z M619.4,402L609,384h20.8
		L619.4,402z M651.5,396.3l-10.4,18h20.8L651.5,396.3z M683.5,402l-10.4-18h20.8L683.5,402z M715.6,401l-6.3,10.9h12.5L715.6,401z
		 M747.6,391.7l-1.5-2.6h3L747.6,391.7z M779.7,396.4l-10.3,17.9H790L779.7,396.4z M811.7,399.6l-8.3-14.4h16.7L811.7,399.6z
		 M843.8,406.1l-1.9,3.3h3.8L843.8,406.1z M875.8,402l-10.4-18h20.8L875.8,402z M907.9,396.3l-10.4,18h20.8L907.9,396.3z M939.9,402
		l-10.4-18h20.8L939.9,402z M972,396.3l-10.4,18h20.8L972,396.3z M1004,402l-10.4-18h20.8L1004,402z M10.4,456.8l-5.5,9.4h10.9
		L10.4,456.8z M42.4,444.9L42.4,444.9L42.4,444.9z M74.5,455l-7.1,12.3h14.2L74.5,455z M106.6,451l-5.3-9.2h10.6L106.6,451z
		 M138.6,451.1l-10.4,18H149L138.6,451.1z M170.7,447.2l-2-3.5h4L170.7,447.2z M202.7,453.2l-8.6,15h17.3L202.7,453.2z M234.8,456.2
		l-9.8-17h19.6L234.8,456.2z M266.8,451.1l-10.4,18h20.8L266.8,451.1z M298.9,456.9l-10.4-18h20.8L298.9,456.9z M330.9,457.3
		l-5.1,8.8H336L330.9,457.3z M363,454l-7.9-13.7h15.8L363,454z M395,462.2l-0.9,1.5h1.7L395,462.2z M427.1,455.9l-9.5-16.5h19
		L427.1,455.9z M459.1,457.4l-5,8.6h10L459.1,457.4z M491.2,452.1l-6.2-10.8h12.5L491.2,452.1z M523.2,456.5l-5.8,10H529
		L523.2,456.5z M555.3,453.8l-7.8-13.4h15.5L555.3,453.8z M587.4,451.1l-10.4,18h20.8L587.4,451.1z M619.4,456.9l-10.4-18h20.8
		L619.4,456.9z M651.5,457.3l-5,8.7h10.1L651.5,457.3z M683.5,453.7l-7.7-13.3h15.4L683.5,453.7z M715.6,463.1L715.6,463.1
		L715.6,463.1z M747.6,450l-4.4-7.6h8.8L747.6,450z M779.7,454.9l-7.1,12.3h14.2L779.7,454.9z M811.7,455.5l-9.2-16h18.4
		L811.7,455.5z M843.8,458.8l-3.8,6.6h7.6L843.8,458.8z M875.8,453.2l-7.2-12.5H883L875.8,453.2z M907.9,454.2l-7.8,13.4h15.5
		L907.9,454.2z M939.9,449.4l-4-6.9h7.9L939.9,449.4z M972,457.1l-5.3,9.1h10.6L972,457.1z M1004,456.9l-10.4-18h20.8L1004,456.9z
		 M10.4,506L0,524h20.8L10.4,506z M42.4,510.5l-9.4-16.2h18.8L42.4,510.5z M74.5,506l-10.4,18h20.8L74.5,506z M106.6,511.7l-10.4-18
		h20.8L106.6,511.7z M138.6,506l-10.4,18H149L138.6,506z M170.7,511.7l-10.4-18h20.8L170.7,511.7z M202.7,506l-10.4,18h20.8
		L202.7,506z M234.8,511.6l-10.3-17.8H245L234.8,511.6z M266.8,508.9l-7.9,13.7h15.8L266.8,508.9z M298.9,506.3l-5.7-9.9h11.5
		L298.9,506.3z M330.9,514.5l-3.1,5.3h6.1L330.9,514.5z M363,499.7L363,499.7L363,499.7z M395,517.2l-0.7,1.2h1.3L395,517.2z
		 M427.1,499.7L427.1,499.7L427.1,499.7z M459.1,513l-4.3,7.5h8.7L459.1,513z M491.2,507.8l-7-12.1h14L491.2,507.8z M523.2,507.7
		l-9,15.5h17.9L523.2,507.7z M555.3,510.1l-9-15.6h18L555.3,510.1z M587.4,511.2l-5.9,10.2h11.8L587.4,511.2z M619.4,504l-3.7-6.4
		h7.4L619.4,504z M651.5,516l-1.7,3h3.5L651.5,516z M683.5,499.7L683.5,499.7L683.5,499.7z M715.6,518L715.6,518L715.6,518z
		 M747.6,499.7L747.6,499.7L747.6,499.7z M779.7,518L779.7,518L779.7,518z M811.7,500.7l-0.9-1.5h1.7L811.7,500.7z M843.8,518
		L843.8,518L843.8,518z M875.8,506.9l-6.2-10.8H882L875.8,506.9z M907.9,516l-1.8,3.1h3.5L907.9,516z M939.9,499.7L939.9,499.7
		L939.9,499.7z M972,511.8l-5.4,9.4h10.8L972,511.8z M1004,511.7l-10.4-18h20.8L1004,511.7z"/>
</g>
</svg>
