<svg width="512" height="512" xmlns="http://www.w3.org/2000/svg">
            <g>
            <path d="M0,0h0v0h0zM13.185763745819399,-0.1707579933110368h0.3415159866220736v0.3415159866220736h-0.3415159866220736zM26.71304347826087,0h0v0h0zM40.06956521739131,0h0v0h0zM53.42608695652174,0h0v0h0zM66.78260869565219,0h0v0h0zM80.13913043478261,0h0v0h0zM93.49565217391306,0h0v0h0zM106.85217391304349,0h0v0h0zM120.20869565217392,0h0v0h0zM133.56521739130437,0h0v0h0zM146.9217391304348,0h0v0h0zM160.27826086956523,0h0v0h0zM173.63478260869567,0h0v0h0zM186.99130434782612,0h0v0h0zM200.34782608695653,0h0v0h0zM213.70434782608697,0h0v0h0zM227.0608695652174,0h0v0h0zM240.2466333110368,-0.1707579933110368h0.3415159866220736v0.3415159866220736h-0.3415159866220736zM253.77391304347827,0h0v0h0zM267.13043478260875,0h0v0h0zM280.48695652173916,0h0v0h0zM293.8434782608696,0h0v0h0zM307.20000000000005,0h0v0h0zM320.3857637458194,-0.1707579933110368h0.3415159866220736v0.3415159866220736h-0.3415159866220736zM333.91304347826093,0h0v0h0zM347.26956521739135,0h0v0h0zM360.62608695652176,0h0v0h0zM373.98260869565223,0h0v0h0zM387.33913043478265,0h0v0h0zM400.69565217391306,0h0v0h0zM414.05217391304353,0h0v0h0zM427.40869565217395,0h0v0h0zM440.76521739130436,0h0v0h0zM454.1217391304348,0h0v0h0zM467.4782608695652,0h0v0h0zM480.83478260869566,0h0v0h0zM494.1913043478261,0h0v0h0zM507.54782608695655,0h0v0h0zM0,13.356521739130436h0v0h0zM13.356521739130436,13.356521739130436h0v0h0zM26.71304347826087,13.356521739130436h0v0h0zM40.06956521739131,13.356521739130436h0v0h0zM53.42608695652174,13.356521739130436h0v0h0zM66.78260869565219,13.356521739130436h0v0h0zM80.13913043478261,13.356521739130436h0v0h0zM93.49565217391306,13.356521739130436h0v0h0zM106.85217391304349,13.356521739130436h0v0h0zM120.20869565217392,13.356521739130436h0v0h0zM133.56521739130437,13.356521739130436h0v0h0zM146.9217391304348,13.356521739130436h0v0h0zM160.27826086956523,13.356521739130436h0v0h0zM173.63478260869567,13.356521739130436h0v0h0zM186.99130434782612,13.356521739130436h0v0h0zM200.34782608695653,13.356521739130436h0v0h0zM213.70434782608697,13.356521739130436h0v0h0zM227.0608695652174,13.356521739130436h0v0h0zM240.41739130434783,13.356521739130436h0v0h0zM253.77391304347827,13.356521739130436h0v0h0zM267.13043478260875,13.356521739130436h0v0h0zM280.48695652173916,13.356521739130436h0v0h0zM293.8434782608696,13.356521739130436h0v0h0zM307.20000000000005,13.356521739130436h0v0h0zM320.55652173913046,13.356521739130436h0v0h0zM333.91304347826093,13.356521739130436h0v0h0zM347.26956521739135,13.356521739130436h0v0h0zM360.62608695652176,13.356521739130436h0v0h0zM373.98260869565223,13.356521739130436h0v0h0zM387.33913043478265,13.356521739130436h0v0h0zM400.69565217391306,13.356521739130436h0v0h0zM414.05217391304353,13.356521739130436h0v0h0zM427.40869565217395,13.356521739130436h0v0h0zM440.76521739130436,13.356521739130436h0v0h0zM454.1217391304348,13.356521739130436h0v0h0zM467.4782608695652,13.356521739130436h0v0h0zM480.83478260869566,13.356521739130436h0v0h0zM494.1913043478261,13.356521739130436h0v0h0zM507.54782608695655,13.356521739130436h0v0h0zM0,26.71304347826087h0v0h0zM13.217100200668897,26.573621939799335h0.2788430769230769v0.2788430769230769h-0.2788430769230769zM26.71304347826087,26.71304347826087h0v0h0zM40.06956521739131,26.71304347826087h0v0h0zM53.42608695652174,26.71304347826087h0v0h0zM66.78260869565219,26.71304347826087h0v0h0zM80.13913043478261,26.71304347826087h0v0h0zM93.49565217391306,26.71304347826087h0v0h0zM106.85217391304349,26.71304347826087h0v0h0zM120.20869565217392,26.71304347826087h0v0h0zM133.56521739130437,26.71304347826087h0v0h0zM146.9217391304348,26.71304347826087h0v0h0zM160.27826086956523,26.71304347826087h0v0h0zM173.63478260869567,26.71304347826087h0v0h0zM186.99130434782612,26.71304347826087h0v0h0zM200.34782608695653,26.71304347826087h0v0h0zM213.70434782608697,26.71304347826087h0v0h0zM227.0608695652174,26.71304347826087h0v0h0zM240.41739130434783,26.71304347826087h0v0h0zM253.77391304347827,26.71304347826087h0v0h0zM267.13043478260875,26.71304347826087h0v0h0zM280.48695652173916,26.71304347826087h0v0h0zM293.8434782608696,26.71304347826087h0v0h0zM307.20000000000005,26.71304347826087h0v0h0zM320.55652173913046,26.71304347826087h0v0h0zM333.91304347826093,26.71304347826087h0v0h0zM347.26956521739135,26.71304347826087h0v0h0zM360.62608695652176,26.71304347826087h0v0h0zM373.98260869565223,26.71304347826087h0v0h0zM387.33913043478265,26.71304347826087h0v0h0zM400.69565217391306,26.71304347826087h0v0h0zM414.05217391304353,26.71304347826087h0v0h0zM427.40869565217395,26.71304347826087h0v0h0zM440.6257958528428,26.573621939799335h0.2788430769230769v0.2788430769230769h-0.2788430769230769zM454.1217391304348,26.71304347826087h0v0h0zM467.4782608695652,26.71304347826087h0v0h0zM480.83478260869566,26.71304347826087h0v0h0zM494.1913043478261,26.71304347826087h0v0h0zM507.54782608695655,26.71304347826087h0v0h0zM0,40.06956521739131h0v0h0zM13.356521739130436,40.06956521739131h0v0h0zM26.71304347826087,40.06956521739131h0v0h0zM40.06956521739131,40.06956521739131h0v0h0zM53.42608695652174,40.06956521739131h0v0h0zM66.78260869565219,40.06956521739131h0v0h0zM80.13913043478261,40.06956521739131h0v0h0zM93.49565217391306,40.06956521739131h0v0h0zM106.85217391304349,40.06956521739131h0v0h0zM120.20869565217392,40.06956521739131h0v0h0zM133.56521739130437,40.06956521739131h0v0h0zM146.9217391304348,40.06956521739131h0v0h0zM160.27826086956523,40.06956521739131h0v0h0zM173.63478260869567,40.06956521739131h0v0h0zM186.99130434782612,40.06956521739131h0v0h0zM200.34782608695653,40.06956521739131h0v0h0zM213.70434782608697,40.06956521739131h0v0h0zM227.0608695652174,40.06956521739131h0v0h0zM240.41739130434783,40.06956521739131h0v0h0zM253.77391304347827,40.06956521739131h0v0h0zM267.13043478260875,40.06956521739131h0v0h0zM280.48695652173916,40.06956521739131h0v0h0zM293.8434782608696,40.06956521739131h0v0h0zM307.20000000000005,40.06956521739131h0v0h0zM320.55652173913046,40.06956521739131h0v0h0zM333.91304347826093,40.06956521739131h0v0h0zM347.26956521739135,40.06956521739131h0v0h0zM360.62608695652176,40.06956521739131h0v0h0zM373.98260869565223,40.06956521739131h0v0h0zM387.33913043478265,40.06956521739131h0v0h0zM400.69565217391306,40.06956521739131h0v0h0zM414.05217391304353,40.06956521739131h0v0h0zM427.40869565217395,40.06956521739131h0v0h0zM440.76521739130436,40.06956521739131h0v0h0zM454.1217391304348,40.06956521739131h0v0h0zM467.4782608695652,40.06956521739131h0v0h0zM480.83478260869566,40.06956521739131h0v0h0zM494.1913043478261,40.06956521739131h0v0h0zM507.54782608695655,40.06956521739131h0v0h0zM-0.1707579933110368,53.25532896321071h0.3415159866220736v0.3415159866220736h-0.3415159866220736zM13.356521739130436,53.42608695652174h0v0h0zM26.71304347826087,53.42608695652174h0v0h0zM40.06956521739131,53.42608695652174h0v0h0zM53.42608695652174,53.42608695652174h0v0h0zM66.78260869565219,53.42608695652174h0v0h0zM80.13913043478261,53.42608695652174h0v0h0zM93.49565217391306,53.42608695652174h0v0h0zM106.85217391304349,53.42608695652174h0v0h0zM120.06927411371238,53.2866654180602h0.2788430769230769v0.2788430769230769h-0.2788430769230769zM133.56521739130437,53.42608695652174h0v0h0zM146.9217391304348,53.42608695652174h0v0h0zM160.27826086956523,53.42608695652174h0v0h0zM173.63478260869567,53.42608695652174h0v0h0zM186.99130434782612,53.42608695652174h0v0h0zM200.34782608695653,53.42608695652174h0v0h0zM213.70434782608697,53.42608695652174h0v0h0zM227.0608695652174,53.42608695652174h0v0h0zM240.41739130434783,53.42608695652174h0v0h0zM251.17714836120402,50.829322274247495h5.193529364548495v5.193529364548495h-5.193529364548495zM261.9051579933111,48.200810167224084h10.450553578595319v10.450553578595319h-10.450553578595319zM274.0865626755853,47.0256931103679h12.800787692307694v12.800787692307694h-12.800787692307694zM287.3434782608696,46.92608695652174h13v13h-13zM301.5425883612041,47.76867531772576h11.314823277591975v11.314823277591975h-11.314823277591975zM316.8761835451505,49.74574876254181h7.360676387959868v7.360676387959868h-7.360676387959868zM333.91304347826093,53.42608695652174h0v0h0zM347.26956521739135,53.42608695652174h0v0h0zM360.25724147157194,53.05724147157191h0.7376909698996656v0.7376909698996656h-0.7376909698996656zM369.7842943143813,49.22777257525084h8.396628762541807v8.396628762541807h-8.396628762541807zM381.53084147157193,47.617797993311044h11.616577926421407v11.616577926421407h-11.616577926421407zM394.19565217391306,46.92608695652174h13v13h-13zM407.8319389966556,47.205852040133784h12.440469832775921v12.440469832775921h-12.440469832775921zM422.40179799331105,48.41918929765887h10.013795317725753v10.013795317725753h-10.013795317725753zM438.8036580602007,51.464527625418064h3.9231186622073584v3.9231186622073584h-3.9231186622073584zM453.98231759197324,53.2866654180602h0.2788430769230769v0.2788430769230769h-0.2788430769230769zM467.4782608695652,53.42608695652174h0v0h0zM480.83478260869566,53.42608695652174h0v0h0zM494.1913043478261,53.42608695652174h0v0h0zM507.54782608695655,53.42608695652174h0v0h0zM0,66.78260869565219h0v0h0zM13.356521739130436,66.78260869565219h0v0h0zM26.71304347826087,66.78260869565219h0v0h0zM40.06956521739131,66.78260869565219h0v0h0zM53.42608695652174,66.78260869565219h0v0h0zM66.78260869565219,66.78260869565219h0v0h0zM80.13913043478261,66.78260869565219h0v0h0zM93.49565217391306,66.78260869565219h0v0h0zM106.71275237458195,66.64318715719065h0.2788430769230769v0.2788430769230769h-0.2788430769230769zM120.20869565217392,66.78260869565219h0v0h0zM133.56521739130437,66.78260869565219h0v0h0zM146.9217391304348,66.78260869565219h0v0h0zM160.27826086956523,66.78260869565219h0v0h0zM173.63478260869567,66.78260869565219h0v0h0zM186.99130434782612,66.78260869565219h0v0h0zM200.34782608695653,66.78260869565219h0v0h0zM213.70434782608697,66.78260869565219h0v0h0zM227.0608695652174,66.78260869565219h0v0h0zM236.79561632107024,63.1608337123746h7.243549966555185v7.243549966555185h-7.243549966555185zM247.27391304347827,60.282608695652186h13v13h-13zM262.32758367892984,61.979757591973254h9.60570220735786v9.60570220735786h-9.60570220735786zM277.503623277592,63.799275451505025h5.966666488294315v5.966666488294315h-5.966666488294315zM291.48594943143814,64.42507986622074h4.715057658862877v4.715057658862877h-4.715057658862877zM302.9786199331104,62.56122862876256h8.442760133779265v8.442760133779265h-8.442760133779265zM314.2740762541806,60.500163210702354h12.564890969899666v12.564890969899666h-12.564890969899666zM328.9647090301004,61.83427424749165h9.896668896321072v9.896668896321072h-9.896668896321072zM346.55874140468234,66.07178488294316h1.4216476254180603v1.4216476254180603h-1.4216476254180603zM355.1254089632107,61.28193070234115h11.001355986622075v11.001355986622075h-11.001355986622075zM367.8854078929767,60.6854078929766h12.194401605351173v12.194401605351173h-12.194401605351173zM383.536734180602,62.980212441471586h7.6047925083612045v7.6047925083612045h-7.6047925083612045zM398.4739488963211,64.56090541806022h4.443406555183946v4.443406555183946h-4.443406555183946zM410.8037650836121,63.534199866220746h6.496817658862877v6.496817658862877h-6.496817658862877zM422.1685725752509,61.54248561872911h10.480246153846155v10.480246153846155h-10.480246153846155zM434.4074616722408,60.42485297658864h12.715511438127091v12.715511438127091h-12.715511438127091zM451.4584486956522,64.11931826086958h5.326580869565218v5.326580869565218h-5.326580869565218zM467.4782608695652,66.78260869565219h0v0h0zM480.83478260869566,66.78260869565219h0v0h0zM494.1913043478261,66.78260869565219h0v0h0zM507.54782608695655,66.78260869565219h0v0h0zM0,80.13913043478261h0v0h0zM13.356521739130436,80.13913043478261h0v0h0zM26.71304347826087,80.13913043478261h0v0h0zM40.06956521739131,80.13913043478261h0v0h0zM53.42608695652174,80.13913043478261h0v0h0zM66.78260869565219,80.13913043478261h0v0h0zM80.13913043478261,80.13913043478261h0v0h0zM93.49565217391306,80.13913043478261h0v0h0zM106.71275237458195,79.99970889632108h0.2788430769230769v0.2788430769230769h-0.2788430769230769zM120.20869565217392,80.13913043478261h0v0h0zM133.56521739130437,80.13913043478261h0v0h0zM146.9217391304348,80.13913043478261h0v0h0zM160.27826086956523,80.13913043478261h0v0h0zM173.63478260869567,80.13913043478261h0v0h0zM186.99130434782612,80.13913043478261h0v0h0zM200.34782608695653,80.13913043478261h0v0h0zM213.70434782608697,80.13913043478261h0v0h0zM225.38221163879598,78.4604725083612h3.35731585284281v3.35731585284281h-3.35731585284281zM233.99275023411371,73.7144893645485h12.849282140468228v12.849282140468228h-12.849282140468228zM250.11473979933112,76.47995719063546h7.318346488294315v7.318346488294315h-7.318346488294315zM263.99154943143816,77.00024508361204h6.2777707023411375v6.2777707023411375h-6.2777707023411375zM274.9125608026756,74.56473471571907h11.148791438127091v11.148791438127091h-11.148791438127091zM288.036884548495,74.33253672240804h11.613187424749166v11.613187424749166h-11.613187424749166zM302.85163023411377,75.79076066889633h8.696739531772577v8.696739531772577h-8.696739531772577zM318.54117672240807,78.12378541806021h4.030690033444817v4.030690033444817h-4.030690033444817zM327.6259745819399,73.85206153846154h12.574137792642142v12.574137792642142h-12.574137792642142zM341.58133083612046,74.45089605351171h11.376468762541808v11.376468762541808h-11.376468762541808zM354.6855170568562,74.19856053511707h11.881139799331105v11.881139799331105h-11.881139799331105zM372.58161230769235,78.73813404682275h2.8019927759197327v2.8019927759197327h-2.8019927759197327zM382.59330140468234,75.39330140468228h9.49165806020067v9.49165806020067h-9.49165806020067zM394.8340912374582,74.27756949832776h11.723121872909699v11.723121872909699h-11.723121872909699zM408.64591625418063,74.73287277591974h10.812515317725753v10.812515317725753h-10.812515317725753zM424.9982030769231,77.72863785953177h4.820985150501673v4.820985150501673h-4.820985150501673zM436.2934539130435,75.66736695652175h8.94352695652174v8.94352695652174h-8.94352695652174zM448.02135331103676,74.03874461538462h12.200771638795988v12.200771638795988h-12.200771638795988zM467.4782608695652,80.13913043478261h0v0h0zM480.83478260869566,80.13913043478261h0v0h0zM494.1913043478261,80.13913043478261h0v0h0zM507.54782608695655,80.13913043478261h0v0h0zM0,93.49565217391306h0v0h0zM13.356521739130436,93.49565217391306h0v0h0zM26.71304347826087,93.49565217391306h0v0h0zM40.06956521739131,93.49565217391306h0v0h0zM53.42608695652174,93.49565217391306h0v0h0zM66.78260869565219,93.49565217391306h0v0h0zM80.13913043478261,93.49565217391306h0v0h0zM93.49565217391306,93.49565217391306h0v0h0zM106.85217391304349,93.49565217391306h0v0h0zM120.20869565217392,93.49565217391306h0v0h0zM133.42579585284284,93.35623063545152h0.2788430769230769v0.2788430769230769h-0.2788430769230769zM146.9217391304348,93.49565217391306h0v0h0zM160.27826086956523,93.49565217391306h0v0h0zM173.63478260869567,93.49565217391306h0v0h0zM186.99130434782612,93.49565217391306h0v0h0zM200.34782608695653,93.49565217391306h0v0h0zM213.70434782608697,93.49565217391306h0v0h0zM222.76191892976587,89.19670153846155h8.59790127090301v8.59790127090301h-8.59790127090301zM234.75653779264215,87.83479866220738h11.321707023411374v11.321707023411374h-11.321707023411374zM251.32345364548496,91.04519277591974h4.900918795986623v4.900918795986623h-4.900918795986623zM260.63043478260875,86.99565217391306h13v13h-13zM276.07863652173916,89.08733217391305h8.816640000000001v8.816640000000001h-8.816640000000001zM289.96515531772576,89.61732923076924h7.756645886287626v7.756645886287626h-7.756645886287626zM301.0063753846154,87.30202755852844h12.387249230769232v12.387249230769232h-12.387249230769232zM316.2462694314382,89.18539986622075h8.620504615384617v8.620504615384617h-8.620504615384617zM329.7472470903011,89.32985578595319h8.331592775919733v8.331592775919733h-8.331592775919733zM340.76956521739135,86.99565217391306h13v13h-13zM357.5560390635452,90.42560428093647h6.140095785953179v6.140095785953179h-6.140095785953179zM368.92937418060205,88.4424176588629h10.106469030100335v10.106469030100335h-10.106469030100335zM381.48584026755856,87.64236200668898h11.706580334448162v11.706580334448162h-11.706580334448162zM396.95505551839466,89.75505551839467h7.48119331103679v7.48119331103679h-7.48119331103679zM409.2251269565218,88.66860521739132h9.654093913043479v9.654093913043479h-9.654093913043479zM421.0892628762542,87.17621939799332h12.638865551839467v12.638865551839467h-12.638865551839467zM439.40649953177257,92.13693431438128h2.717435719063545v2.717435719063545h-2.717435719063545zM447.937515451505,87.31142849498329h12.368447357859532v12.368447357859532h-12.368447357859532zM464.0127571906354,90.0301484949833h6.931007357859533v6.931007357859533h-6.931007357859533zM480.83478260869566,93.49565217391306h0v0h0zM494.05188280936454,93.35623063545152h0.2788430769230769v0.2788430769230769h-0.2788430769230769zM507.54782608695655,93.49565217391306h0v0h0zM0,106.85217391304349h0v0h0zM13.356521739130436,106.85217391304349h0v0h0zM26.71304347826087,106.85217391304349h0v0h0zM40.06956521739131,106.85217391304349h0v0h0zM53.42608695652174,106.85217391304349h0v0h0zM66.78260869565219,106.85217391304349h0v0h0zM80.13913043478261,106.85217391304349h0v0h0zM93.49565217391306,106.85217391304349h0v0h0zM106.85217391304349,106.85217391304349h0v0h0zM120.20869565217392,106.85217391304349h0v0h0zM133.56521739130437,106.85217391304349h0v0h0zM146.9217391304348,106.85217391304349h0v0h0zM160.27826086956523,106.85217391304349h0v0h0zM173.63478260869567,106.85217391304349h0v0h0zM186.99130434782612,106.85217391304349h0v0h0zM200.34782608695653,106.85217391304349h0v0h0zM213.70434782608697,106.85217391304349h0v0h0zM221.66539986622072,101.45670421404682h10.790939397993313v10.790939397993313h-10.790939397993313zM236.06902153846156,102.5038041471572h8.696739531772577v8.696739531772577h-8.696739531772577zM249.3064647491639,102.3847256187291h8.934896588628764v8.934896588628764h-8.934896588628764zM261.7440064214047,101.46574555183948h10.772856722408028v10.772856722408028h-10.772856722408028zM280.48695652173916,106.85217391304349h0v0h0zM293.8434782608696,106.85217391304349h0v0h0zM303.4672117725753,103.11938568561874h7.465576454849499v7.465576454849499h-7.465576454849499zM314.7784390635452,101.0740912374582h11.55616535117057v11.55616535117057h-11.55616535117057zM331.41932949832784,104.35845993311038h4.9874279598662214v4.9874279598662214h-4.9874279598662214zM340.76956521739135,100.35217391304349h13v13h-13zM360.01846795986626,106.24455491638797h1.215237993311037v1.215237993311037h-1.215237993311037zM367.48260869565223,100.35217391304349h13v13h-13zM384.93670314381274,104.44974662207359h4.804854581939799v4.804854581939799h-4.804854581939799zM400.69565217391306,106.85217391304349h0v0h0zM414.05217391304353,106.85217391304349h0v0h0zM421.5537616053512,100.99723986622074h11.709868093645486v11.709868093645486h-11.709868093645486zM437.0168636789298,103.1038202006689h7.4967074247491645v7.4967074247491645h-7.4967074247491645zM448.82808722408026,101.55852200668897h10.587303812709031v10.587303812709031h-10.587303812709031zM463.0501629431438,102.42407598662209h8.85619585284281v8.85619585284281h-8.85619585284281zM480.83478260869566,106.85217391304349h0v0h0zM494.1913043478261,106.85217391304349h0v0h0zM507.54782608695655,106.85217391304349h0v0h0zM0,120.20869565217392h0v0h0zM13.356521739130436,120.20869565217392h0v0h0zM26.71304347826087,120.20869565217392h0v0h0zM40.06956521739131,120.20869565217392h0v0h0zM53.42608695652174,120.20869565217392h0v0h0zM66.78260869565219,120.20869565217392h0v0h0zM80.13913043478261,120.20869565217392h0v0h0zM93.49565217391306,120.20869565217392h0v0h0zM106.85217391304349,120.20869565217392h0v0h0zM120.20869565217392,120.20869565217392h0v0h0zM133.56521739130437,120.20869565217392h0v0h0zM146.9217391304348,120.20869565217392h0v0h0zM160.1388393311037,120.06927411371238h0.2788430769230769v0.2788430769230769h-0.2788430769230769zM173.63478260869567,120.20869565217392h0v0h0zM186.99130434782612,120.20869565217392h0v0h0zM200.34782608695653,120.20869565217392h0v0h0zM213.70434782608697,120.20869565217392h0v0h0zM221.85608989966553,115.00391598662208h10.409559331103681v10.409559331103681h-10.409559331103681zM235.72509110367892,115.51639545150502h9.384600401337794v9.384600401337794h-9.384600401337794zM249.59881846153849,116.03360107023411h8.3501891638796v8.3501891638796h-8.3501891638796zM261.3405880936455,114.4188489632107h11.579693377926423v11.579693377926423h-11.579693377926423zM280.48695652173916,120.20869565217392h0v0h0zM293.8434782608696,120.20869565217392h0v0h0zM302.82486581939804,115.83356147157191h8.750268361204014v8.750268361204014h-8.750268361204014zM314.954334180602,114.60650809364549h11.204375117056857v11.204375117056857h-11.204375117056857zM333.67159866220743,119.9672508361204h0.48288963210702346v0.48288963210702346h-0.48288963210702346zM343.71822020066895,116.65735063545151h7.102690033444817v7.102690033444817h-7.102690033444817zM360.62608695652176,120.20869565217392h0v0h0zM367.7048379933111,113.93092494983277h12.555541404682275v12.555541404682275h-12.555541404682275zM383.9273096989967,116.79687491638796h6.823641471571907v6.823641471571907h-6.823641471571907zM400.69565217391306,120.20869565217392h0v0h0zM413.3413501003345,119.49787183946489h1.4216476254180603v1.4216476254180603h-1.4216476254180603zM421.1931355183947,113.99313551839465h12.43112026755853v12.43112026755853h-12.43112026755853zM437.4604543143813,116.90393257525083h6.609526153846154v6.609526153846154h-6.609526153846154zM448.68681632107024,114.77377284280936h10.8698456187291v10.8698456187291h-10.8698456187291zM463.2799464882943,116.01038127090301h8.396628762541807v8.396628762541807h-8.396628762541807zM480.83478260869566,120.20869565217392h0v0h0zM494.1913043478261,120.20869565217392h0v0h0zM507.54782608695655,120.20869565217392h0v0h0zM0,133.56521739130437h0v0h0zM13.356521739130436,133.56521739130437h0v0h0zM26.573621939799335,133.42579585284284h0.2788430769230769v0.2788430769230769h-0.2788430769230769zM40.06956521739131,133.56521739130437h0v0h0zM53.42608695652174,133.56521739130437h0v0h0zM66.78260869565219,133.56521739130437h0v0h0zM80.13913043478261,133.56521739130437h0v0h0zM93.49565217391306,133.56521739130437h0v0h0zM106.85217391304349,133.56521739130437h0v0h0zM120.20869565217392,133.56521739130437h0v0h0zM133.56521739130437,133.56521739130437h0v0h0zM146.9217391304348,133.56521739130437h0v0h0zM160.27826086956523,133.56521739130437h0v0h0zM173.63478260869567,133.56521739130437h0v0h0zM186.85188280936458,133.42579585284284h0.2788430769230769v0.2788430769230769h-0.2788430769230769zM200.34782608695653,133.56521739130437h0v0h0zM213.70434782608697,133.56521739130437h0v0h0zM223.36470903010033,129.8690568561873h7.392321070234114v7.392321070234114h-7.392321070234114zM234.33775946488294,127.48558555183949h12.159263678929767v12.159263678929767h-12.159263678929767zM252.25959170568564,132.05089605351174h3.0286426755852847v3.0286426755852847h-3.0286426755852847zM261.00621270903014,127.44099531772578h12.248444147157192v12.248444147157192h-12.248444147157192zM274.74601525083614,127.82427612040136h11.481882541806021v11.481882541806021h-11.481882541806021zM288.57006662207357,128.2918057525084h10.546823277591974v10.546823277591974h-10.546823277591974zM300.70000000000005,127.06521739130437h13v13h-13zM317.36241230769235,130.37110795986624h6.388218862876255v6.388218862876255h-6.388218862876255zM333.2022196655519,132.85439357859534h1.4216476254180603v1.4216476254180603h-1.4216476254180603zM342.8833348494984,129.1789870234114h8.772460735785954v8.772460735785954h-8.772460735785954zM360.62608695652176,133.56521739130437h0v0h0zM369.9351202675586,129.51772896321071h8.09497685618729v8.09497685618729h-8.09497685618729zM380.9114584615385,127.13754541806023h12.855343946488295v12.855343946488295h-12.855343946488295zM395.4945712374582,128.36413645484953h10.4021618729097v10.4021618729097h-10.4021618729097zM408.0741030100335,127.58714648829434h11.956141806020069v11.956141806020069h-11.956141806020069zM421.7221565217392,127.87867826086959h11.373078260869566v11.373078260869566h-11.373078260869566zM439.13952321070235,131.93952321070236h3.2513883612040138v3.2513883612040138h-3.2513883612040138zM447.65487090301,127.09834916387962h12.9337364548495v12.9337364548495h-12.9337364548495zM464.7643697658863,130.85132628762545h5.427782207357859v5.427782207357859h-5.427782207357859zM480.83478260869566,133.56521739130437h0v0h0zM494.1913043478261,133.56521739130437h0v0h0zM507.54782608695655,133.56521739130437h0v0h0zM0,146.9217391304348h0v0h0zM13.356521739130436,146.9217391304348h0v0h0zM26.71304347826087,146.9217391304348h0v0h0zM39.93014367892977,146.78231759197325h0.2788430769230769v0.2788430769230769h-0.2788430769230769zM53.42608695652174,146.9217391304348h0v0h0zM66.78260869565219,146.9217391304348h0v0h0zM80.13913043478261,146.9217391304348h0v0h0zM93.49565217391306,146.9217391304348h0v0h0zM106.85217391304349,146.9217391304348h0v0h0zM120.20869565217392,146.9217391304348h0v0h0zM133.56521739130437,146.9217391304348h0v0h0zM146.9217391304348,146.9217391304348h0v0h0zM160.27826086956523,146.9217391304348h0v0h0zM173.63478260869567,146.9217391304348h0v0h0zM186.99130434782612,146.9217391304348h0v0h0zM200.34782608695653,146.9217391304348h0v0h0zM213.70434782608697,146.9217391304348h0v0h0zM226.4694325083612,146.3303020735786h1.1828741137123746v1.1828741137123746h-1.1828741137123746zM234.42144321070234,140.9257910367893h11.99189618729097v11.99189618729097h-11.99189618729097zM248.70341779264214,141.85124387959866h10.140990501672242v10.140990501672242h-10.140990501672242zM265.72943839464887,145.5207427424749h2.8019927759197327v2.8019927759197327h-2.8019927759197327zM276.3211601337793,142.75594274247493h8.331592775919733v8.331592775919733h-8.331592775919733zM289.36303304347825,142.4412939130435h8.960890434782609v8.960890434782609h-8.960890434782609zM304.62198581939805,144.3437249498328h5.156028361204013v5.156028361204013h-5.156028361204013zM320.55652173913046,146.9217391304348h0v0h0zM330.5935882274248,143.60228387959867h6.638910501672242v6.638910501672242h-6.638910501672242zM340.76956521739135,140.4217391304348h13v13h-13zM358.6497327090301,144.94538488294316h3.952708494983278v3.952708494983278h-3.952708494983278zM373.98260869565223,146.9217391304348h0v0h0zM384.3169605351171,143.89956923076923h6.044339799331104v6.044339799331104h-6.044339799331104zM396.07640187290974,142.30248882943144h9.23850060200669v9.23850060200669h-9.23850060200669zM410.11420896321073,142.983774180602h7.875929899665553v7.875929899665553h-7.875929899665553zM426.0146857525084,145.52772923076924h2.788019799331104v2.788019799331104h-2.788019799331104zM435.2645393979933,141.42106113712376h11.001355986622075v11.001355986622075h-11.001355986622075zM448.74430073578594,141.54430073578595h10.754876789297661v10.754876789297661h-10.754876789297661zM467.4782608695652,146.9217391304348h0v0h0zM480.83478260869566,146.9217391304348h0v0h0zM494.05188280936454,146.78231759197325h0.2788430769230769v0.2788430769230769h-0.2788430769230769zM507.54782608695655,146.9217391304348h0v0h0zM0,160.27826086956523h0v0h0zM13.356521739130436,160.27826086956523h0v0h0zM26.71304347826087,160.27826086956523h0v0h0zM40.06956521739131,160.27826086956523h0v0h0zM53.42608695652174,160.27826086956523h0v0h0zM66.78260869565219,160.27826086956523h0v0h0zM80.13913043478261,160.27826086956523h0v0h0zM93.49565217391306,160.27826086956523h0v0h0zM106.85217391304349,160.27826086956523h0v0h0zM120.20869565217392,160.27826086956523h0v0h0zM133.56521739130437,160.27826086956523h0v0h0zM146.9217391304348,160.27826086956523h0v0h0zM160.27826086956523,160.27826086956523h0v0h0zM173.63478260869567,160.27826086956523h0v0h0zM186.99130434782612,160.27826086956523h0v0h0zM200.34782608695653,160.27826086956523h0v0h0zM213.70434782608697,160.27826086956523h0v0h0zM227.0608695652174,160.27826086956523h0v0h0zM238.3217016722408,158.1825712374582h4.1913792642140475v4.1913792642140475h-4.1913792642140475zM247.80883906354515,154.3131868896321h11.930147959866224v11.930147959866224h-11.930147959866224zM261.0732008026756,154.22102688963213h12.114467959866221v12.114467959866221h-12.114467959866221zM275.74112749163885,155.5324318394649h9.49165806020067v9.49165806020067h-9.49165806020067zM290.7076751839465,157.14245779264215h6.271606153846154v6.271606153846154h-6.271606153846154zM305.77835237458197,158.85661324414718h2.8432952508361207v2.8432952508361207h-2.8432952508361207zM316.10433070234114,155.82606983277594h8.904382073578597v8.904382073578597h-8.904382073578597zM327.6461121070235,154.01132949832777h12.533862742474916v12.533862742474916h-12.533862742474916zM341.0853415384616,154.09403719063548h12.368447357859532v12.368447357859532h-12.368447357859532zM354.5945899665552,154.2467638795987h12.062993979933111v12.062993979933111h-12.062993979933111zM369.74972147157195,156.04537364548497h8.465774448160536v8.465774448160536h-8.465774448160536zM387.33913043478265,160.27826086956523h0v0h0zM397.23014849498327,156.81275719063547h6.931007357859533v6.931007357859533h-6.931007357859533zM409.1472481605352,155.37333511705685h9.809851505016724v9.809851505016724h-9.809851505016724zM421.1697102341137,154.03927545150503h12.477970836120402v12.477970836120402h-12.477970836120402zM435.2013014046823,154.71434488294315h11.127831973244149v11.127831973244149h-11.127831973244149zM452.80663545150503,158.96315719063546h2.630207357859532v2.630207357859532h-2.630207357859532zM467.33883933110366,160.1388393311037h0.2788430769230769v0.2788430769230769h-0.2788430769230769zM480.83478260869566,160.27826086956523h0v0h0zM494.1913043478261,160.27826086956523h0v0h0zM507.54782608695655,160.27826086956523h0v0h0zM0,173.63478260869567h0v0h0zM13.356521739130436,173.63478260869567h0v0h0zM26.71304347826087,173.63478260869567h0v0h0zM40.06956521739131,173.63478260869567h0v0h0zM53.42608695652174,173.63478260869567h0v0h0zM66.78260869565219,173.63478260869567h0v0h0zM80.13913043478261,173.63478260869567h0v0h0zM93.49565217391306,173.63478260869567h0v0h0zM106.85217391304349,173.63478260869567h0v0h0zM120.20869565217392,173.63478260869567h0v0h0zM133.56521739130437,173.63478260869567h0v0h0zM146.9217391304348,173.63478260869567h0v0h0zM160.27826086956523,173.63478260869567h0v0h0zM173.63478260869567,173.63478260869567h0v0h0zM186.99130434782612,173.63478260869567h0v0h0zM200.34782608695653,173.63478260869567h0v0h0zM213.70434782608697,173.63478260869567h0v0h0zM227.0608695652174,173.63478260869567h0v0h0zM239.55805324414717,172.77544454849502h1.718676120401338v1.718676120401338h-1.718676120401338zM248.67665337792644,168.53752294314384h10.19451933110368v10.19451933110368h-10.19451933110368zM260.63043478260875,167.13478260869567h13v13h-13zM274.86226836120403,168.01009444816054h11.249376321070235v11.249376321070235h-11.249376321070235zM289.6823566555184,169.4736610033445h8.322243210702341v8.322243210702341h-8.322243210702341zM305.10893377926425,171.54371638795988h4.182132441471572v4.182132441471572h-4.182132441471572zM315.06822421404684,168.14648508361205h10.976595050167225v10.976595050167225h-10.976595050167225zM327.41304347826093,167.13478260869567h13v13h-13zM341.99245484949836,168.35767224080269h10.554220735785956v10.554220735785956h-10.554220735785956zM354.16224963210703,167.17094528428095h12.927674648829433v12.927674648829433h-12.927674648829433zM368.6523804682275,168.30455438127092h10.660456454849498v10.660456454849498h-10.660456454849498zM387.33913043478265,173.63478260869567h0v0h0zM396.0012457525084,168.94037618729098h9.388812842809365v9.388812842809365h-9.388812842809365zM408.31287652173916,167.89548521739133h11.478594782608697v11.478594782608697h-11.478594782608697zM420.90869565217395,167.13478260869567h13v13h-13zM436.1649230769231,169.0344882943144h9.200588628762542v9.200588628762542h-9.200588628762542zM454.1217391304348,173.63478260869567h0v0h0zM467.4782608695652,173.63478260869567h0v0h0zM480.83478260869566,173.63478260869567h0v0h0zM494.1913043478261,173.63478260869567h0v0h0zM507.3770680936455,173.46402461538463h0.3415159866220736v0.3415159866220736h-0.3415159866220736zM0,186.99130434782612h0v0h0zM13.356521739130436,186.99130434782612h0v0h0zM26.71304347826087,186.99130434782612h0v0h0zM40.06956521739131,186.99130434782612h0v0h0zM53.42608695652174,186.99130434782612h0v0h0zM66.78260869565219,186.99130434782612h0v0h0zM80.13913043478261,186.99130434782612h0v0h0zM93.49565217391306,186.99130434782612h0v0h0zM106.85217391304349,186.99130434782612h0v0h0zM120.06927411371238,186.85188280936458h0.2788430769230769v0.2788430769230769h-0.2788430769230769zM133.56521739130437,186.99130434782612h0v0h0zM146.9217391304348,186.99130434782612h0v0h0zM160.27826086956523,186.99130434782612h0v0h0zM173.63478260869567,186.99130434782612h0v0h0zM186.99130434782612,186.99130434782612h0v0h0zM200.34782608695653,186.99130434782612h0v0h0zM213.56492628762544,186.85188280936458h0.2788430769230769v0.2788430769230769h-0.2788430769230769zM227.0608695652174,186.99130434782612h0v0h0zM235.0726250167224,181.6465380602007h10.689532575250837v10.689532575250837h-10.689532575250837zM248.04309190635453,181.26048321070238h11.461642274247492v11.461642274247492h-11.461642274247492zM265.0440433444817,184.90491290969902h4.172782876254181v4.172782876254181h-4.172782876254181zM277.63343839464886,184.13778622073582h5.707036254180603v5.707036254180603h-5.707036254180603zM290.4033006020067,183.55112668896325h6.880355317725753v6.880355317725753h-6.880355317725753zM306.1756061538462,185.96691050167226h2.0487876923076924v2.0487876923076924h-2.0487876923076924zM320.4171002006689,186.85188280936458h0.2788430769230769v0.2788430769230769h-0.2788430769230769zM329.96274943143817,183.04101030100338h7.900588093645486v7.900588093645486h-7.900588093645486zM340.76956521739135,180.49130434782612h13v13h-13zM357.87664695652177,184.24186434782612h5.498880000000001v5.498880000000001h-5.498880000000001zM373.98260869565223,186.99130434782612h0v0h0zM385.91065043478267,185.5628243478261h2.8569600000000004v2.8569600000000004h-2.8569600000000004zM397.11163505016725,183.4072872240803h7.16803424749164v7.16803424749164h-7.16803424749164zM411.61363264214054,184.5527630769231h4.877082541806021v4.877082541806021h-4.877082541806021zM424.91107745819403,184.49368615384617h4.995236387959867v4.995236387959867h-4.995236387959867zM434.59357966555183,180.8196666220736h12.343275451505018v12.343275451505018h-12.343275451505018zM449.4961701672241,182.36573538461542h9.251137926421407v9.251137926421407h-9.251137926421407zM467.4782608695652,186.99130434782612h0v0h0zM480.83478260869566,186.99130434782612h0v0h0zM494.1913043478261,186.99130434782612h0v0h0zM507.54782608695655,186.99130434782612h0v0h0zM0,200.34782608695653h0v0h0zM13.356521739130436,200.34782608695653h0v0h0zM26.71304347826087,200.34782608695653h0v0h0zM40.06956521739131,200.34782608695653h0v0h0zM53.42608695652174,200.34782608695653h0v0h0zM66.78260869565219,200.34782608695653h0v0h0zM80.13913043478261,200.34782608695653h0v0h0zM93.49565217391306,200.34782608695653h0v0h0zM106.85217391304349,200.34782608695653h0v0h0zM120.20869565217392,200.34782608695653h0v0h0zM133.56521739130437,200.34782608695653h0v0h0zM146.9217391304348,200.34782608695653h0v0h0zM160.27826086956523,200.34782608695653h0v0h0zM173.63478260869567,200.34782608695653h0v0h0zM186.99130434782612,200.34782608695653h0v0h0zM200.34782608695653,200.34782608695653h0v0h0zM213.70434782608697,200.34782608695653h0v0h0zM223.87282193979934,197.15977846153848h6.376095250836121v6.376095250836121h-6.376095250836121zM234.07494421404684,194.00537899665554h12.684894180602008v12.684894180602008h-12.684894180602008zM252.18448695652174,198.7584h3.1788521739130435v3.1788521739130435h-3.1788521739130435zM261.70624856187294,194.92363986622075h10.848372441471573v10.848372441471573h-10.848372441471573zM274.0653463545151,193.92621591973244h12.843220334448162v12.843220334448162h-12.843220334448162zM287.7526474916388,194.25699531772577h12.18166153846154v12.18166153846154h-12.18166153846154zM300.9750903010034,194.12291638795986h12.449819397993313v12.449819397993313h-12.449819397993313zM318.16221110367894,197.953515451505h4.78862127090301v4.78862127090301h-4.78862127090301zM332.62778648829436,199.06256909699h2.5705139799331107v2.5705139799331107h-2.5705139799331107zM342.02014394648836,195.09840481605352h10.498842541806022v10.498842541806022h-10.498842541806022zM360.62608695652176,200.34782608695653h0v0h0zM370.722230367893,197.08744775919735h6.520756655518396v6.520756655518396h-6.520756655518396zM380.8888037458194,193.89749939799333h12.900653377926423v12.900653377926423h-12.900653377926423zM394.7273418060201,194.37951571906356h11.936620735785954v11.936620735785954h-11.936620735785954zM407.55217391304353,193.84782608695653h13v13h-13zM422.5515451505017,195.4906755852843h9.714301003344483v9.714301003344483h-9.714301003344483zM438.3346386622074,197.91724735785954h4.86115745819398v4.86115745819398h-4.86115745819398zM447.6217391304348,193.84782608695653h13v13h-13zM465.3687010033444,198.2382662207358h4.219119732441472v4.219119732441472h-4.219119732441472zM480.83478260869566,200.34782608695653h0v0h0zM494.1913043478261,200.34782608695653h0v0h0zM507.54782608695655,200.34782608695653h0v0h0zM0,213.70434782608697h0v0h0zM13.356521739130436,213.70434782608697h0v0h0zM26.71304347826087,213.70434782608697h0v0h0zM40.06956521739131,213.70434782608697h0v0h0zM53.42608695652174,213.70434782608697h0v0h0zM66.78260869565219,213.70434782608697h0v0h0zM80.13913043478261,213.70434782608697h0v0h0zM93.49565217391306,213.70434782608697h0v0h0zM106.85217391304349,213.70434782608697h0v0h0zM120.20869565217392,213.70434782608697h0v0h0zM133.42579585284284,213.56492628762544h0.2788430769230769v0.2788430769230769h-0.2788430769230769zM146.9217391304348,213.70434782608697h0v0h0zM160.27826086956523,213.70434782608697h0v0h0zM173.63478260869567,213.70434782608697h0v0h0zM186.99130434782612,213.70434782608697h0v0h0zM200.34782608695653,213.70434782608697h0v0h0zM213.70434782608697,213.70434782608697h0v0h0zM222.12435050167224,208.76782876254182h9.873038127090302v9.873038127090302h-9.873038127090302zM235.43581966555183,208.72277618729098h9.963143277591975v9.963143277591975h-9.963143277591975zM249.9460366555184,209.8764714381271h7.655752775919733v7.655752775919733h-7.655752775919733zM261.04284040133786,207.61675344481608h12.175188762541806v12.175188762541806h-12.175188762541806zM279.13537926421407,212.35277056856188h2.7031545150501675v2.7031545150501675h-2.7031545150501675zM293.8434782608696,213.70434782608697h0v0h0zM302.2497134448161,208.75406127090304h9.900573110367894v9.900573110367894h-9.900573110367894zM315.21899879598664,208.36682488294315h10.675045886287627v10.675045886287627h-10.675045886287627zM333.91304347826093,213.70434782608697h0v0h0zM345.4680786622074,211.90286127090303h3.6029731103678935v3.6029731103678935h-3.6029731103678935zM360.62608695652176,213.70434782608697h0v0h0zM367.9704786622074,207.69221779264217h12.024260066889633v12.024260066889633h-12.024260066889633zM383.0947874247492,209.46000481605353h8.488686020066892v8.488686020066892h-8.488686020066892zM400.69565217391306,213.70434782608697h0v0h0zM411.96578247491647,211.61795638795988h4.172782876254181v4.172782876254181h-4.172782876254181zM420.95235852842814,207.24801070234116h12.91267424749164v12.91267424749164h-12.91267424749164zM437.9563408695652,210.89547130434784h5.617753043478262v5.617753043478262h-5.617753043478262zM448.50049284280936,208.08310153846156h11.242492575250836v11.242492575250836h-11.242492575250836zM463.4500366555184,209.67612361204016h8.056448428093647v8.056448428093647h-8.056448428093647zM480.83478260869566,213.70434782608697h0v0h0zM494.1913043478261,213.70434782608697h0v0h0zM507.54782608695655,213.70434782608697h0v0h0zM0,227.0608695652174h0v0h0zM13.356521739130436,227.0608695652174h0v0h0zM26.71304347826087,227.0608695652174h0v0h0zM40.06956521739131,227.0608695652174h0v0h0zM53.42608695652174,227.0608695652174h0v0h0zM66.78260869565219,227.0608695652174h0v0h0zM80.13913043478261,227.0608695652174h0v0h0zM93.49565217391306,227.0608695652174h0v0h0zM106.85217391304349,227.0608695652174h0v0h0zM120.20869565217392,227.0608695652174h0v0h0zM133.56521739130437,227.0608695652174h0v0h0zM146.9217391304348,227.0608695652174h0v0h0zM160.27826086956523,227.0608695652174h0v0h0zM173.63478260869567,227.0608695652174h0v0h0zM186.99130434782612,227.0608695652174h0v0h0zM200.34782608695653,227.0608695652174h0v0h0zM213.70434782608697,227.0608695652174h0v0h0zM221.61166555183945,221.61166555183945h10.898408026755854v10.898408026755854h-10.898408026755854zM236.18450408026757,222.82798234113713h8.465774448160536v8.465774448160536h-8.465774448160536zM249.2011537123746,222.48811023411372h9.14551866220736v9.14551866220736h-9.14551866220736zM261.83678287625423,221.76721765886288h10.587303812709031v10.587303812709031h-10.587303812709031zM280.48695652173916,227.0608695652174h0v0h0zM293.8434782608696,227.0608695652174h0v0h0zM303.59702688963216,223.4578964548495h7.205946220735787v7.205946220735787h-7.205946220735787zM314.68006314381273,221.18441096989966h11.752917190635452v11.752917190635452h-11.752917190635452zM331.9171167892977,225.06494287625418h3.991853377926422v3.991853377926422h-3.991853377926422zM340.76956521739135,220.5608695652174h13v13h-13zM360.31436628762543,226.74914889632106h0.6234413377926422v0.6234413377926422h-0.6234413377926422zM367.48260869565223,220.5608695652174h13v13h-13zM385.44815518394654,225.16989431438128h3.7819505016722412v3.7819505016722412h-3.7819505016722412zM400.69565217391306,227.0608695652174h0v0h0zM414.05217391304353,227.0608695652174h0v0h0zM421.7719352508362,221.4241091638796h11.273520802675586v11.273520802675586h-11.273520802675586zM436.9094977926421,223.20514996655518h7.711439197324416v7.711439197324416h-7.711439197324416zM448.86676976588626,221.8059002006689h10.50993872909699v10.50993872909699h-10.50993872909699zM462.96971558528423,222.55232428093646h9.017090568561875v9.017090568561875h-9.017090568561875zM480.83478260869566,227.0608695652174h0v0h0zM494.1913043478261,227.0608695652174h0v0h0zM507.3770680936455,226.89011157190635h0.3415159866220736v0.3415159866220736h-0.3415159866220736zM0,240.41739130434783h0v0h0zM13.356521739130436,240.41739130434783h0v0h0zM26.71304347826087,240.41739130434783h0v0h0zM40.06956521739131,240.41739130434783h0v0h0zM53.42608695652174,240.41739130434783h0v0h0zM66.78260869565219,240.41739130434783h0v0h0zM80.13913043478261,240.41739130434783h0v0h0zM93.49565217391306,240.41739130434783h0v0h0zM106.85217391304349,240.41739130434783h0v0h0zM120.20869565217392,240.41739130434783h0v0h0zM133.56521739130437,240.41739130434783h0v0h0zM146.9217391304348,240.41739130434783h0v0h0zM160.27826086956523,240.41739130434783h0v0h0zM173.63478260869567,240.41739130434783h0v0h0zM186.99130434782612,240.41739130434783h0v0h0zM200.208404548495,240.2779697658863h0.2788430769230769v0.2788430769230769h-0.2788430769230769zM213.70434782608697,240.41739130434783h0v0h0zM222.47537016722407,235.8318919063545h9.170998795986623v9.170998795986623h-9.170998795986623zM235.1716687625418,235.1716687625418h10.49144508361204v10.49144508361204h-10.49144508361204zM250.6723745819398,237.31585284280936h6.203076923076924v6.203076923076924h-6.203076923076924zM260.7118555183947,233.99881204013377h12.837158528428095v12.837158528428095h-12.837158528428095zM277.51990795986626,237.45034274247493h5.934097123745819v5.934097123745819h-5.934097123745819zM291.9941137123746,238.56802675585286h3.698729096989967v3.698729096989967h-3.698729096989967zM301.57875371237463,234.79614501672242h11.242492575250836v11.242492575250836h-11.242492575250836zM315.64168133779265,235.50255090301005h9.829680802675586v9.829680802675586h-9.829680802675586zM330.1802552508362,236.68460307692308h7.465576454849499v7.465576454849499h-7.465576454849499zM340.76956521739135,233.91739130434783h13v13h-13zM358.13237297658867,237.9236773244147h4.9874279598662214v4.9874279598662214h-4.9874279598662214zM368.38735625418065,234.82213886287627h11.190504882943145v11.190504882943145h-11.190504882943145zM382.06017070234117,235.13843157190635h10.557919464882945v10.557919464882945h-10.557919464882945zM399.5127780602007,239.23451719063544h2.365748227424749v2.365748227424749h-2.365748227424749zM410.34029377926424,236.70551117056857h7.42376026755853v7.42376026755853h-7.42376026755853zM420.90869565217395,233.91739130434783h13v13h-13zM438.74026595317724,238.39243986622074h4.0499028762541815v4.0499028762541815h-4.0499028762541815zM448.23536588628764,234.53101806020067h11.772746488294317v11.772746488294317h-11.772746488294317zM463.64529872909696,236.5844291638796h7.665924280936455v7.665924280936455h-7.665924280936455zM480.83478260869566,240.41739130434783h0v0h0zM494.1913043478261,240.41739130434783h0v0h0zM507.54782608695655,240.41739130434783h0v0h0zM0,253.77391304347827h0v0h0zM13.356521739130436,253.77391304347827h0v0h0zM26.71304347826087,253.77391304347827h0v0h0zM40.06956521739131,253.77391304347827h0v0h0zM53.42608695652174,253.77391304347827h0v0h0zM66.64318715719065,253.63449150501674h0.2788430769230769v0.2788430769230769h-0.2788430769230769zM80.13913043478261,253.77391304347827h0v0h0zM93.49565217391306,253.77391304347827h0v0h0zM106.85217391304349,253.77391304347827h0v0h0zM120.20869565217392,253.77391304347827h0v0h0zM133.56521739130437,253.77391304347827h0v0h0zM146.9217391304348,253.77391304347827h0v0h0zM160.27826086956523,253.77391304347827h0v0h0zM173.63478260869567,253.77391304347827h0v0h0zM186.99130434782612,253.77391304347827h0v0h0zM200.34782608695653,253.77391304347827h0v0h0zM213.70434782608697,253.77391304347827h0v0h0zM224.57886822742475,251.29191170568564h4.964002675585285v4.964002675585285h-4.964002675585285zM233.91739130434783,247.27391304347827h13v13h-13zM251.11426996655518,251.11426996655518h5.319286153846154v5.319286153846154h-5.319286153846154zM262.8929755183947,249.53645377926424h8.474918528428095v8.474918528428095h-8.474918528428095zM274.0607743143813,247.3477308361204h12.852364414715721v12.852364414715721h-12.852364414715721zM287.3434782608696,247.27391304347827h13v13h-13zM301.91184481605353,248.4857578595318h10.576310367892978v10.576310367892978h-10.576310367892978zM319.1145311036789,252.33192240802677h2.88398127090301v2.88398127090301h-2.88398127090301zM327.9970290301004,247.85789859531775h11.832028896321072v11.832028896321072h-11.832028896321072zM340.96092040133783,247.46526822742476h12.617289632107024v12.617289632107024h-12.617289632107024zM355.2631352508361,248.41096133779266h10.72590341137124v10.72590341137124h-10.72590341137124zM371.93854715719067,251.72985150501674h4.088123076923077v4.088123076923077h-4.088123076923077zM381.6611189297659,248.09590153846156h11.356023010033445v11.356023010033445h-11.356023010033445zM394.19565217391306,247.27391304347827h13v13h-13zM407.7852425418061,247.5069816722408h12.533862742474916v12.533862742474916h-12.533862742474916zM423.77885538461544,250.14407277591974h7.259680535117058v7.259680535117058h-7.259680535117058zM437.16496695652177,250.17366260869565h7.200500869565219v7.200500869565219h-7.200500869565219zM447.73958207357856,247.3917559866221h12.764314113712377v12.764314113712377h-12.764314113712377zM466.32030180602004,252.61595397993312h2.3159181270903013v2.3159181270903013h-2.3159181270903013zM480.83478260869566,253.77391304347827h0v0h0zM494.1913043478261,253.77391304347827h0v0h0zM507.54782608695655,253.77391304347827h0v0h0zM0,267.13043478260875h0v0h0zM13.356521739130436,267.13043478260875h0v0h0zM26.71304347826087,267.13043478260875h0v0h0zM40.06956521739131,267.13043478260875h0v0h0zM53.42608695652174,267.13043478260875h0v0h0zM66.78260869565219,267.13043478260875h0v0h0zM80.13913043478261,267.13043478260875h0v0h0zM93.49565217391306,267.13043478260875h0v0h0zM106.85217391304349,267.13043478260875h0v0h0zM120.20869565217392,267.13043478260875h0v0h0zM133.56521739130437,267.13043478260875h0v0h0zM146.9217391304348,267.13043478260875h0v0h0zM160.27826086956523,267.13043478260875h0v0h0zM173.63478260869567,267.13043478260875h0v0h0zM186.99130434782612,267.13043478260875h0v0h0zM200.34782608695653,267.13043478260875h0v0h0zM209.92244869565218,263.34853565217395h7.563798260869566v7.563798260869566h-7.563798260869566zM223.06167010033445,263.1312353177258h7.998398929765887v7.998398929765887h-7.998398929765887zM236.00907130434783,262.72211478260874h8.816640000000001v8.816640000000001h-8.816640000000001zM247.44220254180604,260.7987242809365h12.663421003344483v12.663421003344483h-12.663421003344483zM263.4264144481606,263.4264144481606h7.408040668896322v7.408040668896322h-7.408040668896322zM279.6983566555184,266.341834916388h1.5771997324414717v1.5771997324414717h-1.5771997324414717zM293.4026616722408,266.68961819398h0.8816331772575251v0.8816331772575251h-0.8816331772575251zM304.4434707692308,264.3739055518395h5.513058461538462v5.513058461538462h-5.513058461538462zM314.8887844816054,261.4626975250837h11.335474515050167v11.335474515050167h-11.335474515050167zM328.2026167224081,261.4200080267559h11.420853511705687v11.420853511705687h-11.420853511705687zM345.48980869565224,265.35067826086964h3.5595130434782614v3.5595130434782614h-3.5595130434782614zM354.4639015384616,260.96824936454857h12.324370836120403v12.324370836120403h-12.324370836120403zM368.66517190635454,261.81299799331106h10.63487357859532v10.63487357859532h-10.63487357859532zM385.0913305685619,264.882634916388h4.495599732441472v4.495599732441472h-4.495599732441472zM400.21276254180606,266.64754515050174h0.9657792642140469v0.9657792642140469h-0.9657792642140469zM412.9111159866221,265.98937685618733h2.28211585284281v2.28211585284281h-2.28211585284281zM423.17580842809366,262.89754755852846h8.465774448160536v8.465774448160536h-8.465774448160536zM434.26521739130436,260.63043478260875h13v13h-13zM450.46523719063543,263.4739328428094h7.3130038795986625v7.3130038795986625h-7.3130038795986625zM467.4782608695652,267.13043478260875h0v0h0zM480.83478260869566,267.13043478260875h0v0h0zM494.1913043478261,267.13043478260875h0v0h0zM507.54782608695655,267.13043478260875h0v0h0zM0,280.48695652173916h0v0h0zM13.356521739130436,280.48695652173916h0v0h0zM26.71304347826087,280.48695652173916h0v0h0zM40.06956521739131,280.48695652173916h0v0h0zM53.42608695652174,280.48695652173916h0v0h0zM66.78260869565219,280.48695652173916h0v0h0zM80.13913043478261,280.48695652173916h0v0h0zM93.49565217391306,280.48695652173916h0v0h0zM106.85217391304349,280.48695652173916h0v0h0zM120.20869565217392,280.48695652173916h0v0h0zM133.56521739130437,280.48695652173916h0v0h0zM146.9217391304348,280.48695652173916h0v0h0zM160.27826086956523,280.48695652173916h0v0h0zM173.63478260869567,280.48695652173916h0v0h0zM186.85188280936458,280.3475349832776h0.2788430769230769v0.2788430769230769h-0.2788430769230769zM196.5556527090301,276.69478314381274h7.5843467558528435v7.5843467558528435h-7.5843467558528435zM207.24200026755855,274.0246089632107h12.924695117056858v12.924695117056858h-12.924695117056858zM223.9065214715719,277.3326084280937h6.308696187290971v6.308696187290971h-6.308696187290971zM239.79394996655518,279.8635151839465h1.2468826755852844v1.2468826755852844h-1.2468826755852844zM249.88310688963213,276.596150367893h7.781612307692309v7.781612307692309h-7.781612307692309zM260.9761605351171,274.33268227424753h12.30854849498328v12.30854849498328h-12.30854849498328zM273.98695652173916,273.98695652173916h13v13h-13zM287.3645891638796,274.0080674247492h12.957778193979935v12.957778193979935h-12.957778193979935zM300.70000000000005,273.98695652173916h13v13h-13zM315.7113921070234,275.6418268896321h9.690259264214047v9.690259264214047h-9.690259264214047zM332.7719855518395,279.34589859531775h2.28211585284281v2.28211585284281h-2.28211585284281zM347.26956521739135,280.48695652173916h0v0h0zM358.8682659531773,278.7291355183947h3.5156420066889638v3.5156420066889638h-3.5156420066889638zM368.7815277591974,275.2858755852843h10.4021618729097v10.4021618729097h-10.4021618729097zM380.83913043478265,273.98695652173916h13v13h-13zM394.2408048160535,274.0321091638796h12.909694715719064v12.909694715719064h-12.909694715719064zM407.55217391304353,273.98695652173916h13v13h-13zM421.4143914381271,274.4926523076923h11.988608428093647v11.988608428093647h-11.988608428093647zM437.5649947826087,277.2867339130435h6.4004452173913045v6.4004452173913045h-6.4004452173913045zM454.1217391304348,280.48695652173916h0v0h0zM467.33883933110366,280.3475349832776h0.2788430769230769v0.2788430769230769h-0.2788430769230769zM480.83478260869566,280.48695652173916h0v0h0zM494.1913043478261,280.48695652173916h0v0h0zM507.54782608695655,280.48695652173916h0v0h0zM0,293.8434782608696h0v0h0zM13.217100200668897,293.70405672240804h0.2788430769230769v0.2788430769230769h-0.2788430769230769zM26.71304347826087,293.8434782608696h0v0h0zM40.06956521739131,293.8434782608696h0v0h0zM53.42608695652174,293.8434782608696h0v0h0zM66.78260869565219,293.8434782608696h0v0h0zM80.13913043478261,293.8434782608696h0v0h0zM93.49565217391306,293.8434782608696h0v0h0zM106.85217391304349,293.8434782608696h0v0h0zM120.20869565217392,293.8434782608696h0v0h0zM133.56521739130437,293.8434782608696h0v0h0zM146.9217391304348,293.8434782608696h0v0h0zM160.27826086956523,293.8434782608696h0v0h0zM173.63478260869567,293.8434782608696h0v0h0zM183.19656240802678,290.04873632107024h7.589483879598663v7.589483879598663h-7.589483879598663zM193.892978729097,287.38863090301004h12.909694715719064v12.909694715719064h-12.909694715719064zM210.47694983277594,290.6160802675585h6.454795986622074v6.454795986622074h-6.454795986622074zM224.17349779264214,290.9561064882943h5.774743545150502v5.774743545150502h-5.774743545150502zM233.99120909698996,287.41729605351173h12.852364414715721v12.852364414715721h-12.852364414715721zM251.61878688963213,291.68835210702343h4.310252307692308v4.310252307692308h-4.310252307692308zM267.13043478260875,293.8434782608696h0v0h0zM278.48614956521743,291.84267130434785h4.001613913043479v4.001613913043479h-4.001613913043479zM291.3614769230769,291.3614769230769h4.964002675585285v4.964002675585285h-4.964002675585285zM307.20000000000005,293.8434782608696h0v0h0zM320.55652173913046,293.8434782608696h0v0h0zM333.91304347826093,293.8434782608696h0v0h0zM347.26956521739135,293.8434782608696h0v0h0zM360.62608695652176,293.8434782608696h0v0h0zM373.98260869565223,293.8434782608696h0v0h0zM386.44650381270907,292.950851638796h1.7852532441471574v1.7852532441471574h-1.7852532441471574zM398.09888749163883,291.24671357859535h5.193529364548495v5.193529364548495h-5.193529364548495zM412.3278469565218,292.11915130434784h3.4486539130434783v3.4486539130434783h-3.4486539130434783zM427.40869565217395,293.8434782608696h0v0h0zM440.76521739130436,293.8434782608696h0v0h0zM454.1217391304348,293.8434782608696h0v0h0zM467.4782608695652,293.8434782608696h0v0h0zM480.83478260869566,293.8434782608696h0v0h0zM494.1913043478261,293.8434782608696h0v0h0zM507.54782608695655,293.8434782608696h0v0h0zM0,307.20000000000005h0v0h0zM13.356521739130436,307.20000000000005h0v0h0zM26.71304347826087,307.20000000000005h0v0h0zM40.06956521739131,307.20000000000005h0v0h0zM53.42608695652174,307.20000000000005h0v0h0zM66.78260869565219,307.20000000000005h0v0h0zM80.13913043478261,307.20000000000005h0v0h0zM93.49565217391306,307.20000000000005h0v0h0zM106.85217391304349,307.20000000000005h0v0h0zM120.20869565217392,307.20000000000005h0v0h0zM133.56521739130437,307.20000000000005h0v0h0zM146.9217391304348,307.20000000000005h0v0h0zM160.27826086956523,307.20000000000005h0v0h0zM169.850314916388,303.41553230769233h7.5689353846153855v7.5689353846153855h-7.5689353846153855zM180.4989559866221,300.70765163879605h12.984696722408028v12.984696722408028h-12.984696722408028zM197.1537166555184,304.00589056856194h6.388218862876255v6.388218862876255h-6.388218862876255zM210.80022903010035,304.2958812040134h5.808237591973245v5.808237591973245h-5.808237591973245zM220.66807866220736,300.80720909699h12.785581806020069v12.785581806020069h-12.785581806020069zM236.3221789966555,303.10478769230775h8.190424615384616v8.190424615384616h-8.190424615384616zM253.77391304347827,307.20000000000005h0v0h0zM267.13043478260875,307.20000000000005h0v0h0zM280.48695652173916,307.20000000000005h0v0h0zM293.8434782608696,307.20000000000005h0v0h0zM307.20000000000005,307.20000000000005h0v0h0zM320.55652173913046,307.20000000000005h0v0h0zM333.7736219397994,307.0605784615385h0.2788430769230769v0.2788430769230769h-0.2788430769230769zM347.26956521739135,307.20000000000005h0v0h0zM360.62608695652176,307.20000000000005h0v0h0zM373.98260869565223,307.20000000000005h0v0h0zM387.33913043478265,307.20000000000005h0v0h0zM400.69565217391306,307.20000000000005h0v0h0zM414.05217391304353,307.20000000000005h0v0h0zM427.40869565217395,307.20000000000005h0v0h0zM440.76521739130436,307.20000000000005h0v0h0zM454.1217391304348,307.20000000000005h0v0h0zM467.4782608695652,307.20000000000005h0v0h0zM480.83478260869566,307.20000000000005h0v0h0zM494.1913043478261,307.20000000000005h0v0h0zM507.54782608695655,307.20000000000005h0v0h0zM0,320.55652173913046h0v0h0zM13.356521739130436,320.55652173913046h0v0h0zM26.71304347826087,320.55652173913046h0v0h0zM40.06956521739131,320.55652173913046h0v0h0zM53.42608695652174,320.55652173913046h0v0h0zM66.78260869565219,320.55652173913046h0v0h0zM80.13913043478261,320.55652173913046h0v0h0zM93.49565217391306,320.55652173913046h0v0h0zM106.85217391304349,320.55652173913046h0v0h0zM120.20869565217392,320.55652173913046h0v0h0zM133.56521739130437,320.55652173913046h0v0h0zM146.9217391304348,320.55652173913046h0v0h0zM156.4835189297659,316.7617797993311h7.589483879598663v7.589483879598663h-7.589483879598663zM167.16940414715722,314.091143277592h12.930756923076924v12.930756923076924h-12.930756923076924zM183.80633899665554,317.3715563879599h6.369930702341138v6.369930702341138h-6.369930702341138zM197.52857257525085,317.73726822742475h5.638507023411372v5.638507023411372h-5.638507023411372zM207.28273765886289,314.1349115719064h12.843220334448162v12.843220334448162h-12.843220334448162zM222.96087973244147,316.45653190635454h8.19997966555184v8.19997966555184h-8.19997966555184zM240.41739130434783,320.55652173913046h0v0h0zM253.77391304347827,320.55652173913046h0v0h0zM267.13043478260875,320.55652173913046h0v0h0zM280.48695652173916,320.55652173913046h0v0h0zM293.8434782608696,320.55652173913046h0v0h0zM307.20000000000005,320.55652173913046h0v0h0zM320.55652173913046,320.55652173913046h0v0h0zM333.91304347826093,320.55652173913046h0v0h0zM347.26956521739135,320.55652173913046h0v0h0zM360.62608695652176,320.55652173913046h0v0h0zM373.98260869565223,320.55652173913046h0v0h0zM387.33913043478265,320.55652173913046h0v0h0zM400.69565217391306,320.55652173913046h0v0h0zM414.05217391304353,320.55652173913046h0v0h0zM427.40869565217395,320.55652173913046h0v0h0zM440.76521739130436,320.55652173913046h0v0h0zM454.1217391304348,320.55652173913046h0v0h0zM467.4782608695652,320.55652173913046h0v0h0zM480.83478260869566,320.55652173913046h0v0h0zM494.1913043478261,320.55652173913046h0v0h0zM507.54782608695655,320.55652173913046h0v0h0zM-0.1707579933110368,333.7422854849499h0.3415159866220736v0.3415159866220736h-0.3415159866220736zM13.356521739130436,333.91304347826093h0v0h0zM26.71304347826087,333.91304347826093h0v0h0zM40.06956521739131,333.91304347826093h0v0h0zM53.42608695652174,333.91304347826093h0v0h0zM66.64318715719065,333.7736219397994h0.2788430769230769v0.2788430769230769h-0.2788430769230769zM80.13913043478261,333.91304347826093h0v0h0zM93.49565217391306,333.91304347826093h0v0h0zM106.85217391304349,333.91304347826093h0v0h0zM120.20869565217392,333.91304347826093h0v0h0zM133.56521739130437,333.91304347826093h0v0h0zM143.12699719063545,330.1183015384616h7.589483879598663v7.589483879598663h-7.589483879598663zM153.82793418060203,327.4627167892977h12.900653377926423v12.900653377926423h-12.900653377926423zM170.41036414715722,330.6886250167225h6.448836923076923v6.448836923076923h-6.448836923076923zM184.11066220735788,331.0324013377927h5.761284280936455v5.761284280936455h-5.761284280936455zM193.91409230769233,327.4793096989967h12.867467558528428v12.867467558528428h-12.867467558528428zM209.55493886287627,329.7636345150502h8.298817926421405v8.298817926421405h-8.298817926421405zM226.92144802675585,333.7736219397994h0.2788430769230769v0.2788430769230769h-0.2788430769230769zM240.41739130434783,333.91304347826093h0v0h0zM253.77391304347827,333.91304347826093h0v0h0zM267.13043478260875,333.91304347826093h0v0h0zM280.48695652173916,333.91304347826093h0v0h0zM293.8434782608696,333.91304347826093h0v0h0zM307.20000000000005,333.91304347826093h0v0h0zM320.55652173913046,333.91304347826093h0v0h0zM333.91304347826093,333.91304347826093h0v0h0zM347.26956521739135,333.91304347826093h0v0h0zM360.62608695652176,333.91304347826093h0v0h0zM373.98260869565223,333.91304347826093h0v0h0zM387.33913043478265,333.91304347826093h0v0h0zM400.69565217391306,333.91304347826093h0v0h0zM414.05217391304353,333.91304347826093h0v0h0zM427.40869565217395,333.91304347826093h0v0h0zM440.76521739130436,333.91304347826093h0v0h0zM454.1217391304348,333.91304347826093h0v0h0zM467.4782608695652,333.91304347826093h0v0h0zM480.83478260869566,333.91304347826093h0v0h0zM494.1913043478261,333.91304347826093h0v0h0zM507.3770680936455,333.7422854849499h0.3415159866220736v0.3415159866220736h-0.3415159866220736zM0,347.26956521739135h0v0h0zM13.356521739130436,347.26956521739135h0v0h0zM26.71304347826087,347.26956521739135h0v0h0zM40.06956521739131,347.26956521739135h0v0h0zM53.42608695652174,347.26956521739135h0v0h0zM66.78260869565219,347.26956521739135h0v0h0zM80.13913043478261,347.26956521739135h0v0h0zM93.49565217391306,347.26956521739135h0v0h0zM106.41135732441472,346.8287486287626h0.8816331772575251v0.8816331772575251h-0.8816331772575251zM120.06927411371238,347.1301436789298h0.2788430769230769v0.2788430769230769h-0.2788430769230769zM129.7807496989967,343.48509752508363h7.5689353846153855v7.5689353846153855h-7.5689353846153855zM140.43237030100335,340.7801963879599h12.978737658862878v12.978737658862878h-12.978737658862878zM157.07500735785953,344.0663117056857h6.406507023411372v6.406507023411372h-6.406507023411372zM170.72732468227426,344.36210729096996h5.81491585284281v5.81491585284281h-5.81491585284281zM180.59697230769234,340.87523317725754h12.78866408026756v12.78866408026756h-12.78866408026756zM196.2526137792642,343.17435290969905h8.190424615384616v8.190424615384616h-8.190424615384616zM213.70434782608697,347.26956521739135h0v0h0zM227.0608695652174,347.26956521739135h0v0h0zM240.41739130434783,347.26956521739135h0v0h0zM253.77391304347827,347.26956521739135h0v0h0zM267.13043478260875,347.26956521739135h0v0h0zM280.48695652173916,347.26956521739135h0v0h0zM293.8434782608696,347.26956521739135h0v0h0zM307.20000000000005,347.26956521739135h0v0h0zM320.55652173913046,347.26956521739135h0v0h0zM333.91304347826093,347.26956521739135h0v0h0zM347.26956521739135,347.26956521739135h0v0h0zM360.62608695652176,347.26956521739135h0v0h0zM373.98260869565223,347.26956521739135h0v0h0zM387.33913043478265,347.26956521739135h0v0h0zM400.69565217391306,347.26956521739135h0v0h0zM414.05217391304353,347.26956521739135h0v0h0zM427.40869565217395,347.26956521739135h0v0h0zM440.76521739130436,347.26956521739135h0v0h0zM454.1217391304348,347.26956521739135h0v0h0zM467.4782608695652,347.26956521739135h0v0h0zM480.83478260869566,347.26956521739135h0v0h0zM494.05188280936454,347.1301436789298h0.2788430769230769v0.2788430769230769h-0.2788430769230769zM507.54782608695655,347.26956521739135h0v0h0zM0,360.62608695652176h0v0h0zM13.356521739130436,360.62608695652176h0v0h0zM26.71304347826087,360.62608695652176h0v0h0zM40.06956521739131,360.62608695652176h0v0h0zM53.42608695652174,360.62608695652176h0v0h0zM66.64318715719065,360.4866654180602h0.2788430769230769v0.2788430769230769h-0.2788430769230769zM80.13913043478261,360.62608695652176h0v0h0zM91.17552160535118,358.3059563879599h4.640261137123746v4.640261137123746h-4.640261137123746zM100.4807020735786,354.25461511705686h12.742943678929766v12.742943678929766h-12.742943678929766zM115.678625819398,356.09601712374587h9.06013966555184v9.06013966555184h-9.06013966555184zM127.09536963210705,354.15623919732445h12.93969551839465v12.93969551839465h-12.93969551839465zM143.74288695652174,357.4472347826087h6.357704347826087v6.357704347826087h-6.357704347826087zM157.45556548494986,357.8033915719064h5.64539076923077v5.64539076923077h-5.64539076923077zM167.2162033444816,354.20750769230773h12.837158528428095v12.837158528428095h-12.837158528428095zM182.89372896321072,356.5285115719064h8.19515076923077v8.19515076923077h-8.19515076923077zM200.34782608695653,360.62608695652176h0v0h0zM213.70434782608697,360.62608695652176h0v0h0zM227.0608695652174,360.62608695652176h0v0h0zM240.41739130434783,360.62608695652176h0v0h0zM253.77391304347827,360.62608695652176h0v0h0zM267.13043478260875,360.62608695652176h0v0h0zM280.48695652173916,360.62608695652176h0v0h0zM293.70405672240804,360.4866654180602h0.2788430769230769v0.2788430769230769h-0.2788430769230769zM307.0605784615385,360.4866654180602h0.2788430769230769v0.2788430769230769h-0.2788430769230769zM320.55652173913046,360.62608695652176h0v0h0zM333.91304347826093,360.62608695652176h0v0h0zM347.26956521739135,360.62608695652176h0v0h0zM360.62608695652176,360.62608695652176h0v0h0zM373.8431871571907,360.4866654180602h0.2788430769230769v0.2788430769230769h-0.2788430769230769zM387.33913043478265,360.62608695652176h0v0h0zM400.69565217391306,360.62608695652176h0v0h0zM414.05217391304353,360.62608695652176h0v0h0zM427.40869565217395,360.62608695652176h0v0h0zM440.76521739130436,360.62608695652176h0v0h0zM454.1217391304348,360.62608695652176h0v0h0zM467.4782608695652,360.62608695652176h0v0h0zM480.83478260869566,360.62608695652176h0v0h0zM494.1913043478261,360.62608695652176h0v0h0zM507.54782608695655,360.62608695652176h0v0h0zM0,373.98260869565223h0v0h0zM13.356521739130436,373.98260869565223h0v0h0zM26.71304347826087,373.98260869565223h0v0h0zM40.06956521739131,373.98260869565223h0v0h0zM49.74045752508361,370.2969792642141h7.371258862876255v7.371258862876255h-7.371258862876255zM60.93101377926423,368.13101377926426h11.703189832775921v11.703189832775921h-11.703189832775921zM78.5867943812709,372.43027264214055h3.1046721070234113v3.1046721070234113h-3.1046721070234113zM93.49565217391306,373.98260869565223h0v0h0zM101.67169284280938,368.8021276254181h10.36096214046823v10.36096214046823h-10.36096214046823zM113.71485752508362,367.4887705685619h12.987676254180604v12.987676254180604h-12.987676254180604zM130.34382983277595,370.7612211371238h6.442775117056858v6.442775117056858h-6.442775117056858zM144.05465899665552,371.11552856187296h5.734160267558529v5.734160267558529h-5.734160267558529zM153.84303732441472,367.5473851505017h12.870447090301004v12.870447090301004h-12.870447090301004zM169.4876853511706,369.8355114381271h8.294194515050169v8.294194515050169h-8.294194515050169zM186.99130434782612,373.98260869565223h0v0h0zM200.34782608695653,373.98260869565223h0v0h0zM213.70434782608697,373.98260869565223h0v0h0zM227.0608695652174,373.98260869565223h0v0h0zM240.41739130434783,373.98260869565223h0v0h0zM253.77391304347827,373.98260869565223h0v0h0zM267.13043478260875,373.98260869565223h0v0h0zM280.48695652173916,373.98260869565223h0v0h0zM293.8434782608696,373.98260869565223h0v0h0zM307.20000000000005,373.98260869565223h0v0h0zM320.55652173913046,373.98260869565223h0v0h0zM333.91304347826093,373.98260869565223h0v0h0zM347.26956521739135,373.98260869565223h0v0h0zM360.62608695652176,373.98260869565223h0v0h0zM373.98260869565223,373.98260869565223h0v0h0zM387.33913043478265,373.98260869565223h0v0h0zM400.69565217391306,373.98260869565223h0v0h0zM414.05217391304353,373.98260869565223h0v0h0zM427.2692741137124,373.8431871571907h0.2788430769230769v0.2788430769230769h-0.2788430769230769zM440.76521739130436,373.98260869565223h0v0h0zM454.1217391304348,373.98260869565223h0v0h0zM467.4782608695652,373.98260869565223h0v0h0zM480.83478260869566,373.98260869565223h0v0h0zM494.1913043478261,373.98260869565223h0v0h0zM507.54782608695655,373.98260869565223h0v0h0zM0,387.33913043478265h0v0h0zM13.356521739130436,387.33913043478265h0v0h0zM26.71304347826087,387.33913043478265h0v0h0zM40.06956521739131,387.33913043478265h0v0h0zM52.85129418060201,386.7643376588629h1.149585551839465v1.149585551839465h-1.149585551839465zM61.32626408026757,381.882785819398h10.912689230769232v10.912689230769232h-10.912689230769232zM74.30582367892977,381.5058236789298h11.666613511705688v11.666613511705688h-11.666613511705688zM89.40994354515051,383.2534218060201h8.171417257525084v8.171417257525084h-8.171417257525084zM100.36732575250836,380.8542822742475h12.969696321070236v12.969696321070236h-12.969696321070236zM116.99634943143813,384.12678421404684h6.4246924414715725v6.4246924414715725h-6.4246924414715725zM130.65775946488296,384.43167250836126h5.81491585284281v5.81491585284281h-5.81491585284281zM140.52283505016723,380.94022635451506h12.79780816053512v12.79780816053512h-12.79780816053512zM156.1711818060201,383.2320513712375h8.214158127090302v8.214158127090302h-8.214158127090302zM173.63478260869567,387.33913043478265h0v0h0zM186.99130434782612,387.33913043478265h0v0h0zM200.34782608695653,387.33913043478265h0v0h0zM213.70434782608697,387.33913043478265h0v0h0zM227.0608695652174,387.33913043478265h0v0h0zM240.41739130434783,387.33913043478265h0v0h0zM253.63449150501674,387.1997088963211h0.2788430769230769v0.2788430769230769h-0.2788430769230769zM267.13043478260875,387.33913043478265h0v0h0zM280.48695652173916,387.33913043478265h0v0h0zM293.8434782608696,387.33913043478265h0v0h0zM307.20000000000005,387.33913043478265h0v0h0zM320.55652173913046,387.33913043478265h0v0h0zM333.7736219397994,387.1997088963211h0.2788430769230769v0.2788430769230769h-0.2788430769230769zM347.26956521739135,387.33913043478265h0v0h0zM360.62608695652176,387.33913043478265h0v0h0zM373.98260869565223,387.33913043478265h0v0h0zM387.33913043478265,387.33913043478265h0v0h0zM400.69565217391306,387.33913043478265h0v0h0zM414.05217391304353,387.33913043478265h0v0h0zM427.40869565217395,387.33913043478265h0v0h0zM440.76521739130436,387.33913043478265h0v0h0zM454.1217391304348,387.33913043478265h0v0h0zM467.4782608695652,387.33913043478265h0v0h0zM480.83478260869566,387.33913043478265h0v0h0zM494.1913043478261,387.33913043478265h0v0h0zM507.54782608695655,387.33913043478265h0v0h0zM0,400.69565217391306h0v0h0zM13.356521739130436,400.69565217391306h0v0h0zM26.71304347826087,400.69565217391306h0v0h0zM40.06956521739131,400.69565217391306h0v0h0zM53.42608695652174,400.69565217391306h0v0h0zM66.05827424749165,399.9713177257525h1.4486688963210703v1.4486688963210703h-1.4486688963210703zM74.27428173913044,394.83080347826086h11.72969739130435v11.72969739130435h-11.72969739130435zM86.99565217391306,394.19565217391306h13v13h-13zM103.67332173913044,397.5168h6.357704347826087v6.357704347826087h-6.357704347826087zM117.37228414715719,397.85924066889635h5.672823010033445v5.672823010033445h-5.672823010033445zM127.15115879598665,394.28159357859533h12.828117190635453v12.828117190635453h-12.828117190635453zM142.82652682274247,396.60043986622077h8.190424615384616v8.190424615384616h-8.190424615384616zM160.27826086956523,400.69565217391306h0v0h0zM173.63478260869567,400.69565217391306h0v0h0zM186.99130434782612,400.69565217391306h0v0h0zM200.34782608695653,400.69565217391306h0v0h0zM213.56492628762544,400.5562306354515h0.2788430769230769v0.2788430769230769h-0.2788430769230769zM227.0608695652174,400.69565217391306h0v0h0zM240.41739130434783,400.69565217391306h0v0h0zM253.77391304347827,400.69565217391306h0v0h0zM267.13043478260875,400.69565217391306h0v0h0zM280.48695652173916,400.69565217391306h0v0h0zM293.8434782608696,400.69565217391306h0v0h0zM307.20000000000005,400.69565217391306h0v0h0zM320.55652173913046,400.69565217391306h0v0h0zM333.91304347826093,400.69565217391306h0v0h0zM347.1301436789298,400.5562306354515h0.2788430769230769v0.2788430769230769h-0.2788430769230769zM360.62608695652176,400.69565217391306h0v0h0zM373.98260869565223,400.69565217391306h0v0h0zM387.33913043478265,400.69565217391306h0v0h0zM400.69565217391306,400.69565217391306h0v0h0zM414.05217391304353,400.69565217391306h0v0h0zM427.40869565217395,400.69565217391306h0v0h0zM440.76521739130436,400.69565217391306h0v0h0zM454.1217391304348,400.69565217391306h0v0h0zM467.4782608695652,400.69565217391306h0v0h0zM480.83478260869566,400.69565217391306h0v0h0zM494.1913043478261,400.69565217391306h0v0h0zM507.54782608695655,400.69565217391306h0v0h0zM0,414.05217391304353h0v0h0zM13.356521739130436,414.05217391304353h0v0h0zM26.71304347826087,414.05217391304353h0v0h0zM36.44779023411372,410.43039892976594h7.243549966555185v7.243549966555185h-7.243549966555185zM48.576950367892984,409.20303732441477h9.698273177257525v9.698273177257525h-9.698273177257525zM65.91202033444817,413.18158555183953h1.741176722408027v1.741176722408027h-1.741176722408027zM73.7997656187291,407.71280909699004h12.678729632107023v12.678729632107023h-12.678729632107023zM90.27729551839467,410.83381725752514h6.43671331103679v6.43671331103679h-6.43671331103679zM103.99526528428095,411.195265284281h5.7138172575250845v5.7138172575250845h-5.7138172575250845zM113.77198234113712,407.61546060200675h12.87342662207358v12.87342662207358h-12.87342662207358zM129.42279491638797,409.90975143812716h8.284844949832777v8.284844949832777h-8.284844949832777zM146.9217391304348,414.05217391304353h0v0h0zM160.27826086956523,414.05217391304353h0v0h0zM173.63478260869567,414.05217391304353h0v0h0zM186.99130434782612,414.05217391304353h0v0h0zM200.34782608695653,414.05217391304353h0v0h0zM213.70434782608697,414.05217391304353h0v0h0zM226.86370675585283,413.855011103679h0.394325618729097v0.394325618729097h-0.394325618729097zM240.41739130434783,414.05217391304353h0v0h0zM253.77391304347827,414.05217391304353h0v0h0zM267.13043478260875,414.05217391304353h0v0h0zM280.48695652173916,414.05217391304353h0v0h0zM293.8434782608696,414.05217391304353h0v0h0zM307.20000000000005,414.05217391304353h0v0h0zM320.55652173913046,414.05217391304353h0v0h0zM333.91304347826093,414.05217391304353h0v0h0zM347.26956521739135,414.05217391304353h0v0h0zM360.62608695652176,414.05217391304353h0v0h0zM373.98260869565223,414.05217391304353h0v0h0zM387.33913043478265,414.05217391304353h0v0h0zM400.69565217391306,414.05217391304353h0v0h0zM414.05217391304353,414.05217391304353h0v0h0zM427.40869565217395,414.05217391304353h0v0h0zM440.76521739130436,414.05217391304353h0v0h0zM454.1217391304348,414.05217391304353h0v0h0zM467.4782608695652,414.05217391304353h0v0h0zM480.83478260869566,414.05217391304353h0v0h0zM494.1913043478261,414.05217391304353h0v0h0zM507.54782608695655,414.05217391304353h0v0h0zM0,427.40869565217395h0v0h0zM13.356521739130436,427.40869565217395h0v0h0zM26.71304347826087,427.40869565217395h0v0h0zM38.001872909699,425.34100334448163h4.135384615384616v4.135384615384616h-4.135384615384616zM47.27335384615385,421.25596254180607h12.305466220735788v12.305466220735788h-12.305466220735788zM61.67579397993312,422.3018809364549h10.213629431438129v10.213629431438129h-10.213629431438129zM79.94196762541807,427.2115328428094h0.394325618729097v0.394325618729097h-0.394325618729097zM90.58485511705688,424.49789859531774h5.821594113712375v5.821594113712375h-5.821594113712375zM100.44874916387961,421.00527090301006h12.806849498327761v12.806849498327761h-12.806849498327761zM116.08980120401338,423.28980120401343h8.23778889632107v8.23778889632107h-8.23778889632107zM133.56521739130437,427.40869565217395h0v0h0zM146.9217391304348,427.40869565217395h0v0h0zM160.27826086956523,427.40869565217395h0v0h0zM173.63478260869567,427.40869565217395h0v0h0zM186.99130434782612,427.40869565217395h0v0h0zM200.34782608695653,427.40869565217395h0v0h0zM213.70434782608697,427.40869565217395h0v0h0zM227.0608695652174,427.40869565217395h0v0h0zM240.41739130434783,427.40869565217395h0v0h0zM253.77391304347827,427.40869565217395h0v0h0zM267.13043478260875,427.40869565217395h0v0h0zM280.48695652173916,427.40869565217395h0v0h0zM293.8434782608696,427.40869565217395h0v0h0zM307.20000000000005,427.40869565217395h0v0h0zM320.55652173913046,427.40869565217395h0v0h0zM333.91304347826093,427.40869565217395h0v0h0zM347.26956521739135,427.40869565217395h0v0h0zM360.62608695652176,427.40869565217395h0v0h0zM373.98260869565223,427.40869565217395h0v0h0zM387.33913043478265,427.40869565217395h0v0h0zM400.69565217391306,427.40869565217395h0v0h0zM414.05217391304353,427.40869565217395h0v0h0zM427.40869565217395,427.40869565217395h0v0h0zM440.76521739130436,427.40869565217395h0v0h0zM454.1217391304348,427.40869565217395h0v0h0zM467.4782608695652,427.40869565217395h0v0h0zM480.83478260869566,427.40869565217395h0v0h0zM494.1913043478261,427.40869565217395h0v0h0zM507.54782608695655,427.40869565217395h0v0h0zM0,440.76521739130436h0v0h0zM13.356521739130436,440.76521739130436h0v0h0zM26.71304347826087,440.76521739130436h0v0h0zM40.06956521739131,440.76521739130436h0v0h0zM51.39158046822743,438.73071090301005h4.069012976588629v4.069012976588629h-4.069012976588629zM60.59838501672242,434.5809937123746h12.368447357859532v12.368447357859532h-12.368447357859532zM74.7834220735786,435.40950903010037h10.711416722408028v10.711416722408028h-10.711416722408028zM87.08462448160536,434.35418969899666h12.822055384615386v12.822055384615386h-12.822055384615386zM102.7640508361204,436.6770943143813h8.176246153846154v8.176246153846154h-8.176246153846154zM120.20869565217392,440.76521739130436h0v0h0zM133.56521739130437,440.76521739130436h0v0h0zM146.78231759197325,440.6257958528428h0.2788430769230769v0.2788430769230769h-0.2788430769230769zM160.27826086956523,440.76521739130436h0v0h0zM173.49536107023414,440.6257958528428h0.2788430769230769v0.2788430769230769h-0.2788430769230769zM186.99130434782612,440.76521739130436h0v0h0zM200.34782608695653,440.76521739130436h0v0h0zM213.70434782608697,440.76521739130436h0v0h0zM227.0608695652174,440.76521739130436h0v0h0zM240.41739130434783,440.76521739130436h0v0h0zM253.77391304347827,440.76521739130436h0v0h0zM267.13043478260875,440.76521739130436h0v0h0zM280.48695652173916,440.76521739130436h0v0h0zM293.8434782608696,440.76521739130436h0v0h0zM307.20000000000005,440.76521739130436h0v0h0zM320.55652173913046,440.76521739130436h0v0h0zM333.91304347826093,440.76521739130436h0v0h0zM347.1301436789298,440.6257958528428h0.2788430769230769v0.2788430769230769h-0.2788430769230769zM360.62608695652176,440.76521739130436h0v0h0zM373.98260869565223,440.76521739130436h0v0h0zM387.33913043478265,440.76521739130436h0v0h0zM400.69565217391306,440.76521739130436h0v0h0zM414.05217391304353,440.76521739130436h0v0h0zM427.40869565217395,440.76521739130436h0v0h0zM440.76521739130436,440.76521739130436h0v0h0zM454.1217391304348,440.76521739130436h0v0h0zM467.4782608695652,440.76521739130436h0v0h0zM480.83478260869566,440.76521739130436h0v0h0zM494.1913043478261,440.76521739130436h0v0h0zM507.54782608695655,440.76521739130436h0v0h0zM0,454.1217391304348h0v0h0zM13.356521739130436,454.1217391304348h0v0h0zM26.71304347826087,454.1217391304348h0v0h0zM40.06956521739131,454.1217391304348h0v0h0zM53.42608695652174,454.1217391304348h0v0h0zM64.74810220735787,452.08723264214046h4.069012976588629v4.069012976588629h-4.069012976588629zM74.05153605351171,448.0341447491639h12.175188762541806v12.175188762541806h-12.175188762541806zM89.38384695652175,450.0099339130435h8.223610434782609v8.223610434782609h-8.223610434782609zM106.85217391304349,454.1217391304348h0v0h0zM120.20869565217392,454.1217391304348h0v0h0zM133.56521739130437,454.1217391304348h0v0h0zM146.9217391304348,454.1217391304348h0v0h0zM160.27826086956523,454.1217391304348h0v0h0zM173.63478260869567,454.1217391304348h0v0h0zM186.99130434782612,454.1217391304348h0v0h0zM200.208404548495,453.98231759197324h0.2788430769230769v0.2788430769230769h-0.2788430769230769zM213.70434782608697,454.1217391304348h0v0h0zM227.0608695652174,454.1217391304348h0v0h0zM240.41739130434783,454.1217391304348h0v0h0zM253.77391304347827,454.1217391304348h0v0h0zM267.13043478260875,454.1217391304348h0v0h0zM280.48695652173916,454.1217391304348h0v0h0zM293.8434782608696,454.1217391304348h0v0h0zM307.20000000000005,454.1217391304348h0v0h0zM320.55652173913046,454.1217391304348h0v0h0zM333.91304347826093,454.1217391304348h0v0h0zM347.26956521739135,454.1217391304348h0v0h0zM360.62608695652176,454.1217391304348h0v0h0zM373.98260869565223,454.1217391304348h0v0h0zM387.33913043478265,454.1217391304348h0v0h0zM400.69565217391306,454.1217391304348h0v0h0zM414.05217391304353,454.1217391304348h0v0h0zM427.2692741137124,453.98231759197324h0.2788430769230769v0.2788430769230769h-0.2788430769230769zM440.76521739130436,454.1217391304348h0v0h0zM454.1217391304348,454.1217391304348h0v0h0zM467.4782608695652,454.1217391304348h0v0h0zM480.83478260869566,454.1217391304348h0v0h0zM494.1913043478261,454.1217391304348h0v0h0zM507.54782608695655,454.1217391304348h0v0h0zM0,467.4782608695652h0v0h0zM13.356521739130436,467.4782608695652h0v0h0zM26.71304347826087,467.4782608695652h0v0h0zM40.06956521739131,467.4782608695652h0v0h0zM53.42608695652174,467.4782608695652h0v0h0zM66.78260869565219,467.4782608695652h0v0h0zM80.13913043478261,467.4782608695652h0v0h0zM93.35623063545152,467.33883933110366h0.2788430769230769v0.2788430769230769h-0.2788430769230769zM106.85217391304349,467.4782608695652h0v0h0zM120.20869565217392,467.4782608695652h0v0h0zM133.56521739130437,467.4782608695652h0v0h0zM146.9217391304348,467.4782608695652h0v0h0zM160.27826086956523,467.4782608695652h0v0h0zM173.63478260869567,467.4782608695652h0v0h0zM186.99130434782612,467.4782608695652h0v0h0zM200.34782608695653,467.4782608695652h0v0h0zM213.70434782608697,467.4782608695652h0v0h0zM227.0608695652174,467.4782608695652h0v0h0zM240.41739130434783,467.4782608695652h0v0h0zM253.77391304347827,467.4782608695652h0v0h0zM267.13043478260875,467.4782608695652h0v0h0zM280.48695652173916,467.4782608695652h0v0h0zM293.8434782608696,467.4782608695652h0v0h0zM307.20000000000005,467.4782608695652h0v0h0zM320.55652173913046,467.4782608695652h0v0h0zM333.91304347826093,467.4782608695652h0v0h0zM347.26956521739135,467.4782608695652h0v0h0zM360.62608695652176,467.4782608695652h0v0h0zM373.98260869565223,467.4782608695652h0v0h0zM387.33913043478265,467.4782608695652h0v0h0zM400.69565217391306,467.4782608695652h0v0h0zM414.05217391304353,467.4782608695652h0v0h0zM427.40869565217395,467.4782608695652h0v0h0zM440.76521739130436,467.4782608695652h0v0h0zM454.1217391304348,467.4782608695652h0v0h0zM467.4782608695652,467.4782608695652h0v0h0zM480.83478260869566,467.4782608695652h0v0h0zM494.1913043478261,467.4782608695652h0v0h0zM507.54782608695655,467.4782608695652h0v0h0zM0,480.83478260869566h0v0h0zM13.356521739130436,480.83478260869566h0v0h0zM26.71304347826087,480.83478260869566h0v0h0zM40.06956521739131,480.83478260869566h0v0h0zM53.42608695652174,480.83478260869566h0v0h0zM66.78260869565219,480.83478260869566h0v0h0zM80.13913043478261,480.83478260869566h0v0h0zM93.49565217391306,480.83478260869566h0v0h0zM106.85217391304349,480.83478260869566h0v0h0zM120.20869565217392,480.83478260869566h0v0h0zM133.56521739130437,480.83478260869566h0v0h0zM146.9217391304348,480.83478260869566h0v0h0zM160.27826086956523,480.83478260869566h0v0h0zM173.63478260869567,480.83478260869566h0v0h0zM186.85188280936458,480.6953610702341h0.2788430769230769v0.2788430769230769h-0.2788430769230769zM200.34782608695653,480.83478260869566h0v0h0zM213.70434782608697,480.83478260869566h0v0h0zM227.0608695652174,480.83478260869566h0v0h0zM240.41739130434783,480.83478260869566h0v0h0zM253.77391304347827,480.83478260869566h0v0h0zM267.13043478260875,480.83478260869566h0v0h0zM280.48695652173916,480.83478260869566h0v0h0zM293.8434782608696,480.83478260869566h0v0h0zM307.20000000000005,480.83478260869566h0v0h0zM320.55652173913046,480.83478260869566h0v0h0zM333.91304347826093,480.83478260869566h0v0h0zM347.26956521739135,480.83478260869566h0v0h0zM360.62608695652176,480.83478260869566h0v0h0zM373.98260869565223,480.83478260869566h0v0h0zM387.33913043478265,480.83478260869566h0v0h0zM400.69565217391306,480.83478260869566h0v0h0zM414.05217391304353,480.83478260869566h0v0h0zM427.40869565217395,480.83478260869566h0v0h0zM440.6257958528428,480.6953610702341h0.2788430769230769v0.2788430769230769h-0.2788430769230769zM454.1217391304348,480.83478260869566h0v0h0zM467.4782608695652,480.83478260869566h0v0h0zM480.83478260869566,480.83478260869566h0v0h0zM494.1913043478261,480.83478260869566h0v0h0zM507.54782608695655,480.83478260869566h0v0h0zM0,494.1913043478261h0v0h0zM13.356521739130436,494.1913043478261h0v0h0zM26.71304347826087,494.1913043478261h0v0h0zM40.06956521739131,494.1913043478261h0v0h0zM53.42608695652174,494.1913043478261h0v0h0zM66.78260869565219,494.1913043478261h0v0h0zM80.13913043478261,494.1913043478261h0v0h0zM93.49565217391306,494.1913043478261h0v0h0zM106.85217391304349,494.1913043478261h0v0h0zM120.20869565217392,494.1913043478261h0v0h0zM133.56521739130437,494.1913043478261h0v0h0zM146.9217391304348,494.1913043478261h0v0h0zM160.27826086956523,494.1913043478261h0v0h0zM173.63478260869567,494.1913043478261h0v0h0zM186.99130434782612,494.1913043478261h0v0h0zM200.34782608695653,494.1913043478261h0v0h0zM213.70434782608697,494.1913043478261h0v0h0zM227.0608695652174,494.1913043478261h0v0h0zM240.41739130434783,494.1913043478261h0v0h0zM253.77391304347827,494.1913043478261h0v0h0zM267.13043478260875,494.1913043478261h0v0h0zM280.48695652173916,494.1913043478261h0v0h0zM293.8434782608696,494.1913043478261h0v0h0zM307.20000000000005,494.1913043478261h0v0h0zM320.55652173913046,494.1913043478261h0v0h0zM333.91304347826093,494.1913043478261h0v0h0zM347.26956521739135,494.1913043478261h0v0h0zM360.62608695652176,494.1913043478261h0v0h0zM373.98260869565223,494.1913043478261h0v0h0zM387.33913043478265,494.1913043478261h0v0h0zM400.69565217391306,494.1913043478261h0v0h0zM414.05217391304353,494.1913043478261h0v0h0zM427.40869565217395,494.1913043478261h0v0h0zM440.76521739130436,494.1913043478261h0v0h0zM454.1217391304348,494.1913043478261h0v0h0zM467.4782608695652,494.1913043478261h0v0h0zM480.83478260869566,494.1913043478261h0v0h0zM494.1913043478261,494.1913043478261h0v0h0zM507.54782608695655,494.1913043478261h0v0h0zM0,507.54782608695655h0v0h0zM13.356521739130436,507.54782608695655h0v0h0zM26.71304347826087,507.54782608695655h0v0h0zM40.06956521739131,507.54782608695655h0v0h0zM53.42608695652174,507.54782608695655h0v0h0zM66.78260869565219,507.54782608695655h0v0h0zM80.13913043478261,507.54782608695655h0v0h0zM93.49565217391306,507.54782608695655h0v0h0zM106.85217391304349,507.54782608695655h0v0h0zM120.20869565217392,507.54782608695655h0v0h0zM133.56521739130437,507.54782608695655h0v0h0zM146.9217391304348,507.54782608695655h0v0h0zM160.27826086956523,507.54782608695655h0v0h0zM173.63478260869567,507.54782608695655h0v0h0zM186.99130434782612,507.54782608695655h0v0h0zM200.34782608695653,507.54782608695655h0v0h0zM213.70434782608697,507.54782608695655h0v0h0zM227.0608695652174,507.54782608695655h0v0h0zM240.41739130434783,507.54782608695655h0v0h0zM253.77391304347827,507.54782608695655h0v0h0zM267.13043478260875,507.54782608695655h0v0h0zM280.48695652173916,507.54782608695655h0v0h0zM293.8434782608696,507.54782608695655h0v0h0zM307.20000000000005,507.54782608695655h0v0h0zM320.55652173913046,507.54782608695655h0v0h0zM333.91304347826093,507.54782608695655h0v0h0zM347.26956521739135,507.54782608695655h0v0h0zM360.62608695652176,507.54782608695655h0v0h0zM373.98260869565223,507.54782608695655h0v0h0zM387.33913043478265,507.54782608695655h0v0h0zM400.69565217391306,507.54782608695655h0v0h0zM414.05217391304353,507.54782608695655h0v0h0zM427.40869565217395,507.54782608695655h0v0h0zM440.76521739130436,507.54782608695655h0v0h0zM454.1217391304348,507.54782608695655h0v0h0zM467.30750287625415,507.3770680936455h0.3415159866220736v0.3415159866220736h-0.3415159866220736zM480.83478260869566,507.54782608695655h0v0h0zM494.1913043478261,507.54782608695655h0v0h0zM507.54782608695655,507.54782608695655h0v0h0z"></path>
        </g>
        </svg>