<svg width="1748" height="1748" viewBox="0 0 1748 1748" fill="none" xmlns="http://www.w3.org/2000/svg">
<g opacity="0.3">
<path d="M745.131 1508.52C626.97 1484.46 510.816 1423.27 424.155 1339.42C415.946 1331.47 407.503 1322.89 398.964 1313.64C446.877 1365.47 506.633 1410.84 573.11 1445.86C639.588 1480.88 710.795 1504.51 780.64 1514.71C768.18 1512.9 756.331 1510.8 745.131 1508.52Z" />
<path d="M998.779 1509.42C872.843 1534.12 719.224 1505.97 580.067 1432.66C440.91 1359.35 330.817 1248.57 279.968 1130.74C277.385 1124.76 274.89 1118.73 272.488 1112.67C304.549 1193.59 365.123 1272.97 446.159 1340.22C528.815 1408.81 628.718 1461.44 732.032 1490.82C833.324 1519.62 933.043 1524.69 1017.92 1505.37C1011.56 1506.82 1005.17 1508.17 998.779 1509.42Z" />
<path d="M1167.59 1451.22C1072.65 1499.49 943.253 1508.83 805.597 1477.3C663.188 1444.68 523.149 1370.91 415.707 1271.9C311.861 1176.2 246.38 1064.2 232.504 958.602C231.789 953.155 231.143 947.702 230.567 942.241C241.93 1049.87 307.45 1165.06 413.422 1263.65C523.194 1365.78 667.385 1441.74 813.696 1474.52C954.933 1506.16 1086.99 1495.06 1182.18 1443.57C1177.35 1446.18 1172.49 1448.73 1167.59 1451.22Z" />
<path d="M1298.48 1363.09C1207.08 1442.42 1056.27 1470.08 886.544 1438.58C708.691 1405.58 529.655 1311.26 401.851 1183.24C279.895 1061.07 217.432 921.055 231.172 800.811C231.756 795.675 232.395 790.657 233.07 785.738C220.726 875.158 251.14 977.148 319.603 1075.78C391.397 1179.22 500.694 1272.69 628.787 1340.18C756.875 1407.65 895.772 1444.94 1021.69 1445.66C1141.75 1446.35 1243.07 1413.75 1309.84 1353C1306.16 1356.34 1302.38 1359.7 1298.48 1363.09Z" />
<path d="M1398.67 1253.61C1341.88 1332.12 1238.12 1378.73 1106.82 1384.66C968.356 1390.91 809.583 1351.46 663.411 1274.45C517.239 1197.45 394.909 1088.81 321.768 971.076C252.406 859.432 232.173 747.502 264.808 656.269C266.473 651.608 268.162 647.055 269.866 642.612C234.963 733.667 253.926 846.355 323.185 959.166C396.275 1078.2 519.813 1188.33 667.731 1266.25C815.649 1344.18 976.335 1383.79 1115.85 1376.75C1248.05 1370.08 1351.71 1321.99 1407.07 1241.71C1404.37 1245.63 1401.57 1249.6 1398.67 1253.61Z" />
<path d="M1469.5 1128.41C1429.25 1222.69 1329.42 1283.11 1191.99 1296.29C1046.32 1310.26 871.473 1269.9 710.482 1185.09C549.496 1100.28 417.335 978.904 346.48 850.861C279.631 730.058 273.019 613.562 328.012 527.048C330.519 523.109 333.11 519.119 335.808 515.082C278.641 600.766 283.8 717.367 350.211 838.766C420.637 967.512 553.494 1089.9 715.637 1175.32C877.78 1260.74 1053.85 1301.1 1199.86 1286.38C1337.54 1272.5 1436.62 1210.82 1474.96 1115.21C1473.15 1119.72 1471.33 1124.11 1469.5 1128.41Z" />
<path d="M1510.63 992.254C1495.27 1075.12 1436.38 1137.93 1343.52 1170.45C1244.48 1205.14 1113.21 1203.14 973.784 1164.78C831.683 1125.69 690.94 1051.55 578.337 956.453C467.864 863.16 391.974 756.022 364.57 654.718C338.887 559.743 357.381 475.662 417.041 416.129C420.469 412.704 423.872 409.383 427.244 406.163C366.084 464.57 346.233 548.008 370.985 642.75C397.4 743.847 472.855 851.187 583.341 944.787C696.262 1040.44 837.825 1115.02 980.581 1154.06C1120.26 1192.25 1251.45 1193.79 1349.77 1158.39C1441.91 1125.23 1499.5 1061.67 1513.08 978.203C1512.3 982.984 1511.48 987.668 1510.63 992.254Z" />
<path d="M1521 849.375C1524.38 937.18 1479.56 1006.76 1394.92 1045.08C1304.73 1085.91 1176.11 1088.19 1036.16 1051.4C892.64 1013.68 748.856 937.933 636.578 840.902C527.092 746.278 456.238 638.911 438.912 541.432C422.652 449.957 454.689 373.647 529.016 326.779C533.037 324.244 537.161 321.706 541.396 319.167C465.686 364.561 432.27 439.865 447.497 530.774C463.71 627.601 533.865 734.74 643.006 829.284C754.989 926.291 898.761 1002.03 1042.1 1039.53C1181.79 1076.08 1309.83 1073.35 1398.86 1031.97C1482.44 993.117 1525.65 922.971 1520.28 834.86C1520.57 839.6 1520.81 844.44 1521 849.375Z" />
<path d="M1498.45 703.148C1522.88 792.289 1496.34 866.758 1424.62 910.274C1348.6 956.411 1228.54 963.709 1093.66 930.348C953.791 895.757 811.53 820.811 703.905 725.017C600.106 632.636 538.233 529.495 533.294 440.707C528.624 356.948 575.027 292.947 662.369 262.687C667.182 261.023 672.028 259.406 676.91 257.845C588.352 286.191 540.415 348.689 543.743 431.427C547.27 519.105 608.021 621.626 711.031 713.628C817.945 809.12 959.791 883.855 1099.01 918.029C1233.14 950.952 1352.05 943.079 1426.36 896.408C1496.48 852.363 1520.91 777.491 1494.22 688.417C1495.68 693.31 1497.09 698.221 1498.45 703.148Z" />
<path d="M1436.95 554.485C1486.49 641.655 1484.09 720.464 1430.44 769.797C1374.29 821.431 1268.16 835.186 1142.89 807C1012.05 777.566 876.057 705.924 777.783 614.653C683.702 527.282 635.03 431.966 645.862 356.469C656.21 284.323 719.845 237.769 819.752 229.331C825.602 228.836 831.454 228.422 837.315 228.086C753.945 232.85 694.007 263.86 668.978 315.132C642.959 368.451 656.614 439.723 707.17 514.216C760.081 592.181 849.075 667.296 954.119 722.636C1059.16 777.975 1171.44 808.894 1265.66 808.442C1355.69 808.011 1422.19 778.968 1451.45 727.356C1479.59 677.719 1471.27 610.749 1428.05 539.296C1431.09 544.32 1434.05 549.38 1436.95 554.485Z" />
<path d="M1302.51 388.992C1377.12 454.841 1419.08 527.221 1416.81 586.064C1414.62 643.03 1371.2 681.599 1297.86 691.678C1216.49 702.866 1107.78 677.707 1006.03 624.105C904.283 570.5 822.059 495.074 785.262 421.64C752.104 355.45 759.357 297.827 805.097 263.8C852.344 228.651 935.767 222.327 1032.27 246.625C1042.87 249.291 1053.92 252.362 1065.37 255.897C966.684 225.395 877.855 226.245 825.314 258.129C774.924 288.719 763.322 344.585 793.742 410.321C827.614 483.516 909.321 559.839 1011.52 613.68C1113.72 667.523 1222.87 691.745 1302.39 678.289C1373.81 666.203 1413.33 625.041 1410.06 566.19C1406.64 504.82 1357.11 431.078 1276.15 366.939C1284.71 373.724 1293.53 381.063 1302.51 388.992Z" />
<path d="M1182.28 311.527C1249.53 348.762 1303.29 399.029 1327.72 447.516C1350.74 493.176 1345.36 532.523 1313.03 555.178C1279.71 578.516 1221.27 581.702 1153.97 563.811C1082.53 544.816 1009.5 504.308 957.588 454.888C908.955 408.586 884.203 359.531 890.117 321.269C895.866 284.068 930.025 260.804 983.67 257.585C1041.16 254.133 1114.66 274.089 1182.28 311.527ZM1181.12 312.779C1116.62 277.075 1046.55 258.017 991.736 261.257C940.542 264.281 907.972 286.459 902.555 321.932C896.984 358.363 920.614 405.064 966.971 449.158C1016.48 496.26 1086.12 534.892 1154.24 553.032C1218.35 570.106 1274.03 567.139 1305.8 544.984C1336.69 523.442 1341.83 485.945 1319.85 442.401C1296.52 396.205 1245.25 348.292 1181.12 312.779Z" />
<path d="M1165.79 332.616C1206.6 355.216 1237.47 386.561 1246.6 414.598C1255.21 441.043 1243.24 460.815 1214.83 467.065C1184.16 473.815 1139.07 463.784 1097.42 440.913C1055.42 417.847 1023.82 385.517 1015.3 356.943C1007.45 330.668 1020.25 311.33 1049.27 305.634C1080.16 299.567 1124.77 309.892 1165.79 332.616ZM1163.55 335.788C1126.37 315.192 1085.96 305.831 1057.97 311.323C1031.68 316.477 1020.1 334.017 1027.26 357.84C1035.03 383.706 1063.66 412.959 1101.7 433.83C1139.36 454.499 1180.12 463.596 1207.89 457.549C1233.68 451.927 1244.57 434.031 1236.78 410.064C1228.51 384.671 1200.53 356.272 1163.55 335.788Z" />
<path d="M1182.68 305.255C1175.62 301.429 1114.54 394.956 1020.29 553.976C911.369 737.753 776.989 977.181 676.862 1165.88C590.243 1329.12 542.237 1429.95 549.178 1433.98C552.484 1435.9 555.806 1437.78 559.142 1439.64C552.695 1436.05 601.223 1335.51 688.202 1172.34C788.695 983.816 923.105 744.331 1031.7 560.321C1125.71 401.012 1186.28 307.173 1192.71 310.81C1189.37 308.921 1186.03 307.069 1182.68 305.255Z" />
<path d="M1229.24 333.085C1206.42 318.113 1151.93 349.247 1075.63 420.954C984.418 506.691 870.186 642.762 762.148 794.401C654.117 946.043 562.818 1098.46 511.577 1212.68C468.712 1308.22 457.083 1369.92 478.687 1386.59C481.755 1388.96 484.843 1391.31 487.961 1393.62C466.397 1377.58 478.112 1316.4 521.084 1221.16C572.578 1107.03 664.323 954.207 772.757 802.009C881.186 649.807 995.659 513.169 1086.71 427.209C1162.71 355.469 1216.71 324.406 1238.91 339.547C1235.71 337.363 1232.48 335.21 1229.24 333.085Z" />
<path d="M1275.49 366.427C1237.12 336.11 1161.6 350.158 1063.16 406.037C951.053 469.668 818.772 582.104 698.29 716.221C577.813 850.341 480.154 993.877 428.862 1112.14C383.817 1215.98 377.912 1292.59 412.156 1327.5C414.922 1330.31 417.754 1333.16 420.667 1336.02C386.002 1301.96 391.644 1225.89 436.628 1122.18C488.004 1003.75 586.265 859.446 707.492 724.5C828.719 589.553 961.688 476.434 1073.96 412.694C1172.27 356.885 1247.31 343.145 1284.87 373.98C1281.83 371.474 1278.7 368.956 1275.49 366.427Z" />
<path d="M1322.6 407.494C1272.95 359.798 1181.55 352.872 1065.84 388.114C938.547 426.889 792.173 513.545 660.251 628.313C528.332 743.076 422.249 876.037 366.223 996.742C315.307 1106.46 309.509 1197.94 349.871 1253.72C352.4 1257.21 354.921 1260.61 357.422 1263.93C315.847 1208.79 321.19 1117.08 372.494 1006.59C428.651 885.657 535.238 752.172 667.738 636.903C800.238 521.635 947.191 434.559 1074.73 395.686C1191.26 360.171 1282.83 367.575 1331.68 416.386C1328.74 413.446 1325.71 410.478 1322.6 407.494Z" />
<path d="M1371.28 459.708C1316.07 393.51 1215.22 362.99 1087.9 374.011C951.817 385.786 796.05 444.113 654.269 536.408C512.491 628.712 396.128 747.551 330.293 867.229C268.691 979.188 255.797 1083.78 293.986 1161.05C295.965 1165.06 298.027 1169.11 300.163 1173.22C260.186 1096.45 272.083 991.538 333.629 878.753C399.405 758.203 516.717 638.159 659.851 544.975C802.994 451.788 960.234 393.096 1097.1 381.725C1225.14 371.084 1325.89 402.665 1379.92 470.286C1377.03 466.663 1374.15 463.142 1371.28 459.708Z" />
<path d="M1421.2 528.224C1367.85 443.906 1266.06 388.329 1134.75 371.885C996.767 354.607 836.336 381.807 686.283 447.965C536.232 514.117 407.931 614.208 327.608 727.738C251.183 835.772 223.548 948.412 249.82 1044.67C251.15 1049.55 252.513 1054.32 253.906 1058.98C225.223 962.66 251.55 849.046 327.956 739.715C408.292 624.757 537.948 523.163 689.887 456.177C841.834 389.187 1004.29 361.984 1143.35 380.217C1275.6 397.553 1377.24 454.743 1429.01 540.894C1426.41 536.557 1423.8 532.333 1421.2 528.224Z" />
<path d="M1469.51 620.168C1426.41 519.223 1332.67 438.518 1205.23 392.726C1073.7 345.461 915.437 338.668 760.909 373.645C606.391 408.619 466.483 482.902 368.127 582.199C272.833 678.405 222.974 791.612 227.551 901.279C227.777 906.724 228.076 912.17 228.444 917.609C221.013 806.915 269.6 691.86 365.217 593.819C463.944 492.597 605.749 416.753 762.642 381.244C919.537 345.729 1080.18 353.126 1212.87 401.968C1341.38 449.268 1434.78 532.189 1475.74 635.294C1473.73 630.226 1471.65 625.187 1469.51 620.168Z" />
<path d="M1508.09 743.33C1484.72 630.21 1409.99 526.758 1296.89 451.048C1180.87 373.379 1032.18 330.04 878.037 328.965C723.898 327.891 574.608 369.146 457.518 445.193C343.382 519.314 267.209 621.716 242.258 734.496C240.974 740.309 239.773 746.143 238.644 751.994C260.767 636.999 336.111 531.907 451.156 455.617C569.226 377.32 721.061 334.707 877.99 335.803C1034.92 336.893 1186.15 381.629 1303.11 461.568C1417.09 539.454 1490.95 645.588 1511.46 760.88C1510.42 755.012 1509.3 749.166 1508.09 743.33Z" />
<path d="M1520.95 900.275C1525.7 782.213 1479.9 661.417 1391.29 558.383C1300.66 452.987 1171.02 372.901 1025.34 332.283C879.66 291.669 727.286 293.133 595.193 336.432C466.057 378.758 364.362 458.438 307.344 561.934C304.285 567.477 301.311 573.065 298.421 578.704C353.242 471.908 454.947 389.015 585.744 344.564C719.594 299.082 875.045 296.86 1023.66 338.296C1172.28 379.728 1304.16 462.059 1395.16 570.225C1484.1 675.936 1528.25 799.491 1519.91 919.245C1520.35 912.928 1520.7 906.601 1520.95 900.275Z" />
<path d="M1488.61 1077.9C1525.93 965.3 1515.76 836.264 1459.79 712.55C1402.57 586.074 1301.11 473.152 1173.23 393.605C1045.36 314.066 899.221 272.967 760.475 277.543C624.759 282.019 504.523 329.933 420.01 413.186C415.436 417.689 410.926 422.264 406.494 426.9C489.832 339.766 611.039 288.691 749.012 282.61C890.118 276.387 1039.49 317.615 1169.99 398.797C1300.51 479.975 1403.52 595.738 1460.31 725.063C1515.84 851.515 1523.6 982.815 1482.28 1096.09C1484.48 1090.06 1486.59 1084 1488.61 1077.9Z" />
<path d="M1404.26 1245.75C1471.5 1149.81 1497.18 1023.77 1476.85 889.266C1456.03 751.519 1388.32 613.815 1285.9 500.89C1183.47 387.965 1053.01 307.179 917.936 273.06C786.051 239.742 658.113 253.034 556.082 310.62C550.708 313.656 545.375 316.765 540.091 319.95C641.939 258.559 771.472 242.67 905.764 275.127C1043.34 308.377 1176.69 390.143 1281.09 505.244C1385.49 620.35 1453.9 761.022 1473.61 901.181C1492.85 1037.99 1464.43 1165.37 1393.42 1260.76C1397.11 1255.81 1400.72 1250.81 1404.26 1245.75Z" />
<path d="M1283.65 1375.57C1371.24 1304.04 1425.91 1190.46 1437.9 1055.04C1450.22 915.803 1416.59 762.899 1343.31 625.014C1270.04 487.126 1162.14 373.688 1039.85 305.975C920.905 240.124 796.178 221.879 687.869 254.444C682.403 256.086 676.955 257.803 671.535 259.593C780.261 223.736 906.692 240.106 1027.73 305.739C1152.25 373.261 1262.38 488.208 1336.88 628.415C1411.39 768.626 1445.03 924.219 1431.32 1065.2C1417.99 1202.25 1360.8 1316.19 1270.24 1386.23C1274.76 1382.74 1279.23 1379.19 1283.65 1375.57Z" />
<path d="M1151.47 1459.14C1246.74 1413.98 1319.49 1317.91 1356.24 1188.62C1394.38 1054.49 1391.06 894.188 1346.92 739.46C1302.8 584.729 1221.07 446.798 1117.92 352.957C1018.5 262.517 906.029 219.272 801.268 231.159C796.102 231.744 790.946 232.394 785.795 233.104C891.182 218.569 1005.12 260.545 1106.1 351.172C1210.94 445.257 1294.14 584.873 1338.88 741.765C1383.63 898.656 1386.58 1061.16 1347.14 1196.39C1309.15 1326.65 1234.5 1422.41 1137.29 1465.65C1142.06 1463.53 1146.79 1461.36 1151.47 1459.14Z" />
<path d="M1024.76 1503.77C1115.69 1482.03 1195.01 1404.24 1247.71 1285.03C1303.52 1158.81 1325.29 995.705 1308.39 829.995C1291.51 664.302 1237.3 508.961 1157.18 396.614C1081.53 290.505 988.16 230.315 894.731 227.359C889.902 227.207 885.156 227.106 880.504 227.063C974.49 227.978 1068.87 287.295 1145.51 393.711C1226.73 506.473 1281.78 663.441 1298.86 831.02C1315.92 998.601 1293.65 1163.44 1236.84 1290.27C1183.23 1409.95 1102.75 1487.08 1010.89 1506.93C1015.61 1505.91 1020.24 1504.85 1024.76 1503.77Z" />
<path d="M910.231 1520.52C988.048 1516.18 1064.5 1453.57 1124.95 1344.59C1190.39 1226.59 1231.87 1063.59 1240.09 891.808C1248.33 720.022 1222.62 553.8 1168.76 430.079C1119.02 315.823 1048.89 246.193 971.848 234.436C967.595 233.79 963.262 233.168 958.836 232.585C1036.36 242.809 1107.13 312.01 1157.36 426.823C1211.64 550.907 1237.57 718.268 1229.28 891.292C1220.99 1064.32 1179.18 1228.43 1113.28 1346.75C1052.31 1456.24 975.251 1518.35 897.106 1521.12C901.405 1520.97 905.781 1520.77 910.231 1520.52Z" />
<path d="M808.421 1518.16C867.289 1524.18 933.86 1472.41 995.409 1372.64C1064.18 1261.16 1120.97 1099.03 1152.4 924.342C1183.83 749.626 1187.1 577.85 1161.49 449.381C1138.57 334.412 1094.21 262.694 1036.94 247.821C1033.02 246.803 1029.04 245.806 1024.97 244.828C1082.34 258.571 1126.85 329.745 1149.86 444.771C1175.62 573.506 1172.32 746.324 1140.68 922.2C1109.04 1098.07 1051.92 1261.22 982.91 1372.91C921.248 1472.7 854.73 1523.91 796.157 1516.8C800.174 1517.28 804.264 1517.74 808.421 1518.16Z" />
<path d="M717.504 1502.26C754.54 1511.5 806.764 1465.85 864.462 1373.66C931.814 1266.04 1000.77 1104.41 1054.12 928.975C1107.48 753.5 1140.2 580.829 1144.15 453.934C1147.54 345.277 1129.58 278.305 1093.67 265.366C1089.98 264.037 1086.27 262.739 1082.53 261.464C1118.31 273.628 1136.15 340.101 1132.63 448.597C1128.52 575.581 1095.53 748.961 1041.91 925.268C988.299 1101.57 919.165 1263.96 851.888 1371.74C794.398 1463.82 742.57 1509.11 706.073 1499.3C709.873 1500.32 713.682 1501.31 717.504 1502.26Z" />
<path d="M635.116 1475.73C656.795 1484.35 720.679 1390.46 804.969 1225.92C902.473 1035.58 1010.48 783.566 1081.08 581.67C1142.12 407.128 1166.07 296.087 1144.87 286.332C1141.38 284.726 1137.88 283.152 1134.37 281.609C1155.16 290.734 1130.78 401.395 1069.43 575.882C998.382 777.939 890.103 1030.58 792.781 1221.38C708.729 1386.16 645.405 1480.14 624.453 1471.38C627.977 1472.86 631.536 1474.31 635.116 1475.73Z" />
</g>
</svg>
