<svg fill="currentColor" viewBox="0 0 15 41" xmlns="http://www.w3.org/2000/svg">
<path d="M12.6917 26.4443C12.924 26.4403 13.1549 26.4826 13.3707 26.5687C13.5865 26.6548 13.783 26.7831 13.9487 26.9459C14.1145 27.1088 14.2461 27.3031 14.336 27.5174C14.4258 27.7317 14.4721 27.9617 14.4721 28.1941C14.4721 28.4265 14.4258 28.6565 14.336 28.8708C14.2461 29.0851 14.1145 29.2793 13.9487 29.4422C13.783 29.6051 13.5865 29.7333 13.3707 29.8195C13.1549 29.9056 12.924 29.9479 12.6917 29.9438H9.19222L9.19346 36.944C9.65769 36.9442 10.1028 37.1287 10.431 37.4571C10.7591 37.7855 10.9434 38.2308 10.9432 38.695C10.943 39.1592 10.7585 39.6043 10.4301 39.9325C10.1017 40.2606 9.65645 40.4449 9.19223 40.4447H5.69275C5.22853 40.4449 4.78326 40.2606 4.45489 39.9325C4.12652 39.6043 3.94194 39.1592 3.94178 38.695C3.94162 38.2308 4.12587 37.7855 4.45401 37.4571C4.78215 37.1287 5.22729 36.9442 5.69152 36.944L5.69275 29.9438L2.19328 29.9438C1.73449 29.9358 1.29718 29.748 0.975552 29.4207C0.65392 29.0935 0.473694 28.6529 0.473694 28.1941C0.473694 27.7352 0.65392 27.2947 0.975552 26.9674C1.29718 26.6402 1.73449 26.4523 2.19328 26.4443H12.6917ZM12.6929 24.6934L2.19081 24.6946L2.19204 3.69407L7.44249 0.193359L12.6929 3.69407L12.6929 24.6934Z"/>
</svg>
