<svg xmlns="http://www.w3.org/2000/svg" width="1920" height="385" fill="none">
  <path fill="#333233" fill-opacity=".6" d="m1883 390-5-4-1-5 1-5 4-4h9l4 4c1 3 2 5 1 8l-6 6c-3 2-5 0-7 0Zm28-18h9l4 4c0 2 2 4 1 7l-5 7h-9c-1-2-4-3-4-7-2-2 0-4 0-7l4-4Zm-53-2 7 4 3 7c-2 2-1 5-4 7l-6 3-6-3c-3-2-2-5-4-7l4-7 6-4Zm-25 20h-7c-2-1-4-3-5-7s-1-9 5-12h6c6 3 6 8 6 14l-5 5Zm-41-12c2-7 7-7 12-6 2 1 4 2 5 7 0 3 1 9-6 11-9 1-12-3-11-12Zm84-4c-5 1-10 1-12-6v-6c2-7 7-6 13-6l4 5v8c-1 2-2 5-5 5Zm34-6c-2 7-7 7-13 6l-4-4v-8c1-2 2-5 5-6 5 0 10-1 12 6v6Zm-147 16v-6l2-4 3-2h7c1 1 4 3 5 6v6l-5 6h-7l-3-2-2-4Zm89-17-2 5c-3 2-5 3-9 2l-4-2c-3-4-3-9 1-14l3-2c3-1 6 1 9 3l2 4v5-1Zm-57-3c0 5-2 8-7 11-3 0-6-1-8-3-3-3-3-6-3-9 2-5 6-8 11-7 3 1 5 3 7 8Zm28-2c1 4 0 7-2 10l-8 3c-3-2-6-4-7-8v-4c1-3 3-6 7-7 6 0 7 1 10 6Zm62-21h4c5 2 7 6 6 11-1 3-3 6-6 7h-4c-3-1-5-3-7-7-1-5 2-9 7-11Zm22 11c0-3 0-6 3-9 2-2 5-3 8-2 5 2 7 5 6 11-1 3-3 6-7 7s-8-2-10-7Zm-51-12c5 0 8 2 11 8 0 3 0 6-3 8-2 3-5 3-8 3-5-2-7-6-7-12 2-2 3-5 8-7h-1Zm-111 32c4 2 7 5 6 11-1 3-3 6-7 7s-8-2-10-7c0-3 0-6 3-9 2-2 5-3 8-2Zm-23 7c1 5-1 9-6 11-3 0-6 0-8-3-3-2-3-5-3-9 2-4 6-7 11-6 3 1 5 3 6 7Zm-40-7c6-1 9 1 12 6 0 4-1 7-3 9-3 3-5 3-8 3-3-1-5-3-7-7 0-6 1-8 6-11Zm143-30c2 0 4-2 6-1l6 4c-1 3 2 4 0 7-1 2-1 4-4 6l-4 1-4-1-4-6v-7l4-3Zm84-12c0 2 2 4 1 6-1 3-2 5-5 6l-4 2-4-2-3-4v-8c1-2 2-4 5-4 2-3 4 1 7 0l3 4Zm-160 31 4-4c2 0 4-2 6 0l6 4c-1 2 2 4 0 6-1 3-1 5-4 7h-8l-4-6v-7Zm-86 25-2 3h-9l-4-4-1-4 2-5 5-4c2-1 4 1 6 1l4 3 1 5-2 5Zm144-30c-5 4-9 4-13 0-1-2-3-4-2-7l3-6c3-3 8-3 11 0l3 6-2 7Zm-73 3c1 3 4 5 3 8l-3 5c-3 3-8 3-11 0l-3-6c-1-3 1-5 2-7 4-2 8-3 12 0Zm46-9c-1 2-1 5-3 6-1 2-3 2-5 3l-7-2-2-7 2-6 6-4 6 3c2 2 2 4 3 7Zm101-16c-1 3-1 5-3 7l-5 3c-5-1-9-4-9-10 1-2 1-5 3-7l5-2c3 0 5 1 6 3 2 1 2 4 3 6Zm-175 25 2 6c-1 2-1 5-3 7l-6 3-6-3-2-7 2-6 6-3 3 1 4 2Zm-79 31-6-3-2-6 2-7 6-3 6 3 3 7-3 6c-1 2-4 2-6 3Zm214-64c4 0 8-1 10 5 0 4 2 9-5 12-3-1-8 1-10-6 0-3-2-9 5-11Zm-250 51c1-3 5-5 10-5 6 2 5 8 5 12-2 6-6 5-10 5-7-2-5-7-5-12Zm328-66 4 4v8l-4 4h-6l-5-5v-7l5-4h6Zm-24 5v6l-5 5h-7l-4-4v-7l5-5h6l5 5Zm-250 58h-6l-5-6v-6l5-5h6l4 5v7l-4 5Zm173-31h-6l-5-6v-6l5-5h6l4 5v7l-4 5Zm-24-5-5 5h-7l-4-5v-7l5-5h6l5 5v7Zm-88 15v-7l4-4h7l4 5v6l-4 5h-7l-4-5Zm-28 16-4 5h-6l-5-6v-6l5-5h6l4 5v7Zm62-27h6l4 4v7l-4 5h-6l-5-5v-7l5-4Zm-167 30 4 5v7l-4 5h-7l-4-5v-7l4-5h7Zm-29 17h-6l-5-5v-7l4-5h7l4 5v7l-4 5Zm349-87c2-6 6-7 11-7 2 1 4 3 5 6 1 5-1 9-6 11-6 1-11-4-10-10Zm-22 10c-5-2-7-6-6-11l5-6c5-1 8 1 10 7 1 6-3 11-9 10Zm-49 9c-1-4 0-8 5-10h4c5 2 6 6 6 11l-5 5h-5c-2-1-5-3-5-6Zm-14 0c-2 5-6 7-11 6l-4-5v-6c1-2 2-5 5-5 4-1 8 0 10 6v4Zm-203 42c2-5 5-7 10-6 2 2 4 3 5 6 1 5 0 8-6 11-5 1-10-4-9-11Zm150-20c-5-2-6-6-5-12l4-5h5c3 1 5 3 6 6 0 5-1 9-6 11h-4Zm-29 0c-5-2-6-6-5-12l4-5h6c2 1 4 3 5 6 0 5-1 9-6 11h-4Zm-34-6v-5c1-2 2-5 5-6 4-1 8 1 10 6v4c-2 6-6 7-11 6l-4-4v-1Zm-116 26c2-5 6-7 11-6l5 5v6c-2 2-3 5-6 5-4 1-8 0-10-6v-4Zm-29 0c2-5 6-7 11-6l5 5v6c-1 2-3 5-6 5-4 1-8 0-10-6v-4Zm72-15c2-6 6-7 11-6l5 5v5c-1 3-2 5-5 6-5 1-9-1-11-6v-4Zm39-7c5 3 6 6 6 11-1 3-3 5-6 6-4 1-8-1-10-6-1-7 4-12 10-11Zm35 11c-2 5-6 7-10 6-3-1-5-3-6-6 0-4 1-8 6-11 6-1 11 4 10 11Zm173-31c-2 5-6 7-10 6-2-1-5-3-5-6-1-4 0-8 5-11 6-1 11 4 10 11Zm-347 62c-1 5-5 7-10 6l-5-5v-6c1-2 3-5 5-5 5-1 9 0 10 6v4Zm-44-4c2-6 6-7 10-6 2 1 5 2 6 6 0 6-1 7-6 10-7 1-11-4-10-10Zm-23 10c-5-2-6-6-6-11 1-2 3-4 6-5 4-1 8 0 10 6 1 6-3 11-10 10Zm81-19c-2 2-4 3-7 3-2 1-4 0-6-2 0-1-2-5-1-6 0-2 0-5 3-7 2 1 4-3 6 0 3 0 5 2 5 5 2 2-1 5 0 7Zm243-44c-2 0-5 3-7 0-3 0-4-2-4-5-3-2 0-4 0-7 1-2 4-3 6-3 3 0 5 0 6 2l2 6c0 3-1 5-3 7Zm135-44c3-3 7-3 10 0 3 4 3 8 0 12-3 2-7 2-10 0-3-4-4-8 0-12Zm-174 31c2 0 4-3 6-2l4 1c4 5 4 9 1 13-3 2-7 3-11-1l-2-5c-1-2 2-4 2-6Zm-133 43c-4 2-7 3-11-1l-2-5c-1-2 1-4 2-6 3-3 7-3 11 0 3 4 3 8 0 12Zm206-59c3-3 7-2 10 0 3 4 3 8 0 13l-5 2-6-3c-2-3-3-7 1-12Zm29 13c-4-5-3-9-1-12 4-3 7-4 11 0l2 5-2 6c-2 1-3 3-5 3l-5-2Zm-337 61c-3 3-6 4-10 0 0-2-3-3-2-6l1-5c4-4 8-4 12 0 2 3 3 7-1 11Zm174-31c-4 3-7 3-11 0-3-4-3-7 1-12l4-2 6 2c3 4 3 8 0 12Zm-101 15c-4 4-7 4-11 0l-2-5c-1-2 2-4 2-6 3-3 7-4 11 1 3 3 3 7 0 10Zm-144 32-6 2-5-2c-3-4-3-8 0-12l5-2 6 2 2 6-2 6Zm448-99c0-4 5-9 8-8 4 0 8 5 8 8-1 4-5 8-8 8s-8-5-8-8Zm-245 46c0-3 4-8 8-8 3 0 8 5 7 9 0 3-4 7-7 8-3 0-8-5-8-9Zm-238 38c4 0 8 6 8 9s-5 8-8 8-7-4-7-8c-1-3 4-9 7-8v-1Zm72 1-3-1-3-3-1-4 1-4 3-2 4-2 3 2 3 2 1 4c-1 3-1 6-4 7l-4 1Zm66-21-1-2 1-4 4-3 3-1 4 1 3 7-1 4-3 3-3 1c-3-1-5-1-7-6Zm73-22 2-3 4-1c2 1 5 2 6 4l1 4c0 5-3 8-8 8l-2-1-1 1-2-4-2-4 2-4Zm257-38-2 3-4 1-3-1-3-3-2-4 4-7 4-1 4 1 2 3 2 4-2 4Zm-143 27-1 4c-1 2-4 3-6 4-3-1-6-2-7-5l-1-3c1-3 2-6 4-7l4-1 4 1c1 1 3 4 3 7Zm61-22 4-2 4 2 4 6-2 5c-1 2-3 3-6 4l-3-1-4-5-1-3c1-2 2-5 4-6Zm-421 87-1-3 1-4 4-3 3-1 4 1 3 7-1 4-3 3-4 1-3-1-3-4Zm226-43h-7l-3-3v-7l3-4h7l4 4v7l-4 3Zm144-45 4 4v7l-3 4h-7l-4-4v-7l4-4h6Zm19 10v-6l4-4h6l4 4v7l-4 4h-6l-4-5Zm-307 66h-7l-3-3v-7l3-4h7l3 4v7l-3 3Zm-36 0-3-3v-7l3-4h7l4 4v7l-4 3h-7Zm256-56v6l-4 4h-6l-4-4v-7l4-3h6l4 4Zm19 10-4-4v-7l4-3h6l4 3v7l-4 4h-6Zm216-46-3-4v-7l3-4h7l3 4v7l-3 4h-7Zm-418 77-4-4v-7l4-3h6l4 3v7l-4 4h-6Zm39-4-4 4h-7l-3-4v-7l3-3h7l4 3v7Zm314-58h-7l-4-3v-8l4-3h6l4 3v7l-3 4Zm-498 93-3-4v-7l3-3h7l3 3v7l-3 4h-7Zm87-31-4-4v-6l4-4h6l4 4v6l-4 4h-6Zm-23-14 4 4v6l-4 4h-5l-4-4v-6l4-4h5Zm321-54c-1 6-5 6-8 6-5-2-5-6-5-9 2-6 5-6 8-5 6 1 6 5 5 8Zm29-3c0 3 1 7-5 9-3 0-7 0-8-6 0-3 0-7 5-8 3-1 7-1 8 5Zm25-5 4 4v6l-4 4h-5l-4-4v-6l4-4h5Zm29 0 4 4v6l-4 4h-6l-3-4v-6l3-4h6Zm-168 21c1-6 5-6 8-6 6 2 6 6 5 9-1 6-5 6-8 6-5-2-5-6-5-9Zm34-6c3 0 7 0 8 6 0 3 1 7-5 9-3 0-7 0-8-6 0-3-1-7 5-9Zm24 4 4-4h5l4 4v6l-4 5h-5l-4-5v-6Zm-468 88c-3 0-7 0-9-6 0-3 0-7 6-8 3-1 6-1 8 5 0 3 0 7-5 9Zm351-71c0 4 0 7-5 9-3 0-7 1-8-6 0-3-1-7 5-8 3-1 7-1 8 5Zm29 0c0 3 0 7-5 9-3 0-7 0-8-6-1-3-1-7 5-8 3-1 6-1 8 5Zm27-4c2 3 2 6 2 8-1 5-5 5-8 5-6-1-6-5-6-10 3-5 6-6 12-3Zm-84 18 4-4h6l4 4v6l-4 5h-6l-4-5v-6Zm-15 2c0 3 0 7-5 9-3 0-7 0-9-6 0-3 0-7 6-9 3 0 6 0 8 6Zm-42 0c1-6 5-6 8-6 5 2 5 6 5 9-2 6-5 6-8 6-6-2-6-6-5-9Zm-20-6 4 4v6l-4 5h-5l-4-5v-6l4-4h5Zm-84 33c2 2 2 5 2 7-2 6-5 6-9 5-5-1-5-5-5-9 3-5 6-6 12-3Zm-27 4c0 3 0 7-6 9-2 0-6 0-8-6 0-3 0-7 6-9 2 0 6 0 8 6Zm-43 3c0-3 0-7 6-9 3 0 6 0 8 6 0 3 0 7-5 9-3 0-7 0-9-6Zm571-103c-5 0-5 0-8-4 0-4 0-9 5-10 3-1 7-1 9 5 0 3 0 7-6 9Zm23-12c2-3 4-2 6-2 6 1 6 5 5 9-1 5-5 5-8 5-5-3-6-6-4-12h1Zm-662 136-4-4v-6l4-5h6l4 5v6l-4 4h-6Zm559-114c0-3 0-7 5-9 3 0 7 0 8 6 1 3 1 7-5 9-3 0-6 0-8-6Zm29-3c1-6 5-6 8-6 6 2 6 6 5 9-1 6-5 6-8 6-5-2-5-6-5-9Zm34 9c-6-2-5-6-5-9 1-6 5-6 8-6 5 2 5 6 5 9-1 6-5 6-8 6Zm-416 77c-2 0-6 0-8-6 0-3 0-7 6-8 2-1 6-1 8 5 0 3 0 7-6 9Zm-152 25c0-3 0-7 5-9 3 0 7 0 9 6 0 3 0 7-6 9-3 0-6 0-8-6Zm-15 2-4 4h-6l-4-4v-6l4-5h6l4 5v6Zm572-120h-4l-5-4v-5l5-5h4l5 5v5l-5 4Zm-486 83v5l-5 5h-4l-4-5v-5l4-4h5l4 4Zm173-26-4 5h-5l-4-4v-5l5-5h4l4 5v4Zm-249 51h-5l-4-5v-4l4-5h5l4 5v5l-4 4Zm308-71 4-5h5l4 5v5l-4 5h-5l-4-5v-5Zm187-31v4l-5 6h-4l-5-5v-5l5-5h4l5 5Zm-634 111c0-4 4-8 7-7 3 0 6 4 6 7s-3 7-6 7c-4 0-7-4-7-7Zm418-78c0-4 4-7 7-7 4 0 6 3 7 7 0 3-4 7-7 8-3 0-7-4-7-8Zm-340 55c4 0 7 4 7 7s-3 7-6 7c-3 1-7-3-7-6 0-4 3-8 6-8Zm23 7c0-3 4-7 7-7s6 4 6 8c0 3-3 7-6 6-4 0-7-4-7-7Zm-72 16c-1-3 3-7 6-7 3-1 7 3 7 6 0 4-3 8-6 8-4 0-7-3-7-7Zm490-93c0-4 4-8 7-7 3 0 7 4 7 7-1 4-3 7-7 7-3 0-7-3-7-7Zm-541 100c-3 0-7-3-7-7s3-7 6-7c4-1 7 3 7 6 1 4-3 8-6 8Zm591-123c3 0 7 3 7 7s-3 7-7 8c-3 0-6-4-7-7 0-4 4-8 7-8Zm-252 54c0-4 4-8 7-7 3 0 7 4 7 7-1 4-3 7-7 7-3 0-7-3-7-7Zm-137 38c-4 0-7-4-7-7 0-4 4-8 7-7 3 0 6 3 6 7 0 3-3 7-6 7Zm-29 0c-4 0-7-4-7-8 0-3 4-7 7-6 3 0 7 4 7 7-1 3-4 7-7 7Zm94-23c0-3 4-7 7-7s7 4 7 8c-1 3-4 7-7 7-4-1-7-5-7-8Zm353-54c-3 0-7-4-7-8 0-3 4-7 7-7s7 4 7 7c0 4-3 7-7 8Zm-324 54c0-3 4-7 7-7s7 4 6 8c0 3-3 6-6 7-3 0-7-4-7-8Zm396-84c4 0 7 4 7 7 0 4-4 8-7 7-4 0-6-3-7-7 0-3 3-7 7-7Zm-324 69c0-4 4-8 7-7 3 0 7 4 7 7-1 4-4 7-7 7-4 0-7-4-7-7Zm43-16c0-2 3-7 7-7 3 0 7 4 7 7s-3 7-7 8c-3 0-7-4-7-8Zm353-69c4 0 7 4 7 8 0 3-4 7-7 7-3-1-6-4-6-8-1-2 3-7 6-7Zm-35 8c0-4 3-8 6-8s7 4 7 7-3 7-6 8c-4 0-7-4-7-7Zm-239 53c-3 0-7-4-7-7 1-4 4-8 8-7 3 0 6 4 6 7 0 4-4 7-7 7Zm-245 32c3 0 7 4 7 7 0 4-4 8-7 8-3-1-7-4-7-8s4-7 7-7Zm412-70c0-4 4-8 6-7 4 0 7 3 7 7 0 3-3 7-6 7-4 0-7-3-7-7Zm-138 38c-3 0-7-4-7-7 1-4 4-8 7-7 4 0 7 4 7 7 0 4-4 7-7 7Zm-195 24c-1 2-1 5-4 6l-3 1-4-2-3-5 2-4c0-2 3-2 5-3 3 1 5 3 7 7Zm-180 38-1-1h-2c-3-1-3-4-4-6 1-2 1-5 3-6l4-1 4 2c2 1 2 3 3 5l-3 5-4 2Zm-173 31c-2-1-5-1-6-4l-1-4 2-4 5-2 3 1c2 1 3 4 4 6l-7 7Zm72-15-5-3-2-5 2-5 5-2 3 1c3 1 3 4 4 6-2 1-1 3-2 5s-4 1-5 3Zm664-124c-2-2-5-2-6-4l-1-4 2-4 4-3 4 2c2 1 2 3 3 5-1 4-3 6-6 8Zm-174 31c-3-2-5-4-6-7l1-4 2-2 4-2c3 1 6 3 6 8l-1 1v2c-1 2-4 2-6 4Zm-252 39 3-6 4-1 5 2 2 5-2 5-5 2-3-1c-2-1-2-4-3-6h-1Zm180-24c-3-1-5-4-6-7l1-3 2-3 3-1c4 1 7 2 7 8l-1 1v1c-1 3-4 3-6 4Zm-396 70c1-2 1-5 3-5l4-2 4 2 3 5-3 5-4 2-3-1c-3-1-3-4-4-6Zm570-101c-3-1-5-1-6-4l-1-3 2-5 4-2 4 1c2 1 2 4 3 6-1 3-3 6-6 7Zm137-38 1-1v-2c1-3 4-3 6-4 1 1 3 0 4 2 2 1 1 3 3 5-2 2-1 5-4 6l-4 1-4-2-2-5Zm-556 116-1-1h-2c-3-2-3-4-4-7l7-7c2 1 5 1 5 3l2 5-2 4-5 3Zm173-31c-2-2-5-1-5-4l-1-4 2-4 4-3 5 3 2 4-1 4c-1 3-4 2-6 4Zm166-38 2-5 1-1 5-2 4 3 2 4-1 5-3 2-3 1c-1-2-3-1-4-2-2-2-1-4-2-5h-1Zm56-20v8l-2 2h-7l-2-3v-7l2-2h7l2 3v-1Zm-245 54-2 3h-7l-2-3v-7l2-2v-1h7l2 3v7Zm-254 49-3-3v-7l3-2h7l2 3v7l-3 2h-6Zm388-88c3-2 6-2 9 0 2 2 2 6 0 9-3 2-6 2-9 0-2-3-2-6 0-9Zm-245 55c-2-3-2-5 0-9 3-2 6-2 9 0 2 3 2 6 0 10-3 1-6 2-9-1Zm144-40c3-2 6-2 9 0 2 3 2 6 0 10-3 2-6 2-9 0-2-3-2-7 0-10Zm-317 72c-2-4-2-7 0-10 2-2 6-2 9 0 1 3 2 6 0 10-3 1-6 2-9 0Zm-29 0c-2-4-2-7 0-10 3-2 6-2 9 0 2 3 2 6 0 10-3 1-6 2-9 0Zm274-47c-2-3-2-6 0-9 3-2 6-3 9 0 2 2 2 6 0 9-3 2-6 2-9 0Zm254-46c-3 2-6 2-9 0-2-3-2-7 0-10 3-2 6-2 9 0 2 3 2 6 0 10Zm-274 46c-3 2-6 2-9 0-2-3-2-6 0-9 3-2 6-3 9 0 2 2 2 6 0 9Zm-82 6c4-2 7-2 10 0 2 3 2 6 0 10l-7 1-2-1-1-3v-7Zm246-37c-2-3-1-6 0-9 3-2 6-2 9 0 2 2 2 6 0 9-2 2-6 2-9 0Zm-553 99v9c-3 3-6 3-9 1-2-5-2-5-1-10 3-2 6-2 10 0Zm19 10v-10c3-2 6-2 9 0 2 3 2 6 0 10-2 1-5 2-9 0Zm491-93c-2-3-2-7 0-10 3-2 6-2 9 0 2 3 2 6 0 10-3 2-6 2-9 0Zm298-62c-4 2-7 2-10 0-1-3-1-7 1-10 1-2 4-1 6-1l3 1 1 3-1 7Zm19 0v-10c3-2 6-2 9 0 2 3 2 6 0 10-2 2-5 2-9 0Zm-562 109c-2-4-2-7 0-11 3-1 6-1 9 1l1 7-1 2-3 2-6-1Zm-27 1-2-2-2-3 1-6c4-2 7-3 10-1 2 4 2 7 0 10-2 2-5 1-7 2Zm387-80-1-6 1-3c3-2 6-2 9 0 2 3 2 6 1 10-4 2-7 2-10-1Zm100-22 1-2 3-2 6 1c2 4 2 7 0 10-3 2-6 2-9 0l-1-7Zm30-2c3-2 6-2 9 0 2 3 2 6 0 9-3 2-6 2-9 0-1-3-2-6 0-9Zm-684 133c-3 2-4 2-8 0-2-3-2-6 0-10 3-1 6-2 9 0 1 3 2 7-1 10Zm30-10v10c-3 2-6 2-9 0-2-3-2-6 0-10 2-2 5-2 9 0Zm257-50h-5l-3-5v-4l4-4h4l4 4v5l-4 4Zm-25-4-4 4h-4l-4-4v-5l4-4h4l4 4v5Zm-41 0v-5l4-4h4l4 4v5l-4 4h-4l-4-4Zm-60 10v5l-4 4h-5l-3-3v-6l3-3h5l4 3Zm20 9-3-4v-5l3-3h5l4 3v5l-4 4h-5Zm26-4v-5l4-3h4l3 4v4l-3 4h-5l-3-4Zm-122 19h-5l-3-3v-5l4-4h4l4 4v5l-4 3Zm-144 19 3 4v5l-3 3h-5l-3-3v-5l3-4h5Zm775-155h3l4 5v4l-4 4h-3l-4-5v-4l4-4Zm-76 19 3-3h5l3 3v6l-3 3h-5l-3-3v-6Zm37 9h-5l-3-3v-5l3-4h5l3 3v5l-3 4Zm29 0h-5l-4-3v-6l4-3h5l3 3v6l-3 3Zm-351 50h4l4 3v6l-4 3h-5l-3-3v-6l4-3Zm221-34h-5l-3-4v-5l3-4h5l3 4v5l-3 4Zm20-5v-4l4-4h4l4 5v4l-4 4h-4l-4-5Zm-204 43v4l-4 4h-5l-3-4v-5l4-3h4l4 4Zm-350 70h-5l-3-3v-6l3-3h5l3 3v6l-3 3Zm93-24 3-4h5l3 4v5l-3 4h-5l-3-4v-5Zm646-124v5l-3 4h-5l-3-4v-5l3-4h5l3 4Zm-805 139 3-3h5l4 3v5l-4 4h-5l-3-4v-5Zm-136 40h-5l-3-4v-5l3-3h5l3 3v5l-3 4Zm684-133 4-3h4l4 3v5l-4 4h-4l-4-3v-6Zm113-15v5l-4 4h-4l-4-4v-5l4-4h4l4 4ZM995 375l3 3v5l-3 4h-5l-3-4v-5l3-3h5Zm32 4v4l-4 4h-4l-3-4v-5l3-3h5l3 4Zm425-85-4-4v-5l4-3h4l4 3v5l-4 4h-4Zm141-35v-5l3-3h5l3 3v6l-3 3h-5l-3-4Zm40 1-3 3h-5l-4-3v-6l4-3h5l3 3v6Zm-393 80h-5l-3-3v-5l3-4h5l3 4v5l-3 3Zm-199 28-3 3h-5l-3-3v-5l3-4h5l3 4v5Zm47-5 3-4h5l3 4v5l-3 3h-5l-3-3v-5Zm432-93 4-4h5l3 4v5l-3 4h-5l-4-4v-5Zm29 5v-5l3-4h6l3 4v5l-3 3h-6l-3-3Zm41-5v5l-4 3h-5l-3-3v-5l3-4h5l4 4Zm-448 82-3 4h-5l-3-4v-5l3-3h5l3 3v5Zm732-135h-3l-4-5v-4l4-4h3l4 5v4l-4 4Zm-193 13c-2-3-2-5 0-8s5-3 8-1c2 3 2 6 0 9-3 3-5 3-8 0Zm138-24c2 3 2 6 0 9-3 2-5 2-8 0-3-3-3-6-1-8 3-3 6-3 9-1Zm-39 4c0-3 3-6 6-6s6 3 6 7c0 3-3 6-6 6s-6-3-6-7Zm-29 1c0-4 3-7 6-7s6 3 6 6c0 4-3 7-6 7s-6-3-6-6Zm159-16c0-3 3-6 6-6s6 3 5 6c0 3-2 6-5 6s-6-3-6-6Zm-19-5c2 4 2 6 0 9-3 3-5 3-8 1-2-3-2-6-1-9 3-3 6-3 9-1Zm-27 5c0 3-3 6-6 6s-6-3-6-6 3-6 6-6 6 3 6 6Zm-851 170c0 3-3 6-6 6-3 1-6-2-6-6 0-3 3-6 6-6s6 3 6 6Zm-41 0c0-3 3-6 6-6s6 3 6 6-3 6-6 6c-3 1-6-2-6-6Zm-27 5c-2-3-2-6 0-9 3-3 5-2 8-1 2 4 2 7 1 9-3 3-6 3-9 1Zm134-26c3 0 6 3 6 6s-3 6-6 6-6-3-6-6c0-4 3-6 6-6Zm-25 10c-3 3-5 3-8 0-2-2-2-5 0-8s5-3 8-1c2 3 2 6 0 9Zm-39-4c1-4 3-6 6-6s6 3 6 6-3 6-6 6-5-3-6-6Zm165-22c4 0 6 3 6 6 0 4-3 6-6 6-4 1-6-3-6-6 0-4 3-6 6-6Zm-35 6c0-3 3-6 6-6s6 3 6 6c0 4-3 7-6 7s-6-3-6-7Zm-23 7c-3-1-6-3-6-7 1-3 3-6 6-6s6 3 6 6c0 4-3 7-6 7Zm280-53c0 3-2 6-6 6-3 0-5-3-5-6s2-6 5-6 6 2 6 6Zm-156 31c0-4 3-6 6-6s6 3 6 6-3 6-6 6-6-3-6-6Zm-27 5c-2-4-2-7 0-9 3-3 5-3 8-1 3 3 2 6 1 9-3 3-6 3-9 1Zm-25-11c3 0 6 2 6 6 0 3-2 6-6 6-3 0-5-3-5-6s2-6 5-6Zm130-16c3 0 6 3 6 6 0 4-3 7-6 7s-6-4-6-7 3-6 6-6Zm-24 11c-3 2-6 2-9 0-2-3-2-6 0-9 3-2 5-2 8 0 3 3 3 6 1 9Zm-34-11c3 0 6 3 6 6 0 4-2 6-5 7-3 0-6-3-6-7 0-3 2-6 5-6Zm163-5c-2 3-5 3-8 0-2-2-2-5 0-8 3-3 5-3 8-1 3 3 3 6 0 9Zm-56-4c0 3-2 6-5 6-4 0-6-3-6-6s2-6 6-6c3 0 5 3 5 6Zm119-16c0-3 2-6 5-6s6 3 6 6c0 4-3 7-6 7s-5-3-5-7Zm-24-6c3 0 6 3 6 6s-2 7-6 7c-2 0-5-3-5-7 0-3 2-6 5-6Zm-24 11c-3 2-6 2-8 0-3-3-3-6-1-9 3-2 6-2 9 0 2 3 2 6 0 9Zm120-20c0-3 2-6 5-6s6 2 6 6c0 3-2 6-6 6-2 0-5-3-5-6Zm-18 0c0 3-2 6-5 6s-6-3-6-6 2-6 6-6c3 0 5 3 5 6Zm-34-6c3 0 5 3 6 6 0 3-3 6-6 6s-6-3-6-6 3-6 6-6Zm158-16c4 0 6 3 6 6 0 4-3 7-6 7s-5-3-5-7c0-3 3-6 5-6Zm-24 2c2 3 2 6 0 9-3 2-6 2-8 0-3-3-3-6-1-9 3-2 6-2 9 0Zm-33 11c-3 0-6-3-6-7 0-3 3-6 6-6s6 3 6 7c-1 3-3 6-6 6Zm130-28c2 0 5 2 5 6 0 3-2 6-6 6-2 0-5-2-5-6 0-3 2-6 6-6ZM931 385c-3-3-3-6-1-8 3-3 6-3 8-1 3 3 3 6 1 9-3 3-5 3-8 0Zm-25-10c3 0 6 2 6 6 0 3-3 6-6 6s-6-3-6-6 3-6 6-6Zm-25 1c2 3 2 6 0 9s-5 3-8 1c-2-4-2-6 0-9s5-3 8-1Zm827-150c0-3 3-6 6-6s6 3 6 6-3 6-6 6-6-3-6-6ZM848 387c-1-2-3 0-4-2l-2-4 1-3 2-2 3-1 3 1 2 1 1 4-1 3-2 2-3 1Zm975-192 3-5 3-1 4 2 2 4-2 4-4 2c-1-1-3 0-4-2l-2-4Zm-233 46c-1 3-3 5-6 7l-4-2-2-4 2-5 4-2 4 2 2 5v-1Zm-246 47-1 4-4 2-4-2-2-4 2-4 4-2 4 2 1 4Zm-251 40 4 2 2 4-2 5-4 2-4-2-1-5 1-4 4-2Zm814-148-6 6c-2-1-4-3-5-6 0-3 2-5 5-7 3 1 5 3 6 7Zm-669 117c3 1 4 3 5 6 0 3-2 5-5 7-3-1-5-4-6-7 1-3 3-5 6-6Zm-324 68c1-3 3-5 6-6 3 1 5 3 6 6-1 3-3 5-6 6-3 0-4-3-6-6Zm569-114c3 1 5 3 6 6-1 3-3 5-6 6-3-1-5-3-6-6 1-3 3-5 6-6Zm-67 22c0 3-2 5-5 6-3-1-5-3-6-7 1-3 3-5 6-6 2 1 5 3 6 7h-1Zm240-41c-3-1-5-3-6-6 1-3 3-5 6-6 3 1 5 3 6 6-1 3-3 5-6 6ZM993 344c3 1 4 3 5 6-1 3-2 5-5 6-3-1-5-3-6-6 1-3 2-5 6-6Zm729-133c1-4 3-6 6-7 3 1 5 3 6 6-1 3-3 5-6 7-3-1-5-3-6-7v1Zm-557 114c-2-1-4-3-5-6 1-3 2-5 6-6 2 1 4 3 5 6-1 3-3 5-6 6Zm392-78h-4l-3-3v-5l3-3h5l2 3v5l-3 3Zm-416 74-2 3h-5l-2-3v-5l3-2h4l2 2v5Zm664-123-2 2h-5l-2-3v-5l2-2h5l2 3v5Zm-36 2-2-2v-6l2-2h5l2 3v5l-3 2h-4Zm-663 114h4l2 2h1v6l-3 1 1 1h-6l-2-3v-5l3-2Zm-32 7v-5l2-2h6l1 2h1v6l-3 2h-5l-2-3Zm-26-7h5l2 2v6l-3 1 1 1h-5l-3-3v-5l3-2Zm-29 0h5l2 2v6l-2 1v1h-5l-3-3v-5l3-2Zm166-8-3 2h-5l-2-2v-5l2-3h5l3 4v4Zm559-106h-4l-2-2v-6l2-2h5l2 3v5l-3 2Zm-35-8 2-2h5l2 3v5l-2 2h-5l-2-2v-6Zm-22-2 3 2v6l-3 2h-5l-2-3v-5l2-2h5Zm-683 149-2-2v-5l3-3h4l3 3v5l-3 2h-5Zm748-162 3-3h5l2 3v5l-3 3h-5l-2-4v-4Zm36 8h-5l-2-3v-5l4-3h3l3 3v5l-3 3ZM822 376l2 2v5l-3 3h-4l-2-3v-5l2-2h5Zm-36 7v-5l2-2h5l2 2v6l-2 2h-5l-2-3Zm-20 1-2 2h-5l-2-3v-5l2-2h5l2 2v6Zm-35-8h4l2 2v6l-2 1v1h-5l-2-3v-5l3-2Zm-30 10-2-3v-5l3-2h4l3 2v5l-3 3h-5Zm1111-201-2-3v-5l3-3h4l2 4v4l-2 3h-5ZM951 339h-4l-3-2v-6l3-1-1-1h6l2 3v5l-3 2Zm688-134h5l2 3v5l-2 3h-5l-2-3v-5l2-3Zm33 11h-4l-2-3v-5l2-3h5l2 3v5l-3 3Zm25-11h5l2 3v5l-3 3h-4l-2-3v-5l2-3Zm163-46 3 2v6l-3 2h-5l-2-2v-6l3-2h4Zm22 8v-6l3-2h4l3 3v5l-3 2h-5l-2-2Zm-375 61v-5l3-2h4l3 4v4l-3 2h-5l-2-3Zm29 0v-5l2-2h5l2 3v5l-2 2h-5l-2-3ZM880 345l2 2v5l-3 3h-5l-2-2v-6l2-2h6Zm21 2 2-2h5l3 3v4l-3 3h-5l-2-2v-6Zm31 8-2-3v-5l3-2h4l2 2v6l-2 2h-5Zm29-10h5l2 2v6l-2 2h-5l-2-3v-5l2-2Zm604-122 2-2h5l2 3v5l-3 2h-4l-2-2v-6Zm31-2h5l2 2v6l-3 2h-4l-2-3v-5l2-2Zm29 0h5l2 3v5l-4 2h-3l-3-2v-6l3-2ZM980 339h-4l-3-2v-5l3-3h5l2 3v5l-3 3v-1Zm335-53v4l-3 3h-5l-2-3v-5l3-2h4l3 3Zm-282 43h5l2 3v5l-3 2h-4l-2-2v-5l2-3Zm36 8-2 2h-5l-2-2v-5l2-3h5l2 3v5Zm210-54h4l3 2v6l-3 2h-5l-2-3v-5l2-2h1Zm642-121v5l-3 2h-5l-2-3v-5l3-2h4l3 3Zm-804 144v-5l3-3h5l2 3v5l-3 3h-4l-3-3Zm130-21 3-2h5l2 3v5l-2 2h-5l-3-2v-6Zm-28 0 2-2h5l2 3v5l-2 2h-5l-2-2v-6Zm-29 0 2-2h5l2 3v5l-2 2h-5l-2-2v-6Zm252-49 2 3v5l-2 3h-5l-2-4v-4l3-3h4Zm31 8-2 3h-5l-2-3v-5l2-3h5l2 3v5Zm20-5 2-3h5l2 3v5l-2 2h-5l-2-2v-5Zm32-3h4l2 3v5l-2 3h-5l-2-3v-5l3-3Zm-156 26h-4l-2-2v-6l2-2h5l2 3v5l-3 2Zm25-10h5l2 3v-1 6l-3 2h-4l-2-2v-6l2-2Zm26 7v-5l3-2h5l2 2v6l-3 2h-4l-3-3Zm-33 11v5l-3 3h-5l-2-3v-5l3-3h4l3 3Zm459-85h-5l-2-3v-5l2-3h5l2 3v5l-2 2v1Zm22-4v-4l2-3h5l2 3v5l-3 3h-4l-2-4Zm-719 117h5l1 3h1v5l-3 3h-4l-3-3v-5l3-3Zm58 0h4l2 3v5l-3 3h-4l-2-3v-5l3-3Zm143-21-2-2v-5l3-3h5l2 3v5l-2 2h-6Zm-21-7v5l-2 3h-5l-3-3v-5l3-3h5l2 3Zm-31 8h-5l-2-3v-5l3-3h4l2 3v5l-2 3Zm-33-11h4l2 3v5l-2 2h-5l-2-2v-5l3-3Zm191-5h-5l-1-3-1 1v-6l3-2h4l3 2v6l-3 2ZM887 367v-4l2-3h5l2 3v5l-3 2h-4l-2-3Zm-22-7 2 3v5l-2 2h-5l-2-2v-5l2-3h5Zm-34 10-2-2v-5l3-3h4l2 3v5l-2 2h-5Zm-28-10h4l3 3v5l-3 2h-5l-2-3v-4l3-3Zm-32 3 3-3h4l3 3v5l-2 2h-6l-1-2h-1v-5Zm844-158 3 3v5l-3 3h-5l-2-4v-4l3-3h4ZM715 369c-2-3-2-5 0-8 2-1 4-2 7 1 1 2 2 4 0 7-3 2-5 2-7 0Zm29-8h7v8h-7c-2-2-2-5 0-8Zm836-147c-1-2-2-5 0-7s5-2 8 0c1 2 1 5-1 7s-4 2-7 0Zm-368 62h-7c-1-2-2-5 1-8 1-1 4-2 7 1 1 2 1 4-1 7Zm-324 55c2-2 4-2 7 0 2 2 2 4 0 7-2 2-5 2-7 0v-7Zm-44 15c3-2 5-2 8 0v8h-7c-1-3-2-5-1-8Zm-28 0h7c1 2 2 5-1 8-1 1-4 2-7-2-1-1-1-4 1-6Zm981-178c-2-3-2-5 0-7 2-3 4-3 7-1 1 3 2 5 0 8-2 1-5 2-7 0ZM649 385h-6c-2-3-2-5 0-8h7c1 2 2 5-1 8Zm311-70c2-2 5-2 7 0 2 3 2 5 0 8-2 1-4 2-7-1-1-2-2-4 0-7Zm772-140c1 3 2 6-1 9-1 1-4 1-6-1v-7l7-1ZM671 384v-7c3-2 5-2 8 0 1 2 2 5-1 8-2 1-4 1-7-1Zm888-177c1 2 2 5 0 7-3 2-5 2-8 0-1-2-1-5 1-7s4-2 7 0ZM924 337c-3 3-5 3-7 1l-1-7c3-2 5-3 8 0 2 2 2 4 0 6Zm728-139v-7c3-2 5-2 8 0 1 3 1 5-1 8-2 1-4 2-7-1Zm-584 109c-2 2-5 2-7 0s-2-5 0-7 5-2 7 0v7Zm765-146c1 2 2 4 0 7-2 2-5 2-7 0-2-3-2-5 0-8 2-1 4-2 7 1Zm-210 38c-1-3-1-5 1-8 2-2 4-2 7 0v8c-2 1-5 2-8 0Zm-454 93c-2 1-5 2-7-1-2-2-2-4 1-8 1-1 4-1 6 1s2 5 0 8Zm281-70c3-1 5-2 7 0s2 5 1 8h-7c-1-3-2-5-1-8ZM996 323h-7v-8c2-2 4-2 7 0 1 2 2 5 0 8Zm339-70c3-2 5-2 7 0 2 3 2 5 0 8-2 1-4 2-7 0-1-2-2-5 0-8Zm-28 8c-3-3-2-5-1-8 2-1 5-2 7 0l1 7c-3 3-5 3-7 1Zm-66 15c-2 2-5 2-7 0-1-2-2-5 1-8 1-1 4-1 6 1s2 4 0 7Zm-151 23h7c1 3 2 5 0 8-2 2-5 2-8-1-1-1-1-4 1-7Zm396-77c2 3 2 5 0 8-2 1-4 2-7-1-1-1-2-4 1-7 1-2 4-2 6 0Zm-73 15c3 3 3 6 1 8s-4 2-7 0v-7c2-2 5-2 6-1Zm-34 0c2-1 4-1 7 1 1 2 1 5-1 7s-4 2-7 0c-1-2-2-4 1-8Zm-239 47c2 3 2 5 0 7-2 3-4 3-7 1-2-3-2-5 0-8 2-1 5-2 7 0Zm12-6h-2l-4-4v-3l4-4h3l3 4v3l-4 4Zm448-78h-3l-3-3v-4l3-3h3l3 4v3l-3 3ZM858 333l3-4h3l3 4v3l-3 3h-3l-3-3v-3Zm144-29v-2l4-4h2l4 4v3l-4 3h-3l-3-4Zm-314 56h3l3 4v3l-3 3h-3l-3-3v-3l3-4Zm1059-194-3 3h-3l-3-3v-3l3-4h3l3 4v3Zm20-1v-2l4-4h1l4 4v2l-4 4h-1l-4-4Zm-732 133h2l3 4v3l-4 3h-2l-3-4v-2l4-4Zm-379 69v-3l3-4h3l3 4v3l-3 3h-3l-3-3Zm918-174v4l-3 3h-3l-3-3v-3l3-4h3l3 4v-1ZM584 379l3-3h3l3 3v3l-3 4h-3l-3-4v-3Zm808-153v-2l4-3h2l3 4v3l-4 3h-2l-3-4v-1Zm35 5h-3l-3-3v-4l3-3h3l3 3v4l-3 3Zm-497 89v-3l4-3h2l3 4v2l-3 4h-3l-3-4Zm-141 35-3-4v-3l3-3h3l3 3v3l-3 4h-3Zm704-146 3-4h3l3 4v3l-3 4h-3l-3-4v-3Zm28 0 4-4h3l3 4v3l-3 4h-3l-4-4v-3ZM911 317v3l-4 4h-3l-3-4v-3l3-3h3l4 3Zm726-137v-1l4-4h2l3 4v2l-4 4h-1l-4-5Zm-390 78v-2l4-4h3l3 4v3l-4 3h-2l-4-4Zm428-79v1l-4 5h-1l-4-5v-1l4-5h1l4 5Zm23 6-3-4v-3l3-4h3l3 4v3l-3 4h-3Zm-595 104v-3l4-3h2l4 4v3l-4 3h-3l-3-4Zm-19-2v2l-4 4h-2l-4-4v-3l4-3h2l4 4Zm239-51h3l3 4v3l-3 3h-3l-3-3v-3l3-4Zm35 7-3 4h-3l-4-4v-3l4-4h2l4 4v3ZM766 349v2l-4 4h-1l-4-4v-2l4-4h1l4 4Zm520-93v2l-4 4h-2l-4-4v-3l4-3h2l4 4ZM618 386h-2l-3-5v-2l4-3h2l3 4v2l-4 4Zm211-53 3-4h3l4 4v3l-4 3h-3l-3-3v-3Zm352-55h-2l-4-5v-2l4-4h2l4 4v3l-4 4Zm-477 67 5 5-5 5c-3-1-4-2-5-5 1-3 2-5 5-6v1Zm1005-182 4-4c3 0 5 2 6 5-1 3-3 4-5 5-3 0-4-2-5-6Zm-29 1c1-3 2-4 5-5 2 1 4 2 5 5-1 3-3 4-5 5-3-1-4-2-5-5ZM882 319l-4 5c-4 0-5-2-6-5 1-3 2-4 5-5 2 0 4 2 5 5Zm-149 26c2 1 4 2 5 5l-5 5c-3-1-4-3-5-5 1-3 3-5 5-5Zm466-88c-1 3-2 4-5 5-2-1-4-2-4-5s2-4 4-5c3 1 4 2 5 5Zm25-5 4 4c0 3-2 5-5 6-2-1-4-2-4-6 0-2 1-3 5-4Zm215-36-4-5c0-3 2-5 4-6 3 1 5 3 5 5 0 3-2 5-5 6ZM627 365c1-2 2-4 5-5l5 5c-1 3-3 5-5 5-3 0-4-2-5-5Zm-68 21-4-5c0-3 2-5 4-5 3 0 5 2 5 5 0 2-2 4-5 5Zm986-190-4 4c-3-1-5-2-5-5 0-2 2-4 5-5 2 1 4 2 4 6Zm-245 45c-1 3-2 5-5 6-2-1-4-3-4-6 0-2 2-4 4-5 3 1 4 3 5 5Zm-500 93c1-2 2-5 5-4 2 0 4 1 5 4-1 3-2 5-5 5-2 0-4-1-5-5Zm322-56c-2-1-4-3-5-6l5-5c3 1 4 3 5 5-1 3-2 5-5 6Zm245-57c3 1 5 3 5 5 0 3-2 4-4 5-3-1-5-2-5-5 1-3 2-4 4-5Zm251-41-5 5c-3-1-4-3-5-6 1-2 2-4 5-5 2 1 4 3 5 6Zm-573 108c1-3 3-4 5-5 3 1 4 2 5 5-1 2-2 4-5 5-2-1-4-2-5-5Zm-72 15c1-2 2-4 5-5l5 5c-1 3-3 5-5 6-2-1-4-3-5-6Zm-29 0 5-5c3 1 4 3 5 5-1 3-2 5-5 6-2-1-4-3-5-6Zm524-98c3 1 4 3 5 5-1 3-2 5-5 6-2-1-4-3-4-6l4-5ZM773 338l-1-1c1-2-1-5 2-7h4l2 2v5l-1 1h-6Zm73-15-2-2c1-2-1-4 2-6h5l1 1v6l-1 1h-5Zm-369 60-1 2h-6l-1-2v-5l1-1h6c2 1 0 4 1 6Zm-30 2h-5l-2-7 2-1h5l1 1c0 2 1 5-1 7Zm376-63-1 1h-5l-1-1v-6l6-1 1 1v6Zm-29 0-1 1c-2-1-5 1-6-2v-5l1-1h5l1 1v6Zm-36-6 1-1h5l1 1v6l-6 1-1-1v-6Zm663-118v-6l2-1h5l1 1v6l-1 1h-5l-2-2v1Zm29-6 2-1c2 0 4-1 6 1v6l-6 1-2-1v-6Zm29 0 2-1c1 0 4-1 6 1v6c-2 2-4 1-6 1l-2-1v-6Zm29 0 1-1c2 0 5-1 7 1v6c-2 2-5 1-7 1l-1-1v-6ZM743 332l2-2c2 1 4-1 6 2v5l-1 1h-5c-3-1-1-4-2-6Zm-22-2 1 2c0 2 1 4-1 6h-5c-1-1-2-3-1-6l1-2h5Zm-28 7-1 1c-2 0-5 2-6-1v-5c1-3 4-1 6-2l1 2v5Zm635-124-1 2c-2-1-5 1-7-2v-5c2-3 5-1 7-2l1 2v5Zm23 1-2-1c1-2-1-5 2-7h5c2 2 1 5 1 7l-1 1h-5Zm-326 77-1 1c-2 0-5 1-7-1v-6c2-2 5-1 7-1l1 1v6Zm-29 0-1 1c-2 0-5 1-6-1v-6c1-2 4-1 6-1l1 1v6Zm-36-6 1-1c2 0 5-1 6 1v6l-1 1h-5l-1-1v-6Zm-23-1 2 1c-1 2 1 5-2 7h-5l-1-1v-6c2-2 4-1 6-1Zm240-39-1-1c1-2-1-5 2-7h4l2 7-1 1h-6Zm35-1-1 2c-2-1-4 1-6-2v-5c2-3 4-1 6-2l1 2v5Zm29 0-1 2c-2-1-4 1-6-2v-5c2-3 4-1 6-2l1 2v5Zm28 1h-5l-1-1v-5l1-2h5l1 2v5l-1 1Zm115-30h-5l-1-2v-5l1-2h5l2 2c-1 2 1 4-2 7Zm31-7v5l-2 2h-5l-1-2v-5l1-2c2 1 5-1 7 2ZM591 354h-5l-1-2v-5l1-1c2 0 4-1 6 1 0 2 1 5-1 7Zm24 0-2-2c1-2-1-4 2-6h5l1 1v6c-2 2-4 0-6 1Zm34-8 1 1v6l-1 1h-5c-3-2-1-5-2-7l2-1h5Zm22 1 2-1c2 0 4-1 6 1v5l-1 2h-6l-1-1v-6Zm247-48h5c2 2 1 5 1 7l-1 1h-5l-2-1c1-2-1-5 2-7Zm164-46 1 1c-1 2 1 5-2 7h-5l-1-1v-6l1-1h6Zm30 7-2 1c-2 0-4 1-6-1v-6l6-1 2 1v6Zm28 0-1 1c-2 0-4 1-6-1v-6l6-1 1 1v6Zm29-1-1 2c-2 0-4 1-6-1v-6c2-2 4-1 6-1 2 2 1 4 1 6Zm-280 40h5l1 2v5l-1 2c-2-1-5 1-6-2 0-2-1-5 1-7Zm-23 7-1 2c-2-1-4 1-6-2v-5l1-2h5l1 2v5Zm-35 2-1-2c0-2-1-5 1-7h5l1 2v5c-1 3-4 1-6 2Zm-318 55 1-2c2 1 4-1 6 2v5c-2 3-4 1-6 1l-1-1v-5Zm30 6-2-1c1-2-1-5 2-7h5l1 2v5l-1 1h-5Zm35-1-2 1c-2 0-4 2-6-1v-5l1-2h6c2 2 0 5 1 7Zm21-5 1-2h5l2 2v5l-7 1-1-1v-5Zm-71 22-1-2c0-2-1-4 1-6h5l1 1v5l-1 2h-5Zm-24-8 2 1c-1 2 1 5-2 7h-5l-1-7 1-1h5Zm746-147-2-1c1-3-1-5 2-7h5c2 2 1 4 1 7l-1 1h-5Zm33-8 2 1c-1 3 1 5-2 7h-5c-2-2-1-4-1-6 2-3 4-2 6-2Zm30 7-1 1c-2 0-4 1-6-1v-6c2-2 4-1 6-1l1 1v6Zm30-1-2 2c-2 0-4 1-6-1v-6c2-2 4-1 6-1 3 2 1 4 2 6Zm-252 40h5l1 2v5l-1 2c-2-1-5 1-6-2 0-2-1-5 1-7Zm-30 7v-5c2-3 4-1 6-2l1 2v5l-1 2c-2-1-5 1-6-2Zm-28 1-1-1c0-2-1-5 1-7h5l1 2v5l-1 1h-5Zm-24-8 2 2c-1 2 1 5-2 6h-5l-1-1v-5c2-3 4-1 6-2Zm491-84h-5l-1-2v-5l1-1h5l1 1v5l-1 2Zm30-2-1 2c-2-1-5 1-7-2v-5c2-3 5-1 7-2l1 2v5Zm21 0v-5l2-2h5l1 2v5l-2 2c-1-1-4 1-6-2Zm37 0-2 2c-2-1-4 1-6-2v-5c2-3 4-1 6-2l2 2v5Zm64-21 2-1c2 0 4-1 6 1v6c-2 2-4 1-6 1l-2-1v-6Zm-21 1c0 2 1 4-1 6h-5c-3-2-1-4-2-6l2-2c2 0 4-1 6 2Zm-30-2 1 2c0 2 1 4-1 6h-5c-3-2-1-4-2-6l2-2h5Zm-34 8-1-1c0-2-1-5 1-7h5c2 2 1 4 1 7-1 2-4 1-6 1Zm-470 75-2 3h-3l-2-3v-3l3-3h2l2 3v3Zm24-6h3l2 4v2l-3 2h-2l-2-3v-2l2-3Zm34 3v3l-3 2h-3l-2-3v-2l3-3h3l2 3Zm84-25h-3l-2-4v-2l2-3h3l2 3v3l-2 3ZM661 338h-2l-2-2v-3l2-3h3l2 3v3l-3 2Zm-33-5 2-3h3l2 3v3l-2 2h-3l-2-3v1-3Zm635-124 2-3h3l2 3v3l-3 3h-2l-2-4v-2Zm32-3h2l2 4v2l-3 3h-2l-2-3v-3l3-3ZM703 315h2l3 3v2l-3 3h-3l-2-3v-3l3-2Zm-28 0h1l3 2v4l-3 2h-3l-2-3v-3l4-2Zm458-91 2-2h3l2 3v3l-3 2h-2l-2-3v1-4Zm29 2v-2l2-2h3l2 3v3l-2 2h-3l-2-4Zm33 4h-2l-2-3v-3l2-2h3l2 3v3l-3 2Zm27-8h3l2 3v3l-3 2h1-3l-3-2v-4l3-2ZM647 323h-2l-3-3v-3l4-2h2l2 2v3l-3 3Zm691-132h2l2 3v3l-2 2h-3l-2-2v-4l3-2ZM301 385h-3l-2-3v-3l4-2h1l3 2v3l-3 3Zm659-130 2-2h3l2 3v3l-3 2h-2l-2-3v1-4Zm36 3-2 3h-3l-2-3v-3l3-2h2l2 3v-1 3Zm24-5h3l2 3v3l-2 2h-3l-3-3v-3l3-2Zm32 0 2 2v4l-3 2h-2l-3-3v-3l3-2h3Zm359-69h-2l-2-3v-3l3-2h2l3 2v3l-4 3ZM469 351v-3l3-2h3l2 2v3l-3 3h-3l-1-3h-1Zm33 3h-2l-2-3v-3l3-2h2l3 3v2l-4 3Zm27 0-2-3v-3l3-2h2l3 3v3l-3 1v1h-3Zm-113 31h-2l-3-3v-3l4-2h2l2 2v3l-3 3Zm140-34v-3l2-2h3l2 3v-1 3l-2 3h-3l-2-3Zm-15-15v-3l3-3h3l2 4v2l-2 2h-3l-3-2Zm32 2-3-2v-3l3-3h3l2 4v2l-3 2h-2Zm-176 26 2-3h3l3 3v3l-3 2h-3l-1-3-1 1v-3Zm37 3-3 2h-3l-2-2v-3l3-3h2l2 3h1v3Zm26-6 2 3v3l-3 2h-2l-2-3v-2l2-2v-1h3Zm24 3 2-3h3l2 3v3l-3 2h-2l-2-3v1-3Zm827-173 3 2v4l-3 2h-3l-1-3-1 1v-4l3-2h2Zm-29 0 3 2v4l-3 2h-3l-1-3-1 1v-4l3-2h2Zm102-15 2 2v3l-3 3h-3l-2-4v-2l3-2h-1 4ZM387 385h-2l-2-4v-2l2-2h3l2 3v2l-3 3Zm-29 0h-2l-2-4v-2l2-2h3l2 3v2l-3 3Zm-33-3v-3l2-2h3l2 3 1-1v3l-3 3h-3l-2-3Zm282-49v3l-3 2h-3l-2-2v-3l3-3h2l3 3Zm427-88-2-2v-3l3-3h2l3 4v2l-3 2h-3Zm27-2v-3l3-2-1-1h3l2 3v3l-2 2h-3l-2-2Zm-84 25h2l3 3v3l-3 3h-2l-3-3v-3l3-3Zm-32 6v-3l3-3h3l2 4v2l-2 3h-3l-3-3Zm-21 0-2 2h-3l-2-2v-3l3-3h2l1 3 1-1v4Zm-36-3 2-3h3l2 3v3l-3 3h-2l-2-3v-3Zm580-96h2l2 3v3l-3 2 1 1h-3l-2-3v-3l3-3Zm-25 6-2 3h-3l-2-3v-3l3-2h2l3 3v2h-1Zm-79 15v-3l2-2h3l2 4v2l-2 2h-3l-2-3ZM801 305v-3l3-2-1-1h3l3 3v3l-3 2h-3l-1-3-1 1Zm-29 0v-3l3-3h3l1 3h1v3l-3 2h-3l-2-2Zm-25-6h2l2 3v3l-3 2h-2l-3-2v-3l4-3Zm-28 8h-2l-3-3v-2l3-3h3l2 3v3l-3 3v-1Zm677-116h2l2 3v3l-3 2h-2l-2-3v-3l3-2ZM729 317l2-2h3c1 1 2 1 2 3v3l-2 2h-3l-2-3v-3Zm476-105v-3l3-3h2l3 3v3l-3 3h-3l-2-3Zm-303 76v-2l2-2h3l3 3v3l-3 2h-3l-2-4Zm-27 4-2-3v-3l3-2h3l2 3v3l-3 1 1 1h-4Zm-23-5v2l-3 3h-2l-2-3h-1v-3l3-2h3l2 3Zm-32 5h-2l-3-4v-2l3-2h3l2 3v3l-3 2Zm-31 0-2-3v-3l2-2h3l2 3v3l-3 1 1 1h-3Zm750-124-2-2v-4l2-2h3l2 4v2l-2 1v1h-3Zm-23-5v3l-4 2h-2l-2-2v-4l3-2h2l3 3Zm-34-3h2l3 3v3l-4 2h-2l-2-2v-4l3-2Zm-29 0h3l2 3v3l-4 2h-1l-3-2v-4l3-2ZM764 285l1 3-1 3-2 1-3-1-1-3c0-2 2-3 3-4l3 1Zm462-87-3 1c-2 0-3-2-4-4l2-3 2-1 3 1 1 3-1 3Zm26-7 4 4-1 3-3 1-2-1-2-3 2-3 2-1ZM271 385l-3-1-1-3 4-4c2 0 3 2 4 4l-1 3-3 1Zm248-54 1 3-1 3-3 1-2-1-2-3 4-4 3 1Zm98-8-2-1-2-3 4-4c2 0 3 2 4 4l-1 3-3 1Zm-32-4 1-3 2-1c2 0 3 2 4 4 0 2-2 3-3 4l-3-1-1-3Zm47-20 2 2 2 2-2 3-2 2-4-4 1-3 3-2Zm32 4-1 3-2 1-3-1-1-3 1-2 2-2 3 1 1 3Zm339-62 4-4 2 2 2 2-2 3-2 2-3-2-1-3Zm-68 20-3-1-1-3 1-3 3-1c2 0 3 2 4 4l-2 3-2 1Zm-29 0-4-4 1-3 3-1 2 1 2 3-2 3-2 1Zm-33-4 1-3 3-1 3 1 1 3c0 2-2 3-4 4l-3-1-1-3Zm-66 18-2 2-4-4 1-3 3-2 2 2 2 2-2 3Zm167-34 1-2 3-2 3 2 1 2c0 2-2 4-4 5l-3-2-1-3Zm-22 3-3 2-2-1v-1l-2-3 2-2 2-2 4 4-1 3Zm-248 48-3-1-1-3 1-3 3-1c2 0 3 2 4 4l-1 3-3 1Zm26-7 3-1 2 1 2 3-2 3-2 1c-2 0-3-2-4-4l1-3Zm100-13 1-2 3-2 4 4-4 5-3-2-1-3Zm33-4 2 2 1 2c0 2-2 3-3 5l-4-4 1-3 3-2Zm-477 78 3 1 1 3-1 3-2 1c-2 0-3-2-4-4l1-3 2-1Zm-173 39-4-4 2-3 2-1 3 1 1 3-1 3-3 1Zm156-17-1-3 4-4 3 1 1 3-1 3-3 1-3-1Zm-28 0-2-3 2-2 2-2 3 2 1 2c0 2-2 3-4 4l-2-1Zm-24-6 1 3-1 3-3 1-2-1-1-3c0-2 2-3 3-4l3 1Zm1005-185 2-2 2 1 1 1 1 2-1 3-3 2-4-4 2-3ZM240 378l2-1 2 1h1l1 3-1 3-3 1c-2 0-3-2-4-4l2-3Zm317-62 3-1 2 1 1 3-1 3-2 1c-2 0-3-2-4-4l1-3Zm868-148-2-1-1-2-1-1 4-4c2 0 3 2 4 4l-1 3-3 1Zm-26-1-3 1-2-1-2-3 2-3 2-1c2 0 3 2 4 4l-1 3Zm-35-3 1-3 2-1c2 0 3 2 4 4 0 2-2 3-3 4l-3-1-1-3Zm-11 20-2-2-2-2c1-3 2-4 4-5l4 4-1 3-3 2Zm-227 27-1 2-3 2-4-4 4-5 3 2 1 3ZM413 353l-2-3 4-4 3 1 1 3-1 3-3 1-2-1Zm34-6 1 3-1 3-3 1-2-1-2-3 4-4 3 1Zm702-139 2-2 4 4-1 3-3 2-2-2-2-3 2-2Zm28 5-1-2c0-3 2-4 4-5l3 2 1 3-1 2-3 2-3-2ZM485 337l-1-3c0-2 2-3 3-4l3 1 1 3-1 3-3 1-2-1Zm-30-3c1-2 1-3 4-4l2 1 1 3-1 3-2 1-3-1-1-3Zm231-31 1-2 2-2 3 2 1 2c0 2-2 3-3 5l-3-2-1-3Zm419-80 3-1c2 0 3 2 4 4l-2 3-2 1-3-1-1-3 1-3Zm-26 7-3-1-1-3c0-2 2-3 4-4l4 4-1 3-3 1Zm-29-8 3 1 1 3c0 2-2 3-4 4l-4-4 2-3 2-1Zm147-30 1 3-1 3-3 1-2-1-1-3c0-2 2-3 3-4l3 1Zm98-8-2-2-1-2c0-3 2-4 3-5l4 4-1 3-3 2ZM505 322h-6v-6h6v6Zm-323 62v-6h5v6h-5Zm562-109v-6h6v6h-6Zm29 0v-6h6v6h-6Zm72-15v-6h6v6h-6Zm150-37v6h-5v-6h5Zm-72 21h-5v-5h5v5ZM283 368v-6h5v6h-5Zm-29 0v-6h5v6h-5Zm280-52v6h-6v-6h6Zm66-16h6v6h-6v-6Zm-245 53v-6h5v6h-5Zm669-124h-5v-6h5v6ZM433 331v6h-6v-6h6Zm239-40v-6h6v6h-6Zm496-93h-5v-6h5v6Zm96-21h5v5h-5v-5Zm-29 5v-5h5v5h-5Zm-139 26v5h-5v-5h5Zm245-47v6h-5v-6h5ZM301 322h-3l-1-4c1-3 3-3 4-2 2 1 2 3 2 4l-2 2Zm72 15h-2c-2-2-2-3 0-6l4 2c0 1 0 3-2 4ZM72 382c-1 2-3 2-4 2-2-1-2-3-2-5 1-2 3-1 5-1l1 4Zm29 0-2 2h-2c-2-1-2-3-2-5 1-2 3-1 4-1l2 1v3Zm24 2c-2-2-1-3-1-5 1-2 3-1 4-1 2 1 2 3 2 4l-2 2h-3Zm29-6h3c2 1 2 3 1 4-1 3-3 2-5 1 0-2-1-4 1-5Zm332-78h3c2 2 1 3 1 5-1 2-3 2-5 1-1-3-1-4 1-6Zm374-60 1-2h3c2 1 1 3 1 5-1 2-2 2-4 1l-1-1v-3Zm-23 0v3c-3 2-3 2-6 0 0-2-1-3 1-5 2 0 3 0 5 2Zm-35 3v-3c1-2 3-2 4-2 2 2 2 4 1 6l-5-1Zm-287 63-2-1c0-2 0-3 2-5 1 0 3 0 4 2 0 1 1 3-1 4h-3Zm27-4 2-2c1 0 3 0 4 2l-1 4c-2 0-3 1-5-1v-3Zm232-58-1-4c1-2 3-2 4-2 2 2 2 3 2 5l-1 1h-4Zm-30-1v-3c2-2 2-2 5-2 2 2 1 4 0 6l-5-1Zm-168 63h-3c-2-1-2-3-2-4 3-2 3-2 6 0l-1 4Zm-135-17v-3c2-2 3-2 6 0l-1 5c-2 0-3 0-5-2Zm29-3 1-1c2 0 4-1 5 1l-1 5c-2 0-3 1-5-2v-3Zm33-1 2 1c0 2 0 4-2 5l-4-1 1-5h3Zm26 6-1-1c0-2-1-4 1-5 2 0 3-1 4 1s1 3-1 5h-3Zm188-53h3l1 4c-1 3-3 3-4 2-2-1-2-3-1-4l1-2Zm177 5-1 1c-2 1-3 1-4-1s-1-3 1-4c1-1 3-1 4 1v3Zm-308 47v-4l4-1c2 2 2 4 1 6l-5-1Zm-461 57h3c2 1 2 3 2 4-2 3-4 2-6 1 0-2-1-4 1-5Zm119 6h-3c-2-1-2-3-2-5 2-2 4-2 6 0 0 2 1 3-1 5Zm29-6 1 1-1 5-5-1 1-5h4Zm28 6h-3l-1-5c2-2 4-2 5 0s1 3-1 5Zm30-2c-1 2-2 2-4 2l-1-5c1-2 3-1 4-1l1 1v3Zm-178-3 1-1h3c2 1 2 3 1 4-1 2-2 2-4 2l-1-1v-4Zm711-134h-3c-2-2-1-3-1-5 1-2 3-2 5-1 1 2 1 4-1 6Zm26-7h3c2 2 1 3 1 5-1 2-3 2-5 1-1-2-1-4 1-6Zm32 1c2 1 1 2 1 4-1 2-3 2-4 2-2-2-2-4-2-5l2-1h3Zm26-1h3l1 5c-2 2-4 2-5 1-1-2-1-4 1-6Zm27 5v-3c1-2 3-1 4-2 2 2 2 4 1 6l-5-1Zm30-5h4l1 5c-1 2-3 2-5 1l-1-4 1-2Zm29 0h4l1 5c-2 2-3 2-5 1s-1-2-1-4l1-2Zm33 2v3c-2 2-3 2-5 0 0-2-1-3 1-4 1-1 3-1 4 1Zm-523 60h3c2 3 2 3 0 6-3 1-3 0-5-1 0-2 0-3 2-5Zm32 0 1 5c-1 2-3 1-4 1-2-1-2-3-2-4l1-2h4Zm-172 67-2 1h-2c-3-1-2-3-2-4 1-2 3-2 4-2l2 2v3Zm-208 31v-4l4-1c2 1 2 3 2 5-1 2-3 1-5 1l-1-1Zm-29 0v-3c2-2 3-2 6 0l-1 4c-2 0-3 1-5-1Zm-29-3 2-2c1 0 3 0 4 2l-1 4c-2 0-3 1-4-1v-3h-1Zm-27 4-1-1c-1-2-1-4 1-5 1 0 3 0 4 2v3l-1 1h-3Zm-25-4v3c-1 2-3 1-4 1-2-2-2-3 0-5 2-1 3 0 4 1Zm475-73h-3c-2-2-2-3 0-6l4 1c1 2 1 3-1 5Zm43-22 2 2c0 1 0 3-2 4-1 0-3 1-4-1 0-1-1-3 1-4h3v-1Zm29 6h-3c-2-2-2-3 0-6 3 0 3 0 4 2 1 1 1 3-1 4ZM57 367l-1 1c-1 0-3 1-4-1 0-2-1-3 1-5 1 0 3 0 4 2v3Zm606-96v3c-1 1-1 2-4 1-2-1-2-3-1-5l5 1Zm29 0v3c-1 2-3 1-4 1-2-1-2-3-1-5 2-1 4 0 5 1Zm-510 80v-3l3-2c3 2 2 4 2 5-1 2-2 2-4 2l-1-2Zm533-77v-3c2-2 3-2 6 0 0 1 1 3-1 4s-3 1-5-1ZM10 384c-2-2-1-3-2-5l2-1h3c2 1 1 3 1 4l-1 2h-3Zm27-2v-3c2-2 3-2 6 0 0 2 1 4-1 5-2 0-3 0-5-2Zm217-46v-3c1-2 3-2 4-2 2 3 2 3 0 6l-4-1Zm-38 12v3c-2 3-3 3-5 0-1-1-1-3 1-4 1 0 3-1 4 1Zm10-17h3c2 2 2 3 0 6l-4-1c0-2-1-3 1-5Zm201-29 1-2c2 0 3 0 5 2 0 1 0 3-2 4-1 0-3 1-4-1v-3Zm34 3-1 1c-1 1-3 1-4-1 0-2-1-3 1-5h3l1 2v3Zm-91 1-1-1 1-5c2 0 4 0 5 2l-1 4h-4Zm34-4v3l-4 2c-3-2-2-4-2-5 1-2 3-2 4-2l2 2Zm-204 35h-3l-1-4c1-2 3-2 4-2 2 2 2 3 2 5l-2 1Zm87 0h-3c-2-1-1-3-1-4 1-2 3-2 5-1 1 2 1 4-1 5Zm30-4v3l-3 2c-3-2-2-4-3-5 2-2 3-2 5-2l1 2Zm23 0 4-2c2 1 2 3 2 5-1 2-3 1-4 1l-2-1v-3Zm-115 34v-4l4-1c2 1 2 3 2 5-2 2-3 1-5 1l-1-1Zm251-50v4l-4 1c-2-1-2-3-2-5 1-2 3-1 5-1l1 1Zm662-119h-3l-1-4c1-2 3-2 4-2 2 1 2 3 1 5l-1 1Zm-29-6 2 1c0 2 0 4-2 5l-4-1v-4l1-1h3Zm-27 1v3c-1 3-3 2-4 2-3-2-2-4-1-6l5 1ZM443 322c-2-1-2-3-2-4 1-3 3-2 5-2l1 4-1 2h-3Zm577-124c-2-1-2-3-2-4 1-3 3-2 5-2 2 1 1 3 1 5l-1 1h-3Zm-30-1v-3c1-3 2-2 4-2 2 3 2 3 0 6l-4-1Zm-28-5h3c2 2 2 3 0 6l-4-1c0-2-1-4 1-5Zm-29 0h3c2 1 2 3 1 5s-3 1-5 0c0-2-1-4 1-5Zm158-11v-3c1-2 2-1 4-2 2 2 2 4 1 6l-5-1Zm-125 43v4l-3 1c-3-1-2-3-2-4 1-3 2-2 4-2l1 1Zm-33-1h3c2 2 2 3 0 6l-4-1c0-2-1-4 1-5Zm-24 1v4l-4 1c-3-1-2-3-2-4 1-3 3-2 4-2l2 1Zm-91 30h3l1 4c-1 2-3 2-4 2-2-1-2-3-1-5l1-1Zm-25 5-1 1-4-1c-1-2-1-4 1-5 1 0 3-1 4 1v4Zm-33 1-1-1c0-2-1-4 1-5 2 0 3-1 4 1 0 2 1 3-1 5h-3Zm-26-6c2 1 2 3 2 4-1 3-3 2-5 2-2-1-1-3-1-5l1-1h3Zm-32 6-1-1 1-5c2 0 3-1 5 2l-2 4h-3Zm-26 0h-2c-2-2-2-3-1-6l5 1c0 2 0 3-2 5Zm-27-5v3c-2 3-3 3-6 1 0-2 0-4 2-5 1 0 3-1 4 1Zm-30-1 1 1c0 2 1 4-1 5l-4-1c-1-2-1-4 1-5h3Zm-4 32c1-2 2-1 4-1l1 5-4 1-1-1v-4Zm34 0v4l-4 1c-2-1-2-3-2-5 1-2 3-1 5-1l1 1Zm230-63 1 1-1 5-5-1 1-5h4Zm170-25-2-1c0-2 0-4 2-5l4 1-1 5h-3Zm-204 30v-3c1-3 3-2 5-2 2 2 1 4 0 6l-5-1Zm-23-4v4l-4 1c-2-1-2-3-2-4 2-3 3-2 5-2l1 1Zm384-46 1-1c2-1 3-1 5 1 0 1 0 3-2 5h-3l-1-2v-3Zm-29 3v-3c2-2 3-2 6 0l-1 5c-2 0-3 0-5-2Zm-27-4h2c3 1 2 3 2 4-3 2-3 2-6 0 0-1 0-3 2-4Zm-31 4v-3c2-2 3-2 6 0l-1 5c-2 0-3 0-5-2Zm-53 2h-3l-2-4c2-3 3-3 5-2s1 2 1 4l-1 2Zm-28-2c-1 2-2 2-4 2l-1-5c1-2 3-2 4-1l1 1v3Zm-250 43 1-1c1 0 3-1 4 1 0 2 1 4-1 5-1 0-3 1-4-1v-4Zm-97 21h-3c-2-3-2-4 0-7l4 2c0 1 1 3-1 5Zm-277 77-1-2c-1-1-1-3 1-4 1 0 3-1 4 1 0 2 1 3-1 5h-3Zm-30-2v-3c2-2 3-2 5 0 0 2 1 4-1 5-1 0-3 0-4-2Zm-28 2-1-2c0-1-1-3 1-4 2 0 3-1 4 1s1 3-1 5h-3Zm-29-6h3c2 1 2 3 2 4-2 3-4 2-6 1 0-2-1-4 1-5Zm984-149h-3l-1-4c1-2 3-2 4-2 2 1 2 3 2 5l-2 1Zm-33-5 1-1c2 0 4-1 5 1l-1 5h-4l-1-1v-4Zm-28 5-1-1c0-2 0-4 2-5l4 1v4l-1 1h-4Zm-30-1c0-2 0-4 2-5l4 1c0 2 1 4-1 5-2 0-3 1-5-1Zm-28 0v-3c2-3 2-3 5-1l-1 5c-2 0-3 1-4-1Zm-28 1-1-1c0-2-1-4 1-5l4 1v4l-1 1h-3Zm-26 0h-3l-1-5c2-2 3-1 5 0 1 2 1 4-1 5Zm-27-5v4l-5 1v-6c2 0 3-1 5 1ZM288 303l-3 3-2-3 2-3 3 3Zm27 4-4-4 3-3 4 3-3 4Zm28-7 3 3-3 4-3-4 4-3h-1Zm-230 31 3 3-3 4-4-4 4-3Zm245-47 3 4-3 3-4-3 4-4Zm31 4-3 3-3-3 4-4 2 4Zm131-16-4 4-3-4 3-3 4 3Zm288-61-3 3-3-3 3-4 3 4Zm-144 30-3 4-4-4 3-3 4 3Zm-32-3 3 4-4 3-3-3 4-4Zm-26 4-3 3-3-3 3-4 3 4Zm-190 49-4-3 3-4 3 3-2 4Zm176-34-4 3-3-3 4-3 3 3Zm-32 3-4-3 4-3 3 3-3 3Zm-26-3-4 3-2-4 2-3 4 4Zm228-28-3-3 3-3 3 3-3 3Zm112-34 3-3 2 4-2 3-3-4ZM23 365l3-3 3 3-3 4-3-4Zm-29 0 3-3 3 3-3 4-3-4Zm1010-185 3-4 3 4-4 2-2-2Zm-29-1 3-3 3 3-3 4-3-4Zm-26 4-3-4 4-2 2 2-3 4Zm-28-7 2 4-3 3-3-3 4-4Zm-191 50 3-4 3 4-3 4-3-4Zm179-31-3 3-3-3 3-3 3 3Zm-208 31 3-3 3 3-4 3-2-3Zm147-28-3-3 4-3 2 3-3 3Zm-360 78-4-4 4-2 3 2-3 4Zm-30-7 4 3-3 4-3-3 2-4Zm-25 4-3 3-4-3 4-4 3 4ZM95 350l3-3 3 3-3 3-3-3Zm-29 0 4-3 2 3-3 3-3-3Zm-26-4 3 4-4 2-2-2 3-4Zm793-132-2-4 3-3 3 3-4 4ZM274 318l-3 4-3-4 3-3 3 3Zm401-96 3 4-3 3-3-3 3-4Zm-430 97-3 3-3-3 3-4 3 4Zm-35-1 3-3 3 4-3 3-3-4Zm-26-3 4 4-4 3-3-3 3-4Zm592-108 3 4-4 2-2-2 3-4ZM173 334l-3 4-3-3 3-4 3 3Zm-35 1 3-4 3 3-3 4-3-3Zm938-171 3-3 3 4-3 3-3-4Zm-23 0-3 3-3-3 3-3 3 3Zm-29 0-3 3-3-3 3-3 3 3ZM273 290h-4v-4h4v4Zm25-4h4v4h-4v-4Zm33 0v4h-4v-3c1-2 2-1 4-1ZM10 352v-4h3v4H9h1Zm566-112v3h-4v-3h4Zm-29 3h-4v-3l4-1v4Zm-33 0v-3h4v3h-4Zm-25 0h-3v-3l3-1v4Zm-32 1v-4h3v3l-3 1Zm-25-1h-4v-3l4-1v4Zm-33 0v-3h4v3h-4ZM85 336h-3v-4h3v4Zm-29-4v4h-3v-4h4-1Zm-32 0h4v4h-4v-4Zm57-31h4v4h-3l-1-4Zm33 0v4h-3l-1-3c1-2 3 0 4-1Zm25 0h4v4h-3c-2 0 0-2-1-4Zm62 4h-4v-4h4v4Zm29 0h-4v-4h4v4Zm28-4v4h-3v-4h3Zm390-77v4h-4v-4h4Zm-33 4v-4h4v4h-4Zm-28 0v-4h3v3c0 2-2 1-3 1Zm-26-4v4h-3v-3c0-2 2-1 3-1Zm-32 4v-4h3l1 4h-4Zm-25 0h-4v-4h4v4Zm-336 77v-4h4v4h-4ZM10 317h3v4h-3v-4Zm28 4v-4h4v3c-1 2-2 1-4 1Zm707-112h4v3l-4 1v-5 1Zm-29 3v-3h4v3h-4Zm-28-3h3v3l-3 1v-5 1Zm-58 3v-3h3l1 3h-4Zm-25-3v3h-4v-3h4Zm-28 3h-5v-3l3-1c2 1 0 3 2 4Zm316-30h-3v-4l3-1v5Zm-29-4v3h-3v-3h3Zm-32 3v-3h3l1 3h-4Zm-30-3h5v3l-3 1c-2-1 0-3-2-4Zm-24 0v3h-4v-3h4Zm-29 0v3h-4v-3h4ZM71 321h-4v-4h4v4Zm29-4v4h-4v-4h4Zm24 0h5v4h-3c-2-1-1-3-2-4Zm33 0v4h-3v-4h4-1Zm0-27h-3v-4h3v4Zm29-4v4h-3v-4h3Zm25 0h4v4h-3c-2-1 0-3-1-4Zm289-31h4v4h-4v-4Zm-97 16v3h-4v-3h4Zm-29 0v3h-4v-3h4Zm-33-1h4v4h-3c-2 0 0-2-1-4Zm-25 1v3h-3l-1-3h4Zm-29 3h-3v-3l3-1v4Zm-29 0h-3v-3l3-1v4Zm217-15h-4v-4h4v4Zm-33-4h4v4h-4v-4Zm-25 4h-3v-4h3v4Zm-29-4v4h-3v-3c0-2 2-1 3-1Zm-29 4h-3v-4h3v4Zm-33-4h5v4h-3c-2-1-1-2-2-4Zm336-46v3h-3v-3h3Zm-418 77v4h-4v-3c1-2 3-1 4-1Zm577-93v4h-3l-1-4h4Zm-32 0h3v4h-3v-4Zm-29 0h3v4h-3v-4Zm-29 4v-4h3l1 3c-1 2-3 1-4 1Zm-29 0v-4h4v4h-4Zm-29 0v-4h4v4h-4Zm-29-4h4v4h-3c-2-1 0-2-1-4Zm347-27v-4h3v4h-3Zm-29 0v-4h3v4h-3Zm-29 0v-4h3l1 3c-1 2-3 1-4 1Zm-29 0v-4h4v4h-4Zm-29-4h4v4h-4v-4Zm-25 0v4h-4v-4h4Zm-29 4h-3v-4h3v4Zm-490 60-2 3-2-3 1-2 3 2Zm26-3 3 3-2 2-3-2c1-1 2-1 2-3Zm190-13-2 3-2-2 2-3 3 2h-1Zm-28 0-2 3-3-2 2-3 3 2Zm-29 0-2 3-3-2 2-3 3 2Zm-29 1-2 3-3-4 2-2 3 3Zm-34-1 3-2 2 2-2 3-3-3Zm-23 1-3 3-2-4 2-2 3 3Zm-32-3 2 2-2 3-2-2 2-3Zm-29 6-1-4 1-2 2 2-2 4Zm-29-1-2-2 2-3 3 2-3 3Zm-31-3 2-2 3 2-2 3-3-3Zm-29 0 2-2 3 2-2 3-3-3Zm-24 1-2 2-2-2 2-3 2 3Zm154 15 2-2 3 2c-1 1-2 1-2 3l-3-3Zm32 2-3-2 2-2 3 2-3 3 1-1Zm28-5 2 3-1 2-3-2 2-3Zm26 3 3-3 2 3-2 2-3-2ZM40 260l-2-3 2-2 3 2-3 3Zm31-3-2 2-2-2 2-2 2 2Zm27-3 3 3-3 2-2-2 2-3Zm55 3 3-3 2 3-2 2-3-2Zm32-3 2 3-3 2-2-2 3-3Zm31 3-3 2-2-2 2-2 3 2Zm26 2-2-2 2-2 2 2-2 2Zm29 1-1-4 1-2 2 3-2 3Zm32-3-3 3-2-3 2-3 3 3Zm-176 34-3-3 3-2 2 2-2 3Zm-32-3 3-3 2 3-2 2-3-2Zm-26-3 3 3-3 2-2-2 2-3Zm-31 3 2-3 2 3-1 2-3-2Zm-27-3 3 3-2 2-3-2 2-3Zm17-13-2 3-2-2 1-3 3 2Zm26 3-2-2 2-3 3 2-3 3Zm32-3-3 4-2-4 2-2 3 2Zm26-2 3 2-2 3-3-2 2-3Zm29 5-2-2 2-3 3 2-3 3Zm577-93-2-2 2-3 3 2-3 3Zm-31-3 3-3 2 4-2 2-3-3Zm-26 3-3-3 3-2 2 2-2 3Zm-32-3 3-3 2 4-2 2-3-3Zm-26 4-2-4 2-2 2 2-2 4Zm-29-1-2-2 2-3 2 2-2 3Zm-26-2-3 2-2-2 2-3 3 3Zm-32 2-2-2 2-3 3 2-3 3Zm-31-3 3-3 2 4-2 2-3-3Zm-24 1-2 3-3-3 2-3 3 3Zm-31 2-3-2 2-3 3 2-2 3Zm-29 1-2-4 2-2 2 2-2 4Zm-234 89 3-2 2 2-2 3-3-3ZM57 303l-2 3-3-2 2-3 3 2Zm99-80 2 3-2 2-3-2 3-3Zm26 3 2-3 3 3-2 2-3-2ZM28 303l-2 4-2-4 2-2 2 2Zm55-64 3 2-2 3-3-2 2-3Zm29 0 3 2-2 3-3-2 2-3Zm27 2 2-3 2 3-2 3-2-3Zm33 0-2 3-2-2 2-3 2 2Zm27 4-2-4 2-2 2 2-2 4Zm26-4 3-3 2 3-2 3-3-3Zm29 0 3-3 2 3-2 3-3-3Zm-29 31 3-2 2 2-2 3-3-3Zm61-33 2 2-2 3-3-2 3-3Zm31 2-3 4-2-4 2-2 3 2Zm23 0 3-2 2 2-2 3-3-3Zm32 3-2-2 2-3 2 2-2 3Zm-173 32-2-5 2-1 2 2-2 4ZM14 257l-3 2-2-2 2-2 3 2Zm199-28-1-4 1-1 3 2-3 3Zm404-37 3 3-3 2-2-2 2-3Zm-31 3 2-2 3 2c-1 1-2 1-2 3l-3-3Zm-29 0 2-2 3 2-2 3-3-3Zm-27 3-1-4 2-1 2 2-3 3Zm-31-3 3-3 2 3-2 2-3-2Zm-29 0 3-3 2 3-2 2-3-2Zm-26-3 3 3-3 2-2-2 2-3Zm-26 3-3 3-2-3 2-2 3 2Zm-31-3 1 4-1 1-3-2 3-3Zm-29 6-3-3 2-2 3 2-2 3Zm-27-3-2 2-2-2 2-3 2 3Zm-89 34-1-4 1-1 2 2-2 3Zm26-3 3-3 2 3-2 2-3-2Zm-141 28 2 3-2 2-2-2 2-3Zm176-28-3 3-2-3 2-2 3 2Zm490-62-2 2-3-2 2-3 3 3Zm-31-3 1 4-1 2-3-3 3-3Zm-29 0 1 4-1 2-3-3 3-3Zm-27 3-2 3-2-3 2-2 3 2h-1Zm-31-3 2 3-2 2-2-2 2-3Zm-29 6-3-3 3-2 2 2-2 3Zm-31-3 2-3 2 3-2 3-2-3Zm-27-2 3 2-2 2-3-2 2-2Zm-28-1 1 4-1 2-3-3 3-3Zm-32 3 3-2 2 2-2 3-3-3Zm-26 3-3-3 3-2 2 2-2 3Zm-26-3-3 3-2-3 2-2 3 2Z"/>
</svg>
